<svg width="40" height="40" viewBox="0 0 40 40" fill="none" xmlns="http://www.w3.org/2000/svg">
<path d="M19.9003 3.69531C19.9302 3.69531 19.9601 3.69531 19.9909 3.69531C20.0068 3.72393 20.0227 3.75255 20.0391 3.78203C20.3648 4.3679 20.6949 4.9505 21.0342 5.52865C21.1882 5.79163 21.3392 6.05591 21.486 6.32299C21.6568 6.63354 21.8335 6.94028 22.0127 7.24608C22.2453 7.64309 22.4756 8.04133 22.7036 8.44099C22.7186 8.46733 22.7336 8.49367 22.7491 8.52081C22.8257 8.65509 22.9022 8.7894 22.9788 8.92371C23.1187 9.16922 23.259 9.41454 23.3992 9.65987C23.4753 9.79292 23.5513 9.92599 23.6273 10.0591C23.6561 10.1094 23.6849 10.1597 23.7145 10.2116C23.9374 10.6016 23.9374 10.6016 24.0035 10.7173C24.0467 10.7929 24.0899 10.8685 24.1331 10.9441C24.2591 11.1646 24.3851 11.3852 24.511 11.6058C24.572 11.7127 24.6331 11.8197 24.6941 11.9266C24.7094 11.9534 24.7247 11.9802 24.7405 12.0078C24.9637 12.3986 25.1881 12.7886 25.4133 13.1782C25.6483 13.5846 25.8805 13.9924 26.1109 14.4014C26.3256 14.7821 26.5439 15.1608 26.7627 15.5391C26.9436 15.852 27.1233 16.1656 27.302 16.4798C27.4859 16.8029 27.674 17.1229 27.868 17.44C27.9714 17.6123 28.066 17.7893 28.1618 17.966C28.2947 18.2087 28.4329 18.4484 28.5705 18.6884C28.6023 18.7439 28.6341 18.7995 28.6659 18.855C28.7317 18.97 28.7975 19.0849 28.8634 19.1998C29.017 19.4681 29.1704 19.7366 29.3237 20.0051C29.3837 20.1099 29.4436 20.2148 29.5035 20.3197C29.5337 20.3725 29.5638 20.4252 29.594 20.478C29.6166 20.5176 29.6166 20.5176 29.6397 20.558C29.8406 20.9097 30.0416 21.2613 30.2426 21.613C30.2701 21.6613 30.2977 21.7095 30.3261 21.7592C30.3846 21.8616 30.443 21.9639 30.5014 22.0663C30.7249 22.4585 30.9518 22.8486 31.1801 23.2381C31.3011 23.4451 31.4219 23.6522 31.5403 23.8607C31.5585 23.8928 31.5768 23.9248 31.5956 23.9578C31.6343 24.0372 31.6343 24.0372 31.6343 24.1278C31.2809 24.0835 30.9292 24.0345 30.5781 23.9749C30.5084 23.9633 30.4388 23.9516 30.3691 23.94C30.2502 23.9202 30.1315 23.8999 30.0128 23.8789C28.6741 23.643 27.3391 23.6204 25.984 23.6157C25.8851 23.6153 25.7861 23.6147 25.6872 23.614C24.8373 23.6085 24.0056 23.6497 23.1623 23.7654C23.11 23.7723 23.0577 23.7793 23.0038 23.7865C20.7899 24.0832 18.6166 24.6697 16.5931 25.6229C16.5436 25.6458 16.4941 25.6687 16.4431 25.6924C15.4629 26.1475 14.5302 26.6649 13.6152 27.2395C13.574 27.2651 13.5328 27.2907 13.4904 27.317C13.4541 27.3398 13.4178 27.3627 13.3804 27.3862C13.2858 27.435 13.2858 27.435 13.1499 27.435C13.136 27.4094 13.1222 27.3837 13.1079 27.3572C12.8042 26.7952 12.4933 26.2385 12.1714 25.6869C12.0595 25.4943 11.9492 25.3009 11.8389 25.1075C11.8162 25.0677 11.7935 25.028 11.7701 24.987C11.6794 24.8282 11.5889 24.6693 11.4983 24.5105C10.7765 23.2427 10.7765 23.2427 10.0383 21.9844C9.91645 21.7789 9.80173 21.57 9.6878 21.36C9.35313 20.745 9.00741 20.1362 8.65339 19.5322C8.57605 19.3997 8.49875 19.2672 8.42147 19.1346C8.37265 19.0512 8.32364 18.9679 8.2744 18.8847C8.20751 18.7715 8.14153 18.6578 8.07575 18.544C8.05582 18.5108 8.03589 18.4776 8.01536 18.4434C7.96249 18.3507 7.96249 18.3507 7.89453 18.1929C7.93082 18.0814 7.96444 18.0264 8.06007 17.9581C8.08989 17.9435 8.11971 17.929 8.15043 17.914C8.18429 17.8969 8.21814 17.8799 8.25302 17.8623C8.28983 17.8443 8.32664 17.8263 8.36457 17.8078C9.7056 17.1251 11.0056 16.2678 12.1532 15.2934C12.2015 15.2529 12.2499 15.2124 12.2983 15.1719C12.603 14.9166 12.9017 14.6555 13.1952 14.3873C13.2422 14.3445 13.2891 14.3018 13.3361 14.2591C13.6689 13.9557 13.9862 13.6429 14.2938 13.3141C14.324 13.2818 14.3543 13.2495 14.3854 13.2163C14.6108 12.9749 14.8349 12.7327 15.0527 12.4845C15.09 12.4422 15.1273 12.3999 15.1658 12.3563C15.5034 11.9686 15.8078 11.5582 16.1083 11.1414C16.1794 11.0429 16.251 10.9447 16.3226 10.8466C16.8739 10.0851 17.3729 9.28127 17.8163 8.45232C17.8366 8.41436 17.857 8.3764 17.8779 8.33729C18.5916 6.99998 19.2216 5.62958 19.7025 4.19066C19.7596 4.02117 19.8277 3.85874 19.9003 3.69531Z" fill="white"/>
<path d="M7.39562 18.4141C7.99573 19.452 8.59263 20.4917 9.18147 21.5361C9.35189 21.8379 9.52493 22.1381 9.69919 22.4378C9.85847 22.7122 10.0148 22.9881 10.1705 23.2645C10.5467 23.9318 10.9283 24.5959 11.3161 25.2565C11.6303 25.7919 11.9374 26.3304 12.2365 26.8744C12.3828 27.14 12.5327 27.4017 12.6933 27.659C12.7416 27.7469 12.7416 27.7469 12.7416 27.8375C12.6891 27.8631 12.6366 27.8887 12.5825 27.9152C12.3916 28.0107 12.2083 28.1159 12.0252 28.2254C11.9574 28.2656 11.8897 28.3058 11.8219 28.3459C11.787 28.3666 11.7521 28.3873 11.7161 28.4086C11.5376 28.5138 11.3581 28.6173 11.1786 28.7209C10.8743 28.8966 10.571 29.0739 10.2685 29.2525C10.1019 29.3507 9.93487 29.4482 9.76722 29.5447C9.7316 29.5652 9.69597 29.5857 9.65926 29.6069C9.5867 29.6486 9.51412 29.6903 9.44152 29.732C9.22748 29.8555 9.01708 29.9835 8.80811 30.1154C8.13399 30.5387 7.44579 30.8276 6.67074 31.0088C6.60215 31.0255 6.60215 31.0255 6.53217 31.0426C5.23782 31.3088 3.82355 30.9411 2.72515 30.2399C2.43505 30.0352 2.17134 29.8029 1.91374 29.5591C1.86117 29.5101 1.86117 29.5101 1.80755 29.4601C0.819965 28.5114 0.293143 27.1477 0.263759 25.7915C0.255516 24.1825 0.832328 22.7751 1.96169 21.6265C2.0484 21.5474 2.13764 21.4754 2.23087 21.4042C2.29114 21.3569 2.29114 21.3569 2.35263 21.3086C2.83708 20.9453 3.36542 20.6563 3.89135 20.358C4.12422 20.2253 4.35547 20.0899 4.58672 19.9544C5.01629 19.7032 5.44725 19.4544 5.8789 19.2068C6.11348 19.0718 6.34677 18.9352 6.57766 18.794C6.61934 18.7686 6.66102 18.7431 6.70397 18.7169C6.78162 18.6692 6.85906 18.6212 6.93625 18.5728C6.98756 18.5413 6.98756 18.5413 7.03991 18.5091C7.08418 18.4814 7.08418 18.4814 7.12934 18.4532C7.2144 18.4141 7.2144 18.4141 7.39562 18.4141Z" fill="white"/>
<path d="M21.2401 0.169468C21.5466 0.391855 21.7393 0.657252 21.9202 0.986194C21.9403 1.02164 21.9603 1.05709 21.981 1.09362C22.1124 1.32672 22.2398 1.56203 22.3677 1.79704C22.7363 2.47092 23.1163 3.13847 23.5027 3.80224C23.8794 4.44998 24.2526 5.09956 24.6201 5.75254C24.822 6.11055 25.029 6.46547 25.2369 6.8201C25.4419 7.17065 25.6422 7.52368 25.8412 7.87771C26.0157 8.18748 26.1942 8.49473 26.3742 8.80128C26.6349 9.2453 26.8861 9.6941 27.1349 10.1448C27.3091 10.4598 27.4874 10.7718 27.6715 11.0812C27.8019 11.3007 27.9272 11.5226 28.0505 11.7461C28.3742 12.3324 28.7056 12.9143 29.0472 13.4903C29.2318 13.8017 29.4091 14.117 29.5852 14.4332C29.82 14.8547 30.0599 15.2727 30.3039 15.6888C30.5064 16.0345 30.7062 16.3817 30.9047 16.7296C30.9198 16.7561 30.9349 16.7826 30.9505 16.8098C31.0273 16.9445 31.104 17.0791 31.1808 17.2137C31.317 17.4528 31.4536 17.6916 31.5901 17.9305C31.6353 18.0095 31.6804 18.0885 31.7256 18.1675C31.8627 18.4075 31.9998 18.6475 32.1371 18.8874C32.2143 19.0223 32.2915 19.1573 32.3686 19.2922C32.3838 19.3187 32.3989 19.3451 32.4145 19.3724C32.6185 19.7291 32.8211 20.0866 33.0227 20.4446C33.2505 20.8491 33.4837 21.2503 33.7184 21.6507C33.8915 21.9467 34.06 22.2447 34.225 22.5452C34.4136 22.8872 34.6118 23.2235 34.8108 23.5595C35.3761 24.5195 35.3761 24.5195 35.228 25.1135C35.1094 25.4428 34.9339 25.7007 34.6197 25.8642C34.3115 26.0066 33.9702 26.0469 33.6425 25.9453C33.1483 25.7201 32.9217 25.2907 32.6745 24.8279C32.6147 24.7179 32.5547 24.6081 32.4946 24.4983C32.4796 24.4707 32.4645 24.4431 32.449 24.4147C32.3029 24.1472 32.1496 23.8842 31.9949 23.6216C31.7451 23.197 31.5023 22.769 31.2634 22.3382C31.127 22.0927 30.9869 21.8504 30.8415 21.6101C30.7246 21.4145 30.614 21.2154 30.5027 21.0166C30.2966 20.6502 30.087 20.2861 29.874 19.9236C29.6437 19.5312 29.4201 19.1355 29.2001 18.7372C28.9622 18.3063 28.7185 17.88 28.4669 17.457C28.3444 17.2496 28.2261 17.0397 28.107 16.8303C27.9844 16.6149 27.8613 16.3998 27.7383 16.1847C27.6043 15.9504 27.4706 15.716 27.3372 15.4814C27.2758 15.3737 27.2144 15.2659 27.1529 15.1581C27.1376 15.1313 27.1223 15.1044 27.1065 15.0768C26.8734 14.6681 26.6367 14.2617 26.3951 13.858C26.2563 13.6251 26.1239 13.3895 25.9948 13.1511C25.8838 12.9467 25.7695 12.7442 25.655 12.5418C25.6297 12.497 25.6044 12.4522 25.5784 12.4061C25.3972 12.0863 25.2125 11.7686 25.0264 11.4516C24.7961 11.0592 24.5724 10.6635 24.3525 10.2652C24.1537 9.90503 23.9524 9.54712 23.7417 9.19374C23.5778 8.91756 23.4214 8.63733 23.2652 8.35673C23.0275 7.92993 22.7843 7.50679 22.5371 7.08541C22.334 6.73866 22.1355 6.38949 21.9384 6.03926C21.7524 5.70898 21.5636 5.3804 21.3737 5.0523C21.1348 4.63936 20.8986 4.22498 20.6649 3.80906C20.5117 3.53707 20.355 3.26729 20.1965 2.99833C19.2956 1.46952 19.2956 1.46952 19.4292 0.854173C19.5465 0.509744 19.7708 0.291537 20.0799 0.10682C20.4626 -0.0649587 20.8764 -0.0190429 21.2401 0.169468Z" fill="white"/>
<path d="M11.6526 29.1423C11.7438 29.1997 11.8135 29.2583 11.8893 29.3347C11.9289 29.3744 11.9289 29.3744 11.9693 29.4149C11.9968 29.4429 12.0243 29.471 12.0527 29.5C12.0813 29.5289 12.1099 29.5578 12.1394 29.5876C12.3012 29.7521 12.4565 29.9197 12.605 30.0964C12.7685 30.2774 12.9451 30.4462 13.1203 30.6158C13.1608 30.6555 13.1608 30.6555 13.2021 30.696C13.2267 30.7197 13.2512 30.7435 13.2765 30.768C13.3297 30.8308 13.3297 30.8308 13.3297 30.9214C13.397 30.9438 13.397 30.9438 13.4656 30.9667C13.5339 31.0361 13.5339 31.0361 13.6072 31.1253C13.7566 31.3018 13.9155 31.4641 14.0815 31.6251C14.1713 31.7172 14.2553 31.8108 14.3391 31.9082C14.5073 32.1021 14.6869 32.2821 14.8701 32.4618C15.0793 32.667 15.2793 32.8754 15.4705 33.0975C15.6034 33.2473 15.7465 33.3863 15.8894 33.5264C16.0912 33.7261 16.2876 33.9261 16.4708 34.1432C16.6 34.2893 16.7408 34.4239 16.8805 34.56C16.9733 34.6551 17.0601 34.7509 17.1466 34.8516C17.3291 35.0621 17.5257 35.2567 17.7243 35.4519C17.949 35.6729 18.1663 35.8956 18.3716 36.1347C18.5294 36.3125 18.7026 36.4755 18.8734 36.6406C18.9006 36.6673 18.9278 36.694 18.9558 36.7215C18.9804 36.7453 19.0049 36.7691 19.0302 36.7936C19.0834 36.8564 19.0834 36.8564 19.0834 36.947C19.1283 36.9619 19.1731 36.9769 19.2193 36.9923C19.2844 37.0585 19.2844 37.0585 19.3552 37.1452C19.4724 37.2842 19.5946 37.4136 19.7253 37.5399C20.0195 37.825 20.2914 38.0895 20.3151 38.5192C20.2967 38.7445 20.2263 38.9423 20.054 39.0938C19.8129 39.281 19.5525 39.433 19.2873 39.5831C19.2466 39.6067 19.2059 39.6303 19.1639 39.6545C18.6789 39.9309 18.2565 40.0712 17.6908 39.9574C17.2837 39.8204 16.9868 39.4925 16.7125 39.1747C16.5452 38.9814 16.3663 38.8022 16.1839 38.6232C15.9747 38.418 15.7747 38.2096 15.5834 37.9876C15.4506 37.8378 15.3074 37.6987 15.1645 37.5586C14.9667 37.3628 14.7746 37.1668 14.5952 36.9539C14.4393 36.7803 14.2709 36.6188 14.1051 36.4547C13.9433 36.2939 13.7897 36.13 13.6424 35.9557C13.4963 35.7929 13.3387 35.6413 13.1832 35.4875C13.0236 35.329 12.8723 35.1668 12.7271 34.995C12.5993 34.8509 12.4594 34.719 12.3204 34.5858C12.2424 34.5005 12.2424 34.5005 12.2424 34.4099C12.2162 34.399 12.1901 34.3882 12.1631 34.377C12.0406 34.3076 11.9714 34.2281 11.8799 34.1211C11.7181 33.9363 11.5508 33.7609 11.3759 33.5887C11.232 33.4466 11.0902 33.3046 10.9597 33.1498C10.801 32.963 10.6269 32.7927 10.4528 32.6203C10.2545 32.4239 10.0612 32.2277 9.88175 32.0137C9.72938 31.844 9.56422 31.6864 9.40019 31.5281C9.33413 31.4634 9.27033 31.3964 9.20695 31.3292C9.20695 31.2993 9.20695 31.2694 9.20695 31.2386C9.18009 31.2269 9.15323 31.2152 9.12555 31.2032C9.01773 31.1435 8.95733 31.0833 8.87849 30.9894C8.8431 30.948 8.8431 30.948 8.807 30.9058C8.75391 30.8308 8.75391 30.8308 8.75391 30.7402C8.93039 30.6382 9.10689 30.5363 9.28341 30.4344C9.32328 30.4114 9.32328 30.4114 9.36396 30.3879C9.64162 30.2276 9.91939 30.0675 10.198 29.9088C10.2385 29.8857 10.2789 29.8627 10.3206 29.8389C10.3987 29.7945 10.4769 29.7502 10.5551 29.7059C10.7347 29.6039 10.9122 29.5 11.0868 29.3895C11.1181 29.3699 11.1495 29.3502 11.1818 29.33C11.2395 29.2935 11.2969 29.2564 11.3537 29.2185C11.5401 29.1009 11.5401 29.1009 11.6526 29.1423Z" fill="white"/>
<path d="M31.7246 1.5625C32.7884 1.77524 33.8602 2.27497 34.7601 2.87634C34.789 2.89532 34.8179 2.9143 34.8476 2.93386C35.1945 3.16212 35.5268 3.39335 35.829 3.67979C35.9209 3.76631 36.0144 3.84912 36.1098 3.93162C36.6095 4.36731 37.071 4.84101 37.4631 5.37605C37.5046 5.43267 37.5465 5.48901 37.5887 5.5451C38.5087 6.76861 39.1349 8.18256 39.4718 9.67207C39.4843 9.72685 39.4969 9.78163 39.5098 9.83807C39.8255 11.3049 39.7978 12.9007 39.4973 14.3668C39.4833 14.4358 39.4833 14.4358 39.4691 14.5063C39.4598 14.5487 39.4504 14.5911 39.4408 14.6347C39.4285 14.6916 39.4285 14.6916 39.416 14.7497C39.4045 14.7784 39.393 14.8072 39.3812 14.8368C39.2001 14.8972 39.0775 14.8414 38.9026 14.7858C38.8336 14.7647 38.7645 14.7436 38.6954 14.7225C38.6595 14.7115 38.6235 14.7004 38.5865 14.6891C38.4011 14.6334 38.2144 14.5822 38.0277 14.531C37.6756 14.4344 37.6756 14.4344 37.5237 14.3838C37.5506 14.0878 37.5984 13.7985 37.6549 13.5069C38.0667 11.2949 37.5019 8.84534 36.2381 6.99342C36.1839 6.91942 36.1291 6.84583 36.0739 6.77256C36.0409 6.72695 36.0078 6.68133 35.9737 6.63434C35.2538 5.66237 34.325 4.85973 33.265 4.28079C33.2376 4.2657 33.2101 4.25061 33.1819 4.23507C32.5969 3.91777 31.9292 3.58192 31.2716 3.4653C31.2474 3.15331 31.3365 2.88192 31.4245 2.58469C31.4532 2.48566 31.4819 2.38661 31.5105 2.28755C31.5241 2.2409 31.5377 2.19424 31.5517 2.14618C31.5839 2.03265 31.6136 1.91906 31.6415 1.80442C31.6793 1.65311 31.6793 1.65311 31.7246 1.5625Z" fill="white"/>
<path d="M30.4554 6.41406C31.7326 6.62306 32.8783 7.52078 33.6267 8.54339C33.6506 8.57554 33.6746 8.6077 33.6992 8.64082C33.8997 8.91701 34.0572 9.20011 34.2015 9.50895C34.2231 9.55495 34.2447 9.60096 34.267 9.64836C34.4157 9.97006 34.5482 10.2798 34.6234 10.6274C34.6299 10.657 34.6365 10.6865 34.6432 10.717C34.8422 11.6564 34.8325 12.6456 34.5781 13.5722C34.3062 13.5339 34.0426 13.4639 33.7768 13.3967C33.7303 13.385 33.6839 13.3734 33.636 13.3615C33.3298 13.2845 33.0249 13.2034 32.7206 13.1192C32.7605 12.6865 32.7605 12.6865 32.7889 12.5803C32.9906 11.7184 32.6961 10.713 32.241 9.97863C31.8564 9.38849 31.4183 8.9929 30.8178 8.634C30.7797 8.61052 30.7417 8.58705 30.7024 8.56286C30.4649 8.42218 30.224 8.3401 29.957 8.27156C29.9874 8.02145 30.0416 7.78414 30.1071 7.54102C30.1171 7.50347 30.1271 7.46592 30.1374 7.42724C30.3569 6.61095 30.3569 6.61095 30.4554 6.41406Z" fill="white"/>
</svg>
