<svg width="38" height="40" viewBox="0 0 38 40" fill="none" xmlns="http://www.w3.org/2000/svg">
<path d="M36.222 9.0749L20.2222 0.314971C19.8481 0.108367 19.4277 0 19.0004 0C18.573 0 18.1527 0.108367 17.7786 0.314971L1.7787 9.0749C1.37835 9.29395 1.04426 9.6166 0.811392 10.0091C0.578528 10.4016 0.455462 10.8494 0.455078 11.3058V28.6947C0.455462 29.1511 0.578528 29.599 0.811392 29.9914C1.04426 30.3839 1.37835 30.7066 1.7787 30.9256L17.7786 39.6855C18.1528 39.8918 18.5731 40 19.0004 40C19.4277 40 19.848 39.8918 20.2222 39.6855L36.222 30.9256C36.6224 30.7066 36.9565 30.3839 37.1894 29.9914C37.4222 29.599 37.5453 29.1511 37.5457 28.6947V11.3058C37.5453 10.8494 37.4222 10.4016 37.1894 10.0091C36.9565 9.6166 36.6224 9.29395 36.222 9.0749ZM18.8186 2.22768C18.8721 2.1984 18.9321 2.18305 18.9931 2.18305C19.0541 2.18305 19.1141 2.1984 19.1676 2.22768L34.3657 10.5458L28.1948 13.9221L12.8277 5.51129L18.8186 2.22768ZM17.9095 37.2728L2.81869 29.0129C2.76293 28.9807 2.71672 28.9343 2.68477 28.8784C2.65283 28.8225 2.6363 28.7591 2.63688 28.6947V12.484L17.9095 20.8475V37.2728ZM3.63505 10.5458L10.5568 6.75492L25.9221 15.1658L19.0004 18.953L3.63505 10.5458ZM35.3639 28.6947C35.3644 28.7591 35.3479 28.8225 35.316 28.8784C35.284 28.9343 35.2378 28.9807 35.1821 29.0129L20.0913 37.2728V20.8439L26.6367 17.2603V24.3639C26.6367 24.6532 26.7516 24.9307 26.9562 25.1352C27.1608 25.3398 27.4382 25.4548 27.7276 25.4548C28.0169 25.4548 28.2944 25.3398 28.499 25.1352C28.7035 24.9307 28.8185 24.6532 28.8185 24.3639V16.0676L35.3639 12.484V28.6947Z" fill="white"/>
</svg>
