<svg width="40" height="28" viewBox="0 0 40 28" fill="none" xmlns="http://www.w3.org/2000/svg">
<path d="M38 8H34C33.4696 8 32.9609 8.21072 32.5858 8.58579C32.2107 8.96086 32 9.46957 32 10C32 10.5304 32.2107 11.0391 32.5858 11.4142C32.9609 11.7893 33.4696 12 34 12H38C38.5304 12 39.0391 11.7893 39.4142 11.4142C39.7893 11.0391 40 10.5304 40 10C40 9.46957 39.7893 8.96086 39.4142 8.58579C39.0391 8.21072 38.5304 8 38 8ZM34 4H38C38.5304 4 39.0391 3.78929 39.4142 3.41421C39.7893 3.03914 40 2.53043 40 2C40 1.46957 39.7893 0.96086 39.4142 0.585787C39.0391 0.210714 38.5304 0 38 0H34C33.4696 0 32.9609 0.210714 32.5858 0.585787C32.2107 0.96086 32 1.46957 32 2C32 2.53043 32.2107 3.03914 32.5858 3.41421C32.9609 3.78929 33.4696 4 34 4ZM2 4H6C6.53043 4 7.03914 3.78929 7.41421 3.41421C7.78929 3.03914 8 2.53043 8 2C8 1.46957 7.78929 0.96086 7.41421 0.585787C7.03914 0.210714 6.53043 0 6 0H2C1.46957 0 0.960859 0.210714 0.585786 0.585787C0.210714 0.96086 0 1.46957 0 2C0 2.53043 0.210714 3.03914 0.585786 3.41421C0.960859 3.78929 1.46957 4 2 4ZM2 12H6C6.53043 12 7.03914 11.7893 7.41421 11.4142C7.78929 11.0391 8 10.5304 8 10C8 9.46957 7.78929 8.96086 7.41421 8.58579C7.03914 8.21072 6.53043 8 6 8H2C1.46957 8 0.960859 8.21072 0.585786 8.58579C0.210714 8.96086 0 9.46957 0 10C0 10.5304 0.210714 11.0391 0.585786 11.4142C0.960859 11.7893 1.46957 12 2 12ZM38 16H2C1.46957 16 0.960859 16.2107 0.585786 16.5858C0.210714 16.9609 0 17.4696 0 18C0 18.5304 0.210714 19.0391 0.585786 19.4142C0.960859 19.7893 1.46957 20 2 20H38C38.5304 20 39.0391 19.7893 39.4142 19.4142C39.7893 19.0391 40 18.5304 40 18C40 17.4696 39.7893 16.9609 39.4142 16.5858C39.0391 16.2107 38.5304 16 38 16ZM22 24H2C1.46957 24 0.960859 24.2107 0.585786 24.5858C0.210714 24.9609 0 25.4696 0 26C0 26.5304 0.210714 27.0391 0.585786 27.4142C0.960859 27.7893 1.46957 28 2 28H22C22.5304 28 23.0391 27.7893 23.4142 27.4142C23.7893 27.0391 24 26.5304 24 26C24 25.4696 23.7893 24.9609 23.4142 24.5858C23.0391 24.2107 22.5304 24 22 24Z" fill="white"/>
<path fill-rule="evenodd" clip-rule="evenodd" d="M20.9743 0.664062C24.2736 0.664062 26.9485 3.33899 26.9485 6.63906C26.9485 9.93878 24.2736 12.6141 20.9743 12.6141C17.675 12.6141 15 9.93878 15 6.63906C15 3.33899 17.6749 0.664062 20.9743 0.664062Z" fill="white"/>
</svg>
