<svg width="38" height="42" viewBox="0 0 38 42" fill="none" xmlns="http://www.w3.org/2000/svg">
<path d="M1.30469 12.5368L5.15071 16.3828L8.99674 12.5368" stroke="white" stroke-width="2" stroke-linecap="round" stroke-linejoin="round"/>
<path d="M5.14844 16.3828V10.2292C5.14844 5.98086 8.59217 2.53713 12.8405 2.53713H13.6097" stroke="white" stroke-width="2" stroke-linecap="round" stroke-linejoin="round"/>
<path d="M15.152 41L18.998 37.154L15.152 33.308" stroke="white" stroke-width="2" stroke-linecap="round" stroke-linejoin="round"/>
<path d="M18.998 37.1562L12.8444 37.1562C8.59609 37.1562 5.15236 33.7125 5.15236 29.4642V28.695" stroke="white" stroke-width="2" stroke-linecap="round" stroke-linejoin="round"/>
<path d="M36.6953 27.1429L32.8493 23.2969L29.0033 27.1429" stroke="white" stroke-width="2" stroke-linecap="round" stroke-linejoin="round"/>
<path d="M32.8516 23.2969V29.4505C32.8516 33.6988 29.4078 37.1426 25.1595 37.1426H24.3903" stroke="white" stroke-width="2" stroke-linecap="round" stroke-linejoin="round"/>
<path d="M25.1527 1L21.3066 4.84602L25.1527 8.69205" stroke="white" stroke-width="2" stroke-linecap="round" stroke-linejoin="round"/>
<path d="M21.3066 4.84375H27.4603C31.7086 4.84375 35.1523 8.28748 35.1523 12.5358V13.305" stroke="white" stroke-width="2" stroke-linecap="round" stroke-linejoin="round"/>
</svg>
