<svg width="46" height="40" viewBox="0 0 46 40" fill="none" xmlns="http://www.w3.org/2000/svg">
<path d="M30.179 4.74542C30.2292 4.76832 30.2292 4.76832 30.2803 4.79168C31.2484 5.23597 32.1744 5.77262 33.0284 6.41063C33.0665 6.43863 33.1046 6.46663 33.1439 6.49548C33.87 7.03288 34.5485 7.63326 35.1885 8.27011C35.2127 8.29414 35.2369 8.31817 35.2618 8.34292C35.4253 8.5069 35.5786 8.67764 35.7297 8.85293C35.7679 8.89616 35.8062 8.93933 35.8446 8.98245C36.1331 9.30894 36.4002 9.64658 36.6548 10.0001C36.6761 10.0295 36.6973 10.059 36.7192 10.0894C36.9831 10.457 37.2374 10.8272 37.4625 11.2199C37.5107 11.3036 37.56 11.3866 37.6093 11.4697C38.7168 13.3522 39.6825 15.8105 39.6522 18.0301C39.2872 18.0123 38.9358 17.9552 38.5791 17.8797C38.5518 17.8741 38.5246 17.8684 38.4965 17.8625C35.7626 17.289 32.454 16.1268 30.8369 13.6787C30.542 13.2185 30.3154 12.7499 30.179 12.2203C30.1704 12.1877 30.1618 12.155 30.153 12.1213C29.9524 11.2917 30.0874 10.4431 30.29 9.63003C30.2761 9.64509 30.2621 9.66015 30.2477 9.67566C29.8527 10.1007 29.4479 10.515 29.0371 10.9247C28.9383 11.0234 28.8397 11.1222 28.741 11.2211C28.6773 11.2848 28.6135 11.3486 28.5497 11.4123C28.5207 11.4414 28.4917 11.4705 28.4618 11.5004C28.3075 11.6541 28.1502 11.802 27.9849 11.9439C27.8964 12.0201 27.8109 12.0995 27.7251 12.1787C27.5562 12.3329 27.382 12.4786 27.204 12.6222C27.1164 12.6942 27.032 12.7685 26.948 12.8448C26.7475 13.0249 26.535 13.1891 26.3219 13.3539C26.261 13.401 26.2003 13.4484 26.1397 13.4958C24.7581 14.5704 23.2629 15.5256 21.6705 16.2554C21.6008 16.2877 21.5315 16.321 21.4623 16.3545C19.6046 17.2485 17.5802 17.7964 15.5501 18.1198C15.5155 18.1254 15.481 18.1309 15.4454 18.1366C14.6566 18.2617 13.8646 18.3487 13.0703 18.4306C12.7474 18.4639 12.4245 18.4977 12.1017 18.5322C12.0501 18.5377 12.0501 18.5377 11.9975 18.5434C9.7828 18.7625 9.7828 18.7625 7.86524 19.8063C7.82894 19.8353 7.79264 19.8643 7.75524 19.8942C7.25067 20.3151 6.98974 20.9744 6.79211 21.5825C6.75547 21.5825 6.71884 21.5825 6.6811 21.5825C6.65248 21.2354 6.63783 20.8908 6.63657 20.5426C6.63632 20.4944 6.63606 20.4461 6.63579 20.3964C6.63508 20.2413 6.6349 20.0863 6.63484 19.9312C6.63482 19.9048 6.6348 19.8783 6.63477 19.8511C6.63429 19.0171 6.65495 18.1927 6.7551 17.364C6.76006 17.3191 6.76501 17.2743 6.77012 17.228C7.11888 14.0913 8.33929 10.9608 10.4556 8.5939C10.479 8.56724 10.5025 8.54059 10.5267 8.51312C10.739 8.27384 10.9605 8.04508 11.1866 7.81898C11.2464 7.75911 11.3059 7.69896 11.3654 7.63879C11.6053 7.3976 11.8542 7.17756 12.1208 6.9657C12.1644 6.92869 12.2078 6.89148 12.251 6.85396C12.9386 6.26588 13.732 5.76808 14.5261 5.33749C14.5575 5.32018 14.5889 5.30287 14.6213 5.28504C16.7808 4.10051 19.25 3.43135 21.705 3.26524C21.7352 3.26315 21.7653 3.26106 21.7965 3.25891C24.6758 3.07088 27.5527 3.53921 30.179 4.74542Z" fill="white"/>
<path d="M22.2318 0.00354375C22.2736 0.00338681 22.2736 0.00338681 22.3162 0.0032267C22.4642 0.00267611 22.6121 0.00233214 22.7601 0.00217053C22.8795 0.00200984 22.9989 0.00150132 23.1182 0.000652767C24.1541 -0.00654861 25.173 0.0443787 26.195 0.226149C26.251 0.23582 26.307 0.245486 26.363 0.25515C29.8379 0.862456 33.0736 2.35941 35.7677 4.63663C35.7919 4.65698 35.8161 4.67734 35.841 4.6983C36.2871 5.07351 36.2871 5.07351 36.4824 5.2774C36.5463 5.34121 36.6127 5.39964 36.6814 5.45825C36.8406 5.5967 36.9904 5.7429 37.1391 5.89248C37.1639 5.91707 37.1886 5.94166 37.2141 5.96699C37.3598 6.11299 37.4986 6.26304 37.6333 6.41921C37.7111 6.50904 37.7917 6.59617 37.8723 6.68345C38.0544 6.88337 38.2263 7.08966 38.395 7.30096C38.4179 7.32948 38.4179 7.32948 38.4413 7.35857C39.361 8.50264 40.1573 9.74902 40.7985 11.0698C40.8397 11.1544 40.8817 11.2385 40.9236 11.3228C41.2823 12.0506 41.5677 12.8068 41.8249 13.5756C41.833 13.5999 41.8412 13.6242 41.8496 13.6492C41.9844 14.0527 41.9844 14.0527 41.9844 14.1838C42.0268 14.1953 42.0268 14.1953 42.07 14.2069C43.1917 14.6252 43.9137 15.7344 44.3897 16.7741C45.2951 18.8698 45.3286 21.3522 44.5151 23.4784C44.3412 23.917 44.144 24.3434 43.8717 24.7301C43.8341 24.7835 43.8341 24.7835 43.7958 24.838C43.1559 25.7177 42.3193 26.3663 41.2443 26.6174C41.2025 26.6274 41.2025 26.6274 41.1599 26.6376C40.8714 26.699 40.5863 26.7015 40.293 26.699C40.2098 26.6983 40.1266 26.6982 40.0434 26.6982C39.6022 26.6967 39.6022 26.6967 39.4681 26.6544C39.529 26.4678 39.5927 26.2827 39.6605 26.0986C40.7743 23.0683 41.1227 19.7492 39.1361 12.2386C38.8911 11.7123 38.6168 11.2047 38.321 10.7054C38.2911 10.655 38.2911 10.655 38.2607 10.6036C37.9832 10.1386 37.6825 9.69612 37.3589 9.26221C37.328 9.22031 37.2972 9.17839 37.2664 9.13645C37.0826 8.88829 36.8906 8.64815 36.6928 8.4111C36.6466 8.35522 36.6466 8.35522 36.5995 8.29821C36.2233 7.84533 35.8176 7.42196 35.4022 7.00493C35.3587 6.96113 35.3587 6.96113 35.3143 6.91645C35.1383 6.74098 34.9574 6.57431 34.7685 6.41285C34.7267 6.37641 34.685 6.33993 34.6432 6.30343C34.3598 6.05757 34.0707 5.82234 33.7694 5.59875C33.7328 5.57151 33.7328 5.57151 33.6955 5.54372C32.7837 4.86797 31.8213 4.29682 30.8091 3.78553C30.7771 3.76936 30.7452 3.75319 30.7123 3.73653C29.2303 2.99255 27.6265 2.51853 25.9961 2.23827C25.9646 2.23282 25.933 2.22737 25.9005 2.22175C24.9759 2.06342 24.0606 2.00238 23.1232 2.00245C23.0023 2.00237 22.8814 2.0017 22.7604 2.001C19.6526 1.99275 16.5208 2.88742 13.8609 4.48862C13.8348 4.50429 13.8087 4.51996 13.7818 4.5361C12.8792 5.08046 12.0412 5.71205 11.2429 6.39898C11.2201 6.41846 11.1974 6.43795 11.174 6.45803C11.0344 6.57895 10.9026 6.70516 10.7729 6.8366C10.7079 6.90157 10.6401 6.96192 10.5699 7.02112C10.3421 7.21808 10.1355 7.43119 9.93962 7.65959C9.86441 7.74507 9.78683 7.82803 9.70876 7.91089C9.48058 8.15387 9.27189 8.40688 9.06938 8.67145C9.00788 8.75124 8.94556 8.83033 8.88311 8.90936C8.65804 9.19474 8.43697 9.47964 8.24221 9.78694C8.19027 9.86835 8.13734 9.94909 8.08448 10.0299C6.18418 12.9528 5.19159 16.3007 5.19494 19.7854C5.19496 19.8283 5.19498 19.8712 5.195 19.9153C5.19587 20.5245 5.20274 21.1274 5.27588 21.7328C5.28046 21.7731 5.28503 21.8134 5.28974 21.8549C5.62932 24.7917 6.69573 27.6527 8.42127 30.0588C8.43895 30.0835 8.45663 30.1083 8.47485 30.1338C8.86201 30.6743 9.27447 31.1904 9.71644 31.687C9.7425 31.7163 9.7425 31.7163 9.76909 31.7463C10.0168 32.0238 10.2773 32.2885 10.5398 32.552C10.5709 32.5832 10.6019 32.6145 10.634 32.6467C10.8156 32.8278 11.0016 33.0006 11.1966 33.1672C11.2367 33.2023 11.2767 33.2375 11.3167 33.2727C11.6477 33.5614 11.9917 33.8299 12.3438 34.0923C12.3697 34.1118 12.3956 34.1313 12.4223 34.1514C13.0752 34.6411 13.7687 35.072 14.4879 35.4574C14.5614 35.497 14.6343 35.5374 14.7071 35.5781C16.1231 36.3595 17.6822 36.8853 19.2595 37.221C19.3415 37.2385 19.4233 37.2563 19.5052 37.2742C19.6479 37.305 19.7908 37.3341 19.9341 37.3622C19.9892 37.3731 20.0443 37.3845 20.0992 37.3964C20.3983 37.4695 20.3983 37.4695 20.6921 37.4186C20.7664 37.363 20.8273 37.3041 20.8918 37.2377C21.226 37.0057 21.6069 36.914 22.0112 36.9601C22.4134 37.0351 22.7343 37.221 23.0011 37.5337C23.2693 37.9475 23.3601 38.3694 23.2801 38.8592C23.18 39.2349 22.9324 39.5739 22.6033 39.781C22.1971 40.0084 21.7476 40.0469 21.2893 39.9507C21.1104 39.8831 20.9612 39.7809 20.8136 39.6602C20.6694 39.5482 20.5486 39.4829 20.3664 39.4608C20.3284 39.4559 20.2905 39.4509 20.2513 39.4458C20.2101 39.4407 20.1688 39.4355 20.1263 39.4302C17.3466 39.0463 14.6143 38.0425 12.2698 36.4976C12.2221 36.4666 12.1744 36.4356 12.1266 36.4046C11.2779 35.8499 10.4833 35.2274 9.73407 34.5449C9.68421 34.5 9.63411 34.4553 9.58292 34.4119C9.35291 34.2157 9.14043 34.003 8.92722 33.789C8.86315 33.7247 8.79888 33.6606 8.73459 33.5966C8.52357 33.3857 8.31765 33.1734 8.12524 32.9451C8.08925 32.9038 8.05321 32.8624 8.01712 32.8211C7.77834 32.5455 7.54754 32.2649 7.32536 31.9757C7.29128 31.9313 7.25708 31.8871 7.22276 31.843C6.64893 31.1042 6.15214 30.312 5.68294 29.5037C5.66449 29.4721 5.64605 29.4405 5.62705 29.4079C5.41186 29.0362 5.21974 28.6553 5.03767 28.2664C5.01746 28.2232 4.99726 28.1801 4.97644 28.1357C4.8692 27.9024 4.77066 27.6685 4.68121 27.4278C4.66241 27.3784 4.64359 27.3291 4.62475 27.2797C4.58891 27.1856 4.55563 27.0917 4.52323 26.9963C4.43571 26.7556 4.43571 26.7556 4.24648 26.5958C4.13387 26.5587 4.02247 26.5315 3.90671 26.5063C3.10082 26.1552 2.50868 25.5025 2.05649 24.7671C2.03297 24.7299 2.00945 24.6926 1.98522 24.6542C1.33887 23.5951 1.07036 22.3602 0.946348 21.1407C0.94235 21.1019 0.94235 21.1019 0.938271 21.0622C0.923842 20.9158 0.915006 20.7697 0.909343 20.6226C0.906409 20.5539 0.906409 20.5539 0.903417 20.4837C0.879078 19.6147 1.00355 18.7274 1.20538 17.8843C1.21214 17.8558 1.21889 17.8274 1.22585 17.7981C1.45396 16.8702 1.8844 15.952 2.50054 15.2199C2.54161 15.1711 2.54161 15.1711 2.58351 15.1212C2.92588 14.7283 3.36983 14.2673 3.89024 14.1201C4.02011 14.0522 4.03011 13.9796 4.07352 13.8417C4.08118 13.8182 4.08884 13.7948 4.09673 13.7706C4.11322 13.7199 4.12941 13.6692 4.14532 13.6183C4.18802 13.4823 4.23336 13.3472 4.2785 13.212C4.28761 13.1846 4.29672 13.1571 4.30611 13.1288C4.77789 11.7174 5.47018 10.363 6.27501 9.11419C6.296 9.08151 6.296 9.08151 6.31742 9.04817C6.80544 8.29223 7.35236 7.58069 7.93559 6.89623C7.95206 6.87682 7.96854 6.8574 7.98551 6.8374C8.32091 6.4461 8.67738 6.0767 9.04223 5.71306C9.11323 5.64226 9.18403 5.57126 9.25482 5.50024C9.47635 5.27857 9.69783 5.05982 9.93846 4.85866C9.97713 4.82535 10.0158 4.79201 10.0544 4.75863C10.343 4.51295 10.6363 4.27464 10.9376 4.04456C10.9632 4.02496 10.9889 4.00536 11.0153 3.98517C12.0634 3.18867 13.1958 2.50755 14.3803 1.93385C14.4544 1.89764 14.5279 1.86043 14.6015 1.82313C16.9082 0.672402 19.6549 0.0102512 22.2318 0.00354375Z" fill="white"/>
<path d="M31.2583 19.7156C31.9333 20.304 32.358 21.0618 32.4742 21.9541C32.5378 22.9661 32.298 23.8646 31.6279 24.6423C31.0727 25.2634 30.3383 25.6318 29.5139 25.7286C28.5516 25.7795 27.7606 25.514 27.0185 24.889C26.3416 24.2791 25.9744 23.4127 25.9149 22.5131C25.8829 21.6821 26.126 20.8556 26.6645 20.2149C26.6908 20.1831 26.7171 20.1512 26.7442 20.1185C27.884 18.7943 29.9094 18.5901 31.2583 19.7156Z" fill="white"/>
<path d="M18.6067 19.6822C19.3095 20.2906 19.7956 21.08 19.864 22.0251C19.9087 23.0316 19.6524 23.9301 18.9681 24.6924C18.9458 24.7181 18.9235 24.7439 18.9006 24.7704C18.3571 25.3599 17.5392 25.6956 16.7488 25.736C15.9046 25.752 15.1417 25.4974 14.4905 24.9514C14.4539 24.9239 14.4173 24.8965 14.3795 24.8681C13.7624 24.3414 13.3804 23.4625 13.311 22.6678C13.258 21.6965 13.5383 20.7882 14.1789 20.0513C15.3122 18.7899 17.2842 18.6216 18.6067 19.6822Z" fill="white"/>
<path d="M27.7011 30.5425C27.9445 31.0217 27.9303 31.5935 27.7751 32.0967C27.4425 33.0272 26.6967 33.7552 25.8153 34.1796C25.7412 34.2139 25.6667 34.2472 25.5919 34.28C25.5686 34.2902 25.5453 34.3005 25.5213 34.311C24.4413 34.7748 23.1103 34.8847 21.9654 34.613C21.9196 34.6023 21.9196 34.6023 21.8728 34.5913C21.2243 34.4341 20.5855 34.1915 20.0412 33.7989C20.0045 33.7726 19.9677 33.7464 19.9299 33.7193C19.4558 33.3718 19.4558 33.3718 19.2641 33.1698C19.2641 33.1454 19.2641 33.121 19.2641 33.0958C19.2397 33.0958 19.2152 33.0958 19.1901 33.0958C18.6967 32.552 18.3758 31.9192 18.3997 31.1762C18.4123 30.9787 18.4568 30.7866 18.561 30.6165C18.672 30.5795 18.672 30.5795 18.7718 30.629C18.8136 30.6539 18.8555 30.6788 18.8987 30.7044C20.1366 31.4009 21.644 31.5874 23.0409 31.5856C23.0729 31.5856 23.105 31.5855 23.138 31.5855C23.6022 31.5846 24.0592 31.5756 24.5187 31.5046C24.5514 31.4999 24.5842 31.4951 24.6179 31.4902C25.6394 31.3387 26.5845 31.0476 27.4892 30.5499C27.5901 30.5055 27.5901 30.5055 27.7011 30.5425Z" fill="white"/>
<path d="M22.2318 0.00354375C22.2736 0.00338681 22.2736 0.00338681 22.3162 0.0032267C22.4642 0.00267611 22.6121 0.00233214 22.7601 0.00217053C22.8795 0.00200984 22.9989 0.00150132 23.1182 0.000652767C24.1541 -0.00654861 25.173 0.0443787 26.195 0.226149C26.251 0.23582 26.307 0.245486 26.363 0.25515C29.8379 0.862456 33.0736 2.35941 35.7677 4.63663C35.7919 4.65698 35.8161 4.67734 35.841 4.6983C36.2871 5.07351 36.2871 5.07351 36.4824 5.2774C36.5463 5.34121 36.6127 5.39964 36.6814 5.45825C36.8406 5.5967 36.9904 5.7429 37.1391 5.89248C37.1639 5.91707 37.1886 5.94166 37.2141 5.96699C37.3598 6.11299 37.4986 6.26304 37.6333 6.41921C37.7111 6.50904 37.7917 6.59617 37.8723 6.68345C38.0544 6.88337 38.2263 7.08966 38.395 7.30096C38.4179 7.32948 38.4179 7.32948 38.4413 7.35857C39.361 8.50264 40.1573 9.74902 40.7985 11.0698C40.8397 11.1544 40.8817 11.2385 40.9236 11.3228C41.2823 12.0506 41.5677 12.8068 41.8249 13.5756C41.833 13.5999 41.8412 13.6242 41.8496 13.6492C41.9844 14.0527 41.9844 14.0527 41.9844 14.1838C42.0268 14.1953 42.0268 14.1953 42.07 14.2069C43.1917 14.6252 43.9137 15.7344 44.3897 16.7741C45.2951 18.8698 45.3286 21.3522 44.5151 23.4784C44.3412 23.917 44.144 24.3434 43.8717 24.7301C43.8341 24.7835 43.8341 24.7835 43.7958 24.838C43.1559 25.7177 42.3193 26.3663 41.2443 26.6174C41.2025 26.6274 41.2025 26.6274 41.1599 26.6376C40.8714 26.699 40.5863 26.7015 40.293 26.699C40.2098 26.6983 40.1266 26.6982 40.0434 26.6982C39.6022 26.6967 39.6022 26.6967 39.4681 26.6544C39.529 26.4678 39.5927 26.2827 39.6605 26.0986C40.7743 23.0683 41.1227 19.7492 39.1361 12.2386C38.8911 11.7123 38.6168 11.2047 38.321 10.7054C38.2911 10.655 38.2911 10.655 38.2607 10.6036C37.9832 10.1386 37.6825 9.69612 37.3589 9.26221C37.328 9.22031 37.2972 9.17839 37.2664 9.13645C37.0826 8.88829 36.8906 8.64815 36.6928 8.4111C36.6466 8.35522 36.6466 8.35522 36.5995 8.29821C36.2233 7.84533 35.8176 7.42196 35.4022 7.00493C35.3587 6.96113 35.3587 6.96113 35.3143 6.91645C35.1383 6.74098 34.9574 6.57431 34.7685 6.41285C34.7267 6.37641 34.685 6.33993 34.6432 6.30343C34.3598 6.05757 34.0707 5.82234 33.7694 5.59875C33.7328 5.57151 33.7328 5.57151 33.6955 5.54372C32.7837 4.86797 31.8213 4.29682 30.8091 3.78553C30.7771 3.76936 30.7452 3.75319 30.7123 3.73653C29.2303 2.99255 27.6265 2.51853 25.9961 2.23827C25.9646 2.23282 25.933 2.22737 25.9005 2.22175C24.9759 2.06342 24.0606 2.00238 23.1232 2.00245C23.0023 2.00237 22.8814 2.0017 22.7604 2.001C19.6526 1.99275 16.5208 2.88742 13.8609 4.48862C13.8348 4.50429 13.8087 4.51996 13.7818 4.5361C12.8792 5.08046 12.0412 5.71205 11.2429 6.39898C11.2201 6.41846 11.1974 6.43795 11.174 6.45803C11.0344 6.57895 10.9026 6.70516 10.7729 6.8366C10.7079 6.90157 10.6401 6.96192 10.5699 7.02112C10.3421 7.21808 10.1355 7.43119 9.93962 7.65959C9.86441 7.74507 9.78683 7.82803 9.70876 7.91089C9.48058 8.15387 9.27189 8.40688 9.06938 8.67145C9.00788 8.75124 8.94556 8.83033 8.88311 8.90936C8.65804 9.19474 8.43697 9.47964 8.24221 9.78694C8.19027 9.86835 8.13734 9.94909 8.08448 10.0299C6.18418 12.9528 5.19159 16.3007 5.19494 19.7854C5.19496 19.8283 5.19498 19.8712 5.195 19.9153C5.19587 20.5245 5.20274 21.1274 5.27588 21.7328C5.28046 21.7731 5.28503 21.8134 5.28974 21.8549C5.62932 24.7917 6.69573 27.6527 8.42127 30.0588C8.43895 30.0835 8.45663 30.1083 8.47485 30.1338C8.86201 30.6743 9.27447 31.1904 9.71644 31.687C9.7425 31.7163 9.7425 31.7163 9.76909 31.7463C10.0168 32.0238 10.2773 32.2885 10.5398 32.552C10.5709 32.5832 10.6019 32.6145 10.634 32.6467C10.8156 32.8278 11.0016 33.0006 11.1966 33.1672C11.2367 33.2023 11.2767 33.2375 11.3167 33.2727C11.6477 33.5614 11.9917 33.8299 12.3438 34.0923C12.3697 34.1118 12.3956 34.1313 12.4223 34.1514C13.0752 34.6411 13.7687 35.072 14.4879 35.4574C14.5614 35.497 14.6343 35.5374 14.7071 35.5781C16.1231 36.3595 17.6822 36.8853 19.2595 37.221C19.3415 37.2385 19.4233 37.2563 19.5052 37.2742C19.6479 37.305 19.7908 37.3341 19.9341 37.3622C19.9892 37.3731 20.0443 37.3845 20.0992 37.3964C20.3983 37.4695 20.3983 37.4695 20.6921 37.4186C20.7664 37.363 20.8273 37.3041 20.8918 37.2377C21.226 37.0057 21.6069 36.914 22.0112 36.9601C22.4134 37.0351 22.7343 37.221 23.0011 37.5337C23.2693 37.9475 23.3601 38.3694 23.2801 38.8592C23.18 39.2349 22.9324 39.5739 22.6033 39.781C22.1971 40.0084 21.7476 40.0469 21.2893 39.9507C21.1104 39.8831 20.9612 39.7809 20.8136 39.6602C20.6694 39.5482 20.5486 39.4829 20.3664 39.4608C20.3284 39.4559 20.2905 39.4509 20.2513 39.4458C20.2101 39.4407 20.1688 39.4355 20.1263 39.4302C17.3466 39.0463 14.6143 38.0425 12.2698 36.4976C12.2221 36.4666 12.1744 36.4356 12.1266 36.4046C11.2779 35.8499 10.4833 35.2274 9.73407 34.5449C9.68421 34.5 9.63411 34.4553 9.58292 34.4119C9.35291 34.2157 9.14043 34.003 8.92722 33.789C8.86315 33.7247 8.79888 33.6606 8.73459 33.5966C8.52357 33.3857 8.31765 33.1734 8.12524 32.9451C8.08925 32.9038 8.05321 32.8624 8.01712 32.8211C7.77834 32.5455 7.54754 32.2649 7.32536 31.9757C7.29128 31.9313 7.25708 31.8871 7.22276 31.843C6.64893 31.1042 6.15214 30.312 5.68294 29.5037C5.66449 29.4721 5.64605 29.4405 5.62705 29.4079C5.41186 29.0362 5.21974 28.6553 5.03767 28.2664C5.01746 28.2232 4.99726 28.1801 4.97644 28.1357C4.8692 27.9024 4.77066 27.6685 4.68121 27.4278C4.66241 27.3784 4.64359 27.3291 4.62475 27.2797C4.58891 27.1856 4.55563 27.0917 4.52323 26.9963C4.43571 26.7556 4.43571 26.7556 4.24648 26.5958C4.13387 26.5587 4.02247 26.5315 3.90671 26.5063C3.10082 26.1552 2.50868 25.5025 2.05649 24.7671C2.03297 24.7299 2.00945 24.6926 1.98522 24.6542C1.33887 23.5951 1.07036 22.3602 0.946348 21.1407C0.94235 21.1019 0.94235 21.1019 0.938271 21.0622C0.923842 20.9158 0.915006 20.7697 0.909343 20.6226C0.906409 20.5539 0.906409 20.5539 0.903417 20.4837C0.879078 19.6147 1.00355 18.7274 1.20538 17.8843C1.21214 17.8558 1.21889 17.8274 1.22585 17.7981C1.45396 16.8702 1.8844 15.952 2.50054 15.2199C2.54161 15.1711 2.54161 15.1711 2.58351 15.1212C2.92588 14.7283 3.36983 14.2673 3.89024 14.1201C4.02011 14.0522 4.03011 13.9796 4.07352 13.8417C4.08118 13.8182 4.08884 13.7948 4.09673 13.7706C4.11322 13.7199 4.12941 13.6692 4.14532 13.6183C4.18802 13.4823 4.23336 13.3472 4.2785 13.212C4.28761 13.1846 4.29672 13.1571 4.30611 13.1288C4.77789 11.7174 5.47018 10.363 6.27501 9.11419C6.296 9.08151 6.296 9.08151 6.31742 9.04817C6.80544 8.29223 7.35236 7.58069 7.93559 6.89623C7.95206 6.87682 7.96854 6.8574 7.98551 6.8374C8.32091 6.4461 8.67738 6.0767 9.04223 5.71306C9.11323 5.64226 9.18403 5.57126 9.25482 5.50024C9.47635 5.27857 9.69783 5.05982 9.93846 4.85866C9.97713 4.82535 10.0158 4.79201 10.0544 4.75863C10.343 4.51295 10.6363 4.27464 10.9376 4.04456C10.9632 4.02496 10.9889 4.00536 11.0153 3.98517C12.0634 3.18867 13.1958 2.50755 14.3803 1.93385C14.4544 1.89764 14.5279 1.86043 14.6015 1.82313C16.9082 0.672402 19.6549 0.0102512 22.2318 0.00354375ZM20.7068 0.159079C20.6386 0.166806 20.6386 0.166806 20.569 0.17469C18.6805 0.392621 16.8185 0.903249 15.0821 1.67627C15.0441 1.69303 15.006 1.7098 14.9668 1.72708C13.18 2.5181 11.4624 3.57236 10.018 4.89682C9.94466 4.964 9.87025 5.02951 9.79507 5.09457C9.47084 5.37827 9.1589 5.67163 8.85377 5.97574C8.82591 6.00342 8.79806 6.0311 8.76937 6.05962C8.61689 6.21252 8.47064 6.36874 8.32971 6.53235C8.2585 6.61501 8.18497 6.69544 8.11136 6.77596C7.93632 6.97022 7.77053 7.17085 7.60717 7.37497C7.59124 7.39482 7.5753 7.41467 7.55888 7.43512C6.25767 9.05893 4.05473 11.9675 4.05473 14.1468C4.02816 14.151 4.00159 14.1551 3.97422 14.1594C3.63497 14.2387 3.35163 14.4804 3.09261 14.7019C3.06328 14.7263 3.03394 14.7506 3.00372 14.7757C2.89696 14.8649 2.89696 14.8649 2.79658 14.9609C2.79658 14.9853 2.79658 15.0098 2.79658 15.0349C2.77215 15.0349 2.74773 15.0349 2.72257 15.0349C2.65791 15.1059 2.59865 15.1767 2.53986 15.2523C2.52193 15.2753 2.50401 15.2984 2.48554 15.3221C1.67549 16.3856 1.23275 17.6782 1.05736 18.9944C1.0535 19.0234 1.04963 19.0524 1.04565 19.0823C0.89129 20.2998 0.972856 21.5444 1.27939 22.7319C1.28715 22.7627 1.2949 22.7935 1.3029 22.8252C1.55987 23.8244 2.01691 24.7858 2.72257 25.5442C2.73997 25.5634 2.75737 25.5826 2.77529 25.6023C3.15257 26.0153 3.72277 26.4948 4.29758 26.5578C4.4789 26.6427 4.49966 26.7549 4.56596 26.9378C4.58119 26.9824 4.59642 27.027 4.61211 27.073C4.6464 27.1677 4.68163 27.2621 4.71706 27.3564C4.72615 27.3808 4.73525 27.4052 4.74462 27.4303C4.84684 27.7002 4.97041 27.959 5.0978 28.2178C5.10904 28.2407 5.12028 28.2635 5.13186 28.2871C5.18569 28.3963 5.23983 28.5054 5.29419 28.6143C5.33967 28.706 5.38418 28.798 5.42781 28.8905C5.77571 29.6225 6.22078 30.3191 6.68206 30.9839C6.70036 31.0105 6.71866 31.0371 6.73751 31.0645C7.08144 31.5633 7.44929 32.0372 7.84308 32.4975C7.93471 32.6049 8.02309 32.7147 8.11136 32.8249C8.24164 32.9852 8.38082 33.1307 8.52868 33.2747C8.59776 33.3437 8.66128 33.4142 8.72425 33.4887C8.9919 33.8001 9.29046 34.0949 9.60383 34.3601C9.68332 34.4287 9.76031 34.4996 9.83721 34.5711C10.061 34.7787 10.291 34.976 10.5305 35.1654C10.5545 35.1845 10.5784 35.2035 10.6031 35.2231C11.0011 35.5387 11.4069 35.8401 11.8257 36.1275C11.8486 36.1434 11.8715 36.1592 11.8951 36.1755C13.3938 37.2068 15.0297 37.982 16.7473 38.5698C16.7823 38.5819 16.8173 38.594 16.8533 38.6064C17.6719 38.8863 18.5155 39.0887 19.3654 39.2475C19.4026 39.2545 19.4026 39.2545 19.4406 39.2616C19.7131 39.3121 19.985 39.3553 20.2601 39.3884C20.5215 39.4206 20.7164 39.4458 20.8995 39.6511C21.1201 39.8703 21.4615 39.9442 21.7614 39.9506C22.2042 39.9455 22.5399 39.8098 22.8531 39.495C23.1441 39.154 23.2876 38.7712 23.2522 38.3209C23.1892 37.8953 22.9922 37.5504 22.6495 37.2886C22.3413 37.0817 21.9669 36.9609 21.5949 37.0157C21.2854 37.0823 20.971 37.1805 20.7737 37.4448C20.6314 37.5552 20.4056 37.4907 20.2341 37.4708C19.9722 37.4356 19.7139 37.3805 19.4556 37.3256C19.424 37.3189 19.3923 37.3123 19.3597 37.3055C17.8225 36.9825 16.3298 36.4935 14.9367 35.7604C14.8472 35.7138 14.757 35.6686 14.6668 35.6234C13.3087 34.9364 12.0034 34.0297 10.9046 32.9722C10.8104 32.8824 10.7257 32.8096 10.6045 32.7601C10.6045 32.7357 10.6045 32.7113 10.6045 32.6861C10.5801 32.6861 10.5557 32.6861 10.5305 32.6861C10.5305 32.6617 10.5305 32.6373 10.5305 32.6121C10.4786 32.569 10.4264 32.5261 10.3737 32.4839C10.2798 32.4021 10.2031 32.3081 10.1226 32.2134C10.0418 32.1224 9.95625 32.038 9.86908 31.953C9.70868 31.7945 9.56601 31.6275 9.42546 31.4514C9.3547 31.3642 9.28139 31.2815 9.20531 31.199C8.98767 30.9567 8.79833 30.6915 8.6063 30.4288C8.58977 30.4062 8.57324 30.3836 8.55621 30.3604C8.44787 30.2117 8.34148 30.0617 8.23625 29.9108C8.22188 29.8903 8.20751 29.8698 8.19271 29.8487C7.2994 28.5674 6.59931 27.1287 6.08999 25.6552C6.07683 25.6174 6.06368 25.5795 6.05013 25.5404C5.42036 23.7055 5.11668 21.7675 5.12324 19.8293C5.12331 19.7978 5.12338 19.7662 5.12345 19.7337C5.13142 16.6489 5.90828 13.5144 7.49616 10.8534C7.51154 10.8275 7.52693 10.8015 7.54278 10.7748C8.16321 9.73224 8.8633 8.73529 9.69432 7.84895C9.76692 7.77045 9.83685 7.69115 9.90637 7.61001C10.0633 7.42999 10.2314 7.26145 10.4006 7.09306C10.4541 7.0397 10.5075 6.98615 10.5608 6.93258C10.7541 6.73912 10.9512 6.55292 11.1596 6.37585C11.2014 6.33942 11.2432 6.30294 11.2849 6.26643C11.5683 6.02057 11.8574 5.78533 12.1587 5.56175C12.1831 5.54359 12.2075 5.52542 12.2327 5.50671C12.8606 5.04135 13.5126 4.61261 14.194 4.22958C14.2286 4.21008 14.2632 4.19058 14.2989 4.17048C16.9382 2.69268 19.9145 1.92464 22.9386 1.92836C22.9726 1.92838 23.0065 1.92841 23.0414 1.92843C24.3918 1.93083 25.7152 2.09744 27.0346 2.37935C27.0726 2.38744 27.1106 2.39552 27.1497 2.40386C29.4899 2.91473 31.8757 4.01968 33.7456 5.51327C33.8252 5.57673 33.906 5.63857 33.9868 5.70052C34.4501 6.06285 34.9137 6.43502 35.324 6.85734C35.3915 6.92477 35.4608 6.98564 35.5341 7.04656C35.7803 7.25779 35.9932 7.506 36.2117 7.74502C36.2433 7.77932 36.2749 7.81361 36.3074 7.84895C36.506 8.06668 36.6937 8.2921 36.8778 8.52212C36.8932 8.54118 36.9085 8.56024 36.9243 8.57988C37.6276 9.45491 38.2258 10.3874 38.765 11.3715C38.7899 11.4164 38.7899 11.4164 38.8153 11.4623C39.9574 13.5326 40.5782 15.8737 40.8003 18.2173C40.8033 18.246 40.8064 18.2746 40.8095 18.3041C40.8372 18.5779 40.8444 18.8496 40.8461 19.1247C40.8465 19.172 40.8468 19.2194 40.8472 19.2682C40.8482 19.4213 40.8486 19.5745 40.8489 19.7276C40.8489 19.7536 40.849 19.7797 40.849 19.8066C40.8502 20.6665 40.8171 21.5105 40.6893 22.3618C40.6827 22.4081 40.6762 22.4544 40.6695 22.502C40.4659 23.9223 40.0262 25.2721 39.5421 26.6174C40.6873 26.7675 41.8456 26.5439 42.7771 25.8372C44.1494 24.7466 44.774 22.9952 44.9838 21.3055C45.1638 19.6335 44.9071 17.7322 44.0567 16.2561C44.0367 16.2206 44.0367 16.2206 44.0164 16.1844C43.8441 15.8787 43.6584 15.5965 43.4276 15.331C43.4014 15.3002 43.3751 15.2695 43.3481 15.2379C43.0163 14.8583 42.5818 14.4057 42.0754 14.2695C41.966 14.211 41.9446 14.1558 41.9062 14.0405C41.895 14.0033 41.895 14.0033 41.8835 13.9654C41.8751 13.9395 41.8666 13.9135 41.8578 13.8868C41.8396 13.8309 41.8216 13.7749 41.804 13.7188C41.7571 13.5703 41.7077 13.4226 41.6585 13.2749C41.6437 13.2303 41.6437 13.2303 41.6286 13.1847C41.4855 12.7566 41.3116 12.3411 41.1333 11.9265C41.1188 11.8926 41.1043 11.8586 41.0893 11.8236C40.8917 11.3647 40.6692 10.922 40.4302 10.4834C40.4076 10.4414 40.4076 10.4414 40.3844 10.3987C39.8433 9.40039 39.2274 8.43839 38.506 7.56C38.4589 7.50067 38.4119 7.44131 38.3649 7.38191C37.9624 6.88013 37.5384 6.39847 37.0773 5.94941C37.0258 5.89479 37.0258 5.89479 36.9888 5.82078C36.9644 5.82078 36.94 5.82078 36.9148 5.82078C36.9148 5.79636 36.9148 5.77193 36.9148 5.74677C36.8599 5.69125 36.8599 5.69125 36.7876 5.63345C36.6703 5.53393 36.5601 5.43093 36.4523 5.32122C36.304 5.17142 36.1503 5.03201 35.9897 4.89567C35.9543 4.86523 35.9189 4.8348 35.8824 4.80344C35.5917 4.5543 35.2949 4.31397 34.9906 4.08157C34.9649 4.06197 34.9393 4.04237 34.9129 4.02217C33.907 3.25782 32.8252 2.61293 31.6972 2.04631C31.6659 2.0305 31.6346 2.01469 31.6024 1.99839C29.5362 0.960865 27.2549 0.366803 24.9623 0.122074C24.9244 0.117739 24.8865 0.113404 24.8474 0.108938C23.4843 -0.0423645 22.0673 -0.0029283 20.7068 0.159079Z" fill="white"/>
<path d="M30.179 4.74542C30.2292 4.76832 30.2292 4.76832 30.2803 4.79168C31.2484 5.23597 32.1744 5.77262 33.0284 6.41063C33.0665 6.43863 33.1046 6.46663 33.1439 6.49548C33.87 7.03288 34.5485 7.63326 35.1885 8.27011C35.2127 8.29414 35.2369 8.31817 35.2618 8.34292C35.4253 8.5069 35.5786 8.67764 35.7297 8.85293C35.7679 8.89616 35.8062 8.93933 35.8446 8.98245C36.1331 9.30894 36.4002 9.64658 36.6548 10.0001C36.6761 10.0295 36.6973 10.059 36.7192 10.0894C36.9831 10.457 37.2374 10.8272 37.4625 11.2199C37.5107 11.3036 37.56 11.3866 37.6093 11.4697C38.7168 13.3522 39.6825 15.8105 39.6522 18.0301C39.2872 18.0123 38.9358 17.9552 38.5791 17.8797C38.5518 17.8741 38.5246 17.8684 38.4965 17.8625C35.7626 17.289 32.454 16.1268 30.8369 13.6787C30.542 13.2185 30.3154 12.7499 30.179 12.2203C30.1704 12.1877 30.1618 12.155 30.153 12.1213C29.9524 11.2917 30.0874 10.4431 30.29 9.63003C30.2761 9.64509 30.2621 9.66015 30.2477 9.67566C29.8527 10.1007 29.4479 10.515 29.0371 10.9247C28.9383 11.0234 28.8397 11.1222 28.741 11.2211C28.6773 11.2848 28.6135 11.3486 28.5497 11.4123C28.5207 11.4414 28.4917 11.4705 28.4618 11.5004C28.3075 11.6541 28.1502 11.802 27.9849 11.9439C27.8964 12.0201 27.8109 12.0995 27.7251 12.1787C27.5562 12.3329 27.382 12.4786 27.204 12.6222C27.1164 12.6942 27.032 12.7685 26.948 12.8448C26.7475 13.0249 26.535 13.1891 26.3219 13.3539C26.261 13.401 26.2003 13.4484 26.1397 13.4958C24.7581 14.5704 23.2629 15.5256 21.6705 16.2554C21.6008 16.2877 21.5315 16.321 21.4623 16.3545C19.6046 17.2485 17.5802 17.7964 15.5501 18.1198C15.5155 18.1254 15.481 18.1309 15.4454 18.1366C14.6566 18.2617 13.8646 18.3487 13.0703 18.4306C12.7474 18.4639 12.4245 18.4977 12.1017 18.5322C12.0501 18.5377 12.0501 18.5377 11.9975 18.5434C9.7828 18.7625 9.7828 18.7625 7.86524 19.8063C7.82894 19.8353 7.79264 19.8643 7.75524 19.8942C7.25067 20.3151 6.98974 20.9744 6.79211 21.5825C6.75547 21.5825 6.71884 21.5825 6.6811 21.5825C6.65248 21.2354 6.63783 20.8908 6.63657 20.5426C6.63632 20.4944 6.63606 20.4461 6.63579 20.3964C6.63508 20.2413 6.6349 20.0863 6.63484 19.9312C6.63482 19.9048 6.6348 19.8783 6.63477 19.8511C6.63429 19.0171 6.65495 18.1927 6.7551 17.364C6.76006 17.3191 6.76501 17.2743 6.77012 17.228C7.11888 14.0913 8.33929 10.9608 10.4556 8.5939C10.479 8.56724 10.5025 8.54059 10.5267 8.51312C10.739 8.27384 10.9605 8.04508 11.1866 7.81898C11.2464 7.75911 11.3059 7.69896 11.3654 7.63879C11.6053 7.3976 11.8542 7.17756 12.1208 6.9657C12.1644 6.92869 12.2078 6.89148 12.251 6.85396C12.9386 6.26588 13.732 5.76808 14.5261 5.33749C14.5575 5.32018 14.5889 5.30287 14.6213 5.28504C16.7808 4.10051 19.25 3.43135 21.705 3.26524C21.7352 3.26315 21.7653 3.26106 21.7965 3.25891C24.6758 3.07088 27.5527 3.53921 30.179 4.74542ZM19.8547 3.56127C19.7897 3.57263 19.7897 3.57263 19.7234 3.58422C16.806 4.10531 13.9682 5.35651 11.7672 7.36436C11.7089 7.41748 11.6501 7.47013 11.5909 7.52221C11.2015 7.86534 10.8256 8.23238 10.4926 8.6309C10.4637 8.66386 10.4348 8.69683 10.4051 8.73079C9.37187 9.91678 8.58595 11.2945 7.97626 12.7384C7.96376 12.7678 7.95126 12.7972 7.93838 12.8275C7.30478 14.3341 6.95039 15.9994 6.79211 17.623C6.7885 17.6582 6.78488 17.6935 6.78116 17.7298C6.68322 18.7025 6.66682 19.6852 6.69266 20.662C6.69329 20.6891 6.69392 20.7161 6.69456 20.744C6.69645 20.8201 6.69886 20.8961 6.70148 20.9722C6.70287 21.0152 6.70427 21.0582 6.70571 21.1025C6.71752 21.2073 6.73772 21.2713 6.79211 21.3605C6.80427 21.3269 6.81644 21.2932 6.82897 21.2586C7.17899 20.3209 7.78378 19.6051 8.70504 19.1771C10.0715 18.5862 11.6309 18.5096 13.0945 18.3654C13.9447 18.2816 14.7893 18.1807 15.6325 18.0428C15.7073 18.0306 15.7821 18.0185 15.8569 18.0065C16.5194 17.8992 17.1698 17.7538 17.8195 17.586C17.8632 17.5748 17.9069 17.5636 17.952 17.5521C18.9843 17.2851 19.9897 16.9451 20.9649 16.5129C21.0011 16.4969 21.0373 16.4808 21.0746 16.4643C21.9543 16.0728 22.8056 15.6429 23.6292 15.1437C23.666 15.1214 23.7029 15.0991 23.7408 15.0762C25.1707 14.2069 26.5169 13.186 27.748 12.0519C27.828 11.9793 27.9087 11.9079 27.9902 11.837C28.4237 11.4586 28.8329 11.0539 29.24 10.6477C29.2686 10.6192 29.2686 10.6192 29.2977 10.5902C29.4934 10.3954 29.6865 10.1999 29.865 9.98896C29.9449 9.89755 30.0318 9.81381 30.1184 9.7289C30.1771 9.66903 30.2303 9.60716 30.2831 9.54214C30.364 9.445 30.364 9.445 30.438 9.408C30.4285 9.43924 30.4285 9.43924 30.4188 9.47111C30.0646 10.6447 29.9882 11.8235 30.5121 12.9604C30.5377 13.0178 30.5377 13.0178 30.5639 13.0764C31.0109 14.0248 31.8113 14.8064 32.6583 15.4027C32.6853 15.4218 32.7122 15.4408 32.74 15.4604C33.1416 15.7412 33.5571 15.9887 33.9905 16.2168C34.0204 16.2328 34.0503 16.2488 34.0811 16.2652C35.6036 17.0734 37.8157 17.9931 39.5782 17.9931C39.5398 16.8299 39.2642 15.6565 38.9121 14.5516C38.9013 14.5176 38.8906 14.4836 38.8795 14.4485C38.6291 13.6664 38.3135 12.8771 37.9085 12.1611C37.8473 12.0504 37.7915 11.9389 37.736 11.8253C37.622 11.596 37.4926 11.3796 37.3556 11.1634C37.3314 11.1251 37.3072 11.0867 37.2823 11.0473C36.9337 10.4977 36.5714 9.97079 36.153 9.47194C36.0777 9.38152 36.0045 9.2894 35.9309 9.19754C35.7561 8.98409 35.5688 8.78313 35.3803 8.58186C35.3225 8.51975 35.2655 8.45705 35.2086 8.39413C35.0162 8.18174 34.8215 7.97961 34.6053 7.79093C34.5345 7.72861 34.4653 7.6657 34.3968 7.60099C34.1352 7.35409 33.8649 7.1261 33.5789 6.90798C33.5069 6.85271 33.4355 6.79667 33.3642 6.74049C31.341 5.15579 28.9485 4.12371 26.4415 3.59828C26.4071 3.59103 26.3727 3.58379 26.3372 3.57632C25.7601 3.45746 25.1778 3.39177 24.5913 3.33925C24.5344 3.33385 24.5344 3.33385 24.4763 3.32835C24.0451 3.29201 23.613 3.29326 23.1805 3.29299C23.1389 3.29295 23.0974 3.29292 23.0545 3.29288C21.9766 3.29353 20.9173 3.37449 19.8547 3.56127Z" fill="white"/>
<path d="M27.7011 30.5425C27.9445 31.0217 27.9303 31.5935 27.7751 32.0967C27.4425 33.0272 26.6967 33.7552 25.8153 34.1796C25.7412 34.2139 25.6667 34.2472 25.5919 34.28C25.5686 34.2902 25.5453 34.3005 25.5213 34.311C24.4413 34.7748 23.1103 34.8847 21.9654 34.613C21.9196 34.6023 21.9196 34.6023 21.8728 34.5913C21.2243 34.4341 20.5855 34.1915 20.0412 33.7989C20.0045 33.7726 19.9677 33.7464 19.9299 33.7193C19.4558 33.3718 19.4558 33.3718 19.2641 33.1698C19.2641 33.1454 19.2641 33.121 19.2641 33.0958C19.2397 33.0958 19.2152 33.0958 19.1901 33.0958C18.6967 32.552 18.3758 31.9192 18.3997 31.1762C18.4123 30.9787 18.4568 30.7866 18.561 30.6165C18.672 30.5795 18.672 30.5795 18.7718 30.629C18.8136 30.6539 18.8555 30.6788 18.8987 30.7044C20.1366 31.4009 21.644 31.5874 23.0409 31.5856C23.0729 31.5856 23.105 31.5855 23.138 31.5855C23.6022 31.5846 24.0592 31.5756 24.5187 31.5046C24.5514 31.4999 24.5842 31.4951 24.6179 31.4902C25.6394 31.3387 26.5845 31.0476 27.4892 30.5499C27.5901 30.5055 27.5901 30.5055 27.7011 30.5425ZM27.37 30.6848C25.3333 31.8937 22.5287 31.887 20.3002 31.3196C19.7203 31.1614 19.1711 30.9234 18.635 30.6535C18.4297 30.9847 18.4182 31.3406 18.4824 31.7197C18.6042 32.2124 18.8845 32.6532 19.2271 33.0218C19.2578 33.0556 19.2886 33.0893 19.3203 33.124C20.2967 34.149 21.7097 34.6248 23.0975 34.6917C24.4816 34.7228 25.8893 34.3076 26.9019 33.3399C27.0467 33.1953 27.1734 33.0392 27.2941 32.8738C27.3148 32.8462 27.3356 32.8186 27.357 32.7901C27.7025 32.3053 27.8848 31.6748 27.7991 31.0815C27.7636 30.9029 27.7042 30.7442 27.6271 30.5795C27.5228 30.5795 27.4575 30.6327 27.37 30.6848Z" fill="white"/>
<path d="M31.2583 19.7156C31.9333 20.304 32.358 21.0618 32.4742 21.9541C32.5378 22.9661 32.298 23.8646 31.6279 24.6423C31.0727 25.2634 30.3383 25.6318 29.5139 25.7286C28.5516 25.7795 27.7606 25.514 27.0185 24.889C26.3416 24.2791 25.9744 23.4127 25.9149 22.5131C25.8829 21.6821 26.126 20.8556 26.6645 20.2149C26.6908 20.1831 26.7171 20.1512 26.7442 20.1185C27.884 18.7943 29.9094 18.5901 31.2583 19.7156ZM27.1456 19.8078C27.0912 19.8508 27.0912 19.8508 27.0357 19.8946C26.4554 20.3825 26.1093 21.1822 25.9984 21.9171C25.9201 22.8932 26.1412 23.7872 26.7755 24.5444C27.2963 25.141 28.0155 25.5666 28.8108 25.6546C29.7066 25.7035 30.548 25.5354 31.243 24.9331C31.8736 24.3638 32.3578 23.5795 32.4054 22.7107C32.4394 21.6933 32.2067 20.8078 31.5124 20.0338C31.0622 19.5554 30.4808 19.2545 29.8469 19.1047C29.8245 19.0983 29.802 19.0918 29.7789 19.0852C28.831 18.8784 27.878 19.2179 27.1456 19.8078Z" fill="white"/>
<path d="M18.6067 19.6822C19.3095 20.2906 19.7956 21.08 19.864 22.0251C19.9087 23.0316 19.6524 23.9301 18.9681 24.6924C18.9458 24.7181 18.9235 24.7439 18.9006 24.7704C18.3571 25.3599 17.5392 25.6956 16.7488 25.736C15.9046 25.752 15.1417 25.4974 14.4905 24.9514C14.4539 24.9239 14.4173 24.8965 14.3795 24.8681C13.7624 24.3414 13.3804 23.4625 13.311 22.6678C13.258 21.6965 13.5383 20.7882 14.1789 20.0513C15.3122 18.7899 17.2842 18.6216 18.6067 19.6822ZM14.2205 20.0999C13.5909 20.8024 13.3403 21.7025 13.3736 22.6326C13.436 23.5372 13.8841 24.3281 14.5486 24.926C15.2753 25.5274 16.1223 25.7314 17.0493 25.6473C17.8196 25.5539 18.5463 25.1061 19.0476 24.5264C19.6684 23.7166 19.8694 22.8542 19.7822 21.843C19.6911 21.1669 19.369 20.5793 18.9311 20.0668C18.9099 20.0418 18.8887 20.0169 18.8669 19.9912C18.4364 19.5255 17.8316 19.2561 17.2289 19.1047C17.2063 19.0982 17.1838 19.0917 17.1606 19.085C16.0666 18.8478 14.9714 19.3222 14.2205 20.0999Z" fill="white"/>
<path d="M23.0018 19.7734C23.0263 19.7979 23.0507 19.8223 23.0759 19.8474C23.0392 19.8352 23.0026 19.823 22.9648 19.8104C22.9771 19.7982 22.9893 19.786 23.0018 19.7734Z" fill="white"/>
</svg>
