<svg width="40" height="40" viewBox="0 0 40 40" fill="none" xmlns="http://www.w3.org/2000/svg">
<path d="M35.7891 15.7906C35.7891 15.5114 35.6782 15.2437 35.4808 15.0463C35.2834 14.8489 35.0157 14.738 34.7365 14.738C34.4574 14.738 34.1896 14.8489 33.9923 15.0463C33.7949 15.2437 33.684 15.5114 33.684 15.7906H35.7891ZM6.31682 15.7906C6.31682 15.5114 6.20593 15.2437 6.00853 15.0463C5.81113 14.8489 5.5434 14.738 5.26424 14.738C4.98508 14.738 4.71735 14.8489 4.51995 15.0463C4.32256 15.2437 4.21166 15.5114 4.21166 15.7906H6.31682ZM38.2016 20.7462C38.3993 20.9438 38.6674 21.0549 38.9469 21.0549C39.2264 21.0549 39.4944 20.9438 39.6921 20.7462C39.8897 20.5485 40.0008 20.2805 40.0008 20.0009C40.0008 19.7214 39.8897 19.4534 39.6921 19.2557L38.2016 20.7462ZM20.0004 1.05446L20.7456 0.309235C20.6478 0.211212 20.5317 0.133442 20.4038 0.0803779C20.2759 0.0273142 20.1388 0 20.0004 0C19.8619 0 19.7248 0.0273142 19.597 0.0803779C19.4691 0.133442 19.3529 0.211212 19.2552 0.309235L20.0004 1.05446ZM0.308683 19.2557C0.111037 19.4534 0 19.7214 0 20.0009C0 20.2805 0.111037 20.5485 0.308683 20.7462C0.50633 20.9438 0.774397 21.0549 1.05391 21.0549C1.33343 21.0549 1.60149 20.9438 1.79914 20.7462L0.308683 19.2557ZM9.47457 40H30.5262V37.8948H9.47457V40ZM35.7891 34.7371V15.7906H33.684V34.7371H35.7891ZM6.31682 34.7371V15.7906H4.21166V34.7371H6.31682ZM39.6921 19.2557L20.7456 0.309235L19.2552 1.79969L38.2016 20.7462L39.6921 19.2557ZM19.2552 0.309235L0.308683 19.2557L1.79914 20.7462L20.7456 1.79969L19.2552 0.309235ZM30.5262 40C31.922 40 33.2607 39.4455 34.2477 38.4585C35.2346 37.4715 35.7891 36.1329 35.7891 34.7371H33.684C33.684 35.5746 33.3513 36.3778 32.7591 36.97C32.1669 37.5621 31.3637 37.8948 30.5262 37.8948V40ZM9.47457 37.8948C8.63708 37.8948 7.8339 37.5621 7.2417 36.97C6.64951 36.3778 6.31682 35.5746 6.31682 34.7371H4.21166C4.21166 36.1329 4.76614 37.4715 5.75313 38.4585C6.74012 39.4455 8.07876 40 9.47457 40V37.8948Z" fill="white"/>
<rect x="16.5645" y="11.25" width="7" height="2" rx="1" fill="white"/>
<rect x="10.5645" y="17.25" width="19" height="3" rx="1.5" fill="white"/>
<rect x="10.5645" y="24.25" width="19" height="3" rx="1.5" fill="white"/>
<rect x="10.5645" y="31.25" width="19" height="3" rx="1.5" fill="white"/>
</svg>
