<svg width="40" height="40" viewBox="0 0 40 40" fill="none" xmlns="http://www.w3.org/2000/svg">
<path fill-rule="evenodd" clip-rule="evenodd" d="M27.5 37.5C30.1522 37.5 32.6957 36.4464 34.5711 34.5711C36.4464 32.6957 37.5 30.1522 37.5 27.5C37.5 24.8478 36.4464 22.3043 34.5711 20.4289C32.6957 18.5536 30.1522 17.5 27.5 17.5C24.8478 17.5 22.3043 18.5536 20.4289 20.4289C18.5536 22.3043 17.5 24.8478 17.5 27.5C17.5 30.1522 18.5536 32.6957 20.4289 34.5711C22.3043 36.4464 24.8478 37.5 27.5 37.5ZM40 27.5C40 30.8152 38.683 33.9946 36.3388 36.3388C33.9946 38.683 30.8152 40 27.5 40C24.1848 40 21.0054 38.683 18.6612 36.3388C16.317 33.9946 15 30.8152 15 27.5C15 24.1848 16.317 21.0054 18.6612 18.6612C21.0054 16.317 24.1848 15 27.5 15C30.8152 15 33.9946 16.317 36.3388 18.6612C38.683 21.0054 40 24.1848 40 27.5Z" fill="white"/>
<path d="M23.5962 29.86C23.7137 31.35 24.8912 32.51 27.0037 32.65V33.75H27.9412V32.6425C30.1287 32.49 31.4062 31.32 31.4062 29.625C31.4062 28.08 30.4312 27.285 28.6812 26.875L27.9412 26.7V23.7C28.8812 23.8075 29.4762 24.32 29.6187 25.03H31.2637C31.1462 23.5925 29.9137 22.47 27.9412 22.3475V21.25H27.0037V22.375C25.1362 22.5575 23.8662 23.68 23.8662 25.27C23.8662 26.675 24.8113 27.57 26.3838 27.935L27.0037 28.0875V31.2675C26.0437 31.1225 25.4062 30.5925 25.2637 29.86H23.5962ZM26.9963 26.475C26.0738 26.2625 25.5737 25.825 25.5737 25.17C25.5737 24.435 26.1137 23.885 27.0037 23.725V26.475H26.9963ZM28.0762 28.34C29.1987 28.6 29.7137 29.02 29.7137 29.7625C29.7137 30.61 29.0712 31.19 27.9412 31.2975V28.31L28.0762 28.34Z" fill="white"/>
<path d="M2.5 0C1.83696 0 1.20107 0.263392 0.732233 0.732233C0.263392 1.20107 0 1.83696 0 2.5L0 22.5C0 23.163 0.263392 23.7989 0.732233 24.2678C1.20107 24.7366 1.83696 25 2.5 25H12.7075C12.8542 24.1383 13.0692 23.305 13.3525 22.5H7.5C7.5 21.1739 6.97322 19.9021 6.03553 18.9645C5.09785 18.0268 3.82608 17.5 2.5 17.5V7.5C3.82608 7.5 5.09785 6.97322 6.03553 6.03553C6.97322 5.09785 7.5 3.82608 7.5 2.5H32.5C32.5 3.82608 33.0268 5.09785 33.9645 6.03553C34.9021 6.97322 36.1739 7.5 37.5 7.5V16.32C38.45 17.17 39.2925 18.14 40 19.205V2.5C40 1.83696 39.7366 1.20107 39.2678 0.732233C38.7989 0.263392 38.163 0 37.5 0L2.5 0Z" fill="white"/>
<path d="M24.995 12.7045L25 12.497C24.9995 11.636 24.7766 10.7897 24.353 10.0401C23.9294 9.29049 23.3194 8.66297 22.5821 8.21832C21.8448 7.77367 21.0051 7.52696 20.1445 7.50209C19.2838 7.47721 18.4313 7.67501 17.6695 8.07633C16.9077 8.47765 16.2625 9.06888 15.7963 9.79277C15.3301 10.5167 15.0588 11.3487 15.0085 12.2082C14.9583 13.0678 15.1309 13.9257 15.5095 14.699C15.8882 15.4723 16.4602 16.1347 17.17 16.622C19.331 14.5675 22.0553 13.2036 24.995 12.7045Z" fill="white"/>
</svg>
