<svg width="40" height="40" viewBox="0 0 40 40" fill="none" xmlns="http://www.w3.org/2000/svg">
<path d="M39.737 7.95419C39.6308 7.82665 39.4978 7.72403 39.3475 7.65361C39.1972 7.58318 39.0333 7.54667 38.8673 7.54667H8.11462L7.13921 2.16967C7.0287 1.56074 6.70787 1.00995 6.23272 0.613411C5.75757 0.216877 5.15826 -0.000221853 4.53939 1.70126e-07H1.13395C0.833728 1.70126e-07 0.545799 0.119264 0.333508 0.331555C0.121217 0.543846 0.00195312 0.831775 0.00195312 1.132C0.00195312 1.43223 0.121217 1.72015 0.333508 1.93244C0.545799 2.14474 0.833728 2.264 1.13395 2.264H4.52995C4.6193 2.26254 4.70627 2.29284 4.77537 2.3495C4.84446 2.40616 4.89121 2.48551 4.90729 2.57341L9.72017 29.0433C9.87284 29.8877 10.2843 30.6637 10.8975 31.264C10.157 31.8562 9.60405 32.6504 9.30553 33.5503C9.00702 34.4503 8.97573 35.4175 9.21545 36.3349C9.45518 37.2522 9.95564 38.0805 10.6563 38.7193C11.3569 39.3582 12.2277 39.7803 13.1632 39.9346C14.0988 40.0889 15.059 39.9687 15.9276 39.5887C16.7963 39.2086 17.5362 38.5849 18.0578 37.7931C18.5794 37.0013 18.8604 36.0753 18.8666 35.1271C18.8729 34.179 18.6043 33.2493 18.0932 32.4507H27.9454C27.3587 33.3687 27.0944 34.4559 27.1941 35.5407C27.2937 36.6256 27.7517 37.6464 28.4958 38.4422C29.2398 39.238 30.2276 39.7634 31.3033 39.9356C32.3791 40.1079 33.4815 39.9171 34.4369 39.3934C35.3922 38.8697 36.146 38.0429 36.5793 37.0434C37.0127 36.0438 37.101 34.9285 36.8304 33.8732C36.5597 32.8179 35.9454 31.8828 35.0844 31.2153C34.2234 30.5478 33.1647 30.1859 32.0753 30.1867H13.8067C13.3648 30.1867 12.937 30.0317 12.5977 29.7486C12.2585 29.4656 12.0293 29.0724 11.9502 28.6377L11.271 24.904H33.6035C34.5756 24.9042 35.5169 24.5633 36.2633 23.9406C37.0098 23.318 37.514 22.453 37.6881 21.4967L39.9804 8.88054C40.01 8.71773 40.0036 8.5504 39.9615 8.39035C39.9195 8.2303 39.8428 8.08142 39.737 7.95419ZM16.6046 35.092C16.6046 35.6144 16.4497 36.1251 16.1595 36.5594C15.8692 36.9938 15.4567 37.3324 14.9741 37.5323C14.4914 37.7322 13.9604 37.7845 13.448 37.6826C12.9356 37.5807 12.465 37.3291 12.0956 36.9597C11.7262 36.5903 11.4746 36.1197 11.3727 35.6073C11.2708 35.0949 11.3231 34.5638 11.523 34.0812C11.7229 33.5986 12.0615 33.186 12.4958 32.8958C12.9302 32.6056 13.4409 32.4507 13.9633 32.4507C14.6638 32.4507 15.3356 32.7289 15.831 33.2243C16.3263 33.7196 16.6046 34.3915 16.6046 35.092ZM34.7166 35.092C34.7166 35.6144 34.5617 36.1251 34.2715 36.5594C33.9812 36.9938 33.5687 37.3324 33.0861 37.5323C32.6034 37.7322 32.0723 37.7845 31.56 37.6826C31.0476 37.5807 30.577 37.3291 30.2076 36.9597C29.8382 36.5903 29.5866 36.1197 29.4847 35.6073C29.3828 35.0949 29.4351 34.5638 29.635 34.0812C29.8349 33.5986 30.1735 33.186 30.6078 32.8958C31.0422 32.6056 31.5529 32.4507 32.0753 32.4507C32.7758 32.4507 33.4476 32.7289 33.943 33.2243C34.4383 33.7196 34.7166 34.3915 34.7166 35.092ZM35.46 21.091C35.3809 21.5258 35.1517 21.9189 34.8124 22.202C34.4732 22.4851 34.0453 22.6401 33.6035 22.64H10.8597L8.5278 9.81067H37.5108L35.46 21.091Z" fill="white"/>
</svg>
