<svg width="40" height="32" viewBox="0 0 40 32" fill="none" xmlns="http://www.w3.org/2000/svg">
<path d="M5.83253 9.32236C5.83286 7.74064 6.24206 6.18586 7.02041 4.8089C7.79877 3.43194 8.91985 2.27957 10.2749 1.46362C11.6299 0.647659 13.1728 0.195827 14.7539 0.151967C16.335 0.108106 17.9006 0.473707 19.2988 1.21329C20.697 1.95287 21.8802 3.04132 22.7337 4.37301C23.5872 5.7047 24.082 7.2344 24.17 8.81367C24.258 10.3929 23.9363 11.9682 23.236 13.3864C22.5358 14.8047 21.4808 16.0179 20.1735 16.9083C22.9888 17.9409 25.4307 19.7923 27.1849 22.2244C28.9391 24.6565 29.9254 27.5579 30.0167 30.5552C30.0128 30.8784 29.8842 31.1876 29.6577 31.4181C29.4313 31.6487 29.1245 31.7828 28.8014 31.7925C28.4784 31.8022 28.1641 31.6867 27.9242 31.4701C27.6843 31.2536 27.5374 30.9527 27.5142 30.6303C27.4148 27.3795 26.0536 24.2951 23.719 22.0307C21.3844 19.7664 18.2599 18.5 15.0075 18.5C11.7552 18.5 8.63065 19.7664 6.29604 22.0307C3.96143 24.2951 2.60022 27.3795 2.50087 30.6303C2.48416 30.957 2.34017 31.2642 2.09973 31.486C1.8593 31.7079 1.54154 31.8267 1.21454 31.8171C0.887537 31.8075 0.577299 31.6703 0.350288 31.4347C0.123277 31.1991 -0.00245229 30.884 3.62492e-05 30.5569C0.0910461 27.5593 1.07712 24.6575 2.83134 22.2251C4.58556 19.7927 7.02763 17.941 9.8432 16.9083C8.60669 16.0668 7.59478 14.9357 6.89571 13.6134C6.19665 12.2912 5.83164 10.818 5.83253 9.32236ZM15.0084 2.64903C13.2385 2.64903 11.5411 3.35211 10.2896 4.6036C9.03811 5.85509 8.33503 7.55248 8.33503 9.32236C8.33503 11.0922 9.03811 12.7896 10.2896 14.0411C11.5411 15.2926 13.2385 15.9957 15.0084 15.9957C16.7782 15.9957 18.4756 15.2926 19.7271 14.0411C20.9786 12.7896 21.6817 11.0922 21.6817 9.32236C21.6817 7.55248 20.9786 5.85509 19.7271 4.6036C18.4756 3.35211 16.7782 2.64903 15.0084 2.64903ZM28.8389 9.32236C28.5919 9.32236 28.3517 9.33904 28.1148 9.37241C27.9494 9.40203 27.7797 9.39802 27.6159 9.36064C27.4521 9.32326 27.2975 9.25327 27.1613 9.15484C27.0251 9.0564 26.9101 8.93155 26.8232 8.78772C26.7364 8.6439 26.6793 8.48405 26.6556 8.3177C26.6318 8.15136 26.6418 7.98193 26.6849 7.81953C26.7281 7.65713 26.8035 7.50508 26.9067 7.37246C27.0098 7.23983 27.1387 7.12934 27.2855 7.04759C27.4323 6.96583 27.594 6.91448 27.7611 6.8966C29.4204 6.6567 31.1123 6.97534 32.5707 7.80238C34.029 8.62942 35.171 9.9179 35.8168 11.465C36.4627 13.0122 36.5757 14.7302 36.1382 16.3486C35.7007 17.9671 34.7375 19.3941 33.4001 20.4051C35.366 21.2854 37.0352 22.7157 38.2063 24.5236C39.3774 26.3315 40.0004 28.4396 40 30.5936C40 30.9255 39.8682 31.2437 39.6335 31.4784C39.3989 31.713 39.0806 31.8449 38.7487 31.8449C38.4169 31.8449 38.0986 31.713 37.864 31.4784C37.6293 31.2437 37.4975 30.9255 37.4975 30.5936C37.4973 28.732 36.8975 26.92 35.7869 25.4259C34.6762 23.9319 33.1139 22.8353 31.3313 22.2987L30.4404 22.0317V19.2356L31.1245 18.8869C32.1384 18.3733 32.9497 17.533 33.4273 16.5016C33.9049 15.4702 34.021 14.308 33.7568 13.2025C33.4926 12.097 32.8636 11.1128 31.9713 10.4088C31.079 9.70481 29.9755 9.32206 28.8389 9.32236Z" fill="white"/>
</svg>
