<svg width="40" height="40" viewBox="0 0 40 40" fill="none" xmlns="http://www.w3.org/2000/svg">
<path d="M34.0347 35.8455H21.9377C22.3251 35.0928 22.6358 34.3022 22.8699 33.4736H34.0347C34.3123 33.4737 34.5811 33.3764 34.7943 33.1987C35.0076 33.021 35.1517 32.7741 35.2017 32.5011L35.2207 32.2876V21.6138C35.2208 21.3362 35.1235 21.0674 34.9458 20.8541C34.7681 20.6409 34.5212 20.4967 34.2482 20.4468L34.0347 20.4278H22.1749V24.4744C21.5808 23.1828 20.7796 21.997 19.8029 20.9639V20.4278H19.2692C18.2361 19.4511 17.0503 18.6499 15.7587 18.0558H19.8029V6.19604C19.8032 5.95412 19.7295 5.71789 19.5918 5.51905C19.454 5.32021 19.2587 5.16826 19.032 5.08359L18.8304 5.02903L18.617 5.01006H7.94313C7.66555 5.00997 7.39673 5.10724 7.18349 5.28494C6.97025 5.46265 6.82609 5.70952 6.77613 5.98256L6.75715 6.19604V17.3609C5.93013 17.5965 5.13947 17.9072 4.38519 18.293V6.19604C4.38523 5.31157 4.7147 4.45884 5.30935 3.80411C5.904 3.14938 6.72119 2.73961 7.60157 2.6547L7.94313 2.6381H18.617C19.501 2.63808 20.3535 2.96722 21.0081 3.56138C21.6628 4.15554 22.0728 4.97215 22.1583 5.8521L22.1749 6.19604V6.79852L27.3671 1.41654C27.979 0.781865 28.8048 0.396988 29.6844 0.336511C30.5639 0.276034 31.4346 0.544264 32.1276 1.08921L32.4028 1.32878L38.9446 7.79237C39.5722 8.41337 39.9465 9.24551 39.9947 10.1271C40.0429 11.0086 39.7616 11.8766 39.2056 12.5624L38.9612 12.8375L33.482 18.0558H34.0347C34.9192 18.0552 35.7722 18.3841 36.4274 18.9783C37.0825 19.5725 37.4929 20.3895 37.5784 21.2698L37.5926 21.6138V32.2876C37.5926 33.1717 37.2635 34.0241 36.6693 34.6788C36.0752 35.3335 35.2586 35.7435 34.3786 35.8289L34.0347 35.8455ZM22.1749 13.81V18.0558H26.4207L22.1749 13.81ZM4.54174 22.6622C4.71256 23.2709 4.75999 23.9076 4.68123 24.5349C4.60246 25.1622 4.39911 25.7675 4.0831 26.3151C3.7671 26.8627 3.34482 27.3416 2.8411 27.7236C2.33737 28.1057 1.76235 28.3832 1.14984 28.5399L0.0539935 28.8198C-0.0252076 29.6216 -0.0172547 30.4296 0.0777131 31.2297L0.907899 31.4266C1.53677 31.5753 2.12863 31.8509 2.64717 32.2366C3.16571 32.6222 3.59999 33.1097 3.92338 33.6692C4.24676 34.2287 4.45243 34.8483 4.52776 35.4901C4.6031 36.1319 4.54651 36.7824 4.36147 37.4015L4.06023 38.4025C4.6722 38.888 5.33239 39.2975 6.04082 39.6312L6.81171 38.8152C7.2555 38.3453 7.79064 37.971 8.38429 37.7154C8.97794 37.4597 9.61757 37.3281 10.2639 37.3285C10.9103 37.329 11.5497 37.4615 12.143 37.718C12.7363 37.9744 13.271 38.3494 13.7141 38.82L14.5135 39.6691C15.2092 39.3481 15.8592 38.9544 16.4632 38.4879L16.0932 37.1691C15.922 36.5602 15.8743 35.9233 15.9529 35.2957C16.0315 34.6681 16.2348 34.0626 16.5508 33.5147C16.8668 32.9668 17.2892 32.4877 17.7931 32.1055C18.2971 31.7233 18.8723 31.4457 19.4851 31.289L20.5762 31.0115C20.6556 30.2089 20.6476 29.4001 20.5525 28.5992L19.727 28.4047C19.0979 28.256 18.5058 27.9803 17.987 27.5945C17.4683 27.2087 17.0339 26.721 16.7105 26.1612C16.3871 25.6015 16.1815 24.9815 16.1063 24.3394C16.0312 23.6973 16.088 23.0467 16.2735 22.4274L16.5723 21.4288C15.9614 20.944 15.2968 20.531 14.5917 20.1977L13.8208 21.0137C13.3772 21.4837 12.8422 21.8582 12.2486 22.1141C11.6551 22.3699 11.0155 22.5018 10.3691 22.5016C9.72278 22.5013 9.08328 22.369 8.4899 22.1128C7.89651 21.8565 7.36175 21.4817 6.91844 21.0113L6.11909 20.1621C5.42801 20.4812 4.77482 20.8766 4.17172 21.341L4.54174 22.6622ZM10.3151 32.2876C9.68601 32.2876 9.08269 32.0377 8.63786 31.5929C8.19303 31.148 7.94313 30.5447 7.94313 29.9156C7.94313 29.2866 8.19303 28.6832 8.63786 28.2384C9.08269 27.7936 9.68601 27.5437 10.3151 27.5437C10.9442 27.5437 11.5475 27.7936 11.9923 28.2384C12.4371 28.6832 12.6871 29.2866 12.6871 29.9156C12.6871 30.5447 12.4371 31.148 11.9923 31.5929C11.5475 32.0377 10.9442 32.2876 10.3151 32.2876Z" fill="white"/>
</svg>
