<svg width="42" height="31" viewBox="0 0 42 31" fill="none" xmlns="http://www.w3.org/2000/svg">
<path d="M25.6565 26.1062H13.3283C13.3283 24.4116 11.9484 23.0377 10.2462 23.0377C8.54402 23.0377 7.16413 24.4116 7.16413 26.1062H3.31155C2.03492 26.1062 1 25.0759 1 23.8049V16.9017H25.6565M25.6565 26.1062H30.2796C30.2796 24.4116 31.6595 23.0377 33.3617 23.0377C35.0639 23.0377 36.4437 24.4116 36.4437 26.1062L38.7553 26.1062C40.0319 26.1062 41.0744 25.0746 40.9958 23.806C40.5642 16.8352 38.1846 10.3892 34.3923 5.00081C33.6481 3.94337 32.443 3.31294 31.1481 3.24219H25.6565V16.9017M25.6565 26.1062V16.9017" stroke="white" stroke-width="2" stroke-linecap="round" stroke-linejoin="round"/>
<path d="M13.1895 27.5607C13.1895 29.2554 11.8096 30.6292 10.1075 30.6292C8.40528 30.6292 7.02539 29.2554 7.02539 27.5607C7.02539 25.866 8.40528 24.4922 10.1075 24.4922C11.8096 24.4922 13.1895 25.866 13.1895 27.5607Z" fill="white"/>
<path d="M36.305 27.5607C36.305 29.2554 34.9251 30.6292 33.2229 30.6292C31.5208 30.6292 30.1409 29.2554 30.1409 27.5607C30.1409 25.866 31.5208 24.4922 33.2229 24.4922C34.9251 24.4922 36.305 25.866 36.305 27.5607Z" fill="white"/>
<path d="M13.2374 1.36719C9.78463 1.36719 6.37358 1.51614 3.01301 1.80674C1.86176 1.9063 1 2.72225 1 3.68673V16.664H25.4749V5.31553V3.68673C25.4749 2.72225 24.6131 1.9063 23.4619 1.80674C20.1013 1.51614 16.6903 1.36719 13.2374 1.36719Z" stroke="white" stroke-width="2" stroke-linecap="round" stroke-linejoin="round"/>
</svg>
