<svg width="25" height="26" viewBox="0 0 25 26" fill="none" xmlns="http://www.w3.org/2000/svg">
<path fill-rule="evenodd" clip-rule="evenodd" d="M0.451172 2.98863C0.451172 2.44878 0.665627 1.93104 1.04736 1.54931C1.42909 1.16758 1.94683 0.953128 2.48668 0.953128H22.7775C23.045 0.952691 23.31 1.00503 23.5573 1.10714C23.8046 1.20925 24.0293 1.35913 24.2186 1.5482C24.4078 1.73728 24.558 1.96183 24.6604 2.20899C24.7627 2.45616 24.8154 2.7211 24.8152 2.98863V23.2794C24.8155 23.547 24.763 23.812 24.6608 24.0593C24.5586 24.3066 24.4086 24.5313 24.2194 24.7206C24.0303 24.9099 23.8056 25.06 23.5584 25.1623C23.3112 25.2647 23.0462 25.3173 22.7786 25.3172H2.48668C2.21928 25.3172 1.9545 25.2645 1.70747 25.1621C1.46044 25.0598 1.23599 24.9097 1.04697 24.7206C0.857937 24.5315 0.708026 24.3069 0.605798 24.0598C0.503569 23.8128 0.451027 23.548 0.451172 23.2806V2.98863ZM10.0949 10.2425H13.394V11.8992C13.8702 10.9468 15.0884 10.0896 16.919 10.0896C20.4286 10.0896 21.2603 11.9867 21.2603 15.4675V21.9151H17.7087V16.2604C17.7087 14.278 17.2325 13.1595 16.0231 13.1595C14.3453 13.1595 13.6476 14.3655 13.6476 16.2604V21.9151H10.0949V10.2425ZM4.00389 21.7633H7.55661V10.0896H4.00389V21.7622V21.7633ZM8.06493 6.28221C8.07163 6.5864 8.0175 6.88886 7.90573 7.17184C7.79395 7.45483 7.62677 7.71264 7.41401 7.93014C7.20124 8.14764 6.94718 8.32045 6.66672 8.43843C6.38626 8.55641 6.08507 8.61719 5.78081 8.61719C5.47654 8.61719 5.17535 8.55641 4.89489 8.43843C4.61443 8.32045 4.36037 8.14764 4.1476 7.93014C3.93484 7.71264 3.76766 7.45483 3.65589 7.17184C3.54411 6.88886 3.48998 6.5864 3.49668 6.28221C3.50982 5.68513 3.75625 5.11693 4.18317 4.6993C4.6101 4.28168 5.18358 4.04782 5.78081 4.04782C6.37803 4.04782 6.95151 4.28168 7.37844 4.6993C7.80536 5.11693 8.05179 5.68513 8.06493 6.28221Z" fill="#5B7DF5"/>
</svg>
