<svg width="25" height="16" viewBox="0 0 25 16" fill="none" xmlns="http://www.w3.org/2000/svg">
<path d="M6.90292 4.75L8.12589 6.23654L3.11804 11.2444L0.21875 8.08154L1.44172 6.85857L3.11804 8.52434L6.90292 4.75Z" fill="#6B7280"/>
<path d="M19.1944 13.2686V15.3772H6.54297V13.2686C6.54297 13.2686 6.54297 9.05147 12.8687 9.05147C19.1944 9.05147 19.1944 13.2686 19.1944 13.2686ZM16.0315 3.78005C16.0315 3.15449 15.846 2.54299 15.4985 2.02286C15.151 1.50273 14.657 1.09734 14.0791 0.857947C13.5011 0.618558 12.8652 0.555923 12.2516 0.677962C11.6381 0.800002 11.0745 1.10123 10.6322 1.54357C10.1899 1.9859 9.88864 2.54947 9.7666 3.163C9.64456 3.77654 9.70719 4.41248 9.94658 4.99042C10.186 5.56836 10.5914 6.06233 11.1115 6.40986C11.6316 6.7574 12.2431 6.9429 12.8687 6.9429C13.7075 6.9429 14.512 6.60967 15.1052 6.01652C15.6983 5.42337 16.0315 4.61889 16.0315 3.78005ZM19.4053 9.11473C19.9816 9.64641 20.4462 10.2876 20.772 11.0008C21.0978 11.714 21.2783 12.4849 21.303 13.2686V15.3772H24.4658V13.2686C24.4658 13.2686 24.4658 9.63133 19.4053 9.11473ZM18.1401 0.617189C17.8216 0.617379 17.505 0.667176 17.2018 0.764789C17.8186 1.6493 18.1493 2.7017 18.1493 3.78005C18.1493 4.85839 17.8186 5.91079 17.2018 6.7953C17.505 6.89291 17.8216 6.94271 18.1401 6.9429C18.979 6.9429 19.7834 6.60967 20.3766 6.01652C20.9697 5.42337 21.303 4.61889 21.303 3.78005C21.303 2.9412 20.9697 2.13672 20.3766 1.54357C19.7834 0.950417 18.979 0.617189 18.1401 0.617189Z" fill="#6B7280"/>
</svg>
