<svg width="21" height="24" viewBox="0 0 21 24" fill="none" xmlns="http://www.w3.org/2000/svg">
<path d="M11.3199 0.831913C12.5746 0.8125 13.8221 0.824004 15.0681 0.8125C15.1436 2.28 15.6714 3.77483 16.7456 4.81237C17.8176 5.87579 19.334 6.36256 20.8094 6.52721V10.3876C19.4268 10.3423 18.0376 10.0547 16.783 9.45934C16.2365 9.212 15.7275 8.89348 15.2292 8.56777C15.2227 11.369 15.2407 14.1667 15.2112 16.9565C15.1364 18.2967 14.6942 19.6305 13.9148 20.7349C12.6609 22.5734 10.4844 23.772 8.249 23.8094C6.87785 23.8878 5.50813 23.5139 4.33973 22.8251C2.40343 21.6833 1.04091 19.5931 0.842459 17.3498C0.817462 16.8747 0.813624 16.3987 0.830955 15.9233C1.00352 14.0991 1.90588 12.3541 3.30651 11.167C4.89409 9.78434 7.118 9.12572 9.20026 9.51543C9.21967 10.9355 9.16287 12.3541 9.16287 13.7741C8.21162 13.4664 7.10002 13.5527 6.26884 14.13C5.66073 14.5307 5.20118 15.1201 4.96096 15.8075C4.76251 16.2936 4.81932 16.8335 4.83082 17.3498C5.05875 18.923 6.57155 20.2452 8.18645 20.1022C9.25706 20.0907 10.2831 19.4694 10.841 18.5599C11.0215 18.2414 11.2236 17.9156 11.2343 17.541C11.3285 15.8262 11.2911 14.1185 11.3027 12.4037C11.3106 8.53901 11.2911 4.6851 11.3206 0.832632L11.3199 0.831913Z" fill="#5B7DF5"/>
</svg>
