<svg width="19" height="16" viewBox="0 0 19 16" fill="none" xmlns="http://www.w3.org/2000/svg">
<path d="M3.90162 3.36842C3.90162 1.50737 5.40899 0 7.27005 0C9.1311 0 10.6385 1.50737 10.6385 3.36842C10.6385 5.22947 9.1311 6.73684 7.27005 6.73684C5.40899 6.73684 3.90162 5.22947 3.90162 3.36842ZM6.54584 13.2632L6.30162 12.6316L6.54584 12C7.13531 10.5263 8.17952 9.38105 9.46794 8.60632C8.77741 8.48842 8.04478 8.42105 7.27005 8.42105C3.54794 8.42105 0.533203 9.92842 0.533203 11.7895V13.4737H6.65531C6.62162 13.3979 6.57952 13.3305 6.54584 13.2632ZM13.1648 11.7895C12.6932 11.7895 12.3227 12.16 12.3227 12.6316C12.3227 13.1032 12.6932 13.4737 13.1648 13.4737C13.6364 13.4737 14.0069 13.1032 14.0069 12.6316C14.0069 12.16 13.6364 11.7895 13.1648 11.7895ZM18.2174 12.6316C17.4258 14.6021 15.4637 16 13.1648 16C10.8658 16 8.90373 14.6021 8.11215 12.6316C8.90373 10.6611 10.8658 9.26316 13.1648 9.26316C15.4637 9.26316 17.4258 10.6611 18.2174 12.6316ZM15.27 12.6316C15.27 12.0732 15.0482 11.5377 14.6534 11.1429C14.2586 10.7481 13.7231 10.5263 13.1648 10.5263C12.6064 10.5263 12.071 10.7481 11.6761 11.1429C11.2813 11.5377 11.0595 12.0732 11.0595 12.6316C11.0595 13.1899 11.2813 13.7254 11.6761 14.1202C12.071 14.515 12.6064 14.7368 13.1648 14.7368C13.7231 14.7368 14.2586 14.515 14.6534 14.1202C15.0482 13.7254 15.27 13.1899 15.27 12.6316Z" fill="#6B7280"/>
</svg>
