<svg width="28" height="18" viewBox="0 0 28 18" fill="none" xmlns="http://www.w3.org/2000/svg">
<path d="M26.6314 3.04751C26.4809 2.51065 26.1877 2.0246 25.7831 1.64104C25.367 1.24568 24.857 0.962874 24.3013 0.819307C22.2215 0.271117 13.889 0.271117 13.889 0.271117C10.4153 0.231595 6.94238 0.405423 3.48997 0.791621C2.93424 0.945794 2.42522 1.23492 2.00819 1.63329C1.59843 2.02754 1.30163 2.51372 1.14659 3.0464C0.774146 5.05283 0.593186 7.09011 0.606152 9.13077C0.592863 11.1696 0.773378 13.2062 1.14659 15.2151C1.29831 15.7456 1.594 16.2296 2.00487 16.6205C2.41574 17.0114 2.92738 17.2938 3.48997 17.4433C5.59746 17.9904 13.889 17.9904 13.889 17.9904C17.3671 18.03 20.8444 17.8562 24.3013 17.4699C24.857 17.3263 25.367 17.0435 25.7831 16.6482C26.1928 16.2572 26.4841 15.7711 26.6303 15.2417C27.0124 13.2361 27.1983 11.1979 27.1851 9.15624C27.2138 7.1059 27.0283 5.05817 26.6314 3.0464V3.04751ZM11.2399 12.9227V5.33994L18.1726 9.13187L11.2399 12.9227Z" fill="#5B7DF5"/>
</svg>
