<svg width="16" height="18" viewBox="0 0 16 18" fill="none" xmlns="http://www.w3.org/2000/svg">
<path d="M15.429 4.28677L8.52706 0.507941C8.36569 0.418817 8.18435 0.37207 8 0.37207C7.81565 0.37207 7.63431 0.418817 7.47294 0.507941L0.57098 4.28677C0.398279 4.38126 0.254157 4.52045 0.153705 4.68975C0.0532532 4.85906 0.000165387 5.05226 0 5.24912V12.7503C0.000165387 12.9472 0.0532532 13.1404 0.153705 13.3097C0.254157 13.479 0.398279 13.6182 0.57098 13.7126L7.47294 17.4915C7.63436 17.5805 7.81568 17.6271 8 17.6271C8.18432 17.6271 8.36564 17.5805 8.52706 17.4915L15.429 13.7126C15.6017 13.6182 15.7458 13.479 15.8463 13.3097C15.9467 13.1404 15.9998 12.9472 16 12.7503V5.24912C15.9998 5.05226 15.9467 4.85906 15.8463 4.68975C15.7458 4.52045 15.6017 4.38126 15.429 4.28677ZM7.92157 1.33304C7.94465 1.32041 7.97055 1.31379 7.99686 1.31379C8.02318 1.31379 8.04907 1.32041 8.07216 1.33304L14.6282 4.92127L11.9663 6.37775L5.33726 2.74951L7.92157 1.33304ZM7.52941 16.4507L1.01961 12.8875C0.995554 12.8737 0.975618 12.8536 0.961838 12.8295C0.948058 12.8054 0.940928 12.7781 0.941177 12.7503V5.75735L7.52941 9.3652V16.4507ZM1.37176 4.92127L4.35765 3.28598L10.9859 6.91422L8 8.54794L1.37176 4.92127ZM15.0588 12.7503C15.0591 12.7781 15.0519 12.8054 15.0382 12.8295C15.0244 12.8536 15.0044 12.8737 14.9804 12.8875L8.47059 16.4507V9.36363L11.2941 7.81775V10.8821C11.2941 11.0069 11.3437 11.1266 11.4319 11.2148C11.5202 11.3031 11.6399 11.3526 11.7647 11.3526C11.8895 11.3526 12.0092 11.3031 12.0975 11.2148C12.1857 11.1266 12.2353 11.0069 12.2353 10.8821V7.30324L15.0588 5.75735V12.7503Z" fill="white"/>
</svg>
