<svg width="27" height="28" viewBox="0 0 27 28" fill="none" xmlns="http://www.w3.org/2000/svg">
<path d="M26.7645 5.85819C26.6707 5.74587 26.5533 5.65553 26.4207 5.59355C26.2881 5.53157 26.1435 5.49945 25.9971 5.49948H5.83435L5.07444 1.32116C5.03258 1.09077 4.91119 0.882379 4.73144 0.732314C4.55168 0.58225 4.32496 0.500034 4.0908 0.5H0.999889C0.734702 0.5 0.480376 0.605346 0.292861 0.792863C0.105345 0.980379 0 1.23471 0 1.4999C0 1.76508 0.105345 2.01941 0.292861 2.20693C0.480376 2.39445 0.734702 2.49979 0.999889 2.49979H3.24964L6.44428 20.0342C6.53839 20.5542 6.7682 21.0402 7.11046 21.4428C6.63807 21.884 6.29711 22.4475 6.12539 23.0707C5.95367 23.6938 5.9579 24.3524 6.13761 24.9733C6.31731 25.5942 6.66547 26.1532 7.14349 26.5884C7.6215 27.0235 8.21069 27.3177 8.84571 27.4384C9.48074 27.5591 10.1368 27.5016 10.7411 27.2722C11.3454 27.0429 11.8744 26.6506 12.2694 26.1389C12.6644 25.6272 12.91 25.0162 12.9789 24.3735C13.0478 23.7307 12.9374 23.0815 12.6598 22.4977H18.3367C18.113 22.966 17.9973 23.4786 17.998 23.9976C17.998 24.6897 18.2033 25.3663 18.5878 25.9418C18.9723 26.5174 19.5189 26.9659 20.1584 27.2308C20.7978 27.4957 21.5015 27.565 22.1804 27.4299C22.8592 27.2949 23.4828 26.9616 23.9722 26.4722C24.4616 25.9827 24.7949 25.3592 24.93 24.6803C25.065 24.0014 24.9957 23.2978 24.7308 22.6583C24.466 22.0188 24.0174 21.4723 23.4419 21.0877C22.8664 20.7032 22.1898 20.4979 21.4976 20.4979H9.39521C9.16105 20.4979 8.93432 20.4157 8.75457 20.2656C8.57481 20.1155 8.45342 19.9071 8.41157 19.6768L8.01536 17.4982H22.5138C23.2162 17.4981 23.8964 17.2515 24.4357 16.8013C24.9749 16.3511 25.3391 15.7259 25.4647 15.0347L26.9845 6.67811C27.0102 6.53367 27.0039 6.38534 26.9658 6.24365C26.9278 6.10195 26.8591 5.97035 26.7645 5.85819ZM10.9988 23.9976C10.9988 24.2942 10.9108 24.5842 10.746 24.8308C10.5812 25.0775 10.347 25.2697 10.0729 25.3832C9.79885 25.4967 9.49728 25.5264 9.20634 25.4686C8.9154 25.4107 8.64816 25.2679 8.4384 25.0581C8.22865 24.8483 8.0858 24.5811 8.02793 24.2902C7.97006 23.9992 7.99976 23.6976 8.11328 23.4236C8.2268 23.1495 8.41904 22.9153 8.66568 22.7505C8.91233 22.5857 9.20231 22.4977 9.49895 22.4977C9.89673 22.4977 10.2782 22.6557 10.5595 22.937C10.8408 23.2183 10.9988 23.5998 10.9988 23.9976ZM22.9974 23.9976C22.9974 24.2942 22.9095 24.5842 22.7447 24.8308C22.5799 25.0775 22.3456 25.2697 22.0716 25.3832C21.7975 25.4967 21.4959 25.5264 21.205 25.4686C20.9141 25.4107 20.6468 25.2679 20.4371 25.0581C20.2273 24.8483 20.0845 24.5811 20.0266 24.2902C19.9687 23.9992 19.9984 23.6976 20.1119 23.4236C20.2255 23.1495 20.4177 22.9153 20.6644 22.7505C20.911 22.5857 21.201 22.4977 21.4976 22.4977C21.8954 22.4977 22.2769 22.6557 22.5582 22.937C22.8394 23.2183 22.9974 23.5998 22.9974 23.9976ZM23.4974 14.6773C23.4554 14.9083 23.3335 15.1172 23.153 15.2673C22.9724 15.4175 22.7448 15.4993 22.51 15.4984H7.65165L6.19806 7.49927H24.7985L23.4974 14.6773Z" fill="#898C94"/>
</svg>
