<svg width="30" height="30" viewBox="0 0 30 30" fill="none" xmlns="http://www.w3.org/2000/svg">
<path d="M30.0001 14.9998C30.0001 17.9665 29.1203 20.8665 27.4721 23.3332C25.8239 25.7999 23.4812 27.7225 20.7403 28.8578C17.9994 29.9931 14.9834 30.2901 12.0737 29.7114C9.16397 29.1326 6.49122 27.704 4.39343 25.6062C2.29564 23.5085 0.867007 20.8358 0.288228 17.9261C-0.290551 15.0164 0.00649923 12.0005 1.14182 9.25962C2.27713 6.51877 4.19975 4.17612 6.66649 2.52792C9.13323 0.879724 12.0333 0 15 0C18.9783 0 22.7936 1.58033 25.6067 4.39334C28.4197 7.20635 30.0001 11.0216 30.0001 14.9998Z" fill="#FFCC00"/>
<path d="M26.4767 5.34304C24.2168 2.65893 21.0875 0.851971 17.6331 0.236502C14.1788 -0.378968 10.6179 0.236006 7.57007 1.97444C4.52223 3.71288 2.18028 6.46476 0.951628 9.75135C-0.277022 13.0379 -0.314614 16.6512 0.845398 19.9627C9.30385 14.9415 17.8476 10.0683 26.4767 5.34304Z" fill="#FCDC59"/>
<path d="M26.164 14.7625C26.164 17.0178 25.4952 19.2225 24.2422 21.0978C22.9892 22.973 21.2082 24.4346 19.1245 25.2977C17.0408 26.1607 14.7479 26.3865 12.5359 25.9465C10.3238 25.5065 8.29197 24.4204 6.6972 22.8256C5.10244 21.2308 4.01643 19.1989 3.57648 16.9868C3.13653 14.7748 3.36243 12.482 4.22559 10.3984C5.08875 8.31475 6.55043 6.53385 8.42575 5.28092C10.3011 4.02798 12.5058 3.35928 14.7612 3.35938C16.2587 3.35938 17.7415 3.65432 19.125 4.22739C20.5085 4.80046 21.7655 5.64042 22.8244 6.6993C23.8832 7.75819 24.7232 9.01526 25.2962 10.3987C25.8692 11.7822 26.1641 13.265 26.164 14.7625Z" fill="#DA8100"/>
<path d="M26.4883 15.2381C26.4883 17.4631 25.8285 19.6382 24.5924 21.4882C23.3562 23.3382 21.5992 24.7802 19.5435 25.6316C17.4878 26.4831 15.2258 26.7059 13.0435 26.2718C10.8613 25.8377 8.85669 24.7663 7.28335 23.193C5.71001 21.6197 4.63854 19.6151 4.20445 17.4329C3.77037 15.2506 3.99315 12.9886 4.84464 10.933C5.69613 8.87736 7.13809 7.12037 8.98815 5.88422C10.8382 4.64807 13.0133 3.98828 15.2383 3.98828C18.222 3.98828 21.0835 5.17353 23.1933 7.28328C25.3031 9.39304 26.4883 12.2545 26.4883 15.2381Z" fill="#F0AA00"/>
<path d="M19.4262 19.106C19.469 19.1043 19.5117 19.1114 19.5516 19.127C19.5915 19.1426 19.6278 19.1663 19.6581 19.1966C19.6884 19.2269 19.7121 19.2631 19.7276 19.3031C19.7432 19.343 19.7504 19.3857 19.7487 19.4285V20.073C19.7504 20.1158 19.7433 20.1584 19.7277 20.1983C19.7121 20.2382 19.6885 20.2744 19.6582 20.3047C19.628 20.335 19.5918 20.3587 19.5519 20.3743C19.5121 20.3899 19.4694 20.3971 19.4267 20.3955H11.0473C11.0045 20.3971 10.9619 20.3899 10.9221 20.3743C10.8823 20.3587 10.8461 20.3351 10.8159 20.3048C10.7857 20.2746 10.762 20.2384 10.7464 20.1986C10.7308 20.1588 10.7236 20.1162 10.7252 20.0735V19.4285C10.7235 19.3857 10.7307 19.343 10.7463 19.3032C10.7618 19.2633 10.7855 19.2271 10.8157 19.1968C10.846 19.1665 10.8822 19.1428 10.922 19.1272C10.9619 19.1115 11.0045 19.1043 11.0473 19.106H19.4262ZM20.0304 12.9429C20.1193 12.8518 20.2259 12.7798 20.3437 12.7314C20.4615 12.6831 20.588 12.6593 20.7153 12.6617C20.8426 12.6593 20.969 12.6831 21.0868 12.7314C21.2046 12.7798 21.3112 12.8518 21.4001 12.9429C21.4913 13.0318 21.5633 13.1385 21.6116 13.2562C21.66 13.374 21.6837 13.5005 21.6814 13.6278C21.6837 13.7551 21.66 13.8815 21.6116 13.9993C21.5633 14.1171 21.4913 14.2237 21.4001 14.3126C21.3112 14.4038 21.2046 14.4757 21.0868 14.5241C20.969 14.5725 20.8426 14.5962 20.7153 14.5938C20.661 14.5922 20.607 14.5854 20.554 14.5737L19.1037 18.4615H11.3693L9.91899 14.5742C9.86599 14.5859 9.812 14.5927 9.75774 14.5943C9.63043 14.5967 9.50399 14.573 9.38621 14.5246C9.26842 14.4762 9.16179 14.4042 9.0729 14.3131C8.98159 14.2242 8.90949 14.1175 8.86103 13.9996C8.81258 13.8817 8.7888 13.7552 8.79118 13.6278C8.78881 13.5005 8.81254 13.374 8.86091 13.2562C8.90928 13.1385 8.98127 13.0318 9.07243 12.9429C9.16133 12.8518 9.26795 12.7798 9.38574 12.7314C9.50352 12.6831 9.62997 12.6593 9.75727 12.6617C9.88458 12.6593 10.011 12.6831 10.1288 12.7314C10.2466 12.7798 10.3532 12.8518 10.4421 12.9429C10.5333 13.0318 10.6053 13.1385 10.6536 13.2562C10.702 13.374 10.7257 13.5005 10.7234 13.6278C10.7225 13.7659 10.6952 13.9026 10.6427 14.0304L12.0945 14.8967C12.1669 14.943 12.2485 14.9733 12.3336 14.9854C12.4188 14.9975 12.5055 14.9913 12.5881 14.967C12.6706 14.9491 12.7483 14.9138 12.816 14.8634C12.8838 14.813 12.94 14.7488 12.9809 14.6749L14.6323 11.7936C14.5186 11.7056 14.4267 11.5926 14.3639 11.4633C14.301 11.334 14.2689 11.192 14.2699 11.0483C14.2676 10.921 14.2913 10.7945 14.3397 10.6767C14.388 10.559 14.46 10.4523 14.5512 10.3634C14.6401 10.2723 14.7467 10.2003 14.8645 10.1519C14.9823 10.1036 15.1087 10.0798 15.236 10.0822C15.3633 10.0798 15.4898 10.1036 15.6076 10.1519C15.7254 10.2003 15.832 10.2723 15.9209 10.3634C16.012 10.4523 16.084 10.559 16.1324 10.6767C16.1808 10.7945 16.2045 10.921 16.2021 11.0483C16.2032 11.192 16.171 11.334 16.1082 11.4633C16.0453 11.5926 15.9535 11.7056 15.8398 11.7936L17.4912 14.674C17.5308 14.7469 17.5854 14.8105 17.6513 14.8608C17.7172 14.9112 17.793 14.947 17.8737 14.966C17.9579 14.9896 18.0461 14.9955 18.1327 14.9834C18.2194 14.9713 18.3026 14.9414 18.3771 14.8957L19.8274 14.0295C19.775 13.9017 19.7477 13.765 19.7468 13.6268C19.7449 13.4995 19.7691 13.3731 19.8178 13.2555C19.8666 13.1379 19.939 13.0315 20.0304 12.9429Z" fill="#EA9C00"/>
<path d="M19.1899 18.8677C19.2327 18.866 19.2754 18.8731 19.3153 18.8887C19.3552 18.9043 19.3914 18.928 19.4217 18.9583C19.452 18.9886 19.4757 19.0249 19.4913 19.0648C19.5069 19.1047 19.5141 19.1474 19.5124 19.1902V19.8347C19.5141 19.8775 19.5069 19.9201 19.4914 19.96C19.4758 19.9999 19.4521 20.0361 19.4219 20.0664C19.3916 20.0967 19.3555 20.1204 19.3156 20.136C19.2758 20.1516 19.2331 20.1589 19.1903 20.1572H10.8109C10.7682 20.1589 10.7256 20.1516 10.6858 20.136C10.646 20.1204 10.6098 20.0968 10.5796 20.0665C10.5493 20.0363 10.5257 20.0001 10.5101 19.9603C10.4945 19.9205 10.4873 19.8779 10.4889 19.8352V19.1902C10.4872 19.1474 10.4944 19.1048 10.5099 19.0649C10.5255 19.025 10.5492 18.9888 10.5794 18.9585C10.6096 18.9282 10.6458 18.9045 10.6857 18.8889C10.7255 18.8733 10.7682 18.866 10.8109 18.8677H19.1899ZM19.7941 12.7047C19.883 12.6135 19.9896 12.5415 20.1074 12.4931C20.2252 12.4448 20.3516 12.421 20.4789 12.4234C20.6062 12.421 20.7327 12.4448 20.8505 12.4931C20.9683 12.5415 21.0749 12.6135 21.1638 12.7047C21.2549 12.7935 21.3269 12.9002 21.3753 13.018C21.4237 13.1357 21.4474 13.2622 21.445 13.3895C21.4474 13.5168 21.4237 13.6432 21.3753 13.761C21.3269 13.8788 21.2549 13.9854 21.1638 14.0743C21.0749 14.1655 20.9683 14.2375 20.8505 14.2858C20.7327 14.3342 20.6062 14.3579 20.4789 14.3556C20.4247 14.3539 20.3707 14.3472 20.3177 14.3354L18.8674 18.2232H11.133L9.68266 14.3359C9.62966 14.3476 9.57568 14.3544 9.52141 14.356C9.39411 14.3584 9.26766 14.3347 9.14988 14.2863C9.03209 14.2379 8.92547 14.1659 8.83657 14.0748C8.74527 13.9859 8.67316 13.8792 8.62471 13.7613C8.57625 13.6435 8.55248 13.5169 8.55485 13.3895C8.55248 13.2622 8.57621 13.1357 8.62458 13.018C8.67296 12.9002 8.74494 12.7935 8.8361 12.7047C8.925 12.6135 9.03163 12.5415 9.14941 12.4931C9.26719 12.4448 9.39364 12.421 9.52094 12.4234C9.64825 12.421 9.7747 12.4448 9.89248 12.4931C10.0103 12.5415 10.1169 12.6135 10.2058 12.7047C10.2969 12.7935 10.3689 12.9002 10.4173 13.018C10.4657 13.1357 10.4894 13.2622 10.487 13.3895C10.4862 13.5276 10.4588 13.6643 10.4064 13.7921L11.8581 14.6584C11.9306 14.7047 12.0121 14.735 12.0973 14.7471C12.1825 14.7593 12.2692 14.753 12.3517 14.7287C12.4342 14.7108 12.512 14.6755 12.5797 14.6251C12.6474 14.5748 12.7037 14.5105 12.7445 14.4367L14.396 11.5553C14.2823 11.4673 14.1904 11.3543 14.1276 11.225C14.0647 11.0958 14.0326 10.9537 14.0336 10.81C14.0312 10.6827 14.055 10.5562 14.1033 10.4385C14.1517 10.3207 14.2237 10.2141 14.3149 10.1252C14.4038 10.034 14.5104 9.96202 14.6282 9.91365C14.746 9.86527 14.8724 9.84154 14.9997 9.84391C15.127 9.84154 15.2535 9.86527 15.3712 9.91365C15.489 9.96202 15.5957 10.034 15.6846 10.1252C15.7757 10.2141 15.8477 10.3207 15.8961 10.4385C15.9444 10.5562 15.9682 10.6827 15.9658 10.81C15.9668 10.9537 15.9347 11.0958 15.8718 11.225C15.809 11.3543 15.7171 11.4673 15.6035 11.5553L17.2549 14.4357C17.2945 14.5086 17.349 14.5722 17.4149 14.6226C17.4809 14.6729 17.5567 14.7087 17.6374 14.7277C17.7216 14.7513 17.8098 14.7572 17.8964 14.7451C17.983 14.733 18.0662 14.7032 18.1408 14.6574L19.5911 13.7912C19.5387 13.6634 19.5113 13.5267 19.5105 13.3885C19.5086 13.2612 19.5327 13.1349 19.5815 13.0172C19.6303 12.8996 19.7026 12.7932 19.7941 12.7047Z" fill="#FFCC00"/>
</svg>
