<svg width="20" height="21" viewBox="0 0 20 21" fill="none" xmlns="http://www.w3.org/2000/svg">
<path d="M1 3.88423C1 2.52862 2.09894 1.42969 3.45455 1.42969H5.90909C7.2647 1.42969 8.36364 2.52863 8.36364 3.88423V6.33878C8.36364 7.69439 7.2647 8.79332 5.90909 8.79332H3.45455C2.09894 8.79332 1 7.69439 1 6.33878V3.88423Z" stroke="currentColor" stroke-width="1.5" stroke-linecap="round" stroke-linejoin="round"/>
<path d="M1 14.5206C1 13.165 2.09894 12.0661 3.45455 12.0661H5.90909C7.2647 12.0661 8.36364 13.165 8.36364 14.5206V16.9751C8.36364 18.3308 7.2647 19.4297 5.90909 19.4297H3.45455C2.09894 19.4297 1 18.3308 1 16.9751V14.5206Z" stroke="currentColor" stroke-width="1.5" stroke-linecap="round" stroke-linejoin="round"/>
<path d="M11.6364 3.88423C11.6364 2.52862 12.7353 1.42969 14.0909 1.42969H16.5455C17.9011 1.42969 19 2.52863 19 3.88423V6.33878C19 7.69439 17.9011 8.79332 16.5455 8.79332H14.0909C12.7353 8.79332 11.6364 7.69439 11.6364 6.33878V3.88423Z" stroke="currentColor" stroke-width="1.5" stroke-linecap="round" stroke-linejoin="round"/>
<path d="M11.6364 14.5206C11.6364 13.165 12.7353 12.0661 14.0909 12.0661H16.5455C17.9011 12.0661 19 13.165 19 14.5206V16.9751C19 18.3308 17.9011 19.4297 16.5455 19.4297H14.0909C12.7353 19.4297 11.6364 18.3308 11.6364 16.9751V14.5206Z" stroke="currentColor" stroke-width="1.5" stroke-linecap="round" stroke-linejoin="round"/>
</svg>
