<svg width="10" height="11" viewBox="0 0 10 11" fill="none" xmlns="http://www.w3.org/2000/svg">
<path d="M0.9375 8.625C1.18614 8.625 1.4246 8.72377 1.60041 8.89959C1.77623 9.0754 1.875 9.31386 1.875 9.5625C1.875 9.81114 1.77623 10.0496 1.60041 10.2254C1.4246 10.4012 1.18614 10.5 0.9375 10.5C0.68886 10.5 0.450403 10.4012 0.274587 10.2254C0.0987719 10.0496 0 9.81114 0 9.5625C0 9.31386 0.0987719 9.0754 0.274587 8.89959C0.450403 8.72377 0.68886 8.625 0.9375 8.625ZM5 8.625C5.24864 8.625 5.4871 8.72377 5.66291 8.89959C5.83873 9.0754 5.9375 9.31386 5.9375 9.5625C5.9375 9.81114 5.83873 10.0496 5.66291 10.2254C5.4871 10.4012 5.24864 10.5 5 10.5C4.75136 10.5 4.5129 10.4012 4.33709 10.2254C4.16127 10.0496 4.0625 9.81114 4.0625 9.5625C4.0625 9.31386 4.16127 9.0754 4.33709 8.89959C4.5129 8.72377 4.75136 8.625 5 8.625ZM9.0625 8.625C9.31114 8.625 9.5496 8.72377 9.72541 8.89959C9.90123 9.0754 10 9.31386 10 9.5625C10 9.81114 9.90123 10.0496 9.72541 10.2254C9.5496 10.4012 9.31114 10.5 9.0625 10.5C8.81386 10.5 8.5754 10.4012 8.39959 10.2254C8.22377 10.0496 8.125 9.81114 8.125 9.5625C8.125 9.31386 8.22377 9.0754 8.39959 8.89959C8.5754 8.72377 8.81386 8.625 9.0625 8.625ZM0.9375 4.5625C1.18614 4.5625 1.4246 4.66127 1.60041 4.83709C1.77623 5.0129 1.875 5.25136 1.875 5.5C1.875 5.74864 1.77623 5.9871 1.60041 6.16291C1.4246 6.33873 1.18614 6.4375 0.9375 6.4375C0.68886 6.4375 0.450403 6.33873 0.274587 6.16291C0.0987719 5.9871 0 5.74864 0 5.5C0 5.25136 0.0987719 5.0129 0.274587 4.83709C0.450403 4.66127 0.68886 4.5625 0.9375 4.5625ZM5 4.5625C5.24864 4.5625 5.4871 4.66127 5.66291 4.83709C5.83873 5.0129 5.9375 5.25136 5.9375 5.5C5.9375 5.74864 5.83873 5.9871 5.66291 6.16291C5.4871 6.33873 5.24864 6.4375 5 6.4375C4.75136 6.4375 4.5129 6.33873 4.33709 6.16291C4.16127 5.9871 4.0625 5.74864 4.0625 5.5C4.0625 5.25136 4.16127 5.0129 4.33709 4.83709C4.5129 4.66127 4.75136 4.5625 5 4.5625ZM9.0625 4.5625C9.31114 4.5625 9.5496 4.66127 9.72541 4.83709C9.90123 5.0129 10 5.25136 10 5.5C10 5.74864 9.90123 5.9871 9.72541 6.16291C9.5496 6.33873 9.31114 6.4375 9.0625 6.4375C8.81386 6.4375 8.5754 6.33873 8.39959 6.16291C8.22377 5.9871 8.125 5.74864 8.125 5.5C8.125 5.25136 8.22377 5.0129 8.39959 4.83709C8.5754 4.66127 8.81386 4.5625 9.0625 4.5625ZM0.9375 0.5C1.06061 0.5 1.18252 0.524249 1.29627 0.571363C1.41001 0.618477 1.51336 0.687532 1.60041 0.774587C1.68747 0.861642 1.75652 0.964992 1.80364 1.07873C1.85075 1.19248 1.875 1.31439 1.875 1.4375C1.875 1.56061 1.85075 1.68252 1.80364 1.79627C1.75652 1.91001 1.68747 2.01336 1.60041 2.10041C1.51336 2.18747 1.41001 2.25652 1.29627 2.30364C1.18252 2.35075 1.06061 2.375 0.9375 2.375C0.68886 2.375 0.450403 2.27623 0.274587 2.10041C0.0987719 1.9246 0 1.68614 0 1.4375C0 1.18886 0.0987719 0.950403 0.274587 0.774587C0.450403 0.598772 0.68886 0.5 0.9375 0.5ZM5 0.5C5.12311 0.5 5.24502 0.524249 5.35877 0.571363C5.47251 0.618477 5.57586 0.687532 5.66291 0.774587C5.74997 0.861642 5.81902 0.964992 5.86614 1.07873C5.91325 1.19248 5.9375 1.31439 5.9375 1.4375C5.9375 1.56061 5.91325 1.68252 5.86614 1.79627C5.81902 1.91001 5.74997 2.01336 5.66291 2.10041C5.57586 2.18747 5.47251 2.25652 5.35877 2.30364C5.24502 2.35075 5.12311 2.375 5 2.375C4.75136 2.375 4.5129 2.27623 4.33709 2.10041C4.16127 1.9246 4.0625 1.68614 4.0625 1.4375C4.0625 1.18886 4.16127 0.950403 4.33709 0.774587C4.5129 0.598772 4.75136 0.5 5 0.5ZM9.0625 0.5C9.18561 0.5 9.30752 0.524249 9.42127 0.571363C9.53501 0.618477 9.63836 0.687532 9.72541 0.774587C9.81247 0.861642 9.88152 0.964992 9.92864 1.07873C9.97575 1.19248 10 1.31439 10 1.4375C10 1.56061 9.97575 1.68252 9.92864 1.79627C9.88152 1.91001 9.81247 2.01336 9.72541 2.10041C9.63836 2.18747 9.53501 2.25652 9.42127 2.30364C9.30752 2.35075 9.18561 2.375 9.0625 2.375C8.81386 2.375 8.5754 2.27623 8.39959 2.10041C8.22377 1.9246 8.125 1.68614 8.125 1.4375C8.125 1.18886 8.22377 0.950403 8.39959 0.774587C8.5754 0.598772 8.81386 0.5 9.0625 0.5Z" fill="#4B5563"/>
</svg>
