<svg
  viewBox="0 0 37 32"
  fill="none"
  xmlns="http://www.w3.org/2000/svg"
  style="fill: inherit;"
  preserveAspectRatio="xMidYMid meet"
>
  <path
    d="M11.6542 21.3109V23.4027C11.9996 23.339 12.3139 23.2205 12.5644 23.0567C12.9501 22.8045 13.0543 22.5385 13.0543 22.3568C13.0543 22.1752 12.9501 21.9092 12.5644 21.6569C12.3139 21.4932 11.9996 21.3747 11.6542 21.3109Z"
  ></path>
  <path
    d="M9.71798 19.5524C9.76099 19.5972 9.81001 19.6413 9.86553 19.6842C10.0319 19.8127 10.2331 19.9111 10.4543 19.9744V17.9394C10.3947 17.9564 10.3365 17.976 10.28 17.9981C10.2441 18.0122 10.2088 18.0272 10.1744 18.0433C10.0623 18.0954 9.95845 18.1577 9.86553 18.2295C9.56356 18.4629 9.4543 18.7309 9.4543 18.9569C9.4543 19.1039 9.50057 19.2688 9.61612 19.4303C9.64548 19.4713 9.6793 19.5122 9.71798 19.5524Z"
  ></path>
  <path
    fill-rule="evenodd"
    clip-rule="evenodd"
    d="M17.4543 20.6568C17.4543 24.1915 14.5889 27.0568 11.0543 27.0568C7.51967 27.0568 4.6543 24.1915 4.6543 20.6568C4.6543 17.1222 7.51967 14.2568 11.0543 14.2568C14.5889 14.2568 17.4543 17.1222 17.4543 20.6568ZM11.0542 15.8568C11.3856 15.8568 11.6542 16.1255 11.6542 16.4568V16.7095C12.1281 16.7937 12.5889 16.9803 12.9768 17.28C13.3177 17.5435 13.5716 17.8715 13.7169 18.24C13.8384 18.5483 13.687 18.8967 13.3787 19.0182C13.0704 19.1397 12.722 18.9883 12.6005 18.68C12.5422 18.5323 12.4303 18.3742 12.243 18.2295C12.0767 18.101 11.8754 18.0026 11.6542 17.9393V20.0964C12.2127 20.1707 12.7605 20.3514 13.2211 20.6526C13.8507 21.0642 14.2543 21.6683 14.2543 22.3568C14.2543 23.0453 13.8507 23.6494 13.2211 24.0611C12.7605 24.3623 12.2127 24.543 11.6542 24.6173V24.8568C11.6542 25.1882 11.3856 25.4568 11.0542 25.4568C10.7229 25.4568 10.4542 25.1882 10.4542 24.8568V24.6173C9.89579 24.543 9.34805 24.3623 8.88743 24.0611C8.5014 23.8087 8.20125 23.4869 8.025 23.1106C7.88445 22.8105 8.0138 22.4533 8.31389 22.3127C8.61398 22.1722 8.97118 22.3015 9.11172 22.6016C9.17636 22.7396 9.30783 22.9022 9.54413 23.0567C9.79459 23.2205 10.1089 23.339 10.4542 23.4027V21.2042C9.9804 21.12 9.51963 20.9334 9.13174 20.6337C8.57456 20.2031 8.25425 19.601 8.25425 18.9568C8.25425 18.3127 8.57457 17.7105 9.13174 17.28C9.51963 16.9803 9.9804 16.7937 10.4542 16.7095V16.4568C10.4542 16.1255 10.7229 15.8568 11.0542 15.8568Z"
  ></path>
  <path
    d="M34.3636 6.09524H3.81818C3.21059 6.09524 2.62789 5.85442 2.19826 5.42577C1.76864 4.99711 1.52727 4.41573 1.52727 3.80952C1.52727 3.20331 1.76864 2.62193 2.19826 2.19328C2.62789 1.76462 3.21059 1.52381 3.81818 1.52381H29.7818C29.9843 1.52381 30.1786 1.44354 30.3218 1.30065C30.465 1.15777 30.5455 0.963974 30.5455 0.761905C30.5455 0.559835 30.465 0.366042 30.3218 0.223157C30.1786 0.080272 29.9843 0 29.7818 0H3.81818C2.80554 0 1.83437 0.401359 1.11832 1.11578C0.402272 1.83021 0 2.79918 0 3.80952V28.1905C0 29.2008 0.402272 30.1698 1.11832 30.8842C1.83437 31.5986 2.80554 32 3.81818 32H34.3636C34.9712 32 35.5539 31.7592 35.9836 31.3305C36.4132 30.9019 36.6545 30.3205 36.6545 29.7143V8.38095C36.6545 7.77474 36.4132 7.19336 35.9836 6.76471C35.5539 6.33605 34.9712 6.09524 34.3636 6.09524ZM35.1273 29.7143C35.1273 29.9164 35.0468 30.1102 34.9036 30.253C34.7604 30.3959 34.5662 30.4762 34.3636 30.4762H3.81818C3.21059 30.4762 2.62789 30.2354 2.19826 29.8067C1.76864 29.3781 1.52727 28.7967 1.52727 28.1905V6.85714C2.18727 7.35344 2.99173 7.62099 3.81818 7.61905H34.3636C34.5662 7.61905 34.7604 7.69932 34.9036 7.8422C35.0468 7.98509 35.1273 8.17888 35.1273 8.38095V29.7143ZM29.0182 18.2857C29.0182 18.5871 28.9286 18.8817 28.7608 19.1323C28.593 19.3829 28.3544 19.5782 28.0754 19.6935C27.7963 19.8089 27.4892 19.839 27.193 19.7802C26.8967 19.7214 26.6246 19.5763 26.411 19.3632C26.1974 19.1501 26.0519 18.8786 25.993 18.583C25.9341 18.2874 25.9643 17.981 26.0799 17.7026C26.1955 17.4241 26.3912 17.1862 26.6424 17.0187C26.8936 16.8513 27.1888 16.7619 27.4909 16.7619C27.896 16.7619 28.2844 16.9224 28.5709 17.2082C28.8573 17.494 29.0182 17.8816 29.0182 18.2857Z"
  ></path>
</svg>