<svg width="10" height="11" viewBox="0 0 10 11" fill="none" xmlns="http://www.w3.org/2000/svg">
<path fillRule="evenodd" clipRule="evenodd" d="M5 10.5C7.76142 10.5 10 8.26142 10 5.5C10 2.73858 7.76142 0.5 5 0.5C2.23858 0.5 0 2.73858 0 5.5C0 8.26142 2.23858 10.5 5 10.5ZM3.92521 3.76229C3.74215 3.57924 3.44535 3.57924 3.26229 3.76229C3.07924 3.94535 3.07924 4.24215 3.26229 4.42521L4.33709 5.5L3.26229 6.57479C3.07924 6.75785 3.07924 7.05465 3.26229 7.23771C3.44535 7.42076 3.74215 7.42076 3.92521 7.23771L5 6.16291L6.07479 7.23771C6.25785 7.42076 6.55465 7.42076 6.73771 7.23771C6.92076 7.05465 6.92076 6.75785 6.73771 6.57479L5.66291 5.5L6.73771 4.42521C6.92076 4.24215 6.92076 3.94535 6.73771 3.76229C6.55465 3.57924 6.25785 3.57924 6.07479 3.76229L5 4.83709L3.92521 3.76229Z" fill="#E05252"/>
</svg>
