<svg width="17" height="14" viewBox="0 0 17 14" fill="none" xmlns="http://www.w3.org/2000/svg">
<path d="M16 2.96514V11.0421C16 11.9979 15.2251 12.7728 14.2692 12.7728H2.73077C1.77489 12.7728 1 11.9979 1 11.0421V2.96514M16 2.96514C16 2.00927 15.2251 1.23438 14.2692 1.23438H2.73077C1.77489 1.23438 1 2.00927 1 2.96514M16 2.96514V3.15184C16 3.75287 15.6882 4.31087 15.1763 4.62587L9.40709 8.17616C8.85081 8.51849 8.14919 8.51849 7.59291 8.17617L1.82368 4.62587C1.31181 4.31087 1 3.75287 1 3.15184V2.96514" stroke="#E05252" stroke-linecap="round" stroke-linejoin="round"/>
</svg>
