<svg width="27" height="28" viewBox="0 0 27 28" fill="none" xmlns="http://www.w3.org/2000/svg">
<path fill-rule="evenodd" clip-rule="evenodd" d="M0 14C0 10.4196 1.42232 6.9858 3.95406 4.45406C6.4858 1.92232 9.91958 0.5 13.5 0.5C17.0804 0.5 20.5142 1.92232 23.0459 4.45406C25.5777 6.9858 27 10.4196 27 14C27 17.5804 25.5777 21.0142 23.0459 23.5459C20.5142 26.0777 17.0804 27.5 13.5 27.5C9.91958 27.5 6.4858 26.0777 3.95406 23.5459C1.42232 21.0142 0 17.5804 0 14ZM13.5 2.43643C10.4332 2.43643 7.49191 3.65473 5.32332 5.82332C3.15473 7.99191 1.93643 10.9332 1.93643 14C1.93643 17.0668 3.15473 20.0081 5.32332 22.1767C7.49191 24.3453 10.4332 25.5636 13.5 25.5636C16.5668 25.5636 19.5081 24.3453 21.6767 22.1767C23.8453 20.0081 25.0636 17.0668 25.0636 14C25.0636 10.9332 23.8453 7.99191 21.6767 5.82332C19.5081 3.65473 16.5668 2.43643 13.5 2.43643ZM15.0288 20.1151C15.0288 20.5205 14.8677 20.9094 14.581 21.1961C14.2943 21.4827 13.9055 21.6438 13.5 21.6438C13.0945 21.6438 12.7057 21.4827 12.419 21.1961C12.1323 20.9094 11.9712 20.5205 11.9712 20.1151C11.9712 19.7096 12.1323 19.3208 12.419 19.0341C12.7057 18.7474 13.0945 18.5863 13.5 18.5863C13.9055 18.5863 14.2943 18.7474 14.581 19.0341C14.8677 19.3208 15.0288 19.7096 15.0288 20.1151ZM10.5444 11.4521C10.5444 10.0701 11.7368 8.75125 13.5 8.75125C15.2632 8.75125 16.4556 10.0701 16.4556 11.4521C16.4556 12.4529 15.9053 12.9645 14.9554 13.5414C14.8514 13.6066 14.7291 13.6759 14.5966 13.7534C14.1983 13.9734 13.8143 14.2185 13.447 14.4872C12.9537 14.8704 12.3789 15.4921 12.3789 16.446C12.3778 16.7434 12.4949 17.0289 12.7044 17.2399C12.9139 17.451 13.1986 17.5701 13.4959 17.5712C13.7933 17.5723 14.0788 17.4552 14.2899 17.2457C14.5009 17.0362 14.62 16.7515 14.6211 16.4542C14.678 16.3772 14.7468 16.3098 14.8249 16.2544C15.0328 16.0934 15.2632 15.9609 15.571 15.7815C15.73 15.6898 15.9114 15.5838 16.1213 15.4574C17.2098 14.795 18.6978 13.7024 18.6978 11.4521C18.6978 8.75736 16.425 6.50906 13.5 6.50906C10.575 6.50906 8.30221 8.75736 8.30221 11.4521C8.30221 11.7494 8.42032 12.0345 8.63056 12.2448C8.84081 12.455 9.12597 12.5732 9.4233 12.5732C9.72063 12.5732 10.0058 12.455 10.216 12.2448C10.4263 12.0345 10.5444 11.7494 10.5444 11.4521Z" fill="#898C94"/>
</svg>
