<svg width="32" height="32" viewBox="0 0 32 32" fill="none" xmlns="http://www.w3.org/2000/svg">
<path d="M19.5807 14.8831L8.51172 12.9922V26.9646C8.51185 27.1163 8.54281 27.2666 8.60284 27.4068C8.66286 27.547 8.75077 27.6744 8.86155 27.7816C8.97233 27.8888 9.10381 27.9739 9.24848 28.0318C9.39315 28.0898 9.54818 28.1196 9.70472 28.1195H28.8047C28.9614 28.1198 29.1167 28.0903 29.2616 28.0324C29.4065 27.9745 29.5382 27.8896 29.6492 27.7823C29.7602 27.675 29.8483 27.5476 29.9084 27.4073C29.9686 27.2669 29.9996 27.1165 29.9997 26.9646V21.8164L19.5807 14.8831Z" fill="#185C37"/>
<path d="M19.5807 2.90625H9.70472C9.54818 2.90612 9.39315 2.93589 9.24848 2.99387C9.10381 3.05184 8.97233 3.13687 8.86155 3.24411C8.75077 3.35136 8.66286 3.47871 8.60284 3.6189C8.54281 3.75909 8.51185 3.90937 8.51172 4.06116V9.20928L19.5807 15.5123L25.4417 17.4032L29.9997 15.5123V9.20928L19.5807 2.90625Z" fill="#21A366"/>
<path d="M8.51172 9.21094H19.5807V15.514H8.51172V9.21094Z" fill="#107C41"/>
<path opacity="0.1" d="M16.4337 7.95312H8.51172V23.7107H16.4337C16.7494 23.7092 17.0517 23.5871 17.2752 23.3709C17.4987 23.1548 17.6254 22.8619 17.6277 22.5558V9.10803C17.6254 8.80194 17.4987 8.50907 17.2752 8.2929C17.0517 8.07672 16.7494 7.95465 16.4337 7.95312Z" fill="black"/>
<path opacity="0.2" d="M15.7827 8.57812H8.51172V24.3357H15.7827C16.0984 24.3342 16.4007 24.2121 16.6242 23.9959C16.8477 23.7798 16.9744 23.4869 16.9767 23.1808V9.73303C16.9744 9.42694 16.8477 9.13407 16.6242 8.9179C16.4007 8.70172 16.0984 8.57965 15.7827 8.57812Z" fill="black"/>
<path opacity="0.2" d="M15.7827 8.57812H8.51172V23.0751H15.7827C16.0984 23.0736 16.4007 22.9515 16.6242 22.7353C16.8477 22.5191 16.9744 22.2263 16.9767 21.9202V9.73303C16.9744 9.42694 16.8477 9.13407 16.6242 8.9179C16.4007 8.70172 16.0984 8.57965 15.7827 8.57812Z" fill="black"/>
<path opacity="0.2" d="M15.1317 8.57812H8.51172V23.0751H15.1317C15.4474 23.0736 15.7497 22.9515 15.9732 22.7353C16.1967 22.5191 16.3234 22.2263 16.3257 21.9202V9.73303C16.3234 9.42694 16.1967 9.13407 15.9732 8.9179C15.7497 8.70172 15.4474 8.57965 15.1317 8.57812Z" fill="black"/>
<path d="M3.194 8.57813H15.132C15.4482 8.57787 15.7516 8.69937 15.9755 8.91593C16.1994 9.13249 16.3255 9.42639 16.326 9.73304V21.2899C16.3255 21.5965 16.1994 21.8904 15.9755 22.107C15.7516 22.3235 15.4482 22.4451 15.132 22.4448H3.194C3.03738 22.445 2.88224 22.4154 2.73746 22.3575C2.59267 22.2995 2.46108 22.2145 2.35019 22.1073C2.2393 22 2.1513 21.8726 2.09121 21.7324C2.03113 21.5921 2.00013 21.4418 2 21.2899V9.73304C2.00013 9.58116 2.03113 9.4308 2.09121 9.29055C2.1513 9.1503 2.2393 9.0229 2.35019 8.91565C2.46108 8.80839 2.59267 8.72338 2.73746 8.66546C2.88224 8.60755 3.03738 8.57787 3.194 8.57813Z" fill="url(#paint0_linear_1636_106037)"/>
<path d="M5.7002 19.2691L8.2112 15.5028L5.9112 11.7578H7.7582L9.0132 14.1559C9.12919 14.3828 9.2132 14.5515 9.2512 14.664H9.2682C9.3502 14.4817 9.4372 14.3062 9.5282 14.1345L10.8702 11.7617H12.5702L10.2112 15.4853L12.6302 19.272H10.8212L9.3712 16.6431C9.30387 16.5301 9.24666 16.4117 9.2002 16.2892H9.1762C9.13391 16.4086 9.07754 16.5228 9.0082 16.6296L7.5152 19.2691H5.7002Z" fill="white"/>
<path d="M28.8061 2.90625H19.5811V9.20928H30.0001V4.06116C29.9999 3.90929 29.9689 3.75893 29.9088 3.61867C29.8488 3.47842 29.7608 3.35103 29.6499 3.24377C29.539 3.13652 29.4074 3.0515 29.2626 2.99359C29.1178 2.93567 28.9627 2.906 28.8061 2.90625Z" fill="#33C481"/>
<path d="M19.5811 15.5156H30.0001V21.8187H19.5811V15.5156Z" fill="#107C41"/>
<defs>
<linearGradient id="paint0_linear_1636_106037" x1="4.494" y1="7.67049" x2="13.4077" y2="23.59" gradientUnits="userSpaceOnUse">
<stop stop-color="#18884F"/>
<stop offset="0.5" stop-color="#117E43"/>
<stop offset="1" stop-color="#0B6631"/>
</linearGradient>
</defs>
</svg>
