<svg width="10" height="7" viewBox="0 0 10 7" fill="none" xmlns="http://www.w3.org/2000/svg">
<path d="M3.75173 6.96717C3.5027 6.96717 3.30078 6.76528 3.30078 6.51625V3.00857C3.30078 2.75954 3.50267 2.55762 3.75173 2.55762C4.00077 2.55762 4.20265 2.75951 4.20265 3.00857V6.51628C4.20265 6.76528 4.00077 6.96717 3.75173 6.96717Z" fill="#26AAE1"/>
<path d="M8.93139 6.96717C8.68233 6.96717 8.48047 6.76528 8.48047 6.51625V3.00857C8.48047 2.75954 8.68233 2.55762 8.93139 2.55762C9.18042 2.55762 9.38231 2.75951 9.38231 3.00857V6.51628C9.38234 6.76528 9.18042 6.96717 8.93139 6.96717Z" fill="#26AAE1"/>
<path d="M2.66543 2.59277H0.426964C0.191159 2.59277 0 2.78393 0 3.01974C0 3.25554 0.191159 3.4467 0.426964 3.4467H1.10543V6.52623C1.10543 6.76203 1.29659 6.95319 1.53239 6.95319H1.57344C1.80925 6.95319 2.00041 6.762 2.00041 6.52623V3.4467H2.66543C2.90124 3.4467 3.0924 3.25554 3.0924 3.01974C3.09243 2.78393 2.90127 2.59277 2.66543 2.59277Z" fill="#26AAE1"/>
<path d="M5.66924 5.01791C5.66924 5.50694 5.66998 5.98479 5.66897 6.46261C5.66829 6.78022 5.50171 6.95518 5.20518 6.95325C4.91444 6.95134 4.75577 6.78557 4.75524 6.4701C4.75339 5.33644 4.75357 4.20277 4.75512 3.06916C4.75556 2.75203 4.92782 2.56352 5.20886 2.56185C5.51 2.56007 5.66849 2.73559 5.66909 3.07368C5.66974 3.47128 5.66924 3.86884 5.66924 4.32048C5.82633 4.15533 5.95391 4.02231 6.0803 3.88813C6.4501 3.49562 6.81836 3.10165 7.18947 2.71036C7.32947 2.56272 7.49908 2.52003 7.692 2.59449C7.86336 2.66063 7.95649 2.78865 7.96864 2.97018C7.98083 3.15275 7.8715 3.28149 7.75397 3.39908C7.44201 3.71118 7.12711 4.02041 6.81054 4.32788C6.51883 4.61122 6.51716 4.60958 6.80406 4.909C7.19842 5.3205 7.5928 5.73198 7.98716 6.14349C8.07702 6.23727 8.15915 6.33646 8.1741 6.47186C8.19366 6.64866 8.1549 6.80153 7.98582 6.89543C7.81746 6.98897 7.57402 6.98122 7.43434 6.84983C7.23385 6.66117 7.04682 6.4578 6.85885 6.25629C6.49939 5.87094 6.14367 5.48209 5.78502 5.09596C5.75776 5.06668 5.73879 5.0229 5.66924 5.01791Z" fill="#26AAE1"/>
<path d="M3.72976 1.98237C3.27521 1.98237 2.90669 1.61387 2.90669 1.15929C2.90669 1.08445 2.91685 1.01204 2.93558 0.943136H4.52394C4.54264 1.01204 4.55283 1.08445 4.55283 1.15929C4.55286 1.61387 4.18434 1.98237 3.72976 1.98237ZM3.72976 0.0322266C3.14335 0.0322266 2.66797 0.507612 2.66797 1.09402C2.66797 1.68042 3.14335 2.15581 3.72976 2.15581C4.3162 2.15581 4.79158 1.68042 4.79158 1.09402C4.79158 0.507612 4.3162 0.0322266 3.72976 0.0322266Z" fill="#26AAE1"/>
<path d="M8.93874 1.98237C8.48417 1.98237 8.11567 1.61387 8.11567 1.15929C8.11567 1.08445 8.12584 1.01204 8.14456 0.943136H9.7329C9.75162 1.01204 9.76179 1.08445 9.76179 1.15929C9.76179 1.61387 9.39332 1.98237 8.93874 1.98237ZM8.93874 0.0322266C8.35234 0.0322266 7.87695 0.507612 7.87695 1.09402C7.87695 1.68042 8.35234 2.15581 8.93874 2.15581C9.52515 2.15581 10.0005 1.68042 10.0005 1.09402C10.0005 0.507612 9.52515 0.0322266 8.93874 0.0322266Z" fill="#26AAE1"/>
</svg>
