<svg width="30" height="30" viewBox="0 0 30 30" fill="none" xmlns="http://www.w3.org/2000/svg">
<rect width="30" height="30" rx="2" fill="#323232"/>
<path d="M16.192 3.53125H20.4906C20.4906 6.57437 22.9576 9.0413 26.0007 9.0413V13.3399C23.958 13.3399 22.0612 12.7155 20.4906 11.6472V19.8269C20.4906 24.0787 17.0439 27.5254 12.7922 27.5254C8.54046 27.5254 5.09375 24.0787 5.09375 19.8269C5.09375 15.5752 8.54046 12.1285 12.7922 12.1285C13.1501 12.1285 13.5024 12.1529 13.8473 12.2002V16.594C13.5151 16.4857 13.1605 16.4271 12.7922 16.4271C10.9145 16.4271 9.39237 17.9493 9.39237 19.8269C9.39237 21.7046 10.9145 23.2267 12.7922 23.2267C14.6699 23.2267 16.192 21.7046 16.192 19.8269V3.53125Z" fill="#FE2C55"/>
<path d="M15.0983 2.47559H19.3969C19.3969 5.5187 21.8638 7.98564 24.9069 7.98564V12.2843C22.8643 12.2843 20.9674 11.6599 19.3969 10.5915V18.7713C19.3969 23.023 15.9502 26.4697 11.6984 26.4697C7.44671 26.4697 4 23.023 4 18.7713C4 14.5195 7.44671 11.0728 11.6984 11.0728C12.0564 11.0728 12.4086 11.0973 12.7536 11.1445V15.5384C12.4214 15.43 12.0668 15.3714 11.6984 15.3714C9.82077 15.3714 8.29862 16.8936 8.29862 18.7713C8.29862 20.6489 9.82077 22.1711 11.6984 22.1711C13.5761 22.1711 15.0983 20.6489 15.0983 18.7713V2.47559Z" fill="#25F4EE"/>
<path d="M12.7531 12.1286V15.5389C12.421 15.4306 12.0663 15.372 11.698 15.372C9.82033 15.372 8.29818 16.8941 8.29818 18.7718C8.29818 20.0081 8.95803 21.0902 9.94475 21.6853C10.5518 22.6135 11.6004 23.2267 12.7922 23.2267C14.6699 23.2267 16.192 21.7046 16.192 19.8269V3.53125H19.4973C19.7673 4.92326 20.5612 6.12827 21.6656 6.93276C22.4596 7.94327 23.5993 8.66929 24.9065 8.93266V12.2848C22.8638 12.2848 20.967 11.6604 19.3964 10.5921V18.7718C19.3964 23.0235 15.9497 26.4703 11.698 26.4703C9.89642 26.4703 8.23939 25.8514 6.92786 24.8147C5.78404 23.4712 5.09375 21.7297 5.09375 19.8269C5.09375 15.5882 8.51936 12.1496 12.7531 12.1286Z" fill="white"/>
</svg>
