<svg width="10" height="12" viewBox="0 0 10 12" fill="none" xmlns="http://www.w3.org/2000/svg">
<path d="M6.84141 8.7869C6.94887 7.90902 6.38355 7.34932 4.89084 6.87277C4.16761 6.62609 3.82702 6.30278 3.83496 5.85847C3.86533 5.3651 4.32459 5.00583 4.93382 4.99414C5.41365 4.99905 5.88167 5.14353 6.28077 5.40996C6.33497 5.44359 6.37281 5.43799 6.40364 5.39127C6.44569 5.32399 6.55081 5.16094 6.58585 5.1016C6.60968 5.06423 6.61435 5.0147 6.55408 4.97078C6.46765 4.90678 6.22517 4.7769 6.09482 4.72223C5.7237 4.56475 5.32483 4.48311 4.92168 4.48209C4.02932 4.48583 3.32711 5.04974 3.26778 5.80241C3.22993 6.34576 3.49904 6.7868 4.07604 7.12319C4.19891 7.1942 4.86094 7.45771 5.12444 7.53993C5.95326 7.79783 6.38356 8.26036 6.28217 8.79998C6.19013 9.28914 5.67527 9.60544 4.96559 9.61478C4.40355 9.59329 3.8971 9.36389 3.50465 9.05881L3.43877 9.00742C3.39018 8.97004 3.33692 8.97238 3.30469 9.02143C3.28133 9.05741 3.12902 9.277 3.09071 9.33446C3.05473 9.38492 3.07436 9.41295 3.11173 9.44379C3.27525 9.58068 3.49344 9.73018 3.64154 9.80587C4.05183 10.0148 4.50309 10.1307 4.96326 10.1455C5.29457 10.1612 5.62533 10.1048 5.9327 9.98014C6.44429 9.76289 6.77507 9.32885 6.84141 8.7869ZM5.00017 1.04908C4.03399 1.04908 3.24629 1.96013 3.20938 3.1001H6.79049C6.75265 1.95966 5.96541 1.04862 5.00017 1.04862V1.04908ZM8.66818 11.6069L8.6308 11.6074L1.25647 11.6065C0.754692 11.5878 0.386069 11.1813 0.335611 10.6763L0.330939 10.5852L0.000626661 3.33137C-0.00160708 3.30221 0.00214522 3.27291 0.011653 3.24526C0.0211607 3.21761 0.0362231 3.19219 0.0559141 3.17058C0.0756052 3.14896 0.0995091 3.1316 0.126156 3.11956C0.152804 3.10752 0.181632 3.10106 0.210868 3.10057H2.5352C2.59173 1.59431 3.67331 0.394531 5.00017 0.394531C6.32609 0.394531 7.40766 1.59478 7.46466 3.09964H9.78573C9.81482 3.09966 9.8436 3.1056 9.87032 3.1171C9.89704 3.1286 9.92115 3.14542 9.94116 3.16653C9.96118 3.18764 9.97669 3.2126 9.98676 3.23989C9.99682 3.26719 10.0012 3.29624 9.99971 3.3253L9.63856 10.6081L9.63529 10.6693C9.59137 11.1804 9.1779 11.5929 8.66818 11.6065V11.6069Z" fill="#FF5525"/>
</svg>
