<svg width="16" height="17" viewBox="0 0 16 17" fill="none" xmlns="http://www.w3.org/2000/svg">
<path opacity="0.5" d="M5.66667 2.94434H4.88889C3.05567 2.94434 2.13867 2.94434 1.56933 3.51367C1 4.083 1 5 1 6.83322V10.7221C1 12.5553 1 13.4716 1.56933 14.0417C2.13867 14.611 3.05567 14.611 4.88889 14.611H5.66667" stroke="#F98080" stroke-width="0.7"/>
<path d="M5.66797 4.48131C5.66797 2.69786 5.66797 1.80575 6.21786 1.31808C6.76775 0.830416 7.60852 0.976638 9.29008 1.26986L11.1023 1.58642C12.9643 1.91075 13.8953 2.07331 14.4483 2.75619C15.0013 3.43986 15.0013 4.42764 15.0013 6.40397V11.1523C15.0013 13.1279 15.0013 14.1156 14.4491 14.7993C13.8953 15.4822 12.9635 15.6447 11.1015 15.9699L9.29086 16.2856C7.6093 16.5789 6.76852 16.7251 6.21864 16.2374C5.66797 15.7497 5.66797 14.8576 5.66797 13.0742V4.48131Z" stroke="#E05252" stroke-width="0.7"/>
<path opacity="0.5" d="M8 8V9.55556" stroke="#F8B4B4" stroke-width="0.7" stroke-linecap="round"/>
</svg>
