<svg width="30" height="25" viewBox="0 0 30 25" fill="none" xmlns="http://www.w3.org/2000/svg">
<path d="M15.0039 24.5038C14.7906 24.5051 14.5809 24.4501 14.3957 24.3448C12.8084 23.4209 1.05284 16.0075 0.608927 15.7813C0.442727 15.7034 0.299356 15.5836 0.192716 15.4336C0.0860754 15.2836 0.019784 15.1084 0.000269121 14.925V4.52628C-0.00389425 4.33537 0.0403085 4.14653 0.128717 3.97754C0.217126 3.80855 0.346832 3.66496 0.505629 3.5603L0.590227 3.51148C1.72784 2.80166 5.53474 0.464854 6.13716 0.128529C6.27525 0.0460923 6.43253 0.00175755 6.5931 0C6.74359 0.00179134 6.89142 0.0394096 7.02499 0.110168C7.02499 0.110168 12.352 3.60284 13.1672 3.91453C13.739 4.17864 14.3624 4.31026 14.9914 4.29967C15.7045 4.31473 16.4091 4.14181 17.0351 3.7981C17.8312 3.37668 22.9218 0.128977 22.9761 0.128977C23.1043 0.0510533 23.2522 0.0107481 23.4018 0.0125394C23.5625 0.0134351 23.7201 0.0577708 23.8577 0.141068C24.551 0.526207 29.2702 3.43177 29.471 3.5603C29.6341 3.6593 29.7687 3.79942 29.8615 3.9668C29.9543 4.13418 30.002 4.32301 29.9999 4.51464V14.9129C29.9817 15.0966 29.916 15.2722 29.8093 15.4224C29.7027 15.5726 29.5589 15.6922 29.3922 15.7692C28.9483 16.0137 17.2293 23.4272 15.6117 24.3327C15.4274 24.4426 15.2181 24.5016 15.0039 24.5038Z" fill="url(#paint0_linear_2518_35669)"/>
<defs>
<linearGradient id="paint0_linear_2518_35669" x1="-0.0179862" y1="0.223918" x2="29.7065" y2="-0.00494794" gradientUnits="userSpaceOnUse">
<stop stop-color="#FFB900"/>
<stop offset="0.338" stop-color="#F38000"/>
<stop offset="0.567" stop-color="#F83C72"/>
<stop offset="0.78" stop-color="#FC1CBE"/>
<stop offset="0.93" stop-color="#FE08ED"/>
<stop offset="1" stop-color="#FF00FF"/>
</linearGradient>
</defs>
</svg>
