<svg width="21" height="18" viewBox="0 0 21 18" fill="none" xmlns="http://www.w3.org/2000/svg">
<path d="M0.75 12.75L5.90901 7.59099C6.78769 6.71231 8.21231 6.71231 9.09099 7.59099L14.25 12.75M12.75 11.25L14.159 9.84099C15.0377 8.96231 16.4623 8.96231 17.341 9.84099L20.25 12.75M2.25 16.5H18.75C19.5784 16.5 20.25 15.8284 20.25 15V3C20.25 2.17157 19.5784 1.5 18.75 1.5H2.25C1.42157 1.5 0.75 2.17157 0.75 3V15C0.75 15.8284 1.42157 16.5 2.25 16.5ZM12.75 5.25H12.7575V5.2575H12.75V5.25ZM13.125 5.25C13.125 5.45711 12.9571 5.625 12.75 5.625C12.5429 5.625 12.375 5.45711 12.375 5.25C12.375 5.04289 12.5429 4.875 12.75 4.875C12.9571 4.875 13.125 5.04289 13.125 5.25Z" stroke="#3F83F8" stroke-width="1.5" stroke-linecap="round" stroke-linejoin="round"/>
</svg>

