<svg width="16" height="14" viewBox="0 0 16 14" fill="none" xmlns="http://www.w3.org/2000/svg">
<path d="M8.00207 13.5335C7.88833 13.5343 7.77648 13.5049 7.67769 13.4487C6.83112 12.956 0.561516 9.00215 0.324761 8.88153C0.236121 8.83999 0.159657 8.77612 0.102782 8.69611C0.0459069 8.61609 0.0105515 8.52266 0.000143531 8.42486V2.87886C-0.00207693 2.77704 0.0214979 2.67633 0.0686491 2.5862C0.1158 2.49607 0.184977 2.41949 0.269669 2.36367L0.314787 2.33763C0.921516 1.95906 2.95186 0.712766 3.27315 0.533393C3.3468 0.489426 3.43068 0.465781 3.51632 0.464844C3.59658 0.465799 3.67542 0.485862 3.74666 0.5236C3.74666 0.5236 6.58772 2.38636 7.02252 2.5526C7.32745 2.69345 7.65992 2.76365 7.99542 2.758C8.37573 2.76603 8.75151 2.67381 9.0854 2.4905C9.50999 2.26574 12.225 0.533631 12.2539 0.533631C12.3223 0.492072 12.4012 0.470576 12.4809 0.471531C12.5667 0.472009 12.6507 0.495655 12.7241 0.54008C13.0938 0.745488 15.6108 2.29512 15.7179 2.36367C15.8049 2.41647 15.8766 2.4912 15.9261 2.58047C15.9756 2.66974 16.0011 2.77045 16 2.87265V8.41841C15.9902 8.51635 15.9552 8.61002 15.8983 8.69013C15.8415 8.77024 15.7648 8.834 15.6758 8.87508C15.4391 9.00549 9.18893 12.9593 8.32622 13.4423C8.22796 13.5009 8.1163 13.5324 8.00207 13.5335Z" fill="url(#paint0_linear_8147_15278)"/>
<defs>
<linearGradient id="paint0_linear_8147_15278" x1="-0.00959262" y1="0.584267" x2="15.8435" y2="0.462205" gradientUnits="userSpaceOnUse">
<stop stop-color="#FFB900"/>
<stop offset="0.338" stop-color="#F38000"/>
<stop offset="0.567" stop-color="#F83C72"/>
<stop offset="0.78" stop-color="#FC1CBE"/>
<stop offset="0.93" stop-color="#FE08ED"/>
<stop offset="1" stop-color="#FF00FF"/>
</linearGradient>
</defs>
</svg>
