<svg width="21" height="21" viewBox="0 0 21 21" fill="none" xmlns="http://www.w3.org/2000/svg">
<path d="M20.0535 18.4985C20.0535 19.5994 19.153 20.5 18.0523 20.5C16.8968 20.5 15.9509 19.6852 15.9509 18.4985L15.9521 10.4661C15.9521 8.79353 15.4525 7.50195 14.2442 6.30964C13.0788 5.14355 11.6727 4.56074 10.0266 4.56074C8.38042 4.56074 6.97481 5.13668 5.81572 6.29603C4.65652 7.45528 4.08066 8.86107 4.08066 10.5073C4.08066 12.1537 4.65653 13.56 5.81572 14.7261C6.81054 15.7264 8.17916 16.4342 9.61007 16.4342C10.7313 16.4342 11.9847 15.2039 13.3194 16.547C13.7189 16.9495 13.9224 17.4321 13.9224 17.9945C13.9224 18.5568 13.7199 19.0406 13.3194 19.4415C12.182 20.579 9.36074 20.6431 7.9124 20.351C6.03251 19.9714 4.37223 19.0576 2.93507 17.6203C0.980801 15.6661 0 13.299 0 10.5278C0 7.75715 0.980309 5.39037 2.93507 3.43586C4.88985 1.48083 7.25581 0.5 10.0266 0.5C12.7973 0.5 15.1633 1.48083 17.1181 3.43586C19.0451 5.36316 20.0259 7.69547 20.0536 10.4252L20.0535 18.4985L20.0535 18.4985Z" fill="#00AFEF"/>
<path fillRule="evenodd" clipRule="evenodd" d="M9.71505 8.47168C10.8499 8.47168 11.7699 9.39174 11.7699 10.5268C11.7699 11.6618 10.8499 12.582 9.71505 12.582C8.58023 12.582 7.66016 11.6618 7.66016 10.5268C7.66016 9.39174 8.58022 8.47168 9.71505 8.47168Z" fill="#00AFEF"/>
</svg>
