<svg width="15" height="10" viewBox="0 0 15 10" fill="none" xmlns="http://www.w3.org/2000/svg">
<path d="M10.1053 0.861394L10.5633 0.140625H9.84253L10.1053 0.861394Z" fill="#00C7CF"/>
<path d="M0.193894 7.12L4.51816 0.242034C4.55471 0.183897 4.61854 0.148578 4.68721 0.148486L10.2001 0.141111C10.3576 0.1409 10.4536 0.314535 10.3695 0.447815L6.04486 7.30366C6.00843 7.36141 5.94506 7.39659 5.87678 7.39695L0.36428 7.42645C0.206475 7.42729 0.109899 7.2536 0.193894 7.12Z" fill="#01C6CF"/>
<path d="M4.89469 9.13861L4.4367 9.85938H5.15747L4.89469 9.13861Z" fill="#0082C6"/>
<path d="M14.8061 2.88L10.4818 9.75797C10.4453 9.8161 10.3815 9.85142 10.3128 9.85151L4.79993 9.85889C4.64235 9.8591 4.54643 9.68547 4.63051 9.55219L8.95514 2.69634C8.99157 2.63859 9.05494 2.60341 9.12322 2.60305L14.6357 2.57355C14.7935 2.57271 14.8901 2.7464 14.8061 2.88Z" fill="#0082C6"/>
<path d="M12.0088 7.35156H6.03447L4.44332 9.85423L4.43677 9.86224H4.44077H10.3831L12.0088 7.35156Z" fill="#5240E8"/>
</svg>
