<svg width="15" height="16" viewBox="0 0 15 16" fill="none" xmlns="http://www.w3.org/2000/svg">
<g clip-path="url(#clip0_4005_19241)">
<path d="M7.3913 0.359375C11.5815 0.359375 14.997 3.77485 14.997 7.97205C14.9945 8.40841 14.8763 8.83629 14.6543 9.21199C14.4324 9.58769 14.1147 9.89772 13.7337 10.1104C13.3526 10.3231 12.922 10.4309 12.4857 10.4226C12.0494 10.4144 11.6232 10.2905 11.2504 10.0636L11.2153 10.0425L11.2012 10.0777C10.1406 12.0002 7.81569 12.8339 5.77513 12.0234C3.73457 11.2129 2.61525 9.01125 3.16282 6.88501C3.71039 4.7587 5.75393 3.37154 7.93213 3.64752C10.1103 3.92344 11.7434 5.7764 11.7434 7.97205C11.7621 8.17111 11.8544 8.35603 12.0022 8.49063C12.1501 8.62523 12.3428 8.69983 12.5427 8.69983C12.7426 8.69983 12.9354 8.62523 13.0832 8.49063C13.231 8.35603 13.3233 8.17111 13.342 7.97205C13.342 4.68443 10.6789 2.01818 7.3913 2.01431C4.63367 2.00933 2.23309 3.89744 1.58806 6.57863C0.943096 9.2597 2.22237 12.0331 4.68053 13.2828C7.13869 14.5326 10.1332 13.9321 11.9195 11.8313L13.1871 12.9017C12.4749 13.7447 11.5873 14.4222 10.5863 14.8868C9.58528 15.3515 8.4949 15.592 7.3913 15.5918C3.2751 15.4667 0.00317383 12.0937 0.00317383 7.97563C0.00317383 3.85755 3.2751 0.484538 7.3913 0.359375ZM7.3913 5.27487C7.02507 5.25675 6.65899 5.31329 6.31529 5.44106C5.9716 5.56884 5.65748 5.76517 5.39204 6.01813C5.1266 6.27109 4.91537 6.57539 4.7712 6.91254C4.62703 7.24968 4.55293 7.61262 4.55341 7.9793C4.55388 8.34597 4.62893 8.70872 4.77397 9.04548C4.91902 9.38225 5.13104 9.686 5.39714 9.93827C5.66324 10.1905 5.97787 10.3861 6.32189 10.5129C6.66592 10.6398 7.03215 10.6954 7.39833 10.6763C8.83627 10.601 9.96303 9.41216 9.96115 7.97223C9.95928 6.53236 8.82941 5.34645 7.3913 5.27487ZM7.3913 6.8805C7.99415 6.8805 8.48286 7.3692 8.48286 7.97205C8.48286 8.57491 7.99415 9.06361 7.3913 9.06361C6.78844 9.06361 6.29974 8.57491 6.29974 7.97205C6.29974 7.3692 6.78844 6.8805 7.3913 6.8805Z" fill="#F06B66"/>
</g>
<defs>
<clipPath id="clip0_4005_19241">
<rect width="15" height="15.2866" fill="white" transform="translate(0 0.359375)"/>
</clipPath>
</defs>
</svg>
