<svg width="107" height="85" viewBox="0 0 107 85" fill="none" xmlns="http://www.w3.org/2000/svg">
<path d="M106.434 77.6954C106.434 81.4314 84.5576 84.4621 57.5819 84.4621C30.5951 84.4621 8.71875 81.4314 8.71875 77.6954C8.71875 73.9594 30.5951 70.9287 57.5819 70.9287C84.5576 70.9287 106.434 73.9594 106.434 77.6954Z" fill="#8EADD5"/>
<path d="M48.7852 65.5508C48.7962 64.8565 48.7742 63.8977 48.6086 62.7626C48.4651 61.8038 48.0236 58.7621 46.4121 56.4698C43.9839 52.9873 41.2355 54.5412 38.4099 50.9485C36.7984 48.8986 37.251 47.8186 35.4077 46.1655C33.7742 44.7218 32.0192 44.1818 30.1538 43.8732C25.4298 43.1018 17.7256 43.8292 17.7256 43.8292C18.3768 51.2791 20.8934 54.3649 23.0567 55.7976C26.092 57.8254 28.432 56.58 31.1472 59.0046C34.6682 62.1455 32.3503 65.7051 35.6395 68.9783C35.6395 68.9783 37.0854 70.4109 48.2554 72.5379L48.7852 65.5508Z" fill="#F5F5F5"/>
<path d="M48.2554 72.5379C48.2554 72.5379 39.624 57.8694 36.3349 54.993C33.0457 52.1166 17.7256 43.8291 17.7256 43.8291" stroke="#D6D6D6" stroke-width="0.9" stroke-linecap="round" stroke-linejoin="round"/>
<path d="M28.8187 50.0781L19.1719 50.6181" stroke="#D6D6D6" stroke-width="0.9" stroke-linecap="round" stroke-linejoin="round"/>
<path d="M30.8047 51.2791L31.4449 44.1377" stroke="#D6D6D6" stroke-width="0.9" stroke-linecap="round" stroke-linejoin="round"/>
<path d="M35.1871 54.1006L26.8428 57.1864" stroke="#D6D6D6" stroke-width="0.9" stroke-linecap="round" stroke-linejoin="round"/>
<path d="M38.7188 57.7588L39.8004 52.3477" stroke="#D6D6D6" stroke-width="0.9" stroke-linecap="round" stroke-linejoin="round"/>
<path d="M41.4125 61.5947L33.333 63.0715" stroke="#D6D6D6" stroke-width="0.9" stroke-linecap="round" stroke-linejoin="round"/>
<path d="M43.5205 64.8344L46.5669 56.7012" stroke="#D6D6D6" stroke-width="0.9" stroke-linecap="round" stroke-linejoin="round"/>
<path d="M45.4406 67.8867L36.0918 69.2643" stroke="#D6D6D6" stroke-width="0.9" stroke-linecap="round" stroke-linejoin="round"/>
<path d="M43.6527 66.697C43.3988 66.0578 43.0015 65.1761 42.4165 64.1953C41.9308 63.3688 40.3525 60.7238 37.9794 59.214C34.4143 56.9327 32.4606 59.4123 28.4761 57.1641C26.1913 55.8857 26.2024 54.7176 23.8624 53.902C21.7984 53.1747 19.9772 53.351 18.1339 53.7808C13.4761 54.8718 6.63281 58.4756 6.63281 58.4756C10.0876 65.121 13.5975 67.0056 16.1472 67.5125C19.7233 68.2178 21.4121 66.179 24.8447 67.3803C29.3039 68.9452 28.5313 73.122 32.8249 74.8853C32.8249 74.8853 34.7012 75.6678 45.8381 73.3534L43.6527 66.697Z" fill="#F5F5F5"/>
<path d="M45.8381 73.3534C45.8381 73.3534 32.2509 63.0932 28.1118 61.6936C23.9728 60.294 6.63281 58.4756 6.63281 58.4756" stroke="#D6D6D6" stroke-width="0.9" stroke-linecap="round" stroke-linejoin="round"/>
<path d="M19.2819 60.0293L10.5732 64.2061" stroke="#D6D6D6" stroke-width="0.9" stroke-linecap="round" stroke-linejoin="round"/>
<path d="M21.5778 60.3712L19.4365 53.5273" stroke="#D6D6D6" stroke-width="0.9" stroke-linecap="round" stroke-linejoin="round"/>
<path d="M26.71 61.3076L20.1758 67.3359" stroke="#D6D6D6" stroke-width="0.9" stroke-linecap="round" stroke-linejoin="round"/>
<path d="M31.3675 63.3467L30.2969 57.9355" stroke="#D6D6D6" stroke-width="0.9" stroke-linecap="round" stroke-linejoin="round"/>
<path d="M35.3304 65.8594L28.4209 70.3117" stroke="#D6D6D6" stroke-width="0.9" stroke-linecap="round" stroke-linejoin="round"/>
<path d="M38.52 68.0414L38.2109 59.3682" stroke="#D6D6D6" stroke-width="0.9" stroke-linecap="round" stroke-linejoin="round"/>
<path d="M41.4563 70.1357L33.3438 74.9738" stroke="#D6D6D6" stroke-width="0.9" stroke-linecap="round" stroke-linejoin="round"/>
<path d="M75.1099 73.4636H45.6729L48.5095 54.0342H72.2733L75.1099 73.4636Z" fill="#1C64F2"/>
<path d="M96.986 57.4612H23.7961C21.9308 57.4612 20.4297 55.9513 20.4297 54.0999V8.05563C20.4297 6.20416 21.9308 4.69434 23.7961 4.69434H96.986C98.8513 4.69434 100.352 6.20416 100.352 8.05563V54.0999C100.352 55.9513 98.8513 57.4612 96.986 57.4612Z" fill="#76A9FA"/>
<path d="M95.0542 51.9287H25.7385C23.8732 51.9287 22.3721 50.4189 22.3721 48.5674V9.64254C22.3721 7.79108 23.8732 6.28125 25.7385 6.28125H95.0542C96.9085 6.28125 98.4206 7.79108 98.4206 9.64254V48.5674C98.4206 50.4189 96.9085 51.9287 95.0542 51.9287Z" fill="#C3DDFD"/>
<path d="M81.346 74.8852H39.4365V72.8574C39.4365 71.3035 40.7058 70.0361 42.2732 70.0361H78.5094C80.0767 70.0361 81.346 71.3035 81.346 72.8574V74.8852Z" fill="#76A9FA"/>
<path d="M24.8447 51.9287H94.5357" stroke="#262626" stroke-width="2" stroke-linecap="round" stroke-linejoin="round"/>
<path d="M41.2793 73.8707V72.8127C41.2793 72.1735 41.7981 71.6445 42.4493 71.6445H73.8842" stroke="#262626" stroke-width="2" stroke-linecap="round" stroke-linejoin="round"/>
<path d="M70.54 59.0156L71.6548 67.5015" stroke="#262626" stroke-width="2" stroke-linecap="round" stroke-linejoin="round"/>
<path d="M61.3237 54.8603C61.3237 55.764 60.5953 56.4913 59.6902 56.4913C58.7851 56.4913 58.0566 55.764 58.0566 54.8603C58.0566 53.9676 58.7851 53.2402 59.6902 53.2402C60.5953 53.2402 61.3237 53.9676 61.3237 54.8603Z" fill="white"/>
<path d="M82.8906 9.37793H91.544C93.1886 9.37793 94.5352 10.7224 94.5352 12.3645V30.3171" stroke="white" stroke-width="2" stroke-linecap="round" stroke-linejoin="round"/>
<path d="M89.4917 15.0759C89.992 13.871 90.4887 12.9416 90.9817 12.2877C91.4674 11.6265 92.1039 11.1012 92.8912 10.7118C93.3474 10.4767 93.8257 10.304 94.3261 10.1938C94.8191 10.0909 95.29 9.96237 95.7389 9.80808C96.1878 9.64644 96.5998 9.4297 96.9751 9.15786C97.3577 8.87867 97.6705 8.44519 97.9133 7.85742C98.3254 6.85822 98.3401 6.04637 97.9574 5.42186C97.5748 4.79736 97.0045 4.32715 96.2466 4.01122C95.165 3.56305 94.2967 3.5557 93.6418 3.98918C92.9869 4.42266 92.3945 5.12798 91.8647 6.10514L87.9243 4.46307C88.3364 3.46386 88.8772 2.62629 89.5469 1.95036C90.2091 1.27443 90.9597 0.774827 91.7985 0.451555C92.6374 0.128283 93.5424 -0.00763806 94.5137 0.0437916C95.485 0.0878741 96.4821 0.319308 97.5049 0.738092C99.7051 1.65648 101.258 2.82834 102.163 4.25368C103.06 5.67901 103.09 7.39823 102.251 9.41133C101.979 10.0579 101.677 10.5979 101.346 11.0314C101.007 11.4648 100.625 11.8285 100.198 12.1224C99.7639 12.4089 99.282 12.6441 98.7522 12.8277C98.2224 13.0114 97.6337 13.1841 96.9861 13.3457C96.3975 13.5073 95.9045 13.68 95.5071 13.8637C95.1098 14.04 94.7713 14.2641 94.4917 14.5359C94.2121 14.8004 93.9766 15.1017 93.7853 15.4396C93.6013 15.7776 93.4137 16.1707 93.2224 16.6188L89.4917 15.0759ZM86.9199 20.9169L88.5866 16.9164L92.7146 18.6356L91.048 22.6361L86.9199 20.9169Z" fill="#1E429F"/>
<path d="M65.4404 21.0709V17.8088C65.4404 16.7398 64.5684 15.8691 63.4978 15.8691H44.5022C43.4315 15.8691 42.5596 16.7398 42.5596 17.8088V21.0709V42.8366C42.5596 43.9056 43.4315 44.7763 44.5022 44.7763H74.8774C75.9481 44.7763 76.82 43.9056 76.82 42.8366V23.0105C76.82 21.9415 75.9481 21.0709 74.8774 21.0709H65.4404Z" fill="#F5F5F5"/>
<path d="M63.5206 25.6338L59.6906 29.4579L55.8606 25.6338L53.5537 27.9481L57.3837 31.7613L53.5537 35.5854L55.8606 37.8887L59.6906 34.0646L63.5206 37.8887L65.8274 35.5854L61.9974 31.7613L65.8274 27.9481L63.5206 25.6338Z" fill="#D6D6D6"/>
<path d="M73.597 38.318L75.639 37.2269L78.6743 37.778L80.1975 36.1579L83.7957 37.1278L85.7935 34.3946L89.3586 36.5767L88.1445 28.8733L83.4315 25.5781L72.6036 27.2753C72.2063 27.3414 71.9304 27.7271 71.9855 28.1239L73.597 38.318Z" fill="#F5F5F5"/>
<path d="M84.5354 29.4353L88.1447 28.8733L83.4316 25.5781L83.9835 29.0386C84.0277 29.3031 84.2705 29.4794 84.5354 29.4353Z" fill="#D6D6D6"/>
<path d="M83.4316 25.5781L83.9835 29.0386C84.0277 29.3031 84.2705 29.4794 84.5354 29.4353L88.1447 28.8733" stroke="#262626" stroke-width="0.5" stroke-linecap="round" stroke-linejoin="round"/>
<path d="M75.0536 48.4346C75.1199 48.8424 75.4951 49.1179 75.9035 49.0517L90.0867 46.8256C90.4951 46.7595 90.7711 46.3848 90.7048 45.977L89.3583 37.436L85.7931 35.2539L83.7954 37.987L80.1971 37.0172L78.6739 38.6372L75.6386 38.0862L73.5967 39.1773L75.0536 48.4346Z" fill="#F5F5F5"/>
<path d="M73.5966 38.318L75.6496 37.2269L78.6849 37.778L80.197 36.1579L83.7953 37.1278L85.793 34.3946L89.3692 36.5767L88.144 28.8733L83.4421 25.5781L72.6142 27.2753C72.2059 27.3414 71.9299 27.7271 71.9961 28.1239L73.5966 38.318Z" stroke="#262626" stroke-width="0.5" stroke-linecap="round" stroke-linejoin="round"/>
<path d="M75.0536 48.4346C75.1199 48.8424 75.5062 49.1179 75.9035 49.0517L90.0867 46.8256C90.4951 46.7595 90.7711 46.3848 90.7048 45.977L89.3693 37.436L85.7931 35.2539L83.7954 37.987L80.1971 37.0172L78.685 38.6372L75.6497 38.0862L73.5967 39.1773L75.0536 48.4346Z" stroke="#262626" stroke-width="0.5" stroke-linecap="round" stroke-linejoin="round"/>
<path d="M68.7957 77.596C67.7251 76.549 67.714 74.8298 68.7626 73.7608L81.2792 61.043L85.1533 64.8451L72.6368 77.5629C71.5882 78.6319 69.8664 78.6539 68.7957 77.596Z" fill="#1E429F"/>
<path opacity="0.2" d="M98.939 62.6295C94.6896 66.9496 87.7249 67.0157 83.3982 62.7618C79.0715 58.5188 79.0052 51.5648 83.2657 47.2447C87.5152 42.9246 94.4799 42.8585 98.8066 47.1125C103.133 51.3554 103.2 58.3094 98.939 62.6295Z" fill="#C3DDFD"/>
<path opacity="0.5" d="M80.8154 58.8053C81.1907 59.7861 81.6984 60.7339 82.3607 61.5935L102.085 54.7828C102.074 53.7248 101.908 52.6558 101.577 51.6309L80.8154 58.8053Z" fill="white"/>
<path opacity="0.5" d="M80.1309 55.6641C80.175 56.2886 80.2707 56.9058 80.4178 57.5156L101.091 50.3742C100.837 49.8122 100.528 49.2611 100.175 48.7432L80.1309 55.6641Z" fill="white"/>
<path fill-rule="evenodd" clip-rule="evenodd" d="M100.143 63.8199C95.2419 68.8012 87.2065 68.8783 82.2065 63.9742C77.2176 59.07 77.1403 51.0469 82.052 46.0656C86.9637 41.0733 94.999 41.0071 99.988 45.9003C104.988 50.8045 105.054 58.8275 100.143 63.8199ZM98.5531 62.2549C102.593 58.1442 102.538 51.5429 98.4207 47.4983C94.3037 43.4648 87.6922 43.5199 83.6525 47.6306C79.6017 51.7413 79.6679 58.3426 83.7739 62.3762C87.8909 66.4207 94.5023 66.3546 98.5531 62.2549Z" fill="#1E429F"/>
<path d="M82.1624 66.0244L72.2617 76.0752" stroke="white" stroke-width="2" stroke-linecap="round" stroke-linejoin="round"/>
<path d="M92.0072 43.1783C88.8946 42.8697 85.6606 43.9387 83.3538 46.0657C81.0469 48.1816 79.7004 51.3005 79.7555 54.4303" stroke="white" stroke-width="2" stroke-linecap="round" stroke-linejoin="round"/>
<g clip-path="url(#clip0_3765_61547)">
<path d="M40.2646 40.3561C39.7333 39.6951 38.9888 39.2794 38.3164 39.2285C38.3494 39.408 38.3824 39.5844 38.4155 39.7639C38.5295 40.079 38.6406 40.394 38.7487 40.7091C39.277 41.3162 39.7062 42.0101 40.0094 42.7549C40.0875 42.9463 40.1595 43.1467 40.3126 43.2873C40.5978 43.5505 41.2792 43.3262 41.5944 43.1916C41.6124 43.1826 41.6274 43.1736 41.6454 43.1647C41.3692 42.1208 40.8949 41.1398 40.2646 40.3561Z" fill="#1E429F"/>
<path d="M40.313 43.2872C40.1599 43.1466 40.0878 42.9462 40.0098 42.7548C39.7066 42.0101 39.2773 41.3162 38.749 40.709C38.9772 41.379 39.1933 42.0549 39.3734 42.7399C39.5175 43.3052 39.6376 43.8854 39.7246 44.4746C39.9978 46.341 39.9317 48.2762 39.3074 49.9751C40.0458 49.7807 40.7332 49.1107 41.0814 48.5364C42.012 46.999 42.129 44.9831 41.6458 43.1646C41.6277 43.1736 41.6127 43.1825 41.5947 43.1915C41.2795 43.3261 40.5981 43.5504 40.313 43.2872Z" fill="#233876"/>
<path d="M4.21373 43.2874C4.36382 43.1468 4.43886 42.9464 4.51391 42.755C4.8321 41.9714 5.28837 41.2446 5.85571 40.6165C5.98979 40.2276 6.12887 39.8398 6.27296 39.453C6.28496 39.3752 6.29997 39.3004 6.31498 39.2227C5.61556 39.2346 4.82009 39.6593 4.25875 40.3562C3.62838 41.1399 3.15409 42.1209 2.87793 43.1648C2.89594 43.1738 2.91395 43.1827 2.93196 43.1917C3.24415 43.3263 3.92856 43.5506 4.21373 43.2874Z" fill="#1E429F"/>
<path d="M5.19787 42.7398C5.31794 42.2822 5.45603 41.8276 5.60311 41.3759C5.68316 41.1207 5.76721 40.8675 5.85526 40.6162C5.28793 41.2443 4.83165 41.9711 4.51346 42.7548C4.43842 42.9462 4.36337 43.1466 4.21328 43.2872C3.92811 43.5504 3.2437 43.326 2.93152 43.1915C2.91351 43.1825 2.8955 43.1735 2.87749 43.1645C2.3972 44.9831 2.51127 46.999 3.44182 48.5364C3.79904 49.1256 4.51046 49.8105 5.26691 49.99C4.44142 47.7527 4.5825 45.1027 5.19787 42.7398Z" fill="#233876"/>
<path d="M34.4265 75.8027C33.3039 76.6582 32.1662 77.4867 31.0075 78.2912C30.4702 78.6621 29.9118 79.048 29.5936 79.6162C29.2694 80.1965 29.2364 80.9024 29.3685 81.5544C29.4466 81.9313 29.5726 82.2932 29.7227 82.6491C30.3741 82.7269 31.0525 82.4876 31.5838 82.0898C32.1872 81.6352 32.6225 80.9921 32.9857 80.3311C33.6731 79.0689 34.2284 77.4448 34.4265 75.8027Z" fill="#1E429F"/>
<path d="M29.3678 81.554C29.2358 80.9019 29.2688 80.1961 29.593 79.6158C29.9112 79.0475 30.4695 78.6617 31.0068 78.2908C32.1655 77.4862 33.3032 76.6577 34.4259 75.8023C34.4979 75.1861 34.5219 74.57 34.4829 73.9658C33.3692 75.0486 32.0424 75.9578 30.8057 76.7445C29.632 77.4952 28.3562 78.1293 27.0234 78.5869C27.1105 78.9967 27.2065 79.3915 27.3056 79.7683C27.6298 80.9647 28.2452 82.2808 29.4489 82.5978C29.5389 82.6217 29.63 82.6387 29.722 82.6487C29.572 82.2927 29.4459 81.9308 29.3678 81.554Z" fill="#233876"/>
<path d="M15.9266 79.6162C15.6084 79.048 15.05 78.6621 14.5157 78.2912C13.357 77.4867 12.2163 76.6582 11.0967 75.8027C11.2948 77.4448 11.8501 79.0689 12.5375 80.3311C12.8978 80.9921 13.333 81.6352 13.9394 82.0898C14.4677 82.4876 15.1461 82.7269 15.8005 82.6491C15.9476 82.2932 16.0767 81.9313 16.1547 81.5544C16.2838 80.9024 16.2538 80.1965 15.9266 79.6162Z" fill="#1E429F"/>
<path d="M11.0215 74.7256C11.0275 75.0815 11.0545 75.4434 11.0965 75.8023C12.2162 76.6578 13.3569 77.4863 14.5156 78.2908C15.0499 78.6617 15.6082 79.0476 15.9264 79.6159C16.2536 80.1961 16.2836 80.902 16.1545 81.554C16.0765 81.9309 15.9474 82.2928 15.8003 82.6487C15.8924 82.6388 15.9834 82.6218 16.0735 82.5979C17.2742 82.2808 17.8926 80.9648 18.2138 79.7684C18.3038 79.4394 18.3879 79.0984 18.4629 78.7425C16.2746 78.0934 14.2094 76.9987 12.3393 75.7036C11.898 75.3956 11.4537 75.0725 11.0215 74.7256Z" fill="#233876"/>
<path d="M41.7715 66.6648C42.1017 66.7994 42.4739 67.0746 42.8251 67.1105C44.1099 67.2451 44.6382 66.0936 44.7433 64.9749C44.7343 64.939 44.7252 64.9031 44.7162 64.8643C44.5091 64.0776 44.0348 63.3957 43.5035 62.7676C43.4885 62.9201 43.4705 63.0697 43.4435 63.2192C43.2244 64.5203 42.627 65.7077 41.7715 66.6648Z" fill="#E3EEDE"/>
<path d="M37.392 59.9948C37.39 60.0148 37.389 60.0337 37.389 60.0517C37.3709 60.6409 37.3049 61.2241 37.2599 61.8104C37.2239 62.277 37.1008 62.923 37.2689 63.3717C37.3229 63.5212 37.398 63.6708 37.485 63.8173C37.7432 64.248 38.2805 64.4305 38.7488 64.242C39.064 64.1134 39.3671 63.9519 39.6463 63.7575C40.3367 62.609 40.6729 61.272 40.6039 59.926C39.9585 59.3936 39.2861 58.8942 38.5867 58.4365C38.2024 58.1883 37.7972 57.9251 37.3739 57.6738C37.476 57.9161 37.551 58.1673 37.5841 58.4335C37.6531 58.96 37.5691 59.4894 37.392 59.9948Z" fill="#E3EEDE"/>
<path d="M40.7063 60.832C40.6012 62.19 40.0879 63.488 39.2294 64.5528C39.1003 64.7143 38.9623 64.8669 38.8182 65.0134C38.7791 65.0553 38.7431 65.1002 38.7041 65.1391C38.8122 65.2228 38.9192 65.3006 39.0253 65.3724C39.3765 65.6087 39.7517 65.8061 40.136 65.9855C40.4091 66.1111 40.7243 66.1141 41.0005 65.9945C41.5888 65.7313 42.1562 65.4142 42.7145 65.0942C43.0927 64.3315 43.3269 63.5 43.4049 62.6476C43.3269 62.5578 43.2478 62.4701 43.1678 62.3844C42.4083 61.5409 41.5918 60.7513 40.7183 60.0215C40.7303 60.2907 40.7273 60.5599 40.7063 60.832Z" fill="#E3EEDE"/>
<path d="M42.8253 67.1102C42.4741 67.0743 42.1019 66.7991 41.7717 66.6645C41.5436 66.9188 41.2944 67.158 41.0303 67.3794C42.0989 67.6904 43.2096 67.6994 44.2902 67.2089C44.7795 66.6167 44.9146 65.7463 44.7435 64.9746C44.6384 66.0932 44.1101 67.2448 42.8253 67.1102Z" fill="#D1D5DB"/>
<path d="M39.3642 66.6468C39.8685 66.9399 40.3878 67.1791 40.9221 67.3466C41.6816 66.7245 42.2879 65.9528 42.7142 65.0944C42.1559 65.4145 41.5885 65.7315 41.0002 65.9947C40.724 66.1144 40.4088 66.1114 40.1357 65.9857C39.7514 65.8063 39.3762 65.6089 39.025 65.3726C38.9189 65.3008 38.8119 65.223 38.7038 65.1393C38.7428 65.1004 38.7788 65.0555 38.8179 65.0137C38.5717 65.2679 38.3046 65.5012 38.0254 65.7166C38.4336 66.0695 38.8989 66.3746 39.3642 66.6468Z" fill="#D1D5DB"/>
<path d="M36.9001 64.2722C37.1402 64.8046 37.5094 65.2563 37.9447 65.6451C37.9717 65.6272 38.0017 65.6092 38.0287 65.5883C38.6861 65.0738 39.2294 64.4517 39.6467 63.7578C39.3675 63.9522 39.0644 64.1137 38.7492 64.2423C38.2809 64.4308 37.7436 64.2483 37.4854 63.8176C37.3984 63.671 37.3233 63.5215 37.2693 63.3719C37.1012 62.9233 37.2243 62.2772 37.2603 61.8106C37.3053 61.2244 37.3713 60.6412 37.3894 60.0519C37.3894 60.034 37.3904 60.0151 37.3924 59.9951C37.2753 60.3181 37.1222 60.6292 36.9421 60.9223C36.9001 60.9921 36.857 61.0599 36.813 61.1257C36.792 61.1556 36.771 61.1855 36.75 61.2154C36.7019 61.4398 36.6569 61.6641 36.6269 61.8914C36.5218 62.693 36.5699 63.5335 36.9001 64.2722Z" fill="#D1D5DB"/>
<path d="M37.944 65.6445C37.5088 65.2557 37.1395 64.804 36.8994 64.2716C36.5692 63.5329 36.5212 62.6924 36.6262 61.8908C36.6563 61.6635 36.7013 61.4392 36.7493 61.2148C36.4671 61.6246 36.1339 62.0015 35.7617 62.3305C35.9238 62.836 36.0769 63.3414 36.221 63.8499C36.231 63.8838 36.241 63.9177 36.251 63.9516C36.3311 64.2407 36.4101 64.5309 36.4882 64.822C36.5992 65.2467 36.7043 65.6774 36.7943 66.1081C36.8093 66.1201 36.8244 66.129 36.8424 66.141C36.8964 66.1739 36.9504 66.2068 37.0045 66.2397C37.0545 66.2138 37.1045 66.1869 37.1545 66.1589C37.4307 66.0094 37.6919 65.8359 37.944 65.6445Z" fill="#9CA3AF"/>
<path d="M40.9223 67.3469C40.388 67.1794 39.8687 66.9401 39.3644 66.647C38.8991 66.3748 38.4339 66.0697 38.0256 65.7168C37.9506 65.7706 37.8785 65.8305 37.8035 65.8813C37.5964 66.0249 37.3652 66.1804 37.1221 66.312C38.1577 66.9252 39.2714 67.4187 40.433 67.7058C40.4841 67.6729 40.5321 67.643 40.5801 67.6071C40.6972 67.5263 40.8113 67.4366 40.9223 67.3469Z" fill="#9CA3AF"/>
<path d="M41.0306 67.3795C40.8805 67.5051 40.7275 67.6247 40.5684 67.7354C40.9436 67.8251 41.3218 67.8909 41.706 67.9358C42.4805 68.0195 43.321 67.9896 43.9484 67.532C44.0775 67.4393 44.1915 67.3286 44.2906 67.209C43.2099 67.6995 42.0993 67.6905 41.0306 67.3795Z" fill="#9CA3AF"/>
<path d="M39.6465 63.7572C39.2292 64.4512 38.6859 65.0733 38.0285 65.5877C38.0015 65.6087 37.9715 65.6266 37.9444 65.6446C37.6923 65.836 37.4311 66.0095 37.155 66.159C37.1049 66.1869 37.0549 66.2138 37.0049 66.2398C37.0449 66.2637 37.0839 66.2876 37.122 66.3115C37.3651 66.1799 37.5962 66.0244 37.8034 65.8808C37.8784 65.83 37.9504 65.7702 38.0255 65.7163C38.3047 65.501 38.5718 65.2677 38.818 65.0135C38.9621 64.8669 39.1001 64.7144 39.2292 64.5528C40.0877 63.4881 40.601 62.19 40.7061 60.8321C40.7271 60.5599 40.7301 60.2907 40.7181 60.0215C40.6801 59.9896 40.6421 59.9577 40.604 59.9258C40.6731 61.2717 40.3369 62.6087 39.6465 63.7572Z" fill="#1E429F"/>
<path d="M40.9219 67.3473C40.8108 67.437 40.6968 67.5267 40.5797 67.6075C40.5317 67.6434 40.4836 67.6733 40.4326 67.7062C40.4776 67.7182 40.5227 67.7271 40.5677 67.7361C40.7268 67.6254 40.8799 67.5058 41.03 67.3802C41.2941 67.1589 41.5433 66.9196 41.7714 66.6653C42.6269 65.7082 43.2243 64.5208 43.4434 63.2197C43.4704 63.0702 43.4884 62.9206 43.5034 62.7681C43.4704 62.7292 43.4374 62.6873 43.4044 62.6484C43.3263 63.5009 43.0922 64.3324 42.714 65.0951C42.2877 65.9535 41.6814 66.7252 40.9219 67.3473Z" fill="#1E429F"/>
<path d="M34.7982 57.3835C34.8882 58.0864 35.3205 58.6936 35.7377 59.2678C36.14 59.8182 36.5412 60.3695 36.9415 60.9219C37.1216 60.6287 37.2747 60.3177 37.3917 59.9946C37.5688 59.4892 37.6529 58.9598 37.5838 58.4334C37.5508 58.1672 37.4758 57.9159 37.3737 57.6736C36.9865 56.7704 36.155 56.0525 35.2154 55.6816C34.9212 56.1931 34.7111 56.7315 34.7982 57.3835Z" fill="#1E429F"/>
<path d="M33.5493 56.495C34.2397 58.0653 34.8611 59.6475 35.4074 61.2477C35.5305 61.6096 35.6476 61.9685 35.7616 62.3304C36.1339 62.0014 36.4671 61.6246 36.7492 61.2148C36.7702 61.1849 36.7913 61.155 36.8123 61.1251C36.8563 61.0593 36.8993 60.9915 36.9414 60.9217C36.5411 60.3694 36.1399 59.818 35.7376 59.2677C35.3204 58.6934 34.8881 58.0862 34.7981 57.3833C34.711 56.7313 34.9211 56.1929 35.2153 55.6815C35.1823 55.6695 35.1523 55.6546 35.1163 55.6426C34.4409 55.3943 33.7174 55.2747 33 55.2837C33.1881 55.6865 33.3712 56.0902 33.5493 56.495Z" fill="#233876"/>
<path d="M2.24453 67.4781C2.58973 67.4273 2.94695 67.1401 3.27114 66.9906C2.25954 65.9437 1.59914 64.5978 1.38301 63.1621C0.878712 63.8112 0.431445 64.517 0.257341 65.3156C0.248335 65.3515 0.242332 65.3874 0.236328 65.4263C0.386418 66.5389 0.962762 67.6665 2.24453 67.4781Z" fill="#E3EEDE"/>
<path d="M4.18888 61.0416C4.30295 62.0914 4.67217 63.1024 5.25452 63.9788C5.5487 64.1672 5.86388 64.3227 6.19408 64.4394C6.66837 64.6069 7.19968 64.4035 7.43682 63.9608C7.51787 63.8113 7.58391 63.6587 7.63494 63.5062C7.78203 63.0516 7.63194 62.4115 7.57791 61.9479C7.50887 61.3646 7.41581 60.7814 7.37078 60.1952C7.37078 60.1772 7.36978 60.1583 7.36778 60.1383C7.16666 59.6418 7.0616 59.1184 7.10663 58.586C7.13064 58.3228 7.19368 58.0656 7.28673 57.8203C6.87549 58.0895 6.48225 58.3677 6.10703 58.6339C5.42562 59.1214 4.77423 59.6508 4.14986 60.2101C4.14686 60.4883 4.15887 60.7664 4.18888 61.0416Z" fill="#E3EEDE"/>
<path d="M2.26527 65.4562C2.83862 65.7553 3.41796 66.0484 4.01832 66.2847C4.29749 66.3954 4.61268 66.3774 4.87983 66.2399C5.25806 66.0454 5.62428 65.8301 5.96648 65.5788C6.06854 65.5041 6.17061 65.4233 6.27567 65.3366C6.23664 65.2977 6.20062 65.2588 6.1616 65.2199C4.8198 63.9368 4.06035 62.1452 4.04834 60.3027C3.20784 61.0684 2.42137 61.8939 1.69793 62.7703C1.61989 62.864 1.54284 62.9577 1.4668 63.0515C1.49281 63.2429 1.52583 63.4333 1.56586 63.6227C1.70994 64.2718 1.94708 64.8879 2.26527 65.4562Z" fill="#E3EEDE"/>
<path d="M6.27504 65.3374C6.16998 65.4241 6.06792 65.5048 5.96586 65.5796C5.62365 65.8309 5.25744 66.0462 4.87921 66.2406C4.61205 66.3782 4.29686 66.3962 4.01769 66.2855C3.41734 66.0492 2.83799 65.7561 2.26465 65.457C2.73593 66.3064 3.38732 67.0482 4.16478 67.6314C4.68409 67.443 5.1914 67.1798 5.67769 66.8687C6.13396 66.5786 6.58123 66.2556 6.97746 65.8847C6.68629 65.6843 6.41312 65.46 6.16097 65.2207C6.2 65.2596 6.23602 65.2985 6.27504 65.3374Z" fill="#D1D5DB"/>
<path d="M8.04055 64.3919C8.33772 63.6411 8.35273 62.8007 8.21165 62.0021C8.17262 61.7747 8.11859 61.5534 8.06156 61.3321C8.03754 61.3022 8.01653 61.2752 7.99552 61.2453C7.94749 61.1795 7.90146 61.1137 7.85744 61.0479C7.66532 60.7608 7.49722 60.4557 7.36814 60.1387C7.37015 60.1586 7.37115 60.1776 7.37115 60.1955C7.41617 60.7817 7.50923 61.365 7.57827 61.9482C7.6323 62.4118 7.78239 63.0519 7.6353 63.5065C7.58427 63.6591 7.51823 63.8116 7.43719 63.9612C7.20004 64.4038 6.66873 64.6072 6.19444 64.4397C5.86425 64.3231 5.54906 64.1675 5.25488 63.9791C5.40797 64.2124 5.57307 64.4337 5.75618 64.6461C6.13741 65.0888 6.57567 65.4776 7.05596 65.8096C7.47621 65.3998 7.82442 64.9362 8.04055 64.3919Z" fill="#D1D5DB"/>
<path d="M4.03319 67.676C3.76003 67.4666 3.50487 67.2363 3.27073 66.991C2.94654 67.1406 2.58933 67.4277 2.24412 67.4786C0.962355 67.667 0.386011 66.5394 0.235922 65.4268C0.0948375 66.2044 0.26594 67.0688 0.782248 67.6401C1.8809 68.0798 2.98256 68.0289 4.03319 67.676Z" fill="#D1D5DB"/>
<path d="M8.58958 63.0279C8.67363 62.7508 8.76068 62.4736 8.85074 62.1964C8.55956 61.9332 8.2954 61.6431 8.06126 61.332C8.1183 61.5534 8.17233 61.7747 8.21135 62.002C8.35244 62.8006 8.33743 63.6411 8.04025 64.3918C7.82412 64.9362 7.47591 65.3998 7.05566 65.8095C7.08868 65.8305 7.1187 65.8544 7.15172 65.8753C7.33183 65.998 7.53295 66.1266 7.74608 66.2432C7.84213 65.7677 7.9592 65.2921 8.08228 64.8225C8.16032 64.5274 8.24137 64.2323 8.32542 63.9372C8.33543 63.9033 8.34443 63.8694 8.35244 63.8355C8.43049 63.5663 8.50953 63.2971 8.58958 63.0279Z" fill="#9CA3AF"/>
<path d="M7.01674 65.9137C7.00273 65.9037 6.98973 65.8938 6.97772 65.8838C6.58148 66.2547 6.13422 66.5777 5.67794 66.8678C5.19165 67.1789 4.68435 67.4421 4.16504 67.6305C4.32413 67.7502 4.48623 67.8638 4.65733 67.9715C5.72297 67.6574 6.74058 67.1729 7.68314 66.5807C7.69715 66.5049 7.71116 66.4291 7.72516 66.3534C7.47301 66.2188 7.23287 66.0603 7.01674 65.9137Z" fill="#9CA3AF"/>
<path d="M4.03317 67.6755C2.98254 68.0285 1.88088 68.0793 0.782227 67.6396C0.887289 67.7563 1.00436 67.861 1.13644 67.9477C1.78483 68.3784 2.62533 68.3724 3.39379 68.2528C3.77501 68.196 4.14724 68.1122 4.51646 68.0105C4.48944 67.9926 4.45942 67.9776 4.43241 67.9567C4.29432 67.867 4.16124 67.7732 4.03317 67.6755Z" fill="#9CA3AF"/>
<path d="M6.16111 65.2199C6.41326 65.4591 6.68643 65.6835 6.9776 65.8839C6.98961 65.8938 7.00262 65.9038 7.01662 65.9138C7.23275 66.0603 7.4729 66.2189 7.72505 66.3535C7.73305 66.3176 7.74006 66.2807 7.74606 66.2428C7.53293 66.1261 7.33181 65.9975 7.1517 65.8749C7.11869 65.854 7.08867 65.83 7.05565 65.8091C6.57536 65.4771 6.1371 65.0883 5.75587 64.6456C5.57276 64.4332 5.40766 64.2119 5.25457 63.9786C4.67222 63.1022 4.303 62.0913 4.18894 61.0415C4.15892 60.7663 4.14691 60.4881 4.14991 60.21C4.11589 60.2419 4.08187 60.2728 4.04785 60.3027C4.05986 62.1451 4.81931 63.9367 6.16111 65.2199Z" fill="#1E429F"/>
<path d="M2.26534 65.4565C1.94715 64.8882 1.71001 64.2721 1.56592 63.623C1.5259 63.4336 1.49288 63.2432 1.46686 63.0518C1.43985 63.0876 1.41283 63.1265 1.38281 63.1624C1.59894 64.5981 2.25934 65.944 3.27094 66.9909C3.50508 67.2362 3.76023 67.4665 4.03339 67.6758C4.16147 67.7735 4.29455 67.8673 4.43263 67.957C4.45965 67.9779 4.48967 67.9929 4.51668 68.0108C4.56471 67.9969 4.61174 67.9839 4.65777 67.9719C4.48667 67.8643 4.32457 67.7506 4.16547 67.631C3.38801 67.0477 2.73662 66.306 2.26534 65.4565Z" fill="#1E429F"/>
<path d="M7.36816 60.139C7.49723 60.4561 7.66533 60.7611 7.85745 61.0483C8.23367 60.48 8.6109 59.9117 8.98912 59.3434C9.38236 58.7512 9.7876 58.1261 9.84764 57.4202C9.90467 56.7652 9.67353 56.2358 9.35835 55.7393C8.4368 56.149 7.63532 56.8998 7.28711 57.821C7.19405 58.0662 7.13102 58.3235 7.107 58.5867C7.06197 59.1191 7.16704 59.6425 7.36816 60.139Z" fill="#1E429F"/>
<path d="M9.84761 57.4196C9.78757 58.1254 9.38233 58.7506 8.9891 59.3428C8.61087 59.9111 8.23365 60.4793 7.85742 61.0476C7.90145 61.1134 7.94747 61.1792 7.9955 61.245C8.01652 61.275 8.03753 61.3019 8.06154 61.3318C8.29568 61.6428 8.55984 61.933 8.85101 62.1962C9.51441 60.1204 10.3099 58.0716 11.2194 56.0497C11.3395 55.7805 11.4616 55.5123 11.5856 55.2451C10.8622 55.2631 10.1298 55.4156 9.45437 55.6938C9.42136 55.7087 9.38834 55.7237 9.35832 55.7386C9.67351 56.2351 9.90464 56.7645 9.84761 57.4196Z" fill="#233876"/>
<path d="M30.5385 64.9993C30.6256 66.0611 30.4875 67.1259 30.1543 68.1309C30.4305 67.8916 30.6976 67.6403 30.9528 67.3831C31.7723 66.5666 32.5107 65.6753 33.2011 64.748C32.3186 64.8976 31.4271 64.9813 30.5385 64.9993Z" fill="#E3EEDE"/>
<path d="M14.0711 64.9991C12.5432 64.9662 11.0032 64.7449 9.52637 64.3262C11.0002 66.2165 12.8043 67.8526 14.8395 69.1267C14.7345 68.9084 14.6474 68.684 14.5724 68.4537C14.1581 67.362 13.975 66.1806 14.0711 64.9991Z" fill="#E3EEDE"/>
<path d="M33.5497 56.4955C31.0252 57.3479 28.3657 57.8414 25.7091 57.9939C21.8007 58.2153 17.8804 57.7337 14.0891 56.7916C13.1436 56.5583 12.153 56.3489 11.2194 56.0498C10.3099 58.0717 9.5144 60.1205 8.851 62.1963C8.76095 62.4735 8.67389 62.7506 8.58984 63.0278C8.852 63.4226 9.12817 63.8084 9.41834 64.1853C10.9463 64.6339 12.5462 64.8672 14.1282 64.8942C14.1552 64.8942 14.1852 64.9181 14.1822 64.948C14.1131 65.7287 14.1672 66.5153 14.3323 67.275C14.3893 67.3827 14.4463 67.4903 14.5064 67.598C15.2538 68.935 16.4185 69.9878 17.8083 70.607C16.7307 69.6857 15.9232 68.4385 15.467 67.0896C14.8306 65.2202 14.8246 63.1803 15.2118 61.2452C15.3529 60.5303 15.584 59.7706 16.1694 59.3279C16.7007 58.9271 27.8704 58.9271 28.4017 59.3279C28.987 59.7706 29.2182 60.5303 29.3592 61.2452C29.7465 63.1803 29.7405 65.2202 29.1041 67.0896C28.7259 68.1992 28.1135 69.2401 27.306 70.0895C28.6358 69.261 29.6654 68.0168 30.2388 66.5392C30.3138 66.3478 30.3829 66.1564 30.4519 65.9649C30.4669 65.627 30.4609 65.289 30.4309 64.948C30.4279 64.9181 30.4579 64.8942 30.4849 64.8942C31.4185 64.8792 32.361 64.7895 33.2916 64.628C33.6278 64.1713 33.953 63.7067 34.2672 63.2342C34.4893 62.9022 34.9156 61.9839 35.4079 61.2481C34.8615 59.648 34.2402 58.0657 33.5497 56.4955Z" fill="#E3EEDE"/>
<path d="M27.3058 70.0894C26.7564 70.6697 26.1171 71.1602 25.3966 71.5191C23.5535 72.4403 21.023 72.4403 19.1709 71.5191C18.6786 71.2739 18.2254 70.9658 17.8081 70.6069C16.4183 69.9877 15.2536 68.9349 14.5061 67.5979C14.4461 67.4902 14.3891 67.3826 14.332 67.2749C14.5842 68.4324 15.0885 69.5361 15.8059 70.4902C16.8325 71.8571 18.2854 72.8591 19.9424 73.3077C20.8219 73.544 21.7104 73.5949 22.617 73.5859C23.5325 73.5769 24.4451 73.4184 25.3066 73.1073C28.2814 72.0246 30.3046 69.0755 30.4517 65.9648C30.3826 66.1563 30.3136 66.3477 30.2385 66.5391C29.6652 68.0167 28.6356 69.2609 27.3058 70.0894Z" fill="#D1D5DB"/>
<path d="M36.7948 66.109C36.7047 65.6783 36.5997 65.2476 36.4886 64.8228C36.4105 64.5317 36.3315 64.2416 36.2514 63.9525C35.2639 64.3114 34.2402 64.5746 33.2016 64.7481C32.5112 65.6753 31.7728 66.5666 30.9533 67.3831C30.6981 67.6403 30.431 67.8916 30.1548 68.1309C29.8636 69.0162 29.4254 69.8567 28.855 70.6014C27.8134 71.9623 26.3605 72.9613 24.6975 73.41C23.797 73.6522 22.8845 73.7061 21.9569 73.6911C21.0354 73.6792 20.1108 73.5147 19.2433 73.1946C17.058 72.39 15.377 70.5895 14.5725 68.4539C14.6475 68.6842 14.7346 68.9085 14.8397 69.1269C12.8044 67.8527 11.0004 66.2166 9.52649 64.3263C9.12124 64.2127 8.719 64.0841 8.32577 63.9375C8.24172 64.2326 8.16067 64.5277 8.08263 64.8228C7.95955 65.2924 7.84248 65.768 7.74642 66.2436C7.74042 66.2814 7.73342 66.3183 7.72541 66.3542C7.7114 66.43 7.69739 66.5058 7.68339 66.5815C7.43724 67.9604 7.38921 69.3542 7.86349 70.6941C7.8755 70.727 7.89051 70.7599 7.90252 70.7958C8.23572 71.2714 8.59893 71.729 8.98917 72.1597C9.98276 73.2604 11.1415 74.2056 12.4082 74.9772C13.8401 75.8476 15.41 76.4907 17.043 76.8705C21.3656 77.8695 26.0243 77.059 29.9147 74.9354C32.7303 73.395 35.1468 71.1936 37.0679 68.6214C37.0829 67.7869 36.9689 66.9434 36.7948 66.109Z" fill="#D1D5DB"/>
<path d="M33.292 64.6279C34.2886 64.4544 35.2732 64.1972 36.2217 63.8502C36.0777 63.3417 35.9246 62.8363 35.7625 62.3308C35.6484 61.9689 35.5313 61.61 35.4083 61.248C34.916 61.9838 34.4897 62.9021 34.2676 63.2341C33.9534 63.7066 33.6282 64.1712 33.292 64.6279Z" fill="#D1D5DB"/>
<path d="M8.58968 63.0273C8.50963 63.2965 8.43059 63.5657 8.35254 63.8349C8.70275 63.9645 9.05796 64.0812 9.41818 64.1849C9.128 63.808 8.85184 63.4222 8.58968 63.0273Z" fill="#D1D5DB"/>
<path d="M33.2921 64.6276C32.3615 64.7891 31.419 64.8788 30.4854 64.8938C30.4584 64.8938 30.4284 64.9177 30.4314 64.9476C30.4614 65.2886 30.4674 65.6266 30.4524 65.9645C30.3053 69.0752 28.2821 72.0243 25.3073 73.107C24.4458 73.4181 23.5333 73.5766 22.6177 73.5856C21.7112 73.5946 20.8226 73.5437 19.9431 73.3074C18.2861 72.8588 16.8333 71.8568 15.8066 70.4899C15.0892 69.5358 14.5849 68.4321 14.3328 67.2746C14.1677 66.5149 14.1136 65.7283 14.1827 64.9476C14.1857 64.9177 14.1557 64.8938 14.1286 64.8938C12.5467 64.8669 10.9467 64.6336 9.41882 64.1849C9.05861 64.0812 8.7034 63.9646 8.35319 63.835C8.34518 63.8689 8.33618 63.9028 8.32617 63.9367C8.71941 64.0832 9.12165 64.2118 9.52689 64.3255C11.0038 64.7442 12.5437 64.9656 14.0716 64.9985C13.9755 66.1799 14.1587 67.3613 14.5729 68.4531C15.3774 70.5886 17.0584 72.3892 19.2437 73.1938C20.1112 73.5138 21.0358 73.6783 21.9573 73.6903C22.8849 73.7052 23.7974 73.6514 24.6979 73.4091C26.3609 72.9605 27.8138 71.9615 28.8554 70.6006C29.4258 69.8558 29.864 69.0154 30.1552 68.13C30.4884 67.1251 30.6265 66.0603 30.5394 64.9985C31.428 64.9805 32.3195 64.8968 33.202 64.7472C34.2406 64.5737 35.2643 64.3105 36.2518 63.9516C36.2418 63.9177 36.2318 63.8838 36.2218 63.8499C35.2733 64.1969 34.2887 64.4541 33.2921 64.6276Z" fill="#1E429F"/>
<path d="M11.2197 56.0501C12.1533 56.3492 13.1439 56.5585 14.0894 56.7918C17.8807 57.734 21.801 58.2155 25.7094 57.9942C28.366 57.8417 31.0255 57.3482 33.5501 56.4957C33.372 56.0909 33.1888 55.6872 33.0007 55.2844C32.9847 55.2485 32.9687 55.2136 32.9527 55.1797C32.8246 55.2216 32.6975 55.2634 32.5715 55.3053C32.5375 55.3153 32.5034 55.3252 32.4694 55.3352C25.8445 57.4259 18.7272 57.4259 12.1023 55.3352C12.0682 55.3252 12.0342 55.3153 12.0002 55.3053C11.8721 55.2634 11.745 55.2216 11.619 55.1797C11.607 55.2016 11.596 55.2236 11.5859 55.2455C11.4619 55.5127 11.3398 55.7809 11.2197 56.0501Z" fill="#9CA3AF"/>
<path d="M29.9145 74.9351C26.0242 77.0587 21.3654 77.8692 17.0428 76.8702C15.4098 76.4904 13.8399 75.8473 12.408 74.9769C11.1413 74.2053 9.98258 73.2601 8.98899 72.1594C8.59876 71.7287 8.23554 71.2711 7.90234 70.7955C8.4937 72.3808 9.69441 73.6609 11.0212 74.7257C11.4535 75.0727 11.8977 75.3957 12.339 75.7038C14.2091 76.9989 16.2743 78.0936 18.4626 78.7426C19.6424 79.0926 20.8551 79.3139 22.0978 79.3647C23.7728 79.4305 25.4388 79.1344 27.0238 78.5871C28.3566 78.1295 29.6323 77.4954 30.806 76.7446C32.0428 75.958 33.3695 75.0487 34.4832 73.966C35.4558 73.0208 36.2663 71.9441 36.7075 70.6938C36.9477 70.0149 37.0527 69.318 37.0678 68.6211C35.1466 71.1933 32.7302 73.3947 29.9145 74.9351Z" fill="#9CA3AF"/>
<path d="M39.3737 42.7399C39.1936 42.055 38.9774 41.379 38.7493 40.709C38.6412 40.394 38.5302 40.0789 38.4161 39.7639C38.3831 39.5844 38.3501 39.408 38.317 39.2285C37.7587 36.1508 37.0053 33.1089 36.0567 30.1299C35.7805 29.2685 35.4503 28.3563 34.7209 27.8209C33.9254 27.2376 32.8058 27.2436 31.8992 27.6294C30.9927 28.0183 30.2662 28.7301 29.6359 29.4868C28.8524 30.429 28.189 31.4519 27.6036 32.5227C24.0765 32.0053 20.4414 31.8467 16.8963 32.2804C16.3409 31.2964 15.7196 30.3572 14.9961 29.4868C14.3657 28.7301 13.6393 28.0183 12.7328 27.6294C11.8262 27.2436 10.7066 27.2376 9.91109 27.8209C9.18165 28.3563 8.85145 29.2685 8.57829 30.1299C7.62672 33.1089 6.87327 36.1478 6.31494 39.2225C6.29993 39.3003 6.28492 39.3751 6.27291 39.4528C6.12883 39.8397 5.98975 40.2275 5.85567 40.6163C5.76761 40.8676 5.68356 41.1208 5.60352 41.376C5.61152 41.386 5.62053 41.397 5.63053 41.4089C6.61812 42.5635 7.71978 43.6193 8.91149 44.5614C8.96852 44.2324 9.04357 43.9064 9.13062 43.5864C9.22067 43.2604 9.33174 42.9493 9.45181 42.6472C10.4634 40.1527 12.5347 38.5137 15.2783 37.4937C19.79 35.8158 24.818 35.8307 29.2937 37.4937C29.5398 37.5865 29.7799 37.6852 30.0171 37.7868C32.7157 38.9533 34.6699 40.7988 35.4413 43.5864C35.6274 44.2683 35.7565 44.9862 35.7955 45.704C35.9366 46.0958 36.0357 46.5026 36.0777 46.9094C37.3625 46.2035 38.5842 45.3899 39.7249 44.4747C39.6378 43.8855 39.5178 43.3052 39.3737 42.7399Z" fill="#E3EEDE"/>
<path d="M11.9996 55.305C12.0336 55.315 12.0676 55.325 12.1017 55.3349C18.7266 57.4256 25.8439 57.4256 32.4688 55.3349C32.5028 55.325 32.5369 55.315 32.5709 55.305C32.697 55.2631 32.824 55.2213 32.9521 55.1794C34.8042 54.5633 36.6443 53.7467 37.9321 52.2991C38.5475 51.6111 38.9977 50.8215 39.3069 49.9751C39.9313 48.2762 39.9973 46.341 39.7242 44.4746C38.5835 45.3899 37.3617 46.2034 36.077 46.9093C36.149 47.5942 36.071 48.2852 35.8068 48.9312C34.501 52.1286 30.7818 52.9631 27.732 53.5613C23.5445 54.3838 18.8827 54.1625 14.7492 53.1724C11.7264 52.4486 8.86573 50.6899 8.85973 47.3879C8.70364 46.4696 8.74266 45.5006 8.91076 44.5614C7.71905 43.6192 6.61739 42.5634 5.6298 41.4089C5.6198 41.3969 5.61079 41.3859 5.60279 41.376C5.4557 41.8276 5.31762 42.2822 5.19755 42.7399C4.58218 45.1028 4.44109 47.7528 5.26659 49.99C5.57877 50.8305 6.02604 51.6141 6.63841 52.2991C7.92617 53.7467 9.76627 54.5633 11.6184 55.1794C11.7445 55.2213 11.8715 55.2631 11.9996 55.305Z" fill="#D1D5DB"/>
<path d="M34.3906 50.1637C33.382 51.2285 31.9171 51.7967 30.4733 52.2304C30.4492 52.2384 30.4242 52.2454 30.3982 52.2514C25.3222 53.7618 19.2195 53.7558 14.1735 52.2514C14.1475 52.2454 14.1225 52.2384 14.0985 52.2304C12.6546 51.7967 11.1897 51.2285 10.1811 50.1637C9.4427 49.383 9.03145 48.4169 8.86035 47.388C8.86636 50.6901 11.7271 52.4488 14.7499 53.1726C18.8833 54.1626 23.5451 54.384 27.7326 53.5614C30.7824 52.9632 34.5017 52.1287 35.8074 48.9314C36.0716 48.2853 36.1496 47.5944 36.0776 46.9095C36.0356 46.5027 35.9365 46.0959 35.7954 45.7041C35.8885 47.3342 35.5253 48.9643 34.3906 50.1637Z" fill="#9CA3AF"/>
<path d="M30.0377 33.6892C30.7341 34.096 31.5115 34.3802 32.229 34.772C32.8323 35.098 33.4327 35.427 34.021 35.774C34.5193 36.0671 35.663 36.9734 35.663 36.9734C35.663 36.9734 34.6274 35.433 33.997 34.7391C33.5407 34.2336 33.0364 33.785 32.4691 33.4619C31.1093 32.6843 27.7383 32.5557 27.7383 32.5557C27.7383 32.5557 28.5758 32.9206 28.8369 33.0462C29.2452 33.2456 29.6454 33.4599 30.0377 33.6892Z" fill="#D1D5DB"/>
<path d="M12.2641 34.5835C12.9816 34.1916 13.756 33.9075 14.4554 33.5007C14.8477 33.2714 15.2479 33.057 15.6562 32.8576C15.9173 32.732 16.7548 32.3701 16.7548 32.3701C16.7548 32.3701 13.3838 32.4957 12.024 33.2734C11.4566 33.5964 10.9523 34.0451 10.4961 34.5505C9.86269 35.2475 8.83008 36.7848 8.83008 36.7848C8.83008 36.7848 9.97076 35.8815 10.4691 35.5884C11.0604 35.2415 11.6608 34.9095 12.2641 34.5835Z" fill="#D1D5DB"/>
<path d="M33.3641 40.4551C32.4125 39.3844 31.2388 38.5499 30.0171 37.7872C29.7799 37.6855 29.5398 37.5868 29.2936 37.4941C24.818 35.8311 19.79 35.8161 15.2783 37.4941C12.5346 38.514 10.4634 40.1531 9.4518 42.6475C9.34374 43.3654 9.29571 44.0922 9.33473 44.819C9.43679 46.7602 10.2173 48.7342 11.7512 49.9366C13.096 50.9894 14.843 51.3513 16.533 51.5966C20.6575 52.1948 24.929 52.2875 28.9334 51.136C30.3383 50.7292 31.7161 50.1639 32.8628 49.2576C34.0095 48.3544 34.907 47.0802 35.1471 45.6445C35.4563 43.7781 34.6218 41.8699 33.3641 40.4551Z" fill="#233876"/>
<path d="M14.0982 52.2306C14.1222 52.2386 14.1473 52.2456 14.1733 52.2515C19.2193 53.756 25.3219 53.762 30.398 52.2515C30.424 52.2456 30.449 52.2386 30.473 52.2306C31.9169 51.7969 33.3817 51.2286 34.3903 50.1638C35.525 48.9644 35.8882 47.3344 35.7952 45.7043C35.7562 44.9864 35.6271 44.2686 35.441 43.5866C34.6695 40.799 32.7153 38.9536 30.0167 37.7871C31.2385 38.5498 32.4122 39.3843 33.3637 40.4551C34.6215 41.8698 35.456 43.7781 35.1468 45.6444C34.9067 47.0801 34.0091 48.3543 32.8624 49.2576C31.7157 50.1638 30.3379 50.7291 28.9331 51.1359C24.9287 52.2874 20.6571 52.1947 16.5327 51.5965C14.8427 51.3513 13.0956 50.9893 11.7508 49.9365C10.2169 48.7341 9.43644 46.7601 9.33438 44.8189C9.29536 44.0921 9.34339 43.3653 9.45145 42.6475C9.33138 42.9496 9.22031 43.2606 9.13026 43.5866C9.04321 43.9067 8.96816 44.2327 8.91113 44.5617C8.74303 45.5009 8.70401 46.47 8.8601 47.3882C9.0312 48.4171 9.44245 49.3832 10.1809 50.1638C11.1895 51.2286 12.6544 51.7969 14.0982 52.2306Z" fill="#233876"/>
<path d="M31.6201 40.5268C30.8036 39.6236 29.723 39.0134 28.5823 38.6186C26.2949 37.826 23.7674 37.808 21.378 38.0054C20.1773 38.1041 18.9856 38.2985 17.8119 38.5767C14.597 39.3304 10.8087 41.0562 10.1633 44.6723C9.92316 46.0093 10.5055 47.5975 11.7933 48.0432C12.5467 48.3034 13.3722 48.1359 14.1527 47.9654C14.3068 47.9315 14.4619 47.8976 14.618 47.8637C13.8945 47.6843 13.2281 47.2865 12.7689 46.7002C11.8803 45.5696 11.9674 44.0652 12.6248 42.8837C13.3302 41.6245 14.69 40.7362 16.2209 41.0622C18.3522 41.5228 19.727 44.6694 18.3732 46.4669C18.1661 46.7391 17.9229 46.9844 17.6558 47.1967C20.1333 46.6524 22.6107 46.109 25.0882 45.5667C25.3144 45.5168 25.5405 45.467 25.7666 45.4171C25.5955 44.5647 25.7786 43.6554 26.2109 42.8837C26.9163 41.6245 28.2761 40.7362 29.804 41.0622C30.9627 41.3135 31.8963 42.3543 32.2895 43.5418C33.4872 42.3992 32.4186 41.4092 31.6201 40.5268Z" fill="#1E429F"/>
<path d="M18.3725 46.4667C19.7263 44.6691 18.3485 41.5226 16.2202 41.062C14.6893 40.736 13.3295 41.6243 12.6241 42.8835C11.9667 44.0649 11.8796 45.5694 12.7682 46.7C13.2274 47.2862 13.8938 47.684 14.6173 47.8635C15.1996 48.0041 15.821 48.0071 16.4003 47.8426C16.8566 47.7139 17.2829 47.4896 17.6551 47.1965C17.9222 46.9841 18.1654 46.7389 18.3725 46.4667Z" fill="#0DC3F2"/>
<path d="M29.8031 41.062C28.2752 40.736 26.9154 41.6243 26.21 42.8835C25.7777 43.6552 25.5946 44.5644 25.7657 45.4169C25.8558 45.8715 26.0449 46.3082 26.3511 46.7C27.1825 47.7588 28.6864 48.2075 29.9832 47.8426C30.7727 47.6212 31.4661 47.1157 31.9554 46.4667C32.5738 45.6442 32.6218 44.5435 32.2886 43.5415C31.8954 42.3541 30.9618 41.3132 29.8031 41.062Z" fill="#0DC3F2"/>
<path d="M29.3593 61.2452C29.2182 60.5303 28.987 59.7706 28.4017 59.3279C27.8704 58.9271 16.7007 58.9271 16.1694 59.3279C15.584 59.7706 15.3529 60.5303 15.2118 61.2452C14.8246 63.1803 14.8306 65.2202 15.467 67.0896C15.9232 68.4385 16.7307 69.6857 17.8084 70.607C18.2256 70.9659 18.6789 71.274 19.1712 71.5192C21.0233 72.4404 23.5538 72.4404 25.3969 71.5192C26.1173 71.1603 26.7567 70.6698 27.306 70.0895C28.1135 69.2401 28.7259 68.1992 29.1041 67.0896C29.7405 65.2202 29.7465 63.1803 29.3593 61.2452Z" fill="#1E429F"/>
<path d="M28.1348 59.7319C28.1168 59.7169 28.1048 59.7019 28.0868 59.69C27.5825 59.3221 16.9891 59.3221 16.4848 59.69C15.9295 60.0938 15.7134 60.7907 15.5783 61.4487C15.2511 63.0369 15.2211 64.6999 15.6473 66.2582C16.9261 67.6012 18.7392 68.4715 20.6303 68.5822C23.0618 68.7228 25.5322 67.6041 26.9701 65.7079C28.2549 64.015 28.6781 61.7568 28.1348 59.7319Z" fill="#0DC3F2"/>
<path d="M17.3825 65.6423C18.6072 66.1209 19.973 65.5347 21.1527 64.9604C22.5455 64.2804 23.9394 63.6015 25.3342 62.9235C25.9796 62.6065 26.712 62.2266 26.8681 61.4789C26.9942 60.8897 26.706 60.5098 26.1147 60.3812C25.2622 60.1957 24.2476 60.2795 23.374 60.2675C22.4095 60.2536 21.4459 60.2645 20.4833 60.3004C19.2976 60.3453 18.0399 60.453 17.0823 61.1289C16.3168 61.6733 15.8215 62.5766 15.8605 63.4948C15.8996 64.4101 16.5029 65.2984 17.3825 65.6423Z" fill="#76D1F6"/>
<path d="M28.9934 61.4483C28.8644 60.8112 28.6512 60.1412 28.1349 59.7314C28.6782 61.7563 28.255 64.0145 26.9702 65.7074C25.5324 67.6037 23.0619 68.7224 20.6304 68.5818C18.7393 68.4711 16.9262 67.6007 15.6475 66.2578C15.6985 66.4462 15.7555 66.6317 15.8186 66.8141C16.4219 68.528 17.6557 70.0713 19.3337 70.8819C21.0867 71.7283 23.4881 71.7253 25.2382 70.8819C26.9162 70.0713 28.1499 68.528 28.7503 66.8141C29.3536 65.1003 29.3596 63.2249 28.9934 61.4483Z" fill="#378EBE"/>
<path d="M17.0127 50.6352C21.3518 48.2293 23.7722 48.1834 28.065 50.6352" stroke="#E3EEDE"/>
</g>
<defs>
<clipPath id="clip0_3765_61547">
<rect width="44.6667" height="55.3333" fill="white" transform="translate(0.166992 27.333)"/>
</clipPath>
</defs>
</svg>
