<svg xmlns="http://www.w3.org/2000/svg" width="146" height="100" viewBox="0 0 146 100" fill="none">
  <g clip-path="url(#clip0_2987_48726)">
    <path opacity="0.2" d="M44.0551 12.9633L43.9527 12.9375L11.4453 80.9945L126.041 89.8407L126.17 89.8507L130.369 34.6037L130.377 34.4951L44.0551 12.9633ZM76.9748 56.7301L11.8963 80.6495L44.049 13.3356L76.9748 56.7301ZM77.1657 56.9351L125.573 89.5448L12.244 80.797L77.1657 56.9351ZM77.2255 56.6334L44.3485 13.3022L129.831 34.6244L77.2255 56.6334ZM125.939 89.4802L77.454 56.8178L130.095 34.794L125.939 89.4802Z" fill="#367CFF"/>
    <path d="M145.015 35.7515C144.912 38.3715 144.175 40.9274 142.869 43.201C141.563 45.4745 139.726 47.398 137.514 48.807C135.303 50.216 132.783 51.0688 130.171 51.2923C127.558 51.5158 124.931 51.1035 122.512 50.0906C121.378 49.6152 120.302 49.0108 119.306 48.2894C117.402 46.9149 115.818 45.1455 114.661 43.1022V43.1004C113.427 40.9149 112.717 38.4731 112.586 35.9669C112.456 33.4607 112.908 30.9584 113.908 28.6565C114.907 26.3546 116.427 24.3158 118.348 22.7004C120.268 21.085 122.537 19.9369 124.976 19.3464C127.416 18.7559 129.958 18.739 132.405 19.297C134.852 19.8551 137.136 20.9729 139.078 22.5626C141.02 24.1523 142.567 26.1707 143.597 28.4591C144.627 30.7475 145.112 33.2436 145.015 35.7513L145.015 35.7515Z" fill="white"/>
    <path opacity="0.09" d="M145.015 35.7515C144.912 38.3715 144.175 40.9274 142.869 43.201C141.563 45.4745 139.726 47.398 137.514 48.807C135.303 50.216 132.783 51.0688 130.171 51.2923C127.558 51.5158 124.931 51.1035 122.512 50.0906C121.378 49.6152 120.302 49.0108 119.306 48.2894C117.402 46.9149 115.818 45.1455 114.661 43.1022V43.1004C113.427 40.9149 112.717 38.4731 112.586 35.9669C112.456 33.4607 112.908 30.9584 113.908 28.6565C114.907 26.3546 116.427 24.3158 118.348 22.7004C120.268 21.085 122.537 19.9369 124.976 19.3464C127.416 18.7559 129.958 18.739 132.405 19.297C134.852 19.8551 137.136 20.9729 139.078 22.5626C141.02 24.1523 142.567 26.1707 143.597 28.4591C144.627 30.7475 145.112 33.2436 145.015 35.7513L145.015 35.7515Z" fill="#367CFF"/>
    <path d="M132.633 22.7578C132.633 22.7578 136.513 22.8053 135.175 28.1531L134.811 28.1709L134.071 28.207" fill="#0C0C0C"/>
    <path d="M128.301 33.7659C128.319 33.7642 128.39 37.0998 132.268 36.9597C134.952 36.8631 136.016 34.0605 136.078 34.0628C135.792 33.9903 135.309 33.882 135.184 33.8089C134.771 33.5662 134.259 33.3103 134.154 32.4866C134.095 32.0118 134.321 29.6038 134.299 29.125L130.155 29.8825C130.173 30.8928 130.484 33.245 129.06 33.6039C128.823 33.6633 128.568 33.7164 128.301 33.7659Z" fill="#E98862"/>
    <path opacity="0.52" d="M129.988 32.6878C130.061 32.4829 130.11 32.2706 130.137 32.0549C130.201 31.5628 130.211 31.0651 130.167 30.5707C131.007 30.4905 131.807 30.1763 132.476 29.6641C132.542 29.9482 132.914 31.1961 132.786 31.4593C132.548 31.9571 131.484 32.7459 129.988 32.6878Z" fill="#0C0C0C"/>
    <path d="M130.929 32.0976C132.553 31.9813 134.513 30.9924 134.581 28.7911L134.643 26.8053C134.711 24.6045 133.609 22.7846 131.538 22.7205C129.466 22.6559 127.861 24.3926 127.793 26.5934L127.766 27.4726C127.762 27.7747 127.779 28.0768 127.816 28.3767C127.908 29.1697 128.05 30.3755 128.573 31.1989C129.065 31.9761 129.891 32.1716 130.929 32.0976Z" fill="#E98862"/>
    <path d="M134.432 29.4602C135.062 29.4796 135.593 28.8217 135.613 28.192C135.632 27.5624 135.132 27.1992 134.503 27.1797L134.165 27.5916L133.891 29.4434L134.432 29.4602Z" fill="#E98862"/>
    <path d="M127.899 29.0419C128.013 29.1768 128.159 29.2811 128.323 29.3453C128.487 29.4095 128.665 29.4316 128.84 29.4095C129.215 29.3624 129.463 29.5161 129.776 29.4852C130.038 29.4594 130.084 29.3381 130.532 29.3116C132.261 29.2092 133.558 29.1002 133.642 26.9305L134.743 25.9531C134.743 25.9531 135.234 31.9656 131.982 32.7649C129.984 33.2557 128.11 33.0763 127.869 31.1995C127.673 29.6745 127.899 29.0419 127.899 29.0419Z" fill="#0C0C0C"/>
    <path d="M128.718 27.7841C128.859 27.7841 128.974 27.6698 128.974 27.5288C128.974 27.3878 128.859 27.2734 128.718 27.2734C128.577 27.2734 128.463 27.3878 128.463 27.5288C128.463 27.6698 128.577 27.7841 128.718 27.7841Z" fill="#0C0C0C"/>
    <path d="M130.999 27.7372C131.141 27.7372 131.255 27.6229 131.255 27.4819C131.255 27.3409 131.141 27.2266 130.999 27.2266C130.858 27.2266 130.744 27.3409 130.744 27.4819C130.744 27.6229 130.858 27.7372 130.999 27.7372Z" fill="#0C0C0C"/>
    <path d="M133.823 28.4321C133.823 28.4321 133.667 25.3135 132.726 25.1038C132.099 24.9642 130.558 25.8288 129.149 25.5335C128.533 25.4044 127.944 25.5465 127.879 25.8376C127.853 25.9528 127.365 24.931 128.357 23.6878C129.146 22.6979 131.711 22.4194 132.853 22.7695C136.014 23.7389 134.629 27.3149 134.629 27.3149L134.468 28.3861L133.823 28.4321Z" fill="#0C0C0C"/>
    <path d="M135.259 25.9158C136.189 25.9158 136.943 25.1616 136.943 24.2313C136.943 23.301 136.189 22.5469 135.259 22.5469C134.328 22.5469 133.574 23.301 133.574 24.2313C133.574 25.1616 134.328 25.9158 135.259 25.9158Z" fill="#0C0C0C"/>
    <g opacity="0.52">
      <path d="M129.806 29.3782H129.802C129.599 29.3724 129.26 29.3401 129.264 29.1884C129.267 29.0626 129.65 27.7144 129.694 27.561C129.698 27.5478 129.706 27.5366 129.718 27.53C129.73 27.5233 129.744 27.5217 129.758 27.5254C129.771 27.5292 129.782 27.538 129.789 27.55C129.795 27.562 129.797 27.5761 129.793 27.5893C129.623 28.1864 129.37 29.1057 129.367 29.1908C129.386 29.2272 129.595 29.2683 129.805 29.2744C129.819 29.2742 129.832 29.2795 129.842 29.2891C129.852 29.2987 129.857 29.3118 129.857 29.3255C129.858 29.3392 129.852 29.3524 129.843 29.3622C129.833 29.372 129.82 29.3776 129.806 29.3777V29.3782Z" fill="#0C0C0C"/>
    </g>
    <path d="M129.189 26.6595C128.979 26.5974 128.757 26.5929 128.545 26.6466C128.44 26.6722 128.34 26.7134 128.248 26.7687C128.157 26.823 128.073 26.8886 127.998 26.9639C127.985 26.9755 127.978 26.9918 127.977 27.0092C127.976 27.0265 127.982 27.0436 127.993 27.0566C128.005 27.0695 128.021 27.0773 128.039 27.0783C128.056 27.0793 128.073 27.0733 128.086 27.0617L128.09 27.0583C128.16 26.9954 128.237 26.9416 128.32 26.898C128.402 26.8547 128.49 26.8239 128.581 26.8068C128.761 26.7717 128.946 26.7847 129.119 26.8444L129.126 26.8469C129.138 26.8516 129.151 26.8539 129.164 26.8535C129.177 26.8531 129.19 26.8502 129.202 26.8448C129.214 26.8394 129.225 26.8317 129.234 26.8221C129.243 26.8125 129.25 26.8012 129.254 26.7889C129.259 26.7766 129.261 26.7635 129.26 26.7504C129.26 26.7373 129.256 26.7245 129.251 26.7127C129.245 26.7008 129.237 26.6902 129.228 26.6815C129.218 26.6727 129.206 26.666 129.194 26.6617L129.189 26.6595Z" fill="#0C0C0C"/>
    <path d="M130.694 26.8446C130.86 26.7682 131.044 26.7372 131.226 26.7549C131.318 26.7629 131.409 26.785 131.495 26.8203C131.582 26.8556 131.664 26.9016 131.739 26.9574L131.743 26.9602C131.757 26.9694 131.774 26.9728 131.791 26.9698C131.807 26.9668 131.822 26.9576 131.832 26.9441C131.842 26.9305 131.846 26.9137 131.844 26.8971C131.842 26.8804 131.834 26.8652 131.821 26.8546C131.739 26.7869 131.649 26.7298 131.553 26.6846C131.456 26.6385 131.353 26.6072 131.246 26.5917C131.03 26.5592 130.809 26.5853 130.606 26.6675C130.583 26.6778 130.564 26.6971 130.554 26.7211C130.544 26.7451 130.544 26.772 130.554 26.796C130.564 26.8199 130.583 26.839 130.607 26.8491C130.631 26.8591 130.658 26.8594 130.682 26.8498L130.687 26.8477L130.694 26.8446Z" fill="#0C0C0C"/>
    <path d="M141.037 42.0929C140.893 43.1834 140.752 44.6812 140.626 46.23C140.134 46.7534 139.608 47.2438 139.052 47.698C138.698 47.9854 138.333 48.2586 137.956 48.5176C135.92 49.9074 133.595 50.8161 131.156 51.1752C128.717 51.5342 126.229 51.3341 123.879 50.59C123.847 49.1515 123.803 47.211 123.76 45.4333C123.71 43.3827 123.66 41.5466 123.633 40.9433C123.521 38.549 122.887 36.9514 123.367 35.6451C123.51 35.2585 123.741 34.9101 124.041 34.627C125.159 33.5329 127.935 33.5578 129.049 33.6011C129.068 33.6019 128.724 36.1722 132.389 36.1412C135.082 36.1191 135.284 33.843 135.284 33.843C135.284 33.843 136.611 33.9811 137.493 34.1341C138.934 34.3866 139.871 34.9154 140.601 35.7051C141.281 36.4414 141.683 37.2231 141.037 42.0929Z" fill="#367CFF"/>
    <path d="M119.496 33.8568L119.607 31.1142C119.609 31.0538 119.599 30.9937 119.577 30.9374C119.555 30.8812 119.522 30.8302 119.479 30.7877C119.436 30.7452 119.385 30.712 119.328 30.6904C119.272 30.6688 119.212 30.6591 119.151 30.6621C119.04 30.6711 118.937 30.721 118.86 30.8021C118.784 30.8832 118.74 30.9898 118.738 31.1012L118.714 31.6894L117.94 29.8059C117.857 29.595 117.621 29.3889 117.391 29.497C117.299 29.5328 117.223 29.5985 117.173 29.6834C117.124 29.7683 117.105 29.8674 117.119 29.9645C117.117 29.9648 117.115 29.9653 117.113 29.9659C117.112 29.9668 117.11 29.9677 117.109 29.9688L116.982 29.6436C116.958 29.5833 116.922 29.5291 116.874 29.4848C116.827 29.4406 116.771 29.4074 116.709 29.3878C116.647 29.3681 116.582 29.3624 116.518 29.3712C116.454 29.3799 116.393 29.4029 116.339 29.4383C116.255 29.4959 116.193 29.5806 116.164 29.6782C116.134 29.7758 116.14 29.8805 116.179 29.9747L116.233 30.1131C116.229 30.1165 116.227 30.1205 116.225 30.1248C116.167 30.0399 116.08 29.9784 115.981 29.9514C115.881 29.9243 115.776 29.9335 115.682 29.9772C115.582 30.0281 115.504 30.1152 115.465 30.2209C115.425 30.3267 115.427 30.4433 115.47 30.5477L115.605 30.8915C115.599 30.888 115.593 30.8857 115.587 30.885C115.581 30.8843 115.574 30.8851 115.568 30.8873C115.561 30.8904 115.555 30.8955 115.551 30.9018C115.478 30.8405 115.387 30.8048 115.292 30.8003C115.197 30.7957 115.103 30.8225 115.024 30.8766C114.943 30.9352 114.884 31.0194 114.857 31.1156C114.829 31.2119 114.835 31.3146 114.874 31.4071L116.007 34.3078C116.166 34.7136 116.442 35.0628 116.8 35.3107C117.159 35.5585 117.583 35.6937 118.018 35.6988C118.394 35.7033 118.757 35.5611 119.029 35.3025C119.302 35.0438 119.463 34.6892 119.478 34.3138L119.496 33.8568Z" fill="#E98862"/>
    <g opacity="0.2">
      <path d="M117.877 31.8327C117.868 31.8365 117.857 31.8363 117.847 31.8322C117.837 31.828 117.83 31.8202 117.826 31.8105L117.092 30.0182C117.089 30.0133 117.088 30.0079 117.088 30.0025C117.088 29.997 117.089 29.9916 117.091 29.9865C117.093 29.9814 117.096 29.9768 117.099 29.9729C117.103 29.9691 117.108 29.966 117.113 29.9639C117.118 29.9619 117.123 29.9608 117.129 29.9609C117.134 29.961 117.14 29.9622 117.145 29.9645C117.15 29.9667 117.154 29.9699 117.158 29.974C117.161 29.978 117.164 29.9827 117.166 29.9879L117.9 31.7802C117.902 31.785 117.903 31.7903 117.903 31.7955C117.903 31.8008 117.902 31.806 117.9 31.8109C117.898 31.8157 117.895 31.8201 117.891 31.8239C117.887 31.8276 117.883 31.8305 117.878 31.8325L117.877 31.8327Z" fill="#0C0C0C"/>
    </g>
    <g opacity="0.2">
      <path d="M117.094 32.1782C117.084 32.1821 117.074 32.1819 117.064 32.1777C117.054 32.1735 117.047 32.1657 117.043 32.1559L116.223 30.1556C116.22 30.1459 116.22 30.135 116.224 30.1253C116.228 30.1157 116.236 30.108 116.245 30.104C116.255 30.1005 116.266 30.1008 116.276 30.1048C116.285 30.1089 116.293 30.1164 116.297 30.1258L117.116 32.1261C117.12 32.1359 117.12 32.1469 117.116 32.1568C117.112 32.1666 117.104 32.1743 117.094 32.1784V32.1782Z" fill="#0C0C0C"/>
    </g>
    <g opacity="0.2">
      <path d="M116.251 32.5559C116.241 32.5597 116.23 32.5595 116.221 32.5553C116.211 32.5511 116.203 32.5433 116.199 32.5335L115.546 30.938C115.542 30.9282 115.542 30.9172 115.546 30.9074C115.55 30.8976 115.558 30.8898 115.568 30.8858C115.578 30.8818 115.589 30.8818 115.598 30.8859C115.608 30.89 115.616 30.8979 115.62 30.9077L116.274 32.5028C116.278 32.5126 116.278 32.5237 116.274 32.5335C116.27 32.5433 116.262 32.5511 116.252 32.5551L116.251 32.5559Z" fill="#0C0C0C"/>
    </g>
    <path d="M128.574 38.1564L121.899 48.4187C121.657 48.7917 121.331 49.1041 120.949 49.3318C120.38 49.0181 119.831 48.6697 119.305 48.2884C118.184 47.4795 117.171 46.5306 116.291 45.4648L114.889 34.5944L120.5 33.6953L121.139 38.9277L123.703 34.9868L128.574 38.1564Z" fill="#367CFF"/>
    <path d="M129.357 29.9398C129.969 29.9804 130.577 29.8159 131.086 29.4721C131.103 29.4603 131.124 29.4537 131.145 29.4532C131.166 29.4526 131.187 29.4581 131.206 29.4691C131.224 29.48 131.239 29.4959 131.248 29.5149C131.258 29.5339 131.261 29.5552 131.259 29.5763C131.218 29.938 131.04 30.6031 130.281 30.6878C129.791 30.7425 129.436 30.3662 129.257 30.1161C129.245 30.0988 129.238 30.0783 129.236 30.057C129.235 30.0358 129.24 30.0147 129.251 29.9961C129.261 29.9776 129.277 29.9625 129.296 29.9525C129.314 29.9425 129.336 29.9381 129.357 29.9398Z" fill="white"/>
    <path d="M142.848 43.2458C141.861 44.9465 140.575 46.4546 139.052 47.6975C138.698 47.9849 138.333 48.2581 137.957 48.5171L135.35 38.599L141.221 37.0547L142.848 43.2458Z" fill="#367CFF"/>
    <path d="M138.014 48.4805C137.995 48.4927 137.975 48.5064 137.957 48.5193C137.938 48.5322 137.92 48.5451 137.901 48.5571L135.914 41.0014L136.039 40.9688L138.014 48.4805Z" fill="#0C0C0C"/>
    <path d="M123.776 45.9057C123.76 45.9051 123.745 45.8984 123.733 45.887C123.722 45.8755 123.715 45.8603 123.714 45.8441L123.586 43.0285C123.585 43.0114 123.591 42.9946 123.603 42.982C123.614 42.9693 123.631 42.9618 123.648 42.961C123.665 42.9602 123.682 42.9663 123.694 42.9779C123.707 42.9894 123.714 43.0055 123.715 43.0227L123.843 45.8383C123.844 45.8554 123.838 45.8721 123.826 45.8847C123.815 45.8974 123.799 45.9049 123.782 45.9057H123.776Z" fill="#0C0C0C"/>
    <path d="M75.4884 71.9611C84.627 71.9611 92.0353 64.5528 92.0353 55.4141C92.0353 46.2755 84.627 38.8672 75.4884 38.8672C66.3497 38.8672 58.9414 46.2755 58.9414 55.4141C58.9414 64.5528 66.3497 71.9611 75.4884 71.9611Z" fill="white"/>
    <path opacity="0.09" d="M92.0348 55.414C92.0348 58.6866 91.0644 61.8858 89.2462 64.6069C87.428 67.328 84.8438 69.4488 81.8203 70.7012C78.7967 71.9535 75.4698 72.2812 72.26 71.6428C69.0503 71.0043 66.1019 69.4284 63.7878 67.1143C61.4737 64.8002 59.8978 61.8519 59.2594 58.6421C58.6209 55.4324 58.9486 52.1054 60.201 49.0819C61.4533 46.0583 63.5742 43.4741 66.2953 41.6559C69.0163 39.8377 72.2155 38.8673 75.4881 38.8673C77.6633 38.8593 79.8186 39.2818 81.8298 40.1105C83.8409 40.9392 85.6682 42.1577 87.2063 43.6958C88.7444 45.2339 89.9629 47.0612 90.7916 49.0724C91.6203 51.0835 92.0429 53.2388 92.0348 55.414Z" fill="#367CFF"/>
    <path d="M68.1637 45.6528C68.1637 45.6528 67.9974 48.1507 67.4353 49.057C65.8175 51.666 65.3488 54.6011 66.9689 56.1348C68.5891 57.6686 78.923 57.6896 79.7059 54.1626C80.3646 51.1933 78.9506 50.874 78.6065 48.4245C78.4507 47.3162 78.0223 44.9922 78.0223 44.9922" fill="#0A0A0A"/>
    <path d="M77.0309 53.6462C77.0131 53.6439 76.8152 56.9285 72.9994 56.6426C70.3579 56.4448 69.416 53.6421 69.3555 53.6421C69.6403 53.5816 70.1198 53.4935 70.2467 53.4261C70.6625 53.2025 71.1772 52.9701 71.3113 52.1622C71.3888 51.6972 71.2574 49.3148 71.2984 48.8438L75.3531 49.7488C75.2966 50.7433 74.8999 53.05 76.2898 53.4581C76.5203 53.5252 76.7695 53.5873 77.0309 53.6462Z" fill="#E98862"/>
    <path opacity="0.5" d="M75.4087 52.52C75.3453 52.3153 75.3044 52.1043 75.2868 51.8906C75.2422 51.4032 75.2511 50.9124 75.3133 50.4269C74.4892 50.3158 73.7128 49.9757 73.0723 49.4453C72.997 49.7234 72.5829 50.9384 72.6977 51.2028C72.9148 51.7019 73.9326 52.52 75.4087 52.52Z" fill="#0C0C0C"/>
    <path d="M74.8859 51.4925C73.2872 51.6475 71.2188 51.0077 70.7903 48.8788L70.4037 46.9578C69.9752 44.8289 70.746 42.878 72.7504 42.4747C74.755 42.0712 76.6006 43.495 77.029 45.6244L77.2003 46.4748C77.3647 47.2917 77.7382 51.2165 74.8859 51.4925Z" fill="#E98862"/>
    <path opacity="0.1" d="M73.8683 48.7046C74.1314 48.6732 74.3259 48.4913 74.3029 48.2983C74.2799 48.1053 74.048 47.9743 73.7849 48.0057C73.5218 48.0371 73.3273 48.219 73.3503 48.412C73.3733 48.605 73.6052 48.736 73.8683 48.7046Z" fill="#0C0C0C"/>
    <path opacity="0.1" d="M76.6483 47.9346C76.6719 48.1272 76.9038 48.2575 77.1668 48.2271C77.2123 48.2216 77.2571 48.2115 77.3005 48.1968C77.3127 47.9671 77.3134 47.7459 77.3067 47.5414C77.2337 47.5231 77.1578 47.5188 77.0832 47.5285C76.8201 47.5593 76.6256 47.7412 76.6483 47.9346Z" fill="#0C0C0C"/>
    <path opacity="0.5" d="M75.4859 48.5251H75.4897C75.5709 48.508 75.6511 48.4864 75.73 48.4605C75.8476 48.4217 76.0012 48.3565 75.9803 48.2501C75.9559 48.1287 75.3603 46.8868 75.2923 46.7455C75.2859 46.734 75.2753 46.7253 75.2628 46.7212C75.2502 46.7172 75.2365 46.7181 75.2246 46.7238C75.2127 46.7296 75.2034 46.7396 75.1987 46.752C75.194 46.7643 75.1942 46.778 75.1993 46.7902C75.4533 47.3198 75.8626 48.1887 75.879 48.2704C75.8661 48.3085 75.6709 48.3829 75.4693 48.4236C75.4565 48.4265 75.4453 48.4342 75.438 48.4451C75.4307 48.456 75.4278 48.4692 75.4299 48.4822C75.432 48.4951 75.439 48.5068 75.4494 48.5148C75.4597 48.5228 75.4728 48.5266 75.4859 48.5253V48.5251Z" fill="#0C0C0C"/>
    <path d="M68.8026 47.6485L70.5997 47.2974C71.9572 46.7291 72.3423 44.364 72.3423 44.364C72.3423 44.364 74.0176 45.9595 78.0215 44.9947C78.0215 44.9947 77.1517 39.4053 71.2397 41.1019C69.3333 41.6488 67.983 43.592 68.1838 46.1656C68.3245 47.9695 68.8026 47.6485 68.8026 47.6485Z" fill="#0A0A0A"/>
    <path d="M71.0451 49.5029C70.4359 49.6254 69.811 49.0732 69.6889 48.4639C69.5669 47.8547 69.9924 47.4194 70.6017 47.2969L70.9977 47.6419L71.5693 49.3975L71.0451 49.5029Z" fill="#E98862"/>
    <path d="M75.724 45.7594C75.8764 45.6514 76.0547 45.5859 76.2406 45.5695C76.334 45.5606 76.4282 45.5658 76.52 45.5849C76.6126 45.6037 76.7026 45.6341 76.7876 45.6753L76.7903 45.6764C76.7997 45.6802 76.8102 45.6803 76.8196 45.6766C76.829 45.6729 76.8366 45.6658 76.8409 45.6566C76.8452 45.6475 76.8459 45.637 76.8427 45.6274C76.8395 45.6178 76.8328 45.6098 76.8239 45.605C76.7338 45.5574 76.638 45.5214 76.5389 45.4978C76.4391 45.4735 76.3362 45.4644 76.2337 45.4707C76.0261 45.4822 75.8254 45.5491 75.6525 45.6644C75.6458 45.6687 75.64 45.6743 75.6355 45.6808C75.631 45.6873 75.6278 45.6947 75.6262 45.7025C75.6246 45.7103 75.6246 45.7183 75.6262 45.7261C75.6277 45.7339 75.6308 45.7413 75.6353 45.7479C75.6398 45.7544 75.6455 45.76 75.6522 45.7643C75.6589 45.7686 75.6664 45.7715 75.6742 45.7729C75.682 45.7742 75.6901 45.774 75.6978 45.7722C75.7055 45.7704 75.7128 45.767 75.7192 45.7623L75.7205 45.7614L75.724 45.7594Z" fill="#0C0C0C"/>
    <path d="M74.0832 45.9832C73.8791 45.9427 73.6679 45.9576 73.4716 46.0265C73.3746 46.06 73.2831 46.1079 73.2004 46.1686C73.1179 46.2284 73.0432 46.2984 72.9781 46.3768C72.9715 46.3846 72.9682 46.3947 72.9688 46.4049C72.9695 46.4151 72.9741 46.4246 72.9817 46.4315C72.9892 46.4384 72.9992 46.4421 73.0094 46.4418C73.0196 46.4416 73.0293 46.4373 73.0365 46.43L73.0386 46.4278C73.1013 46.3571 73.1726 46.2945 73.251 46.2417C73.3285 46.1888 73.4136 46.1479 73.5033 46.1204C73.6814 46.0646 73.8711 46.0569 74.0532 46.0981L74.0577 46.0991C74.0654 46.1011 74.0733 46.1016 74.0811 46.1005C74.089 46.0994 74.0965 46.0968 74.1033 46.0927C74.1101 46.0887 74.116 46.0834 74.1207 46.077C74.1253 46.0707 74.1287 46.0634 74.1306 46.0558C74.1324 46.0481 74.1327 46.0401 74.1315 46.0323C74.1302 46.0245 74.1274 46.0171 74.1232 46.0104C74.119 46.0037 74.1135 45.9979 74.1071 45.9933C74.1006 45.9888 74.0933 45.9856 74.0856 45.9839L74.0832 45.9832Z" fill="#0C0C0C"/>
    <path d="M70.6014 47.2652C71.8095 46.8156 72.2102 45.9814 72.3338 45.3605C72.4137 44.9465 72.4062 44.5203 72.3119 44.1094L72.2744 44.1197C72.3674 44.5253 72.3746 44.9459 72.2955 45.3545C72.1737 45.965 71.7788 46.7859 70.5879 47.2289L70.6014 47.2652Z" fill="#0C0C0C"/>
    <path d="M85.8761 52.9946L86.5994 50.5406C86.6153 50.4867 86.6422 50.4367 86.6785 50.3938C86.7148 50.3509 86.7596 50.316 86.8101 50.2913C86.8606 50.2666 86.9157 50.2527 86.9719 50.2505C87.028 50.2483 87.084 50.2578 87.1363 50.2784C87.2316 50.3195 87.3083 50.3945 87.3515 50.4889C87.3947 50.5833 87.4012 50.6904 87.37 50.7894L87.215 51.3156L88.4617 49.8848C88.5976 49.7232 88.8675 49.6119 89.0387 49.7763C89.1086 49.8352 89.1566 49.9161 89.1747 50.0058C89.1928 50.0955 89.1799 50.1886 89.1382 50.2701C89.1401 50.2709 89.1418 50.272 89.1434 50.2733C89.1445 50.2744 89.1454 50.2757 89.1462 50.277L89.3557 50.0279C89.3946 49.9818 89.4432 49.9449 89.4981 49.92C89.5529 49.8951 89.6127 49.8827 89.6729 49.8838C89.7332 49.8849 89.7925 49.8994 89.8464 49.9263C89.9003 49.9532 89.9476 49.9918 89.9847 50.0392C90.0417 50.1152 90.0709 50.2084 90.0674 50.3032C90.0639 50.3981 90.0279 50.4889 89.9655 50.5604L89.8764 50.6664C89.8783 50.6705 89.8795 50.6749 89.8797 50.6794C89.9566 50.6218 90.0514 50.5934 90.1473 50.5993C90.2431 50.6051 90.3337 50.6449 90.403 50.7115C90.4766 50.7866 90.5192 50.8866 90.5223 50.9917C90.5254 51.0968 90.4887 51.1991 90.4196 51.2784L90.1981 51.5416C90.2039 51.5401 90.2099 51.5399 90.2157 51.5412C90.2215 51.5424 90.227 51.5451 90.2316 51.5488C90.2368 51.5537 90.2405 51.5599 90.2423 51.5668C90.3251 51.5345 90.4161 51.5304 90.5015 51.555C90.5868 51.5797 90.6617 51.6317 90.7146 51.703C90.7687 51.779 90.7956 51.871 90.7909 51.9641C90.7862 52.0572 90.7502 52.1461 90.6888 52.2162L88.8206 54.4377C88.5593 54.7484 88.2111 54.9739 87.8207 55.0855C87.4303 55.197 87.0155 55.1894 86.6295 55.0636C86.2966 54.9552 86.0192 54.7212 85.8561 54.4115C85.693 54.1018 85.6571 53.7406 85.756 53.4048L85.8761 52.9946Z" fill="#E98862"/>
    <g opacity="0.2">
      <path d="M87.9104 51.6939C87.9179 51.7 87.9275 51.7029 87.9371 51.7021C87.9467 51.7013 87.9557 51.6969 87.9621 51.6897L89.1459 50.3275C89.1524 50.32 89.1557 50.3102 89.155 50.3003C89.1543 50.2905 89.1497 50.2813 89.1422 50.2748C89.1347 50.2683 89.1249 50.265 89.1151 50.2657C89.1052 50.2664 89.096 50.271 89.0895 50.2785L87.9056 51.6406C87.9024 51.6443 87.9 51.6486 87.8984 51.6533C87.8969 51.6579 87.8962 51.6628 87.8966 51.6677C87.8969 51.6726 87.8982 51.6774 87.9004 51.6818C87.9026 51.6862 87.9057 51.6901 87.9094 51.6933L87.9104 51.6939Z" fill="#0C0C0C"/>
    </g>
    <g opacity="0.2">
      <path d="M88.4974 52.2342C88.5049 52.2403 88.5145 52.2433 88.5241 52.2425C88.5337 52.2417 88.5427 52.2372 88.5491 52.2299L89.8702 50.7097C89.8734 50.706 89.8759 50.7017 89.8774 50.6971C89.879 50.6924 89.8796 50.6875 89.8793 50.6826C89.8789 50.6777 89.8776 50.6729 89.8754 50.6686C89.8732 50.6642 89.8702 50.6602 89.8665 50.657C89.8588 50.6509 89.8492 50.6478 89.8394 50.6485C89.8296 50.6492 89.8204 50.6536 89.8138 50.6608L88.4935 52.181C88.4903 52.1847 88.4879 52.189 88.4863 52.1936C88.4847 52.1983 88.4841 52.2032 88.4845 52.2081C88.4848 52.213 88.4861 52.2178 88.4883 52.2221C88.4905 52.2265 88.4936 52.2304 88.4973 52.2337L88.4974 52.2342Z" fill="#0C0C0C"/>
    </g>
    <g opacity="0.2">
      <path d="M89.1292 52.8163C89.1366 52.8224 89.1462 52.8254 89.1559 52.8246C89.1655 52.8238 89.1744 52.8193 89.1808 52.812L90.2347 51.5995C90.2406 51.5919 90.2434 51.5824 90.2424 51.5729C90.2415 51.5633 90.237 51.5545 90.2297 51.5483C90.2225 51.542 90.2132 51.5387 90.2036 51.5391C90.194 51.5395 90.185 51.5435 90.1783 51.5504L89.1244 52.7631C89.1212 52.7668 89.1187 52.7711 89.1172 52.7757C89.1156 52.7804 89.115 52.7853 89.1153 52.7902C89.1157 52.7951 89.117 52.7999 89.1192 52.8043C89.1214 52.8086 89.1244 52.8126 89.1281 52.8158L89.1292 52.8163Z" fill="#0C0C0C"/>
    </g>
    <path d="M90.278 54.0673L87.4817 66.7531C87.4753 66.7815 87.4688 66.8112 87.4611 66.8396C86.833 67.4967 86.1527 68.1018 85.4268 68.649C85.2809 68.7576 85.1349 68.8648 84.9851 68.9681C84.8925 68.9784 84.7993 68.9836 84.7061 68.9836C84.2078 68.9834 83.7182 68.8522 83.2866 68.6031C82.8549 68.3539 82.4964 67.9956 82.247 67.5642L76.918 58.3431L81.8389 55.5005L83.5063 58.3859L84.7281 52.8438L90.278 54.0673Z" fill="#0CBC8B"/>
    <path d="M81.6714 59.8477C81.6546 60.049 81.621 60.4082 81.5745 60.8809C81.342 63.2975 80.7983 68.6833 80.5464 71.1722C77.3647 72.1893 73.9503 72.224 70.7486 71.2716H70.7473C68.3828 70.5639 66.207 69.3352 64.3798 67.6759C64.3902 65.4505 64.3579 62.9475 64.2081 61.3382C63.7599 56.5295 64.1835 55.7767 64.8797 55.0805C64.9365 55.0237 64.9959 54.9681 65.0553 54.9139C65.7747 54.2604 66.6775 53.8341 67.9937 53.6558C68.8642 53.5384 70.1738 53.4531 70.1738 53.4531C70.1738 53.4531 70.2849 55.6977 72.9287 55.8217C76.5284 55.9911 76.2881 53.4531 76.3062 53.4531C77.2116 53.4531 79.2264 53.51 80.4973 54.157C80.4986 54.157 80.4986 54.157 80.4999 54.1583C80.7559 54.2829 80.9887 54.4502 81.1883 54.653C82.6439 56.1951 81.9258 56.8546 81.6714 59.8477Z" fill="#0CBC8B"/>
    <path d="M76.023 48.9497C75.5036 49.2138 74.911 49.2973 74.3388 49.1871C74.319 49.1833 74.2985 49.1853 74.2798 49.1928C74.2611 49.2002 74.2448 49.2128 74.233 49.2292C74.2212 49.2455 74.2143 49.2649 74.2131 49.285C74.2119 49.3051 74.2164 49.3252 74.2262 49.3428C74.3971 49.6434 74.8014 50.1573 75.4955 49.9479C75.9437 49.8127 76.1132 49.3516 76.1759 49.0663C76.1803 49.0466 76.1789 49.026 76.1719 49.007C76.165 48.9881 76.1528 48.9715 76.1367 48.9592C76.1206 48.947 76.1014 48.9396 76.0812 48.9379C76.0611 48.9362 76.0409 48.9403 76.023 48.9497Z" fill="white"/>
    <path d="M76.0556 46.6347C76.1942 46.6347 76.3066 46.5224 76.3066 46.3838C76.3066 46.2452 76.1942 46.1328 76.0556 46.1328C75.917 46.1328 75.8047 46.2452 75.8047 46.3838C75.8047 46.5224 75.917 46.6347 76.0556 46.6347Z" fill="#0C0C0C"/>
    <path d="M73.6435 47.0566C73.7821 47.0566 73.8945 46.9442 73.8945 46.8056C73.8945 46.667 73.7821 46.5547 73.6435 46.5547C73.5049 46.5547 73.3926 46.667 73.3926 46.8056C73.3926 46.9442 73.5049 47.0566 73.6435 47.0566Z" fill="#0C0C0C"/>
    <path d="M81.1165 65.266C81.1148 65.2661 81.1132 65.2661 81.1115 65.266C81.1014 65.2645 81.0922 65.2592 81.086 65.251C81.0798 65.2428 81.0771 65.2325 81.0785 65.2223L81.5221 60.7523C81.5227 60.7472 81.5244 60.7423 81.5269 60.7378C81.5295 60.7334 81.5329 60.7295 81.537 60.7264C81.5411 60.7233 81.5457 60.7211 81.5507 60.7199C81.5557 60.7186 81.5609 60.7184 81.5659 60.7192C81.5761 60.7206 81.5853 60.726 81.5915 60.7342C81.5977 60.7424 81.6004 60.7527 81.599 60.7629L81.1553 65.2329C81.154 65.2422 81.1493 65.2506 81.1421 65.2567C81.135 65.2628 81.1258 65.2661 81.1165 65.266Z" fill="#0C0C0C"/>
    <path d="M78.4322 65.0489L80.8571 63.9659C80.9103 63.9423 80.9679 63.9299 81.0262 63.9297C81.0845 63.9295 81.1422 63.9414 81.1956 63.9646C81.2491 63.9879 81.2971 64.022 81.3366 64.0648C81.3762 64.1076 81.4064 64.1582 81.4254 64.2133C81.4573 64.3162 81.4498 64.4272 81.4045 64.525C81.3592 64.6227 81.2791 64.7001 81.18 64.7422L80.66 64.9746L82.6304 64.9949C82.85 64.9934 83.1194 65.1316 83.1049 65.3775C83.1056 65.4725 83.074 65.5649 83.0153 65.6396C82.9567 65.7143 82.8745 65.767 82.7821 65.789C82.7826 65.791 82.7829 65.7931 82.783 65.7952C82.7827 65.7968 82.7824 65.7984 82.7821 65.8L83.1199 65.7976C83.1824 65.7972 83.2443 65.8108 83.3009 65.8372C83.3575 65.8637 83.4075 65.9025 83.4473 65.9508C83.487 65.999 83.5155 66.0555 83.5307 66.1162C83.5458 66.1768 83.5473 66.2401 83.5349 66.3014C83.5133 66.3975 83.4593 66.4833 83.382 66.5444C83.3047 66.6056 83.2088 66.6383 83.1102 66.6372L82.9665 66.6382C82.9646 66.6424 82.962 66.6462 82.9587 66.6494C83.056 66.6713 83.1424 66.727 83.2024 66.8067C83.2623 66.8864 83.292 66.9848 83.2861 67.0843C83.2764 67.193 83.2261 67.2941 83.1452 67.3673C83.0643 67.4406 82.9587 67.4806 82.8496 67.4795L82.4925 67.482C82.4976 67.4855 82.5017 67.4902 82.5046 67.4956C82.5075 67.5011 82.5091 67.5072 82.5091 67.5134C82.5088 67.5207 82.5065 67.5277 82.5023 67.5338C82.5837 67.5774 82.6484 67.6465 82.6866 67.7305C82.7248 67.8145 82.7344 67.9088 82.7137 67.9987C82.6903 68.0927 82.6358 68.176 82.5591 68.2351C82.4825 68.2942 82.3881 68.3258 82.2913 68.3246L79.2781 68.346C78.8566 68.349 78.4438 68.2261 78.0926 67.9929C77.7414 67.7598 77.4678 67.4271 77.3069 67.0374C77.1682 66.7014 77.1659 66.3246 77.3005 65.9869C77.4352 65.6493 77.6963 65.3775 78.0282 65.2292L78.4322 65.0489Z" fill="#E98862"/>
    <g opacity="0.2">
      <path d="M80.832 65.7809C80.832 65.7912 80.8361 65.8011 80.8434 65.8083C80.8506 65.8156 80.8605 65.8197 80.8708 65.8197L82.7446 65.8366C82.7549 65.8367 82.7648 65.8327 82.7721 65.8255C82.7794 65.8183 82.7836 65.8085 82.7837 65.7982C82.7837 65.7879 82.7797 65.778 82.7725 65.7707C82.7653 65.7634 82.7555 65.7592 82.7452 65.7591L80.8712 65.7422C80.8609 65.7422 80.851 65.7463 80.8438 65.7535C80.8365 65.7608 80.8324 65.7707 80.8324 65.7809H80.832Z" fill="#0C0C0C"/>
    </g>
    <g opacity="0.2">
      <path d="M80.8009 66.6012C80.8009 66.6115 80.805 66.6214 80.8123 66.6286C80.8195 66.6359 80.8294 66.64 80.8397 66.64L82.9307 66.6588C82.941 66.6588 82.9508 66.6548 82.9581 66.6475C82.9654 66.6402 82.9695 66.6304 82.9695 66.6201C82.9692 66.6099 82.965 66.6002 82.9578 66.593C82.9506 66.5858 82.9409 66.5816 82.9307 66.5814L80.8395 66.5625C80.8293 66.5625 80.8194 66.5666 80.8121 66.5738C80.8049 66.5811 80.8009 66.591 80.8009 66.6012Z" fill="#0C0C0C"/>
    </g>
    <g opacity="0.2">
      <path d="M80.7637 67.4996C80.7637 67.5098 80.7678 67.5197 80.775 67.527C80.7823 67.5342 80.7921 67.5383 80.8024 67.5383L82.4705 67.5534C82.4808 67.5534 82.4906 67.5493 82.4979 67.5421C82.5051 67.5348 82.5092 67.5249 82.5092 67.5147C82.5092 67.5044 82.5051 67.4945 82.4979 67.4873C82.4906 67.48 82.4808 67.4759 82.4705 67.4759L80.8024 67.4609C80.7921 67.4609 80.7823 67.465 80.775 67.4723C80.7678 67.4796 80.7637 67.4894 80.7637 67.4997V67.4996Z" fill="#0C0C0C"/>
    </g>
    <path d="M79.1261 69.3675L70.749 71.2712H70.7477C68.3832 70.5635 66.2074 69.3348 64.3802 67.6755C64.1839 67.4973 63.9919 67.3147 63.8042 67.1277C63.477 66.8012 63.164 66.4615 62.8652 66.1088L64.038 56.6752C64.1659 55.9147 64.5907 55.2363 65.2189 54.789C65.8471 54.3418 66.6272 54.1624 67.3877 54.2903C68.1481 54.4183 68.8266 54.843 69.2739 55.4712C69.7211 56.0994 69.9005 56.8795 69.7726 57.64L69.0312 66.4976L78.3718 64.3832L79.1261 69.3675Z" fill="#0CBC8B"/>
    <path d="M67.1414 66.8455C67.1363 66.8459 67.1312 66.8453 67.1263 66.8437C67.1215 66.8421 67.117 66.8395 67.1131 66.8362C67.1093 66.8329 67.1061 66.8288 67.1038 66.8243C67.1015 66.8197 67.1001 66.8148 67.0997 66.8097C67.0993 66.8046 67.1 66.7995 67.1016 66.7946C67.1031 66.7898 67.1057 66.7853 67.109 66.7814C67.1123 66.7776 67.1164 66.7744 67.121 66.7721C67.1255 66.7698 67.1305 66.7684 67.1356 66.768L69.0083 66.3676C69.0134 66.3669 69.0185 66.3671 69.0235 66.3683C69.0284 66.3695 69.0331 66.3717 69.0372 66.3747C69.0413 66.3778 69.0447 66.3816 69.0474 66.3859C69.05 66.3903 69.0517 66.3951 69.0525 66.4002C69.0533 66.4052 69.053 66.4104 69.0518 66.4153C69.0505 66.4202 69.0483 66.4249 69.0453 66.429C69.0423 66.4331 69.0385 66.4365 69.0341 66.4391C69.0297 66.4418 69.0249 66.4435 69.0198 66.4442L67.1464 66.8446C67.1448 66.8451 67.1431 66.8454 67.1414 66.8455Z" fill="#0C0C0C"/>
    <path d="M79.1266 69.3727C79.1287 69.3826 79.1269 69.3929 79.1216 69.4016C79.1164 69.4102 79.108 69.4165 79.0982 69.4192L70.96 71.3372C70.9083 71.3228 70.858 71.3087 70.8076 71.2931L79.0414 69.3546L78.3077 64.4466L69.0226 66.4497C69.0166 66.4507 69.0105 66.4503 69.0047 66.4485C68.9988 66.4468 68.9935 66.4437 68.9891 66.4395C68.9852 66.4349 68.9823 66.4295 68.9805 66.4238C68.9788 66.418 68.9781 66.4119 68.9787 66.4059L69.4992 61.3443C69.5001 61.3393 69.502 61.3345 69.5048 61.3302C69.5076 61.3259 69.5112 61.3222 69.5154 61.3193C69.5196 61.3164 69.5243 61.3144 69.5293 61.3133C69.5343 61.3123 69.5394 61.3122 69.5444 61.3132C69.5545 61.3147 69.5636 61.3203 69.5697 61.3285C69.5757 61.3368 69.5782 61.3471 69.5767 61.3572L69.064 66.3672L78.3245 64.3601C78.3296 64.3587 78.3348 64.3584 78.34 64.3593C78.3451 64.3602 78.35 64.3622 78.3542 64.3653C78.3587 64.3677 78.3626 64.3709 78.3657 64.3749C78.3688 64.3789 78.3711 64.3835 78.3723 64.3884L79.1266 69.3727Z" fill="#0C0C0C"/>
    <path d="M16.1472 91.0249C24.5268 91.0249 31.3198 84.2319 31.3198 75.8523C31.3198 67.4727 24.5268 60.6797 16.1472 60.6797C7.76761 60.6797 0.974609 67.4727 0.974609 75.8523C0.974609 84.2319 7.76761 91.0249 16.1472 91.0249Z" fill="white"/>
    <path opacity="0.09" d="M16.1472 91.0249C24.5268 91.0249 31.3198 84.2319 31.3198 75.8523C31.3198 67.4727 24.5268 60.6797 16.1472 60.6797C7.76761 60.6797 0.974609 67.4727 0.974609 75.8523C0.974609 84.2319 7.76761 91.0249 16.1472 91.0249Z" fill="#367CFF"/>
    <path d="M11.9688 67.2462C11.9688 67.2462 12.1332 71.8159 15.1832 72.026L15.6998 66L11.9688 67.2462Z" fill="#0A0A0A"/>
    <path d="M12.5569 72.9576C13.5548 72.9576 14.3638 72.1486 14.3638 71.1507C14.3638 70.1527 13.5548 69.3438 12.5569 69.3438C11.559 69.3438 10.75 70.1527 10.75 71.1507C10.75 72.1486 11.559 72.9576 12.5569 72.9576Z" fill="#0A0A0A"/>
    <path d="M19.6272 74.1451C19.6111 74.1429 19.4326 77.106 15.9903 76.8477C13.6072 76.6696 12.7576 74.1412 12.7031 74.1412C12.9754 74.096 13.2441 74.0308 13.5069 73.9463C13.8821 73.7447 14.3464 73.5349 14.4673 72.8062C14.537 72.3862 14.4188 70.2374 14.4551 69.8125L18.1131 70.629C18.0615 71.5264 17.7042 73.607 18.9581 73.9754C19.1665 74.0362 19.3913 74.0922 19.6272 74.1451Z" fill="#E98862"/>
    <path opacity="0.5" d="M18.1631 73.126C18.1057 72.9411 18.0688 72.7506 18.053 72.5577C18.0128 72.118 18.0209 71.6753 18.0769 71.2373C17.3334 71.1369 16.633 70.8301 16.0552 70.3516C15.9873 70.6024 15.6138 71.6985 15.7172 71.9368C15.9128 72.3884 16.8314 73.126 18.1631 73.126Z" fill="#0C0C0C"/>
    <path d="M17.5917 72.3283C16.1429 72.3468 14.3318 71.6157 14.1073 69.6696L13.9048 67.913C13.6802 65.9669 14.5203 64.2708 16.3528 64.0599C18.1852 63.8486 19.7367 65.2682 19.9613 67.2144L20.051 67.9918C20.1371 68.739 20.1766 72.2955 17.5917 72.3283Z" fill="#E98862"/>
    <path d="M19.5241 67.9388C19.6495 67.9388 19.7513 67.837 19.7513 67.7116C19.7513 67.5861 19.6495 67.4844 19.5241 67.4844C19.3986 67.4844 19.2969 67.5861 19.2969 67.7116C19.2969 67.837 19.3986 67.9388 19.5241 67.9388Z" fill="#0C0C0C"/>
    <path d="M17.2037 68.2044C17.3292 68.2044 17.4309 68.1027 17.4309 67.9772C17.4309 67.8517 17.3292 67.75 17.2037 67.75C17.0783 67.75 16.9766 67.8517 16.9766 67.9772C16.9766 68.1027 17.0783 68.2044 17.2037 68.2044Z" fill="#0C0C0C"/>
    <path opacity="0.5" d="M18.3542 69.7066H18.3579C18.4321 69.6975 18.5058 69.6843 18.5786 69.6671C18.6873 69.6406 18.8307 69.5941 18.8195 69.4967C18.8066 69.3859 18.365 68.2244 18.3146 68.0924C18.3124 68.0867 18.3091 68.0815 18.3049 68.0771C18.3007 68.0726 18.2957 68.069 18.2901 68.0666C18.2846 68.0641 18.2785 68.0627 18.2724 68.0625C18.2663 68.0623 18.2602 68.0634 18.2545 68.0656C18.2488 68.0677 18.2436 68.071 18.2392 68.0752C18.2347 68.0794 18.2312 68.0844 18.2287 68.09C18.2262 68.0956 18.2248 68.1016 18.2246 68.1077C18.2245 68.1138 18.2255 68.1199 18.2277 68.1256C18.4161 68.6202 18.7185 69.4328 18.727 69.5076C18.6107 69.573 18.4805 69.6096 18.3471 69.6143C18.3348 69.6152 18.3234 69.621 18.3154 69.6304C18.3074 69.6397 18.3034 69.6519 18.3043 69.6642C18.3053 69.6765 18.3111 69.6879 18.3204 69.6959C18.3298 69.704 18.3419 69.708 18.3542 69.707V69.7066Z" fill="#0C0C0C"/>
    <path opacity="0.5" d="M18.0279 70.5111C18.3255 70.4941 18.6149 70.4075 18.8729 70.2581C18.8831 70.2518 18.8904 70.2418 18.8935 70.2303C18.8965 70.2187 18.8949 70.2064 18.8891 70.1959C18.8834 70.1855 18.8738 70.1776 18.8624 70.174C18.8509 70.1704 18.8386 70.1714 18.8279 70.1766C18.2707 70.4849 17.7378 70.5027 17.287 70.2283C17.2779 70.2225 17.2685 70.2171 17.2589 70.2123C17.2477 70.2079 17.2353 70.208 17.2242 70.2126C17.2131 70.2172 17.2042 70.2258 17.1993 70.2368C17.1945 70.2477 17.194 70.2601 17.198 70.2714C17.2021 70.2827 17.2103 70.292 17.221 70.2974C17.2245 70.2992 17.2304 70.3028 17.2386 70.3078C17.4756 70.4527 17.7504 70.5235 18.0279 70.5111Z" fill="#0C0C0C"/>
    <path d="M12.4133 68.4085L14.0553 68.2286C15.3183 67.8208 15.8431 65.723 15.8431 65.723C15.8431 65.723 16.9749 67.01 20.3288 66.4224C20.3288 66.4224 20.1989 62.0984 15.098 62.7072C13.3219 62.9194 11.9827 64.7004 11.9689 67.0293C11.9593 68.6612 12.4133 68.4085 12.4133 68.4085Z" fill="#0A0A0A"/>
    <path d="M14.2884 70.2431C13.7315 70.3077 13.2114 69.7637 13.1472 69.2067C13.083 68.6498 13.4989 68.2908 14.0558 68.2266L14.3858 68.5665L14.7672 70.1878L14.2884 70.2431Z" fill="#E98862"/>
    <path d="M18.7221 67.1389C18.8863 67.0481 19.072 67.0029 19.2596 67.0082C19.3523 67.0103 19.4441 67.0263 19.532 67.0556C19.6194 67.0844 19.7027 67.124 19.7801 67.1736C19.7879 67.1785 19.7934 67.1862 19.7956 67.1951C19.7978 67.204 19.7965 67.2135 19.7919 67.2214C19.7873 67.2294 19.7799 67.2353 19.771 67.2378C19.7622 67.2404 19.7528 67.2395 19.7446 67.2353L19.7423 67.234C19.6689 67.1904 19.5904 67.1563 19.5085 67.1324C19.4274 67.1081 19.3431 67.0963 19.2585 67.0974C19.0901 67.0982 18.9249 67.1436 18.7797 67.229L18.7762 67.2312C18.7702 67.2351 18.7635 67.2378 18.7564 67.2391C18.7493 67.2404 18.7421 67.2402 18.7351 67.2386C18.7281 67.2371 18.7215 67.2341 18.7156 67.2299C18.7098 67.2257 18.7049 67.2204 18.7011 67.2143C18.6974 67.2081 18.695 67.2013 18.6939 67.1942C18.6929 67.1871 18.6933 67.1799 18.6951 67.1729C18.6969 67.166 18.7001 67.1595 18.7045 67.1538C18.7089 67.1481 18.7144 67.1434 18.7207 67.1398L18.7221 67.1389Z" fill="#0C0C0C"/>
    <path d="M17.2499 67.4139C17.0893 67.363 16.9181 67.3556 16.7538 67.3926C16.671 67.4107 16.5914 67.4411 16.5178 67.483C16.4434 67.5246 16.3745 67.5754 16.3127 67.6342L16.3108 67.6361C16.3037 67.6413 16.295 67.6437 16.2863 67.6429C16.2776 67.6421 16.2695 67.6382 16.2635 67.6318C16.2576 67.6254 16.2541 67.6171 16.2539 67.6083C16.2537 67.5996 16.2567 67.5911 16.2623 67.5844C16.3267 67.5188 16.3991 67.4616 16.4778 67.414C16.5569 67.3658 16.6429 67.3297 16.7327 67.307C16.9144 67.2599 17.1055 67.2624 17.2859 67.3143C17.2929 67.3161 17.2994 67.3193 17.3051 67.3236C17.3108 67.328 17.3156 67.3335 17.3192 67.3398C17.3227 67.346 17.325 67.3529 17.3258 67.3601C17.3266 67.3672 17.326 67.3745 17.3239 67.3814C17.3218 67.3883 17.3184 67.3947 17.3138 67.4002C17.3092 67.4058 17.3036 67.4103 17.2972 67.4136C17.2908 67.4169 17.2838 67.4189 17.2766 67.4195C17.2694 67.42 17.2622 67.4191 17.2554 67.4167H17.254L17.2499 67.4139Z" fill="#0C0C0C"/>
    <path opacity="0.52" d="M18.0583 70.9575C18.1121 70.9552 18.1657 70.9484 18.2184 70.9372C18.2302 70.9343 18.2403 70.9269 18.2467 70.9167C18.2531 70.9064 18.2553 70.8941 18.2528 70.8823C18.2503 70.8705 18.2433 70.8601 18.2333 70.8533C18.2233 70.8465 18.2111 70.8439 18.1992 70.846C18.1169 70.8701 18.0304 70.8763 17.9455 70.8642C17.8606 70.8522 17.7792 70.8221 17.7068 70.7761C17.6973 70.7683 17.685 70.7646 17.6727 70.7659C17.6605 70.7671 17.6492 70.7732 17.6414 70.7827C17.6336 70.7923 17.6299 70.8045 17.6311 70.8168C17.6323 70.8291 17.6384 70.8404 17.6479 70.8482C17.768 70.931 17.913 70.9696 18.0583 70.9575Z" fill="#0C0C0C"/>
    <path opacity="0.1" d="M16.8883 69.7366C17.1272 69.7282 17.3159 69.5794 17.3098 69.4042C17.3036 69.229 17.105 69.0937 16.8661 69.102C16.6272 69.1104 16.4386 69.2592 16.4447 69.4345C16.4508 69.6097 16.6495 69.7449 16.8883 69.7366Z" fill="#0C0C0C"/>
    <path opacity="0.1" d="M19.4454 69.2548C19.4521 69.4299 19.6507 69.5648 19.8896 69.5569C19.9309 69.5555 19.9719 69.5497 20.012 69.5398C20.0403 69.3342 20.0576 69.1355 20.0671 68.9511C20.0027 68.9291 19.9349 68.9194 19.867 68.9224C19.6286 68.9304 19.44 69.0788 19.4454 69.2548Z" fill="#0C0C0C"/>
    <path d="M24.7677 77.2679C24.7573 78.3025 24.4022 79.5359 24.2756 81.0264C24.242 81.4242 23.3881 82.575 23.2642 83.8549C23.1079 85.4849 23.4554 88.0267 23.5019 89.1258C21.1019 90.4538 18.3871 91.1071 15.6457 91.0161C12.9043 90.9251 10.2387 90.0934 7.93205 88.6092C7.87005 85.7858 7.79643 82.2999 7.70215 81.4642C7.39605 78.7055 7.47871 76.9605 7.92042 76.1443C8.64241 74.8114 9.92753 74.4045 11.2721 74.2211C12.0935 74.11 13.3269 74.0312 13.3269 74.0312C13.3269 74.0312 13.4316 76.1456 15.9243 76.2631C19.3172 76.4232 19.0912 74.0312 19.108 74.0312C20.3389 74.0312 22.6715 74.3257 23.5652 74.9353C24.5132 75.5798 24.7793 76.3445 24.7677 77.2679Z" fill="#FFC239"/>
    <path d="M13.0455 78.8753L8.44237 88.9207C6.67498 87.8773 5.13723 86.4867 3.92188 84.8328L7.76171 76.4531L13.0455 78.8753Z" fill="#FFC239"/>
    <path d="M28.4849 84.6823C27.5831 85.9404 26.4947 87.0537 25.2572 87.9836C24.8499 88.2911 24.427 88.5773 23.9902 88.8412L19.2656 78.4544L24.5559 76.0469L28.4849 84.6823Z" fill="#FFC239"/>
    <path d="M47.7229 31.5941C56.4473 31.5941 63.5199 24.5216 63.5199 15.7971C63.5199 7.07259 56.4473 0 47.7229 0C38.9984 0 31.9258 7.07259 31.9258 15.7971C31.9258 24.5216 38.9984 31.5941 47.7229 31.5941Z" fill="white"/>
    <path opacity="0.09" d="M47.7229 31.5941C56.4473 31.5941 63.5199 24.5216 63.5199 15.7971C63.5199 7.07259 56.4473 0 47.7229 0C38.9984 0 31.9258 7.07259 31.9258 15.7971C31.9258 24.5216 38.9984 31.5941 47.7229 31.5941Z" fill="#367CFF"/>
    <path d="M50.7779 6.34476C50.7779 6.34476 51.7782 5.26062 51.7008 3.19566C51.641 1.59682 50.3861 2.86682 50.3861 2.86682C50.3861 2.86682 50.3318 1.71603 49.5337 1.97564C48.7356 2.23524 48.4902 3.49892 48.4902 3.49892" fill="#0C0C0C"/>
    <path d="M45.3256 2.86719C45.3256 2.86719 41.3417 4.038 43.8068 9.27738L44.1707 9.23631L44.9092 9.15313" fill="#0C0C0C"/>
    <path d="M50.9707 14.7161C50.9526 14.7137 50.7511 18.0561 46.8683 17.7642C44.1802 17.5628 43.2218 14.7109 43.1602 14.7109C43.45 14.6493 43.8081 14.5559 43.9505 14.5238C44.2607 14.4518 44.5417 14.287 44.756 14.0514C44.9703 13.8158 45.1078 13.5206 45.1502 13.2049C45.2289 12.7312 45.0954 10.3074 45.1365 9.82812L49.2626 10.749C49.205 11.7615 48.8015 14.1084 50.2157 14.5238C50.4512 14.5926 50.7047 14.6559 50.9707 14.7161Z" fill="#E98862"/>
    <path opacity="0.52" d="M49.3222 13.5665C49.2576 13.3582 49.216 13.1434 49.198 12.9261C49.1527 12.4301 49.1618 11.9307 49.225 11.4367C48.3864 11.3235 47.5964 10.9773 46.9446 10.4375C46.8679 10.7205 46.4466 11.9569 46.5632 12.2258C46.7838 12.7342 47.8201 13.5665 49.3222 13.5665Z" fill="#0C0C0C"/>
    <path d="M48.6482 12.4982C47.0208 12.6446 44.9201 11.9795 44.4989 9.8102L44.1188 7.85282C43.6976 5.68298 44.4955 3.70365 46.538 3.30714C48.5805 2.9105 50.4486 4.37268 50.8699 6.54201L51.0378 7.40852C51.0905 7.70704 51.1227 8.00881 51.1342 8.31172C51.1706 9.11249 51.2229 10.3295 50.838 11.2292C50.4748 12.0788 49.6881 12.4048 48.6482 12.4982Z" fill="#E98862"/>
    <path opacity="0.5" d="M48.8944 10.356C49.1925 10.3504 49.485 10.2748 49.7485 10.1354C49.7542 10.1328 49.7594 10.1291 49.7636 10.1245C49.7679 10.1198 49.7712 10.1144 49.7732 10.1084C49.7753 10.1025 49.7762 10.0962 49.7758 10.09C49.7754 10.0837 49.7737 10.0775 49.7709 10.0719C49.7681 10.0663 49.7641 10.0613 49.7593 10.0573C49.7545 10.0532 49.7489 10.0502 49.7429 10.0484C49.7369 10.0465 49.7306 10.0459 49.7243 10.0466C49.7181 10.0472 49.712 10.0492 49.7065 10.0522C49.1382 10.3391 48.605 10.3364 48.1649 10.0453C48.156 10.0391 48.1469 10.0334 48.1374 10.0282C48.1319 10.0255 48.126 10.0239 48.1199 10.0235C48.1137 10.0231 48.1076 10.024 48.1018 10.0259C48.0961 10.0279 48.0907 10.031 48.0861 10.035C48.0815 10.0391 48.0778 10.044 48.0751 10.0495C48.0724 10.0549 48.0708 10.0609 48.0704 10.067C48.07 10.0731 48.0708 10.0792 48.0728 10.085C48.0748 10.0908 48.0779 10.0961 48.0819 10.1007C48.0859 10.1053 48.0908 10.1091 48.0963 10.1118C48.0998 10.1137 48.1055 10.1176 48.1135 10.1229C48.3448 10.2766 48.6167 10.3578 48.8944 10.356Z" fill="#0C0C0C"/>
    <path opacity="0.52" d="M48.907 10.7992C48.961 10.7991 49.0147 10.7943 49.0678 10.785C49.0739 10.784 49.0796 10.7818 49.0848 10.7786C49.09 10.7753 49.0944 10.7711 49.098 10.7661C49.1015 10.7611 49.104 10.7555 49.1054 10.7495C49.1067 10.7436 49.1069 10.7374 49.1059 10.7314C49.1049 10.7254 49.1027 10.7196 49.0994 10.7144C49.0961 10.7093 49.0919 10.7048 49.0869 10.7012C49.0819 10.6977 49.0763 10.6952 49.0704 10.6938C49.0644 10.6925 49.0582 10.6923 49.0522 10.6933C48.969 10.7142 48.8824 10.717 48.798 10.7018C48.7136 10.6865 48.6334 10.6534 48.5628 10.6047C48.5535 10.5969 48.5415 10.593 48.5294 10.5939C48.5173 10.5948 48.506 10.6004 48.4979 10.6095C48.4899 10.6186 48.4858 10.6305 48.4864 10.6427C48.487 10.6548 48.4924 10.6662 48.5014 10.6745C48.6181 10.7617 48.7615 10.8058 48.907 10.7992Z" fill="#0C0C0C"/>
    <path d="M50.3812 7.95781C50.5228 7.95781 50.6375 7.84308 50.6375 7.70156C50.6375 7.56004 50.5228 7.44531 50.3812 7.44531C50.2397 7.44531 50.125 7.56004 50.125 7.70156C50.125 7.84308 50.2397 7.95781 50.3812 7.95781Z" fill="#0C0C0C"/>
    <path d="M47.8891 8.24687C48.0306 8.24687 48.1453 8.13214 48.1453 7.99062C48.1453 7.8491 48.0306 7.73438 47.8891 7.73438C47.7475 7.73438 47.6328 7.8491 47.6328 7.99062C47.6328 8.13214 47.7475 8.24687 47.8891 8.24687Z" fill="#0C0C0C"/>
    <path d="M44.7529 10.4508C44.1322 10.5713 43.5001 10.005 43.3795 9.38427C43.2588 8.76354 43.6958 8.32363 44.3164 8.20312L44.7167 8.55689L45.2863 10.3473L44.7529 10.4508Z" fill="#E98862"/>
    <path d="M45.1918 9.33236C45.1918 9.33236 44.845 6.21774 45.7435 5.85894C46.3419 5.61987 48.0082 6.22846 49.3557 5.70976C49.9451 5.4827 50.5522 5.52894 50.6632 5.80676C50.7073 5.91667 50.7907 4.20676 49.6091 3.13437C48.6683 2.28064 46.1265 2.45152 45.0519 2.98184C42.0765 4.45022 44.2135 8.35477 44.2135 8.35477L44.5455 9.39009L45.1918 9.33236Z" fill="#0C0C0C"/>
    <g opacity="0.52">
      <path d="M49.2768 9.58171H49.2808C49.481 9.54296 49.8124 9.45681 49.7845 9.30712C49.7606 9.183 49.1645 7.909 49.0969 7.76421C49.094 7.75804 49.0899 7.75251 49.0849 7.74792C49.0798 7.74333 49.0739 7.73978 49.0675 7.73746C49.0611 7.73515 49.0543 7.73412 49.0475 7.73443C49.0407 7.73474 49.034 7.73639 49.0279 7.73928C49.0217 7.74217 49.0162 7.74625 49.0116 7.75128C49.007 7.75631 49.0034 7.7622 49.0011 7.7686C48.9988 7.77501 48.9978 7.78181 48.9981 7.78861C48.9984 7.79541 49.0001 7.80209 49.003 7.80825C49.2672 8.37241 49.6663 9.2419 49.6826 9.32649C49.6697 9.36524 49.4692 9.44002 49.262 9.47967C49.2483 9.48171 49.236 9.48911 49.2278 9.50024C49.2195 9.51137 49.216 9.52532 49.2181 9.53902C49.2201 9.55272 49.2275 9.56505 49.2386 9.5733C49.2498 9.58155 49.2637 9.58504 49.2774 9.583L49.2768 9.58171Z" fill="#0C0C0C"/>
    </g>
    <path d="M49.4177 6.45716C49.618 6.36114 49.8405 6.32098 50.0617 6.34092C50.1702 6.35005 50.2768 6.37539 50.3778 6.41609C50.4775 6.45574 50.5718 6.50782 50.6585 6.57108C50.6746 6.58221 50.6858 6.59915 50.6896 6.61833C50.6935 6.63752 50.6898 6.65745 50.6792 6.67393C50.6687 6.69042 50.6522 6.70217 50.6331 6.70671C50.6141 6.71126 50.594 6.70824 50.5772 6.6983L50.5714 6.69623C50.4927 6.64603 50.4081 6.60589 50.3195 6.57676C50.2324 6.54767 50.1413 6.53195 50.0494 6.53013C49.8684 6.52509 49.6891 6.568 49.53 6.65451L49.5234 6.65826C49.5104 6.66565 49.4962 6.67043 49.4814 6.6723C49.4666 6.67418 49.4515 6.67312 49.4372 6.66919C49.4228 6.66527 49.4093 6.65854 49.3975 6.64941C49.3857 6.64028 49.3759 6.62891 49.3685 6.61596C49.3611 6.60301 49.3563 6.58873 49.3544 6.57394C49.3525 6.55914 49.3536 6.54412 49.3575 6.52974C49.3615 6.51535 49.3682 6.50188 49.3773 6.49009C49.3864 6.4783 49.3978 6.46843 49.4108 6.46103L49.4177 6.45716Z" fill="#0C0C0C"/>
    <path d="M47.9493 6.85708C47.7749 6.80827 47.5907 6.80635 47.4153 6.85152C47.3261 6.8737 47.2408 6.90928 47.1624 6.95705C47.0823 7.00513 47.0085 7.06306 46.9428 7.12947L46.9387 7.1336C46.9245 7.14731 46.9056 7.15494 46.8859 7.15488C46.8662 7.15481 46.8473 7.14706 46.8332 7.13326C46.8191 7.11947 46.811 7.10072 46.8106 7.08103C46.8101 7.06133 46.8174 7.04224 46.8308 7.02782C46.9012 6.94668 46.9815 6.87477 47.0699 6.81381C47.1593 6.75163 47.2576 6.70318 47.3614 6.67006C47.4651 6.63586 47.5731 6.61604 47.6822 6.61116C47.794 6.60501 47.906 6.61475 48.0151 6.64009C48.0444 6.64694 48.0698 6.66516 48.0857 6.69074C48.1016 6.71632 48.1066 6.74716 48.0998 6.77648C48.0929 6.80581 48.0747 6.83121 48.0491 6.84709C48.0236 6.86298 47.9927 6.86806 47.9634 6.86121L47.9567 6.8594L47.9493 6.85708Z" fill="#0C0C0C"/>
    <path d="M48.734 4.39595C49.177 4.2164 49.3219 3.54215 49.0576 2.88999C48.7933 2.23782 48.2199 1.8547 47.7768 2.03426C47.3338 2.21382 47.1889 2.88806 47.4532 3.54022C47.7175 4.19239 48.2909 4.57551 48.734 4.39595Z" fill="#0C0C0C"/>
    <path d="M56.3374 18.1695C56.3529 19.2403 55.9345 20.444 55.795 22.074C55.7666 22.4046 55.6994 23.133 55.6103 24.0824C55.4643 25.6542 55.2577 27.8279 55.0769 29.7872C52.491 31.1445 49.5799 31.7594 46.666 31.5638C43.7521 31.3682 40.9493 30.3697 38.568 28.6791C38.5112 28.6364 38.4543 28.5951 38.3975 28.5551C38.2464 26.34 38.0682 24.0152 37.9054 22.5467C37.5993 19.8047 37.1822 18.4395 37.4159 17.5173C37.4346 17.4388 37.4597 17.3619 37.4908 17.2874C38.1637 15.6549 40.3065 14.9264 41.7582 14.7301C42.6442 14.61 43.9771 14.5234 43.9771 14.5234C43.9771 14.5234 44.0895 16.8069 46.7798 16.9335C50.4427 17.1066 50.1986 14.5234 50.2167 14.5234C50.8095 14.5234 54.0397 14.9548 54.847 15.4818C54.9823 15.5696 55.1117 15.6663 55.2344 15.7711C55.5852 16.0636 55.8662 16.4307 56.057 16.8457C56.2478 17.2606 56.3436 17.7129 56.3374 18.1695Z" fill="#383838"/>
    <path d="M42.8512 19.8255L38.5684 28.6792C38.5116 28.6366 38.4547 28.5952 38.3979 28.5552C36.7376 27.3378 35.3296 25.8096 34.252 24.0554L37.4163 17.5174L37.5416 17.2578L42.8512 19.8255Z" fill="#383838"/>
    <path d="M42.4384 20.8466L38.543 28.6619C38.5172 28.6426 38.4926 28.6245 38.4668 28.6077L42.357 20.8066C42.3626 20.7958 42.3722 20.7875 42.3838 20.7836C42.3954 20.7798 42.408 20.7806 42.419 20.7859C42.4296 20.7914 42.4376 20.8009 42.4413 20.8123C42.4449 20.8237 42.4439 20.836 42.4384 20.8466Z" fill="white"/>
    <path d="M62.1884 22.1627C61.412 23.9223 60.3218 25.5259 58.9711 26.895L55.6104 24.0833L51.3418 20.5108L55.2346 15.772L55.2462 15.7578L62.1884 22.1627Z" fill="#383838"/>
    <path d="M55.6628 24.1126C55.6738 24.112 55.6842 24.1075 55.6921 24.0999C55.7 24.0923 55.7049 24.0821 55.7058 24.0711L55.9276 21.4712C55.9286 21.4592 55.9248 21.4473 55.9171 21.438C55.9093 21.4288 55.8982 21.423 55.8862 21.422C55.8743 21.4211 55.8625 21.425 55.8533 21.4327C55.8441 21.4404 55.8383 21.4514 55.8372 21.4633L55.6154 24.0634C55.6144 24.0754 55.6182 24.0873 55.6259 24.0965C55.6337 24.1057 55.6447 24.1114 55.6567 24.1125L55.6628 24.1126Z" fill="white"/>
    <path d="M122.108 100.001C130.429 100.001 137.175 93.2556 137.175 84.9343C137.175 76.613 130.429 69.8672 122.108 69.8672C113.787 69.8672 107.041 76.613 107.041 84.9343C107.041 93.2556 113.787 100.001 122.108 100.001Z" fill="white"/>
    <path opacity="0.09" d="M107.041 84.934C107.041 87.9139 107.925 90.827 109.58 93.3047C111.236 95.7824 113.589 97.7136 116.342 98.854C119.095 99.9944 122.125 100.293 125.047 99.7114C127.97 99.1301 130.655 97.6951 132.762 95.588C134.869 93.4809 136.304 90.7962 136.885 87.8735C137.467 84.9509 137.168 81.9214 136.028 79.1683C134.888 76.4152 132.956 74.0621 130.479 72.4065C128.001 70.751 125.088 69.8673 122.108 69.8673C120.127 69.86 118.165 70.2447 116.334 70.9993C114.502 71.7539 112.838 72.8634 111.438 74.264C110.037 75.6645 108.928 77.3283 108.173 79.1596C107.419 80.9908 107.034 82.9534 107.041 84.934Z" fill="#367CFF"/>
    <path d="M128.946 76.6207C128.705 79.4105 128.928 80.3565 130.087 81.9549C131.064 83.3025 125.505 82.157 123.045 81.7189L125.215 75.375C125.215 75.375 129.03 75.6411 128.946 76.6207Z" fill="#0A0A0A"/>
    <path d="M120.459 75.4596C119.733 78.1641 119.815 79.0007 118.395 80.4209C117.218 81.5981 121.805 81.8374 124.267 82.265L124.391 75.5618C124.391 75.5618 120.714 74.5099 120.459 75.4596Z" fill="#0A0A0A"/>
    <path d="M120.703 83.3193C120.719 83.3171 120.9 86.308 124.374 86.0473C126.779 85.8671 127.637 83.3151 127.692 83.3151C127.417 83.2694 127.146 83.2037 126.881 83.1184C126.502 82.9148 126.033 82.703 125.911 81.9676C125.841 81.5436 125.96 79.3748 125.924 78.9453L122.231 79.7695C122.283 80.6754 122.645 82.7755 121.379 83.147C121.168 83.209 120.941 83.2656 120.703 83.3193Z" fill="#E98862"/>
    <path opacity="0.5" d="M122.18 82.2921C122.238 82.1057 122.275 81.9135 122.291 81.719C122.331 81.2752 122.323 80.8283 122.267 80.3862C123.017 80.2849 123.724 79.9752 124.307 79.4922C124.376 79.7455 124.753 80.8517 124.649 81.0923C124.451 81.5472 123.524 82.2921 122.18 82.2921Z" fill="#0C0C0C"/>
    <path d="M122.659 81.3596C124.114 81.5004 125.998 80.9181 126.388 78.9796L126.74 77.2304C127.13 75.2919 126.428 73.5155 124.603 73.1482C122.778 72.7809 121.097 74.0781 120.707 76.0162L120.551 76.7912C120.402 77.5345 120.061 81.1085 122.659 81.3596Z" fill="#E98862"/>
    <path d="M128.501 77.7837L126.859 77.6038C123.646 77.0131 122.859 74.4205 122.859 74.4205C122.859 74.4205 121.512 76.2198 120.367 75.8066C120.367 75.8066 120.736 71.4681 125.816 72.2305C127.812 72.53 128.945 74.1847 128.945 76.4041C128.945 78.0357 128.501 77.7837 128.501 77.7837Z" fill="#0A0A0A"/>
    <path opacity="0.1" d="M124.054 78.5509C124.075 78.3752 123.898 78.2096 123.658 78.181C123.419 78.1524 123.207 78.2717 123.186 78.4474C123.165 78.6232 123.343 78.7888 123.582 78.8174C123.822 78.846 124.033 78.7267 124.054 78.5509Z" fill="#0C0C0C"/>
    <path opacity="0.1" d="M121.053 78.1167C121.031 78.2921 120.82 78.4113 120.58 78.383C120.539 78.378 120.498 78.3688 120.459 78.3554C120.448 78.1461 120.447 77.9449 120.453 77.7586C120.52 77.742 120.589 77.7379 120.657 77.7467C120.896 77.775 121.073 77.9405 121.053 78.1167Z" fill="#0C0C0C"/>
    <path opacity="0.5" d="M122.11 78.6634H122.107C122.033 78.648 121.96 78.6285 121.888 78.605C121.781 78.5691 121.641 78.5103 121.66 78.4133C121.682 78.3029 122.225 77.172 122.286 77.0435C122.289 77.0378 122.293 77.0326 122.297 77.0283C122.302 77.024 122.307 77.0207 122.313 77.0185C122.319 77.0163 122.325 77.0154 122.332 77.0157C122.338 77.016 122.344 77.0175 122.35 77.0203C122.355 77.023 122.36 77.0268 122.365 77.0315C122.369 77.0362 122.372 77.0417 122.374 77.0477C122.376 77.0537 122.377 77.06 122.376 77.0662C122.376 77.0725 122.374 77.0786 122.371 77.0842C122.14 77.5657 121.767 78.3575 121.752 78.4319C121.864 78.5076 121.991 78.5554 122.125 78.5713C122.137 78.5738 122.147 78.5807 122.154 78.5907C122.161 78.6006 122.164 78.6128 122.162 78.6247C122.16 78.6367 122.154 78.6474 122.144 78.6547C122.134 78.662 122.122 78.6654 122.11 78.664V78.6634Z" fill="#0C0C0C"/>
    <path d="M126.155 79.5477C126.709 79.6593 127.278 79.1565 127.39 78.6018C127.502 78.047 127.114 77.6507 126.559 77.5391L126.198 77.8532L125.678 79.4517L126.155 79.5477Z" fill="#E98862"/>
    <path d="M121.894 76.1382C121.826 76.0897 121.751 76.0506 121.672 76.022C121.592 75.992 121.509 75.9732 121.424 75.9661C121.338 75.958 121.253 75.9627 121.169 75.9801C121.085 75.9973 121.003 76.025 120.925 76.0627L120.923 76.0637C120.915 76.0667 120.905 76.0665 120.897 76.0631C120.889 76.0597 120.882 76.0533 120.878 76.0453C120.875 76.0372 120.874 76.028 120.877 76.0195C120.879 76.011 120.885 76.0037 120.892 75.9991C120.974 75.9558 121.062 75.923 121.152 75.9014C121.243 75.8793 121.337 75.871 121.43 75.8768C121.619 75.8873 121.802 75.9484 121.96 76.0536C121.971 76.0619 121.979 76.0742 121.981 76.0881C121.984 76.1019 121.981 76.1162 121.973 76.1278C121.965 76.1394 121.953 76.1475 121.939 76.1503C121.925 76.1531 121.911 76.1505 121.899 76.1429L121.898 76.142L121.894 76.1382Z" fill="#0C0C0C"/>
    <path d="M123.387 76.3485C123.573 76.3115 123.765 76.3251 123.944 76.3879C124.033 76.4182 124.116 76.4618 124.192 76.517C124.267 76.5714 124.335 76.6351 124.394 76.7065C124.4 76.7135 124.404 76.7228 124.403 76.7323C124.403 76.7419 124.399 76.7508 124.392 76.7572C124.385 76.7637 124.375 76.767 124.366 76.7666C124.356 76.7662 124.347 76.762 124.341 76.7549L124.339 76.753C124.282 76.6886 124.217 76.6317 124.145 76.5835C124.075 76.5354 123.997 76.4981 123.915 76.4731C123.753 76.4223 123.58 76.4152 123.415 76.4527L123.411 76.4537C123.397 76.4572 123.382 76.4549 123.37 76.4475C123.358 76.4401 123.349 76.4281 123.345 76.4142C123.342 76.4003 123.344 76.3856 123.352 76.3733C123.359 76.3611 123.371 76.3523 123.385 76.3489L123.387 76.3485Z" fill="#0C0C0C"/>
    <path d="M115.108 98.2767C114.516 98.0184 114.073 97.742 113.061 96.9799C112.332 96.4321 111.653 95.8188 111.035 95.1476L116.229 85.2653L116.454 84.8359L121.139 87.2986L117.075 95.0312L117.057 95.0653L117.092 95.2029" fill="#EA394A"/>
    <path d="M132.379 90.3283C132.243 91.7937 132.214 94.0728 132.223 96.0991C130.265 97.8754 127.873 99.1048 125.289 99.6636C122.705 100.222 120.019 100.091 117.502 99.2827C117.194 96.2269 116.736 91.7362 116.478 88.9711C116.216 86.1069 115.447 85.161 117.547 83.7893C118.704 83.2002 120.539 83.1484 121.363 83.1484C121.083 85.8633 126.805 86.1974 126.947 83.1484C131.226 83.5486 133.208 83.648 132.379 90.3283Z" fill="#EA394A"/>
    <path d="M121.622 79.0426C122.095 79.2831 122.635 79.3591 123.156 79.2586C123.174 79.2552 123.193 79.257 123.21 79.2638C123.227 79.2706 123.242 79.2822 123.252 79.2971C123.263 79.312 123.27 79.3296 123.271 79.348C123.272 79.3664 123.268 79.3846 123.259 79.4007C123.104 79.6744 122.735 80.1423 122.103 79.9517C121.695 79.8285 121.54 79.4092 121.483 79.149C121.479 79.1309 121.48 79.1121 121.486 79.0948C121.493 79.0774 121.504 79.0622 121.519 79.051C121.533 79.0398 121.551 79.0331 121.569 79.0316C121.588 79.0301 121.606 79.0339 121.622 79.0426Z" fill="white"/>
    <path d="M121.594 76.9413C121.72 76.9413 121.822 76.839 121.822 76.7129C121.822 76.5867 121.72 76.4844 121.594 76.4844C121.468 76.4844 121.365 76.5867 121.365 76.7129C121.365 76.839 121.468 76.9413 121.594 76.9413Z" fill="#0C0C0C"/>
    <path d="M123.789 77.3241C123.915 77.3241 124.018 77.2218 124.018 77.0957C124.018 76.9695 123.915 76.8672 123.789 76.8672C123.663 76.8672 123.561 76.9695 123.561 77.0957C123.561 77.2218 123.663 77.3241 123.789 77.3241Z" fill="#0C0C0C"/>
    <path d="M116.985 93.8984H116.989C116.998 93.8971 117.007 93.8921 117.012 93.8847C117.018 93.8772 117.02 93.8678 117.019 93.8585L116.615 89.7883C116.615 89.7837 116.613 89.7792 116.611 89.7752C116.609 89.7711 116.605 89.7676 116.602 89.7648C116.598 89.762 116.594 89.76 116.589 89.7588C116.585 89.7577 116.58 89.7575 116.575 89.7583C116.571 89.7589 116.566 89.7604 116.562 89.7627C116.558 89.7651 116.555 89.7682 116.552 89.7719C116.549 89.7756 116.547 89.7798 116.546 89.7843C116.545 89.7888 116.545 89.7934 116.545 89.798L116.949 93.8683C116.95 93.8768 116.955 93.8845 116.961 93.89C116.968 93.8955 116.976 93.8985 116.985 93.8984Z" fill="#0C0C0C"/>
    <path d="M116.456 90.8047H112.332V95.8623H116.456V90.8047Z" fill="white"/>
    <path d="M114.768 93.3369C114.768 93.0029 114.867 92.6764 115.052 92.3987C115.238 92.121 115.502 91.9046 115.81 91.7769C116.119 91.6491 116.459 91.6157 116.786 91.6809C117.114 91.7462 117.415 91.9071 117.651 92.1433C117.887 92.3795 118.048 92.6804 118.113 93.008C118.178 93.3356 118.145 93.6752 118.017 93.9838C117.889 94.2923 117.672 94.5561 117.395 94.7416C117.117 94.9272 116.79 95.0262 116.456 95.0262C116.008 95.0256 115.579 94.8475 115.263 94.5308C114.946 94.2141 114.768 93.7847 114.768 93.3369ZM115.459 93.3369C115.459 93.5341 115.518 93.7269 115.627 93.8909C115.737 94.0548 115.893 94.1826 116.075 94.2581C116.257 94.3336 116.457 94.3533 116.651 94.3148C116.844 94.2764 117.022 94.1814 117.161 94.042C117.301 93.9025 117.396 93.7248 117.434 93.5314C117.473 93.338 117.453 93.1375 117.377 92.9553C117.302 92.7731 117.174 92.6174 117.01 92.5079C116.846 92.3983 116.654 92.3398 116.456 92.3398C116.192 92.3401 115.939 92.4453 115.752 92.6322C115.565 92.8191 115.46 93.0726 115.459 93.3369Z" fill="white"/>
    <path d="M116.424 93.9538C116.438 93.8682 116.481 93.7903 116.547 93.7336C116.612 93.6769 116.696 93.6451 116.783 93.6438C116.78 93.6403 116.778 93.6364 116.778 93.6323L116.655 93.6057C116.569 93.5888 116.492 93.5428 116.436 93.4755C116.381 93.4083 116.35 93.3239 116.35 93.2366C116.35 93.1819 116.363 93.128 116.387 93.0789C116.412 93.0298 116.446 92.9866 116.489 92.9525C116.532 92.9185 116.582 92.8943 116.635 92.8819C116.689 92.8694 116.744 92.869 116.797 92.8805L117.087 92.943C117.087 92.942 117.087 92.941 117.087 92.9398C117.088 92.9375 117.089 92.9352 117.09 92.9331C117.014 92.8976 116.953 92.8376 116.916 92.7628C116.879 92.6881 116.868 92.603 116.886 92.5215C116.918 92.3072 117.175 92.2367 117.363 92.2773L118.113 92.4117L117.86 92.2438C117.78 92.1884 117.724 92.1048 117.704 92.0098C117.683 91.9148 117.699 91.8156 117.749 91.732C117.776 91.6898 117.812 91.6536 117.853 91.6256C117.895 91.5975 117.942 91.5782 117.991 91.5689C118.04 91.5596 118.091 91.5604 118.14 91.5714C118.189 91.5823 118.235 91.6031 118.276 91.6325L121.301 95.0939L120.629 94.7892C120.421 95.0958 120.125 95.3331 119.781 95.4708C119.437 95.6084 119.06 95.6401 118.697 95.5618L117.057 95.2043C116.971 95.1874 116.894 95.1414 116.838 95.0741C116.783 95.0069 116.752 94.9225 116.752 94.8352C116.753 94.7564 116.779 94.6801 116.827 94.6174C116.874 94.5547 116.941 94.5088 117.016 94.4865C117.014 94.4809 117.013 94.4749 117.014 94.4689C117.015 94.4633 117.017 94.4579 117.021 94.4534C117.024 94.4489 117.029 94.4454 117.034 94.4431L116.731 94.3777C116.636 94.3591 116.551 94.305 116.494 94.2263C116.437 94.1476 116.412 94.0502 116.424 93.9538Z" fill="#E98862"/>
    <path opacity="0.2" d="M117.636 93.0688C117.644 93.0671 117.651 93.0627 117.656 93.0564C117.661 93.0501 117.663 93.0422 117.663 93.0341C117.663 93.0261 117.66 93.0183 117.655 93.0122C117.65 93.0061 117.642 93.002 117.635 93.0006L117.128 92.9148C117.123 92.9138 117.119 92.9138 117.114 92.9147C117.109 92.9156 117.105 92.9174 117.101 92.9201C117.097 92.9227 117.094 92.9261 117.091 92.93C117.089 92.934 117.087 92.9384 117.086 92.943C117.086 92.9476 117.086 92.9523 117.087 92.9569C117.088 92.9614 117.09 92.9657 117.093 92.9695C117.096 92.9732 117.099 92.9764 117.103 92.9788C117.107 92.9811 117.112 92.9827 117.116 92.9833L117.623 93.069C117.627 93.0698 117.632 93.0697 117.636 93.0688Z" fill="#0C0C0C"/>
    <path opacity="0.2" d="M117.513 93.7781C117.521 93.7764 117.528 93.7721 117.533 93.7658C117.538 93.7595 117.541 93.7516 117.541 93.7436C117.541 93.7355 117.538 93.7278 117.532 93.7216C117.527 93.7155 117.52 93.7113 117.512 93.7099L116.818 93.5868C116.813 93.5858 116.809 93.5857 116.804 93.5865C116.799 93.5873 116.795 93.5891 116.791 93.5917C116.787 93.5943 116.784 93.5977 116.781 93.6016C116.779 93.6055 116.777 93.61 116.776 93.6146C116.775 93.6192 116.775 93.624 116.776 93.6286C116.777 93.6332 116.779 93.6375 116.782 93.6413C116.785 93.6451 116.789 93.6483 116.793 93.6507C116.797 93.653 116.801 93.6546 116.806 93.6552L117.5 93.7784C117.504 93.7791 117.509 93.779 117.513 93.7781Z" fill="#0C0C0C"/>
    <path opacity="0.2" d="M117.385 94.5564C117.393 94.5547 117.4 94.5502 117.405 94.5438C117.41 94.5375 117.413 94.5295 117.412 94.5214C117.412 94.5133 117.409 94.5055 117.404 94.4994C117.398 94.4933 117.391 94.4893 117.383 94.488L117.054 94.4377C117.045 94.4368 117.036 94.4394 117.029 94.4448C117.022 94.4503 117.017 94.4582 117.016 94.467C117.015 94.4758 117.017 94.4847 117.022 94.492C117.027 94.4993 117.035 94.5044 117.043 94.5062L117.372 94.5567C117.377 94.5574 117.381 94.5573 117.385 94.5564Z" fill="#0C0C0C"/>
    <path d="M134.481 93.5324C132.625 96.201 129.958 98.2 126.876 99.2327L126.875 99.2316C126.191 99.0976 119.661 96.5193 118.797 96.35L119.742 91.9407C122.169 92.4236 126.595 94.2853 129.036 94.77L127.314 86.9628C127.251 86.618 127.258 86.2642 127.334 85.9219C127.409 85.5797 127.552 85.2558 127.753 84.9691C127.955 84.6823 128.211 84.4385 128.507 84.2516C128.804 84.0647 129.135 83.9386 129.48 83.8804C129.826 83.8223 130.179 83.8334 130.521 83.913C130.862 83.9926 131.184 84.1391 131.468 84.3442C131.753 84.5492 131.993 84.8086 132.176 85.1074C132.36 85.4061 132.482 85.7383 132.536 86.0846L134.481 93.5324Z" fill="#EA394A"/>
    <path d="M130.886 95.3417C130.895 95.3415 130.903 95.3381 130.91 95.332C130.916 95.326 130.92 95.3177 130.921 95.309C130.921 95.3002 130.919 95.2915 130.913 95.2845C130.908 95.2776 130.9 95.2729 130.891 95.2714L129.056 94.6489C129.052 94.6481 129.047 94.6483 129.042 94.6494C129.038 94.6505 129.034 94.6525 129.03 94.6553C129.026 94.658 129.023 94.6615 129.021 94.6655C129.018 94.6695 129.017 94.674 129.016 94.6786C129.015 94.6878 129.017 94.6973 129.023 94.7048C129.028 94.7123 129.036 94.7173 129.046 94.7186L130.881 95.3412C130.882 95.3415 130.884 95.3417 130.886 95.3417Z" fill="#0C0C0C"/>
    <path d="M129.085 94.6763C129.086 94.6874 129.083 94.6984 129.075 94.707C129.071 94.7108 129.067 94.7136 129.061 94.7153C129.056 94.7169 129.05 94.7173 129.045 94.7164L119.802 91.9882L118.875 96.3279L126.835 99.2401C126.81 99.2484 126.784 99.2565 126.76 99.2648C126.742 99.2707 126.724 99.2765 126.705 99.2813L118.824 96.3873C118.815 96.3849 118.807 96.3791 118.802 96.3713C118.797 96.3634 118.796 96.3539 118.798 96.3449L119.743 91.9356C119.744 91.9312 119.746 91.927 119.749 91.9233C119.752 91.9197 119.755 91.9167 119.759 91.9144C119.763 91.9117 119.768 91.9099 119.772 91.9091C119.777 91.9083 119.782 91.9085 119.786 91.9098L129.007 94.6415L127.963 90.3374C127.962 90.3283 127.965 90.319 127.97 90.3115C127.976 90.304 127.984 90.299 127.993 90.2975C127.997 90.2966 128.002 90.2967 128.007 90.2976C128.011 90.2985 128.016 90.3004 128.019 90.303C128.023 90.3056 128.026 90.309 128.029 90.3129C128.032 90.3168 128.033 90.3211 128.034 90.3257L129.085 94.6763Z" fill="#0C0C0C"/>
    <path d="M8.55093 89.0584C8.54233 89.0584 8.53382 89.0567 8.52588 89.0534C8.51806 89.0501 8.51096 89.0453 8.50499 89.0393C8.49903 89.0332 8.49431 89.0261 8.49111 89.0182C8.4879 89.0104 8.48628 89.002 8.48633 88.9935C8.48638 88.985 8.4881 88.9766 8.49139 88.9688L11.0221 82.9536C11.0288 82.9378 11.0414 82.9253 11.0573 82.9188C11.0732 82.9124 11.091 82.9125 11.1068 82.9191C11.1225 82.9258 11.135 82.9385 11.1415 82.9543C11.148 82.9702 11.1478 82.988 11.1412 83.0038L8.61047 89.0188C8.60556 89.0305 8.59729 89.0405 8.5867 89.0476C8.5761 89.0547 8.56366 89.0584 8.55093 89.0584Z" fill="#0C0C0C"/>
    <path d="M23.4441 89.1253H23.4413C23.4328 89.1256 23.4244 89.1243 23.4164 89.1215C23.4084 89.1186 23.4011 89.1141 23.3948 89.1084C23.3886 89.1027 23.3835 89.0958 23.3799 89.0881C23.3763 89.0804 23.3743 89.0721 23.3739 89.0636L23.0918 82.9114C23.0916 82.8944 23.0978 82.878 23.1092 82.8655C23.1206 82.8529 23.1364 82.8452 23.1533 82.8438C23.1618 82.8434 23.1702 82.8447 23.1782 82.8476C23.1862 82.8505 23.1936 82.8549 23.1998 82.8606C23.2061 82.8663 23.2112 82.8732 23.2148 82.8809C23.2184 82.8886 23.2204 82.897 23.2208 82.9054L23.5029 89.0577C23.5037 89.0744 23.4981 89.0907 23.4871 89.1033C23.4762 89.1159 23.4608 89.1238 23.4441 89.1253Z" fill="#0C0C0C"/>
  </g>
  <defs>
    <clipPath id="clip0_2987_48726">
      <rect width="144.052" height="100" fill="white" transform="translate(0.974609)"/>
    </clipPath>
  </defs>
</svg>