<svg width="16" height="16" viewBox="0 0 16 16" fill="none" xmlns="http://www.w3.org/2000/svg">
<path d="M0 2.00021C0 0.895644 0.895431 0.000213478 2 0.000213478H14C15.1046 0.000213478 16 0.895644 16 2.00021V14.0002C16 15.1048 15.1046 16.0002 14 16.0002H2C0.895431 16.0002 0 15.1048 0 14.0002V2.00021Z" fill="white"/>
<path d="M1.10891 0.00899564C1.10225 0.0156623 1.0378 0.0289956 0.960025 0.042329C0.600025 0.100107 0.248914 0.380107 0.10447 0.722329C-0.00441913 0.982329 2.53155e-05 0.646773 2.53155e-05 8.00011C2.53155e-05 15.3534 -0.00441913 15.0179 0.10447 15.2779C0.208914 15.5268 0.422248 15.7446 0.675581 15.8646C0.982248 16.009 0.471137 16.0001 8.00003 16.0001C14.1845 16.0001 14.8467 15.9957 15.0089 15.9646C15.3311 15.9001 15.5778 15.7512 15.7578 15.5112C15.8711 15.3601 15.92 15.2468 15.9645 15.029C15.9978 14.8668 16 14.2268 16 7.99788C16 0.646773 16.0045 0.982329 15.8956 0.722329C15.7911 0.475662 15.5756 0.25344 15.3245 0.135662C15.0178 -0.00878213 15.5311 0.000106753 7.97336 0.000106753C4.20447 0.000106753 1.11336 0.0045512 1.10891 0.00899564ZM11.8134 2.09122C11.9467 2.10455 12.1756 2.14011 12.3222 2.17122C12.4689 2.20233 12.6156 2.23344 12.6511 2.23788C12.6845 2.24455 12.7111 2.26233 12.7111 2.27566C12.7111 2.30677 12.5711 2.63566 12.3822 3.04455C12.3645 3.08677 12.2911 3.25122 12.22 3.41122L12.0934 3.70011L12.02 3.69788C11.9778 3.69566 11.7822 3.68233 11.5845 3.66455C11.1245 3.629 10.9445 3.649 10.7 3.76677C10.3756 3.92233 10.1067 4.27122 10.0111 4.65566C9.89336 5.13122 10.1311 5.43566 10.9911 5.92233C12.0578 6.52455 12.42 6.84011 12.7067 7.41122C12.8689 7.73566 12.9 7.88677 12.9 8.34455C12.9 8.88233 12.8267 9.20233 12.6089 9.62233C12.1911 10.4312 11.3734 10.9579 10.2267 11.1557C9.9578 11.2023 9.90225 11.2023 6.78225 11.2068L3.61114 11.2112L3.49336 11.149C3.24447 11.0179 3.08891 10.809 3.08891 10.6023C3.08891 10.5157 3.16003 10.2357 3.32669 9.66677C3.3578 9.56233 3.39114 9.44011 3.40225 9.39344C3.41336 9.349 3.44891 9.22233 3.48003 9.11566C3.51336 9.009 3.55114 8.87122 3.56891 8.81122C3.58447 8.74899 3.6178 8.62455 3.64447 8.53344C3.67114 8.44233 3.70669 8.31566 3.72225 8.25566C3.74003 8.19344 3.77336 8.069 3.80003 7.97788C3.82669 7.88677 3.85336 7.789 3.86003 7.76233C3.88003 7.67566 4.0178 7.54011 4.14669 7.48011C4.23558 7.43788 4.33114 7.41566 4.48669 7.40011C4.60447 7.389 5.52669 7.37788 6.54003 7.37788C8.32003 7.37788 8.3778 7.38011 8.3778 7.42011C8.3778 7.45788 7.92225 8.62233 7.88225 8.68233C7.86891 8.70455 7.56003 8.71122 6.47114 8.71122H5.0778L5.00447 8.97344C4.92225 9.25788 4.88669 9.37788 4.83558 9.54233L4.80003 9.65122L5.89558 9.63788C6.49558 9.62899 7.53336 9.62011 8.20003 9.61788C9.55336 9.61344 9.90225 9.60011 10.1111 9.54677C10.6378 9.41122 10.9334 9.08677 10.9334 8.64455C10.9311 8.189 10.6889 7.93122 9.80002 7.44455C8.96669 6.99122 8.43114 6.50455 8.20003 5.99122C8.06003 5.68233 8.03336 5.55344 8.03336 5.15566C8.03336 4.65344 8.10447 4.36455 8.34669 3.88233C8.82225 2.929 9.90225 2.18455 10.94 2.09122C11.2445 2.06455 11.5422 2.06455 11.8134 2.09122ZM5.80225 11.8623C6.22891 11.9801 6.5378 12.3401 6.58891 12.7712C6.63558 13.1823 6.38225 13.6401 6.00669 13.8268C5.73114 13.9623 5.3578 13.9646 5.0778 13.8312C4.89114 13.7446 4.67336 13.5223 4.5778 13.3223C4.51114 13.1846 4.50003 13.1423 4.49336 12.9379C4.48447 12.7423 4.49114 12.6868 4.53336 12.5601C4.71558 12.0179 5.26669 11.7134 5.80225 11.8623ZM10.7356 11.8623C11.0889 11.9601 11.3489 12.209 11.4667 12.5601C11.5089 12.6868 11.5156 12.7423 11.5067 12.9379C11.5 13.1423 11.4889 13.1846 11.4222 13.3223C11.3267 13.5223 11.1089 13.7446 10.9222 13.8312C10.6422 13.9646 10.2689 13.9623 9.99114 13.8246C9.78669 13.7246 9.58447 13.5046 9.48891 13.2757C9.42225 13.1201 9.41558 13.0757 9.41336 12.889C9.41336 12.7223 9.42447 12.6512 9.46447 12.5446C9.66891 12.0046 10.2067 11.7157 10.7356 11.8623Z" fill="#EC1515"/>
</svg>
