<svg width="15" height="18" viewBox="0 0 15 18" fill="none" xmlns="http://www.w3.org/2000/svg">
<path d="M3.56115 3.07812L0 8.72561L3.56115 14.3011V3.07812Z" fill="#876929"/>
<path d="M5.28765 13.8742L3.56104 14.3059V3.04688L5.28765 3.55047V13.8742Z" fill="#D9A741"/>
<path d="M5.28784 16.6048V2.39619L7.51806 1.46094V17.7199L5.28784 16.6048Z" fill="#876929"/>
<path d="M12.2303 7.39574L14.5684 3.22308L8.70508 0.273438L12.2303 7.39574Z" fill="#D9A741"/>
<path d="M12.2303 10.0221L7.51807 1.46094V17.7199L15.0001 14.0149V4.48252L12.2303 10.0221Z" fill="#D9A741"/>
<path d="M6.83464 1.74826L7.5181 1.46049L12.2303 10.0216L15.0001 4.48207L13.7411 4.6979L12.2303 7.39574L8.70515 0.273438L6.54688 1.24466L6.83464 1.74826Z" fill="#876929"/>
</svg>
