<svg width="15" height="16" viewBox="0 0 15 16" fill="none" xmlns="http://www.w3.org/2000/svg">
<path d="M9.76223 11.9753C9.91556 10.7227 9.10889 9.924 6.97889 9.244C5.94689 8.892 5.46089 8.43067 5.47223 7.79667C5.51556 7.09267 6.17089 6.58 7.04023 6.56333C7.72491 6.57033 8.39275 6.7765 8.96223 7.15667C9.03956 7.20467 9.09356 7.19667 9.13756 7.13C9.19756 7.034 9.34756 6.80133 9.39756 6.71667C9.43156 6.66333 9.43823 6.59267 9.35223 6.53C9.22889 6.43867 8.88289 6.25333 8.69689 6.17533C8.16733 5.95062 7.59816 5.83411 7.02289 5.83267C5.74956 5.838 4.74756 6.64267 4.66289 7.71667C4.60889 8.492 4.99289 9.12133 5.81623 9.60133C5.99156 9.70267 6.93623 10.0787 7.31223 10.196C8.49489 10.564 9.10889 11.224 8.96423 11.994C8.83289 12.692 8.09823 13.1433 7.08556 13.1567C6.28356 13.126 5.56089 12.7987 5.00089 12.3633L4.90689 12.29C4.83756 12.2367 4.76156 12.24 4.71556 12.31C4.68223 12.3613 4.46489 12.6747 4.41023 12.7567C4.35889 12.8287 4.38689 12.8687 4.44023 12.9127C4.67356 13.108 4.98489 13.3213 5.19623 13.4293C5.78168 13.7274 6.4256 13.8929 7.08223 13.914C7.55498 13.9364 8.02696 13.8558 8.46556 13.678C9.19556 13.368 9.66756 12.7487 9.76223 11.9753ZM7.13489 0.934C5.75623 0.934 4.63223 2.234 4.57956 3.86067H9.68956C9.63556 2.23333 8.51223 0.933333 7.13489 0.933333M12.3689 15.9987L12.3156 15.9993L1.79289 15.998C1.07689 15.9713 0.550894 15.3913 0.478894 14.6707L0.472228 14.5407L0.000894202 4.19C-0.00229319 4.1484 0.00306107 4.10658 0.016628 4.06713C0.0301949 4.02767 0.0516878 3.9914 0.0797856 3.96056C0.107883 3.92971 0.141993 3.90494 0.180017 3.88776C0.21804 3.87058 0.259176 3.86136 0.300894 3.86067H3.61756C3.69823 1.712 5.24156 0 7.13489 0C9.02689 0 10.5702 1.71267 10.6516 3.86H13.9636C14.0051 3.86003 14.0461 3.86851 14.0843 3.88492C14.1224 3.90133 14.1568 3.92533 14.1854 3.95545C14.2139 3.98557 14.2361 4.02119 14.2504 4.06014C14.2648 4.09908 14.2711 4.14055 14.2689 4.182L13.7536 14.574L13.7489 14.6613C13.6862 15.3907 13.0962 15.9793 12.3689 15.9987Z" fill="#FF5F00"/>
</svg>
