<svg
  viewBox="0 0 10 11"
  fill="none"
  xmlns="http://www.w3.org/2000/svg"
  className="flex-grow-0 flex-shrink-0"
  preserveAspectRatio="xMidYMid meet"
>
  <path
    d="M5.76923 4.34162C5.76923 4.23961 5.72871 4.14179 5.65658 4.06966C5.58445 3.99753 5.48662 3.957 5.38462 3.957H2.30769C2.20569 3.957 2.10786 3.99753 2.03573 4.06966C1.9636 4.14179 1.92308 4.23961 1.92308 4.34162C1.92308 4.44363 1.9636 4.54145 2.03573 4.61358C2.10786 4.68571 2.20569 4.72624 2.30769 4.72624H5.38462C5.48662 4.72624 5.58445 4.68571 5.65658 4.61358C5.72871 4.54145 5.76923 4.44363 5.76923 4.34162ZM5.25641 5.88008C5.25641 5.77808 5.21589 5.68025 5.14376 5.60812C5.07163 5.53599 4.9738 5.49547 4.8718 5.49547H2.30769C2.20569 5.49547 2.10786 5.53599 2.03573 5.60812C1.9636 5.68025 1.92308 5.77808 1.92308 5.88008C1.92308 5.98209 1.9636 6.07992 2.03573 6.15205C2.10786 6.22418 2.20569 6.2647 2.30769 6.2647H4.8718C4.9738 6.2647 5.07163 6.22418 5.14376 6.15205C5.21589 6.07992 5.25641 5.98209 5.25641 5.88008ZM5.38462 7.03393C5.48662 7.03393 5.58445 7.07445 5.65658 7.14658C5.72871 7.21871 5.76923 7.31654 5.76923 7.41854C5.76923 7.52055 5.72871 7.61838 5.65658 7.69051C5.58445 7.76264 5.48662 7.80316 5.38462 7.80316H2.30769C2.20569 7.80316 2.10786 7.76264 2.03573 7.69051C1.9636 7.61838 1.92308 7.52055 1.92308 7.41854C1.92308 7.31654 1.9636 7.21871 2.03573 7.14658C2.10786 7.07445 2.20569 7.03393 2.30769 7.03393H5.38462Z"
    fill="white"
  ></path>
  <path
    fill-rule="evenodd"
    clip-rule="evenodd"
    d="M1.92308 10.4955H8.58974C8.96377 10.4955 9.32247 10.3469 9.58695 10.0824C9.85142 9.81794 10 9.45923 10 9.08521V6.2647C10 6.16269 9.95948 6.06486 9.88735 5.99273C9.81522 5.9206 9.71739 5.88008 9.61539 5.88008H7.94872V1.87649C7.94872 1.14675 7.12359 0.722133 6.52974 1.14624L6.44 1.21034C6.24348 1.34984 6.00836 1.42461 5.76736 1.42424C5.52637 1.42387 5.29148 1.34839 5.09538 1.20829C4.76801 0.975296 4.37618 0.850098 3.97436 0.850098C3.57254 0.850098 3.18071 0.975296 2.85333 1.20829C2.65724 1.34839 2.42235 1.42387 2.18135 1.42424C1.94036 1.42461 1.70524 1.34984 1.50872 1.21034L1.41897 1.14624C0.825128 0.722133 0 1.14624 0 1.87649V8.57239C0 9.08242 0.202609 9.57156 0.563256 9.93221C0.923903 10.2929 1.41305 10.4955 1.92308 10.4955ZM3.30051 1.83393C3.49741 1.69416 3.7329 1.61907 3.97436 1.61907C4.21582 1.61907 4.45131 1.69416 4.64821 1.83393C4.97472 2.06732 5.36593 2.19301 5.76728 2.19347C6.16864 2.19393 6.56013 2.06914 6.88718 1.83649L6.97692 1.77239C6.99608 1.75875 7.01861 1.75065 7.04206 1.74895C7.06551 1.74726 7.08897 1.75205 7.10989 1.7628C7.1308 1.77355 7.14835 1.78984 7.16063 1.80989C7.1729 1.82994 7.17943 1.85298 7.17949 1.87649V9.08521C7.17949 9.31598 7.23487 9.53393 7.33333 9.72624H1.92308C1.61706 9.72624 1.32357 9.60467 1.10718 9.38828C0.890797 9.17189 0.769231 8.87841 0.769231 8.57239V1.87649C0.769292 1.85298 0.775818 1.82994 0.788094 1.80989C0.800369 1.78984 0.817923 1.77355 0.838834 1.7628C0.859745 1.75205 0.883209 1.74726 0.906659 1.74895C0.930109 1.75065 0.952642 1.75875 0.971795 1.77239L1.06154 1.83649C1.38859 2.06914 1.78008 2.19393 2.18144 2.19347C2.58279 2.19301 2.974 2.06732 3.30051 1.83393ZM7.94872 9.08521V6.64931H9.23077V9.08521C9.23077 9.25522 9.16323 9.41827 9.04302 9.53848C8.9228 9.6587 8.75975 9.72624 8.58974 9.72624C8.41973 9.72624 8.25669 9.6587 8.13647 9.53848C8.01626 9.41827 7.94872 9.25522 7.94872 9.08521Z"
    fill="white"
  ></path>
</svg>