<svg width="16" height="12" viewBox="0 0 16 12" fill="none" xmlns="http://www.w3.org/2000/svg">
<path d="M6.00273 11.5471C5.6043 11.5471 5.28125 11.224 5.28125 10.8256V5.21367C5.28125 4.81524 5.60425 4.49219 6.00273 4.49219C6.40116 4.49219 6.72416 4.81519 6.72416 5.21367V10.8257C6.72416 11.224 6.40116 11.5471 6.00273 11.5471Z" fill="#26AAE1"/>
<path d="M14.2898 11.5471C13.8913 11.5471 13.5684 11.224 13.5684 10.8256V5.21367C13.5684 4.81524 13.8913 4.49219 14.2898 4.49219C14.6882 4.49219 15.0112 4.81519 15.0112 5.21367V10.8257C15.0113 11.224 14.6882 11.5471 14.2898 11.5471Z" fill="#26AAE1"/>
<path d="M4.26444 4.54883H0.683102C0.305836 4.54883 0 4.85466 0 5.23193C0 5.6092 0.305836 5.91503 0.683102 5.91503H1.76858V10.842C1.76858 11.2192 2.07441 11.5251 2.45168 11.5251H2.51736C2.89462 11.5251 3.20046 11.2192 3.20046 10.842V5.91503H4.26444C4.6417 5.91503 4.94754 5.6092 4.94754 5.23193C4.94759 4.85466 4.64175 4.54883 4.26444 4.54883Z" fill="#26AAE1"/>
<path d="M9.07187 8.42881C9.07187 9.21121 9.07305 9.97572 9.07144 10.7402C9.07034 11.2483 8.80384 11.5283 8.32941 11.5252C7.86426 11.5221 7.61041 11.2569 7.60955 10.7522C7.6066 8.93842 7.60689 7.12467 7.60936 5.311C7.61007 4.80362 7.88566 4.50202 8.33531 4.49936C8.8171 4.4965 9.07068 4.77732 9.07163 5.31823C9.07267 5.95435 9.07187 6.59042 9.07187 7.31299C9.3232 7.04876 9.52731 6.83595 9.72952 6.62128C10.3212 5.9933 10.9104 5.36298 11.5041 4.73695C11.7281 4.50074 11.9994 4.43244 12.3081 4.55157C12.5822 4.65739 12.7312 4.86221 12.7507 5.15264C12.7702 5.44473 12.5953 5.6507 12.4072 5.83883C11.9081 6.33818 11.4043 6.83291 10.8978 7.32483C10.4311 7.77814 10.4285 7.77552 10.8875 8.25456C11.5184 8.91293 12.1494 9.57126 12.7803 10.2296C12.9241 10.3797 13.0555 10.5384 13.0794 10.755C13.1107 11.0379 13.0487 11.2824 12.7782 11.4327C12.5088 11.5823 12.1193 11.5699 11.8959 11.3597C11.5751 11.0579 11.2759 10.7325 10.9751 10.4101C10.4 9.79358 9.83091 9.17145 9.2571 8.55369C9.21349 8.50685 9.18315 8.4368 9.07187 8.42881Z" fill="#26AAE1"/>
<path d="M5.96634 3.57316C5.23911 3.57316 4.6495 2.98361 4.6495 2.25632C4.6495 2.13658 4.66577 2.02073 4.69573 1.91049H7.23696C7.26687 2.02073 7.28318 2.13658 7.28318 2.25632C7.28323 2.98361 6.69363 3.57316 5.96634 3.57316ZM5.96634 0.453125C5.02815 0.453125 4.26758 1.2137 4.26758 2.15189C4.26758 3.09009 5.02815 3.85066 5.96634 3.85066C6.90459 3.85066 7.66516 3.09009 7.66516 2.15189C7.66516 1.2137 6.90459 0.453125 5.96634 0.453125Z" fill="#26AAE1"/>
<path d="M14.3003 3.57316C13.573 3.57316 12.9835 2.98361 12.9835 2.25632C12.9835 2.13658 12.9998 2.02073 13.0297 1.91049H15.5709C15.6009 2.02073 15.6171 2.13658 15.6171 2.25632C15.6171 2.98361 15.0276 3.57316 14.3003 3.57316ZM14.3003 0.453125C13.3621 0.453125 12.6016 1.2137 12.6016 2.15189C12.6016 3.09009 13.3621 3.85066 14.3003 3.85066C15.2385 3.85066 15.999 3.09009 15.999 2.15189C15.9991 1.2137 15.2385 0.453125 14.3003 0.453125Z" fill="#26AAE1"/>
</svg>
