<svg
  viewBox="0 0 30 25"
  fill="none"
  xmlns="http://www.w3.org/2000/svg"
  class="flex-grow-0 flex-shrink-0"
  preserveAspectRatio="none"
  style="fill: inherit;"
>
  <path
    d="M25.0781 2.42187C24.6375 1.98124 24.6375 1.26874 25.0781 0.832803C25.5187 0.396865 26.2313 0.392178 26.6672 0.832803L29.6672 3.8328C29.8781 4.04374 29.9953 4.32968 29.9953 4.62968C29.9953 4.92968 29.8781 5.21562 29.6672 5.42655L26.6672 8.42655C26.2266 8.86718 25.5141 8.86718 25.0781 8.42655C24.6422 7.98593 24.6375 7.27343 25.0781 6.83749L26.1562 5.75937L18 5.74999C17.3766 5.74999 16.875 5.24843 16.875 4.62499C16.875 4.00155 17.3766 3.49999 18 3.49999H26.1609L25.0781 2.42187ZM4.92188 18.1719L3.84375 19.25H12C12.6234 19.25 13.125 19.7516 13.125 20.375C13.125 20.9984 12.6234 21.5 12 21.5H3.83906L4.91719 22.5781C5.35781 23.0187 5.35781 23.7312 4.91719 24.1672C4.47656 24.6031 3.76406 24.6078 3.32812 24.1672L0.328125 21.1719C0.117188 20.9609 0 20.675 0 20.375C0 20.075 0.117188 19.7891 0.328125 19.5781L3.32812 16.5781C3.76875 16.1375 4.48125 16.1375 4.91719 16.5781C5.35313 17.0187 5.35781 17.7312 4.91719 18.1672L4.92188 18.1719ZM4.5 3.49999H15.8391C15.6656 3.83749 15.5625 4.21718 15.5625 4.62499C15.5625 5.9703 16.6547 7.06249 18 7.06249H23.5031C23.3156 7.85937 23.5312 8.72655 24.15 9.34999C25.1016 10.3016 26.6438 10.3016 27.5953 9.34999L28.5 8.4453V18.5C28.5 20.1547 27.1547 21.5 25.5 21.5H14.1609C14.3344 21.1625 14.4375 20.7828 14.4375 20.375C14.4375 19.0297 13.3453 17.9375 12 17.9375H6.49688C6.68438 17.1406 6.46875 16.2734 5.85 15.65C4.89844 14.6984 3.35625 14.6984 2.40469 15.65L1.5 16.5547V6.49999C1.5 4.8453 2.84531 3.49999 4.5 3.49999ZM7.5 6.49999H4.5V9.49999C6.15469 9.49999 7.5 8.15468 7.5 6.49999ZM25.5 15.5C23.8453 15.5 22.5 16.8453 22.5 18.5H25.5V15.5ZM15 17C16.1935 17 17.3381 16.5259 18.182 15.682C19.0259 14.8381 19.5 13.6935 19.5 12.5C19.5 11.3065 19.0259 10.1619 18.182 9.31801C17.3381 8.4741 16.1935 7.99999 15 7.99999C13.8065 7.99999 12.6619 8.4741 11.818 9.31801C10.9741 10.1619 10.5 11.3065 10.5 12.5C10.5 13.6935 10.9741 14.8381 11.818 15.682C12.6619 16.5259 13.8065 17 15 17Z"
  ></path>
</svg>