<svg width="54" height="40" viewBox="0 0 54 40" fill="none" xmlns="http://www.w3.org/2000/svg">
<path d="M43.3704 16.235C42.8319 7.97 37.0326 0 26.3964 0C16.6683 0 9.16629 7.16625 8.769 16.73C3.44647 18.3712 0.540527 24.0163 0.540527 28.125C0.540527 34.4513 5.84539 40 11.8919 40H20.0901C20.2573 40 20.4177 39.9342 20.536 39.8169C20.6543 39.6997 20.7207 39.5408 20.7207 39.375C20.7207 39.2092 20.6543 39.0503 20.536 38.9331C20.4177 38.8158 20.2573 38.75 20.0901 38.75H11.8919C6.51638 38.75 1.80179 33.785 1.80179 28.125C1.80179 24.3112 5.1744 17.5 11.8919 17.5H13.7838C13.951 17.5 14.1114 17.4342 14.2297 17.3169C14.348 17.1997 14.4144 17.0408 14.4144 16.875C14.4144 16.7092 14.348 16.5503 14.2297 16.4331C14.1114 16.3158 13.951 16.25 13.7838 16.25H11.8919C11.2499 16.25 10.6432 16.3212 10.0517 16.4237C10.5461 8.93625 16.2886 1.25 26.3964 1.25C37.2281 1.25 42.1621 9.67375 42.1621 17.5V19.375C42.1621 19.5408 42.2286 19.6997 42.3469 19.8169C42.4651 19.9342 42.6255 20 42.7928 20C42.96 20 43.1204 19.9342 43.2387 19.8169C43.357 19.6997 43.4234 19.5408 43.4234 19.375V17.4888C47.2312 17.9025 52.2522 21.9525 52.2522 28.125C52.2522 32.9075 47.5969 38.75 42.1621 38.75H32.7027C28.6187 38.75 27.027 37.1725 27.027 33.125V15.9788L32.1704 21.0662C32.2285 21.126 32.298 21.1737 32.3749 21.2066C32.4518 21.2394 32.5346 21.2568 32.6183 21.2576C32.702 21.2585 32.7851 21.2428 32.8626 21.2115C32.9402 21.1801 33.0106 21.1338 33.0699 21.0752C33.1292 21.0166 33.1761 20.9469 33.208 20.8702C33.2398 20.7934 33.2559 20.7111 33.2552 20.6281C33.2546 20.5452 33.2374 20.4631 33.2044 20.3868C33.1715 20.3105 33.1236 20.2415 33.0634 20.1838L27.4369 14.6187C26.6877 13.8787 26.1063 13.8787 25.3584 14.6187L19.7319 20.1838C19.617 20.3016 19.5534 20.4595 19.5549 20.6234C19.5563 20.7872 19.6226 20.944 19.7396 21.0599C19.8565 21.1758 20.0147 21.2415 20.18 21.2429C20.3454 21.2443 20.5047 21.1813 20.6236 21.0675L25.7658 15.9788V33.125C25.7658 37.88 27.9049 40 32.7027 40H42.1621C48.2755 40 53.5135 33.47 53.5135 28.125C53.5135 21.6663 48.1872 16.615 43.3704 16.235Z" fill="#9CA3AF"/>
</svg>
