<svg width="45" height="51" viewBox="0 0 45 51" fill="none" xmlns="http://www.w3.org/2000/svg">
<path d="M2.14713 12.5237L22.5935 24.8003M43.0423 12.5291L22.5959 24.8058V49.2969M11.2324 27.7219V17.98L32.8022 5.89787M40.7854 39.4379L25.8677 48.3834C24.8789 48.9776 23.7471 49.2915 22.5935 49.2915C21.44 49.2915 20.3082 48.9776 19.3194 48.3834L4.40166 39.4379C3.45211 38.8697 2.66341 38.0629 2.11859 37.1004C1.58674 36.1404 1.30136 35.0612 1.29358 33.9611V15.6369C1.28891 14.5284 1.57306 13.4378 2.11805 12.4724C2.66305 11.5071 3.45009 10.7003 4.40166 10.1316L19.3194 2.17983C20.3137 1.60152 21.4433 1.29687 22.5935 1.29688C23.7437 1.29687 24.8734 1.60152 25.8677 2.17983L40.7854 10.1316C41.7366 10.7001 42.5234 11.5064 43.0684 12.4713C43.6134 13.4361 43.8977 14.5262 43.8935 15.6344V33.9637C43.8857 35.0612 43.6003 36.1404 43.0685 37.1004C42.5237 38.0629 41.735 38.8697 40.7854 39.4379Z" stroke="#6B7280" stroke-width="2" stroke-linecap="round" stroke-linejoin="round"/>
</svg>
