<svg width="29" height="32" viewBox="0 0 29 32" fill="none" xmlns="http://www.w3.org/2000/svg">
<path d="M1.31865 8.01754L14.0991 15.6913M26.881 8.02095L14.1005 15.6947V31.0034M6.99759 17.5175V11.4281L20.4802 3.87594M25.4703 24.8408L16.1456 30.4324C15.5276 30.8038 14.8201 31 14.0991 31C13.378 31 12.6706 30.8038 12.0525 30.4324L2.72789 24.8408C2.13435 24.4857 1.64136 23.9813 1.30081 23.3797C0.968366 22.7797 0.789983 22.105 0.785118 21.4175V9.96355C0.782199 9.27063 0.959815 8.5889 1.30047 7.98549C1.64113 7.38209 2.13309 6.87782 2.72789 6.52235L12.0525 1.55191C12.674 1.19043 13.3801 1 14.0991 1C14.818 1 15.5242 1.19043 16.1456 1.55191L25.4703 6.52235C26.0649 6.87768 26.5567 7.38169 26.8973 7.98479C27.2379 8.58788 27.4157 9.26928 27.4131 9.96193V21.4191C27.4082 22.105 27.2298 22.7797 26.8974 23.3797C26.5568 23.9813 26.0638 24.4857 25.4703 24.8408Z" stroke="#3F83F8" stroke-width="1.5" stroke-linecap="round" stroke-linejoin="round"/>
</svg>
