<svg width="34" height="34" viewBox="0 0 34 34" fill="none" xmlns="http://www.w3.org/2000/svg">
<path d="M1.875 4.26562H4.04159C4.83851 4.26562 5.53587 4.80138 5.7412 5.57139L6.34035 7.81816M10.0837 21.8556C7.49308 21.8556 5.39299 23.9557 5.39299 26.5463H30.019M10.0837 21.8556H27.624C29.3769 18.2584 30.9066 14.5325 32.195 10.6957C24.7499 8.79439 16.9485 7.78362 8.91099 7.78362C8.05136 7.78362 7.19443 7.79519 6.34035 7.81816M10.0837 21.8556L6.34035 7.81816M7.73832 31.2369C7.73832 31.8846 7.21331 32.4096 6.56566 32.4096C5.91801 32.4096 5.39299 31.8846 5.39299 31.2369C5.39299 30.5893 5.91801 30.0643 6.56566 30.0643C7.21331 30.0643 7.73832 30.5893 7.73832 31.2369ZM27.6736 31.2369C27.6736 31.8846 27.1486 32.4096 26.501 32.4096C25.8533 32.4096 25.3283 31.8846 25.3283 31.2369C25.3283 30.5893 25.8533 30.0643 26.501 30.0643C27.1486 30.0643 27.6736 30.5893 27.6736 31.2369Z" stroke="#6B7280" stroke-width="2" stroke-linecap="round" stroke-linejoin="round"/>
<path d="M22.1863 14.1529H19.0877V11.0534C19.0877 10.8445 19.0047 10.6441 18.857 10.4964C18.7093 10.3486 18.5089 10.2656 18.3 10.2656C18.0911 10.2656 17.8907 10.3486 17.743 10.4964C17.5952 10.6441 17.5122 10.8445 17.5122 11.0534V14.1529H14.4127C14.2038 14.1529 14.0035 14.2359 13.8557 14.3836C13.708 14.5313 13.625 14.7317 13.625 14.9406C13.625 15.1496 13.708 15.3499 13.8557 15.4977C14.0035 15.6454 14.2038 15.7284 14.4127 15.7284H17.5122V18.8279C17.5122 19.0368 17.5952 19.2372 17.743 19.3849C17.8907 19.5326 18.0911 19.6156 18.3 19.6156C18.5089 19.6156 18.7093 19.5326 18.857 19.3849C19.0047 19.2372 19.0877 19.0368 19.0877 18.8279V15.7284H22.1872C22.3962 15.7284 22.5965 15.6454 22.7443 15.4977C22.892 15.3499 22.975 15.1496 22.975 14.9406C22.975 14.7317 22.892 14.5313 22.7443 14.3836C22.5965 14.2359 22.3953 14.1529 22.1863 14.1529Z" fill="#6B7280"/>
</svg>
