<svg width="25" height="32" viewBox="0 0 25 32" fill="none" xmlns="http://www.w3.org/2000/svg">
<path d="M24.0769 19.4615V15.4231C24.0769 12.5554 21.7522 10.2308 18.8846 10.2308H16.5769C15.621 10.2308 14.8462 9.45588 14.8462 8.5V6.19231C14.8462 3.32468 12.5215 1 9.65385 1H6.76923M6.76923 20.6154H18.3077M6.76923 25.2308H12.5385M10.2308 1H2.73077C1.77489 1 1 1.77489 1 2.73077V29.2692C1 30.2251 1.77489 31 2.73077 31H22.3462C23.302 31 24.0769 30.2251 24.0769 29.2692V14.8462C24.0769 7.19913 17.8778 1 10.2308 1Z" stroke="#0E9F6E" stroke-linecap="round" stroke-linejoin="round"/>
</svg>
