<svg width="31" height="30" viewBox="0 0 31 30" fill="none" xmlns="http://www.w3.org/2000/svg">
<path d="M13.372 30H7.28C5.41452 29.9971 3.62644 29.254 2.30837 27.9339C0.990305 26.6137 0.249998 24.8245 0.25 22.959L0.25 7.03C0.252909 5.16642 0.994502 3.38 2.31225 2.06225C3.63 0.744502 5.41642 0.00290916 7.28 0L23.209 0C25.0745 -2.27655e-06 26.8637 0.740305 28.1839 2.05837C29.504 3.37644 30.2471 5.16452 30.25 7.03V12.887C30.2546 13.0437 30.2277 13.1998 30.1709 13.3459C30.114 13.492 30.0285 13.6253 29.9192 13.7378C29.81 13.8502 29.6793 13.9397 29.5349 14.0007C29.3905 14.0618 29.2353 14.0932 29.0785 14.0932C28.9217 14.0932 28.7665 14.0618 28.6221 14.0007C28.4777 13.9397 28.347 13.8502 28.2378 13.7378C28.1285 13.6253 28.043 13.492 27.9861 13.3459C27.9293 13.1998 27.9024 13.0437 27.907 12.887V7.03C27.9065 6.41355 27.7845 5.80324 27.5479 5.23398C27.3114 4.66472 26.9649 4.14766 26.5284 3.71236C26.0919 3.27707 25.5739 2.93208 25.004 2.69711C24.4341 2.46215 23.8235 2.34182 23.207 2.343H7.28C6.03726 2.34406 4.84571 2.83821 3.96696 3.71696C3.08821 4.59571 2.59406 5.78726 2.593 7.03V22.959C2.59406 24.2017 3.08821 25.3933 3.96696 26.272C4.84571 27.1508 6.03726 27.6449 7.28 27.646H13.372C13.6842 27.646 13.9835 27.77 14.2043 27.9907C14.425 28.2115 14.549 28.5108 14.549 28.823C14.549 29.1352 14.425 29.4345 14.2043 29.6553C13.9835 29.876 13.6842 30 13.372 30Z" fill="#6B7280"/>
<path d="M19.4058 6.44494C19.4058 6.29116 19.3755 6.13889 19.3167 5.99682C19.2578 5.85474 19.1716 5.72565 19.0628 5.61692C18.9541 5.50818 18.825 5.42193 18.6829 5.36308C18.5409 5.30423 18.3886 5.27394 18.2348 5.27394H12.2658C12.1091 5.26936 11.953 5.29627 11.8069 5.35308C11.6608 5.4099 11.5275 5.49546 11.415 5.60469C11.3026 5.71393 11.2131 5.84463 11.1521 5.98904C11.091 6.13345 11.0596 6.28865 11.0596 6.44544C11.0596 6.60223 11.091 6.75743 11.1521 6.90184C11.2131 7.04626 11.3026 7.17695 11.415 7.28618C11.5275 7.39542 11.6608 7.48098 11.8069 7.53779C11.953 7.59461 12.1091 7.62152 12.2658 7.61694H18.2348C18.5454 7.61694 18.8432 7.49357 19.0628 7.27396C19.2824 7.05436 19.4058 6.75551 19.4058 6.44494Z" fill="#6B7280"/>
<path d="M22.3336 14.1797C20.7693 14.1811 19.2405 14.6463 17.9406 15.5166C16.6407 16.3869 15.6281 17.6231 15.0308 19.069C14.4335 20.5148 14.2784 22.1053 14.5851 23.6393C14.8918 25.1732 15.6465 26.5818 16.7538 27.6868C17.8611 28.7919 19.2712 29.5437 20.8058 29.8473C22.3404 30.1509 23.9305 29.9926 25.3751 29.3924C26.8198 28.7922 28.0539 27.7771 28.9216 26.4754C29.7893 25.1737 30.2514 23.644 30.2496 22.0797C30.2472 19.9824 29.412 17.972 27.9275 16.4905C26.443 15.009 24.4309 14.1778 22.3336 14.1797ZM22.3416 27.6467C21.2413 27.6477 20.1654 27.3223 19.25 26.7118C18.3345 26.1013 17.6207 25.233 17.1988 24.2167C16.7769 23.2005 16.6659 22.0819 16.8797 21.0026C17.0936 19.9232 17.6227 18.9315 18.4002 18.1529C19.1777 17.3743 20.1686 16.8437 21.2477 16.6283C22.3267 16.4129 23.4454 16.5224 24.4623 16.9428C25.4791 17.3633 26.3485 18.0758 26.9603 18.9903C27.5722 19.9049 27.899 20.9803 27.8996 22.0807H27.9076C27.9076 23.5569 27.3212 24.9726 26.2774 26.0164C25.2336 27.0603 23.8178 27.6467 22.3416 27.6467Z" fill="#6B7280"/>
<path d="M23.9981 22.0814L24.9271 21.1524C25.1382 20.9308 25.2543 20.6354 25.2505 20.3294C25.2467 20.0233 25.1234 19.7309 24.9069 19.5146C24.6903 19.2983 24.3977 19.1754 24.0917 19.1719C23.7856 19.1685 23.4904 19.285 23.2691 19.4964L22.3401 20.4254L21.4111 19.4964C21.1898 19.285 20.8946 19.1685 20.5885 19.1719C20.2825 19.1754 19.9899 19.2983 19.7733 19.5146C19.5568 19.7309 19.4335 20.0233 19.4297 20.3294C19.4259 20.6354 19.542 20.9308 19.7531 21.1524L20.6821 22.0814L19.7531 23.0104C19.6401 23.1183 19.5499 23.2477 19.4877 23.391C19.4254 23.5343 19.3924 23.6886 19.3907 23.8448C19.389 24.001 19.4185 24.156 19.4775 24.3007C19.5365 24.4453 19.6239 24.5767 19.7344 24.6871C19.8449 24.7975 19.9764 24.8847 20.1212 24.9435C20.2659 25.0024 20.4209 25.0317 20.5771 25.0298C20.7333 25.0278 20.8876 24.9947 21.0308 24.9323C21.174 24.8699 21.3033 24.7795 21.4111 24.6664L22.3401 23.7374L23.2691 24.6664C23.3769 24.7795 23.5062 24.8699 23.6494 24.9323C23.7926 24.9947 23.9469 25.0278 24.1031 25.0298C24.2593 25.0317 24.4143 25.0024 24.559 24.9435C24.7038 24.8847 24.8352 24.7975 24.9458 24.6871C25.0563 24.5767 25.1437 24.4453 25.2027 24.3007C25.2617 24.156 25.2912 24.001 25.2895 23.8448C25.2878 23.6886 25.2548 23.5343 25.1925 23.391C25.1303 23.2477 25.0401 23.1183 24.9271 23.0104L23.9981 22.0814Z" fill="#6B7280"/>
</svg>
