<svg width="31" height="30" viewBox="0 0 31 30" fill="none" xmlns="http://www.w3.org/2000/svg">
<g clip-path="url(#clip0_12865_12258)">
<path d="M21.097 2.14432V2.54431C21.097 4.86564 21.097 7.18665 21.097 9.50731C21.1267 9.74814 21.0736 9.99191 20.9464 10.1985C20.8192 10.4052 20.6252 10.5624 20.3968 10.6443C20.1819 10.7272 19.9463 10.7393 19.724 10.6789C19.5017 10.6184 19.3044 10.4886 19.161 10.3083C18.75 9.88431 18.325 9.47431 17.888 9.04031C17.488 9.44031 17.082 9.83231 16.682 10.2313C16.5789 10.3879 16.4385 10.5162 16.2733 10.6047C16.1081 10.6933 15.9233 10.7392 15.7359 10.7383C15.5485 10.7374 15.3644 10.6897 15.2 10.5996C15.0357 10.5095 14.8965 10.3798 14.795 10.2223C14.403 9.82931 14.004 9.44231 13.587 9.03031C13.127 9.49431 12.6869 9.96431 12.2159 10.4053C12.0828 10.5375 11.9173 10.6324 11.7359 10.6806C11.5546 10.7287 11.3639 10.7283 11.1827 10.6795C11.0015 10.6307 10.8363 10.5352 10.7037 10.4024C10.5711 10.2697 10.4755 10.1045 10.4269 9.92332C10.3958 9.78221 10.3839 9.63761 10.391 9.49331C10.391 7.18331 10.391 4.87331 10.391 2.56331V2.14432H10.0279C8.42193 2.14432 6.8155 2.14432 5.20883 2.14432C4.89807 2.12169 4.5862 2.16638 4.29428 2.27534C4.00237 2.38429 3.73737 2.55494 3.51743 2.77564C3.29748 2.99634 3.12782 3.26191 3.01987 3.5542C2.91192 3.84649 2.86824 4.15863 2.89194 4.46931C2.89194 11.4886 2.89194 18.508 2.89194 25.5273C2.86724 25.8408 2.91096 26.156 3.02011 26.4509C3.12927 26.7459 3.30116 27.0136 3.52402 27.2355C3.74688 27.4574 4.01548 27.6282 4.31088 27.7361C4.60629 27.844 4.92154 27.8864 5.23496 27.8603C8.02362 27.8603 10.8123 27.8603 13.6009 27.8603C13.8603 27.8578 14.1117 27.9496 14.3084 28.1185C14.5052 28.2875 14.6338 28.5222 14.6705 28.7789C14.7072 29.0357 14.6495 29.297 14.5079 29.5143C14.3663 29.7316 14.1506 29.8901 13.901 29.9603C13.7823 29.9894 13.6601 30.0022 13.5379 29.9983C10.6709 29.9983 7.80384 30.0063 4.93784 29.9983C3.83317 29.9777 2.77989 29.5288 1.99985 28.7464C1.21981 27.9639 0.77411 26.909 0.75693 25.8043C0.751596 18.6043 0.751596 11.4066 0.75693 4.21131C0.770927 3.10175 1.2179 2.04158 2.00254 1.25694C2.78717 0.472302 3.84732 0.02531 4.95688 0.0113125C12.1515 0.00664583 19.3462 0.00664583 26.5409 0.0113125C27.6456 0.0285149 28.7003 0.474334 29.4825 1.25464C30.2647 2.03494 30.7132 3.08865 30.733 4.19331C30.741 7.06131 30.733 9.92931 30.733 12.7933C30.7419 12.9392 30.7209 13.0854 30.6712 13.2228C30.6216 13.3603 30.5441 13.4861 30.4439 13.5926C30.3438 13.699 30.2231 13.7838 30.089 13.8418C29.9548 13.8998 29.8101 13.9297 29.6639 13.9297C29.5178 13.9297 29.3733 13.8998 29.2391 13.8418C29.1049 13.7838 28.984 13.699 28.8839 13.5926C28.7837 13.4861 28.7065 13.3603 28.6568 13.2228C28.6071 13.0854 28.5859 12.9392 28.5948 12.7933C28.5948 10.0373 28.5948 7.28098 28.5948 4.52431C28.6257 4.20548 28.5861 3.88376 28.4784 3.58209C28.3706 3.28043 28.1977 3.00625 27.9718 2.77913C27.7459 2.552 27.4726 2.37753 27.1715 2.26814C26.8704 2.15875 26.5488 2.11716 26.2298 2.14631H21.097M18.9339 6.95731V2.16831H12.547V7.01031C12.61 6.95931 12.647 6.93631 12.672 6.91031C13.381 6.23431 13.872 6.23931 14.556 6.92731C14.948 7.31931 15.3448 7.70731 15.7498 8.10631C16.2088 7.64831 16.659 7.20631 17.107 6.75331C17.2407 6.60114 17.4177 6.49358 17.6144 6.44513C17.811 6.39667 18.0178 6.40965 18.2069 6.48231C18.4653 6.61277 18.7088 6.77104 18.933 6.95431" fill="#6B7280"/>
<path d="M13.6026 21.4252C13.6042 19.7308 14.1083 18.075 15.0511 16.6671C15.9938 15.2592 17.3329 14.1626 18.899 13.5158C20.465 12.869 22.1877 12.7012 23.8491 13.0336C25.5106 13.366 27.036 14.1837 28.2327 15.3832C29.4294 16.5827 30.2435 18.1101 30.5721 19.7724C30.9006 21.4346 30.7288 23.1569 30.0784 24.7214C29.428 26.286 28.3281 27.6225 26.918 28.5619C25.5079 29.5014 23.8509 30.0016 22.1565 29.9992C21.0314 29.9995 19.9174 29.7777 18.8782 29.3467C17.839 28.9156 16.895 28.2838 16.1004 27.4873C15.3057 26.6908 14.676 25.7453 14.2473 24.7051C13.8187 23.6648 13.5997 22.5503 13.6026 21.4252ZM28.5945 21.4252C28.5935 20.1528 28.215 18.9094 27.5066 17.8525C26.7982 16.7956 25.792 15.9728 24.6155 15.4884C23.439 15.0039 22.1452 14.8796 20.898 15.1312C19.6508 15.3828 18.5063 15.999 17.6096 16.9017C16.713 17.8044 16.1043 18.953 15.8611 20.2018C15.6179 21.4507 15.7508 22.7437 16.2432 23.9169C16.7355 25.0901 17.5651 26.0908 18.6267 26.7921C19.6884 27.4934 20.9343 27.8637 22.2066 27.8562C23.9031 27.8396 25.5248 27.1554 26.7205 25.9517C27.9161 24.748 28.5893 23.1218 28.5945 21.4252Z" fill="#6B7280"/>
<path d="M21.1198 22.0526C21.5498 21.6156 21.9678 21.1866 22.3908 20.7606C23.1054 20.0406 23.8214 19.3223 24.5387 18.6056C24.6345 18.4893 24.7535 18.3942 24.8881 18.3265C25.0227 18.2588 25.17 18.2199 25.3205 18.2123C25.4709 18.2047 25.6214 18.2286 25.7621 18.2825C25.9028 18.3364 26.0306 18.419 26.1376 18.5251C26.2446 18.6313 26.3282 18.7585 26.3832 18.8988C26.4382 19.0391 26.4633 19.1893 26.4569 19.3399C26.4505 19.4904 26.4128 19.638 26.3461 19.7731C26.2794 19.9082 26.1853 20.028 26.0697 20.1246C24.6937 21.5066 23.3148 22.8863 21.9328 24.2636C21.8324 24.3889 21.7052 24.4901 21.5605 24.5596C21.4157 24.6291 21.2571 24.6652 21.0966 24.6652C20.936 24.6652 20.7777 24.6291 20.633 24.5596C20.4883 24.4901 20.361 24.3889 20.2606 24.2636C19.594 23.6036 18.9321 22.9416 18.2748 22.2776C18.157 22.1811 18.0607 22.0609 17.9923 21.9248C17.924 21.7887 17.885 21.6397 17.8781 21.4875C17.8711 21.3354 17.8964 21.1835 17.9521 21.0417C18.0077 20.8999 18.0925 20.7714 18.2011 20.6646C18.3097 20.5578 18.4395 20.475 18.5822 20.4217C18.7249 20.3684 18.8772 20.3457 19.0292 20.3552C19.1812 20.3646 19.3295 20.4059 19.4645 20.4765C19.5995 20.547 19.7181 20.6452 19.8126 20.7646L21.1176 22.0546" fill="#6B7280"/>
</g>
<defs>
<clipPath id="clip0_12865_12258">
<rect width="30" height="30" fill="white" transform="translate(0.75)"/>
</clipPath>
</defs>
</svg>
