<svg width="33" height="32" viewBox="0 0 33 32" fill="none" xmlns="http://www.w3.org/2000/svg">
<path d="M15.8302 1.59493C16.1602 0.801689 17.2839 0.801689 17.6138 1.59493L21.2642 10.3716C21.4033 10.706 21.7178 10.9345 22.0788 10.9635L31.554 11.7231C32.4104 11.7917 32.7576 12.8605 32.1052 13.4194L24.8861 19.6033C24.611 19.8389 24.4909 20.2086 24.5749 20.5609L26.7805 29.807C26.9798 30.6427 26.0707 31.3032 25.3375 30.8554L17.2255 25.9006C16.9164 25.7118 16.5277 25.7118 16.2186 25.9006L8.1065 30.8554C7.37333 31.3032 6.46422 30.6427 6.66356 29.807L8.86911 20.5609C8.95314 20.2086 8.83302 19.8389 8.55796 19.6033L1.33888 13.4194C0.686411 12.8605 1.03366 11.7917 1.89003 11.7231L11.3652 10.9635C11.7262 10.9345 12.0407 10.706 12.1798 10.3716L15.8302 1.59493Z" stroke="#C27803" stroke-linecap="round" stroke-linejoin="round"/>
</svg>
