<svg width="55" height="51" viewBox="0 0 55 51" fill="none" xmlns="http://www.w3.org/2000/svg">
<path d="M31.1565 49.2969V29.2967C31.1565 28.1921 32.0519 27.2967 33.1565 27.2967H41.1566C42.2611 27.2967 43.1566 28.1921 43.1566 29.2967V49.2969M31.1565 49.2969H1.45193M31.1565 49.2969H43.1566M43.1566 49.2969H52.861M49.1566 49.2969V18.2267M5.15628 49.2969V18.2274M5.15628 18.2274C8.21575 19.9957 12.1957 19.5712 14.8132 16.9537C14.9322 16.8347 15.0467 16.7129 15.1566 16.5885C16.6225 18.2492 18.7671 19.2966 21.1564 19.2966C23.5458 19.2966 25.6906 18.2491 27.1565 16.5883C28.6224 18.2491 30.7671 19.2966 33.1565 19.2966C35.5456 19.2966 37.6902 18.2494 39.1561 16.5888C39.2658 16.713 39.3801 16.8347 39.499 16.9535C42.1166 19.5712 46.0971 19.9956 49.1566 18.2267M5.15628 18.2274C4.56397 17.885 4.00616 17.4605 3.49941 16.9537C0.375195 13.8295 0.375195 8.76413 3.49941 5.63991L6.67087 2.46846C7.42102 1.71831 8.43844 1.29688 9.49932 1.29688H44.8131C45.8739 1.29688 46.8914 1.71831 47.6415 2.46846L50.8127 5.63968C53.937 8.7639 53.937 13.8293 50.8127 16.9535C50.3062 17.46 49.7487 17.8844 49.1566 18.2267M13.1563 41.2968H23.1564C24.261 41.2968 25.1564 40.4014 25.1564 39.2968V29.2967C25.1564 28.1921 24.261 27.2967 23.1564 27.2967H13.1563C12.0518 27.2967 11.1563 28.1921 11.1563 29.2967V39.2968C11.1563 40.4014 12.0518 41.2968 13.1563 41.2968Z" stroke="#6B7280" stroke-width="2" stroke-linecap="round" stroke-linejoin="round"/>
</svg>
