<svg width="52" height="51" viewBox="0 0 52 51" fill="none" xmlns="http://www.w3.org/2000/svg">
<path d="M32.7019 17.0179C31.2325 15.5485 28.6467 14.5281 26.2699 14.4631M26.2699 14.4631C23.4425 14.3872 20.9109 15.6677 20.9109 19.1609C20.9109 25.5929 32.7019 22.3769 32.7019 28.8089C32.7019 32.4786 29.5633 34.0548 26.2699 33.9356M26.2699 14.4631V10.5859M19.8379 30.9534C21.2206 32.796 23.7894 33.8458 26.2699 33.9356M26.2699 33.9356V38.4569" stroke="#6B7280" stroke-width="2" stroke-linecap="round" stroke-linejoin="round"/>
<path d="M8.99902 1.29688V47.2969C8.99902 48.4014 9.89445 49.2969 10.999 49.2969H42.6119C43.7165 49.2969 44.6119 48.4014 44.6119 47.2969V1.29688" stroke="#6B7280" stroke-width="2" stroke-linecap="round"/>
<path d="M1.25684 1.29688L50.8052 1.29688" stroke="#6B7280" stroke-width="2" stroke-linecap="round"/>
</svg>
