<svg width="33" height="26" viewBox="0 0 33 26" fill="none" xmlns="http://www.w3.org/2000/svg">
<path d="M10.9962 22.2492C10.9962 23.5259 9.96128 24.5608 8.68464 24.5608C7.40801 24.5608 6.3731 23.5259 6.3731 22.2492M10.9962 22.2492C10.9962 20.9726 9.96128 19.9377 8.68464 19.9377C7.40801 19.9377 6.3731 20.9726 6.3731 22.2492M10.9962 22.2492H20.2424M6.3731 22.2492H3.48366C2.52619 22.2492 1.75 21.4731 1.75 20.5156V15.3153M28.3328 22.2492C28.3328 23.5259 27.2979 24.5608 26.0213 24.5608C24.7446 24.5608 23.7097 23.5259 23.7097 22.2492M28.3328 22.2492C28.3328 20.9726 27.2979 19.9377 26.0213 19.9377C24.7446 19.9377 23.7097 20.9726 23.7097 22.2492M28.3328 22.2492L30.0665 22.2492C31.0239 22.2492 31.8058 21.4721 31.7469 20.5165C31.4232 15.2652 29.6385 10.4093 26.7942 6.35017C26.2361 5.55358 25.3323 5.07867 24.361 5.02536H20.2424M23.7097 22.2492H20.2424M20.2424 5.02536V3.5485C20.2424 2.67398 19.5913 1.93414 18.7214 1.84387C16.1823 1.58037 13.605 1.44531 10.9962 1.44531C8.38737 1.44531 5.81009 1.58037 3.27096 1.84387C2.40111 1.93414 1.75 2.67398 1.75 3.5485V15.3153M20.2424 5.02536V15.3153M20.2424 22.2492V15.3153M20.2424 15.3153H1.75" stroke="#6B7280" stroke-width="2" stroke-linecap="round" stroke-linejoin="round"/>
</svg>
