<svg width="24" height="23" viewBox="0 0 24 23" fill="none" xmlns="http://www.w3.org/2000/svg">
<path d="M18.3 0.546875H5.7C4.18827 0.546875 2.73845 1.14741 1.66949 2.21637C0.600534 3.28532 0 4.73514 0 6.24688V17.0469C0 17.7954 0.147435 18.5366 0.433887 19.2282C0.720339 19.9197 1.1402 20.5481 1.66949 21.0774C2.73845 22.1463 4.18827 22.7469 5.7 22.7469H18.3C19.8108 22.7437 21.2587 22.1422 22.327 21.0739C23.3953 20.0056 23.9968 18.5576 24 17.0469V6.24688C23.9968 4.73612 23.3953 3.28814 22.327 2.21987C21.2587 1.1516 19.8108 0.550046 18.3 0.546875ZM13.92 10.5309C13.3296 10.8676 12.6617 11.0447 11.982 11.0447C11.3023 11.0447 10.6344 10.8676 10.044 10.5309L1.824 5.81488C1.93029 4.86124 2.38441 3.98025 3.0995 3.34043C3.81459 2.70062 4.74046 2.34688 5.7 2.34688H18.3C19.2588 2.3495 20.1832 2.70415 20.8978 3.34348C21.6123 3.9828 22.0672 4.86227 22.176 5.81488L13.92 10.5309Z" fill="#C3DDFD"/>
</svg>
