<svg width="24" height="25" viewBox="0 0 24 25" fill="none" xmlns="http://www.w3.org/2000/svg">
<path d="M22.1925 10.8911H18.7783C17.8745 10.8911 17.3724 9.68611 18.0753 9.0836L20.4854 6.67354C21.1883 5.97061 21.1883 4.86601 20.4854 4.16308C19.7824 3.46015 18.6778 3.46015 17.9749 4.16308L15.5648 6.57314C14.8619 7.17565 13.7574 6.77399 13.7574 5.76981V2.35556C13.7574 1.4518 12.954 0.648438 11.9498 0.648438C11.046 0.648438 10.2427 1.4518 10.2427 2.35556V5.76981C10.2427 6.77399 9.03767 7.17565 8.43516 6.57314L6.0251 4.16308C5.32217 3.46015 4.21757 3.46015 3.51464 4.16308C2.81171 4.86601 2.81171 5.97061 3.51464 6.67354L5.9247 9.0836C6.52721 9.68611 6.12561 10.8911 5.12143 10.8911H1.80758C0.803395 10.8911 0 11.5941 0 12.5982C0 13.6024 0.803395 14.4058 1.80758 14.4058H5.12143C6.12561 14.4058 6.52721 15.5103 5.9247 16.2133L3.51464 18.6233C3.21339 18.9246 3.01255 19.3263 3.01255 19.8284C3.01255 20.3305 3.21339 20.7321 3.51464 21.1338C3.8159 21.4351 4.31806 21.6359 4.71973 21.6359C5.22183 21.6359 5.72384 21.4351 6.0251 21.1338L8.43516 18.7237C9.03767 18.0208 10.2427 18.5229 10.2427 19.4267V22.8409C10.2427 23.8451 11.046 24.6484 11.9498 24.6484C12.954 24.6484 13.7574 23.8451 13.7574 22.8409V19.4267C13.7574 18.5229 14.8619 18.0208 15.5648 18.7237L17.9749 21.1338C18.2762 21.4351 18.7783 21.6359 19.18 21.6359C19.6821 21.6359 20.0837 21.4351 20.4854 21.1338C20.7866 20.7321 20.9874 20.3305 20.9874 19.8284C20.9874 19.3263 20.7866 18.9246 20.4854 18.6233L18.0753 16.2133C17.3724 15.5103 17.8745 14.4058 18.7783 14.4058H22.1925C23.1967 14.4058 24 13.6024 24 12.5982C24 11.5941 23.1967 10.8911 22.1925 10.8911Z" fill="#C3DDFD"/>
</svg>
