<svg width="30" height="25" viewBox="0 0 30 25" fill="none" xmlns="http://www.w3.org/2000/svg">
<path d="M25.0781 2.17559C24.6375 1.73496 24.6375 1.02246 25.0781 0.586526C25.5187 0.150588 26.2313 0.145901 26.6672 0.586526L29.6672 3.58653C29.8781 3.79746 29.9953 4.0834 29.9953 4.3834C29.9953 4.6834 29.8781 4.96934 29.6672 5.18028L26.6672 8.18028C26.2266 8.6209 25.5141 8.6209 25.0781 8.18028C24.6422 7.73965 24.6375 7.02715 25.0781 6.59121L26.1562 5.51309L18 5.50371C17.3766 5.50371 16.875 5.00215 16.875 4.37871C16.875 3.75528 17.3766 3.25371 18 3.25371H26.1609L25.0781 2.17559ZM4.92188 17.9256L3.84375 19.0037H12C12.6234 19.0037 13.125 19.5053 13.125 20.1287C13.125 20.7521 12.6234 21.2537 12 21.2537H3.83906L4.91719 22.3318C5.35781 22.7725 5.35781 23.485 4.91719 23.9209C4.47656 24.3568 3.76406 24.3615 3.32812 23.9209L0.328125 20.9256C0.117188 20.7146 0 20.4287 0 20.1287C0 19.8287 0.117188 19.5428 0.328125 19.3318L3.32812 16.3318C3.76875 15.8912 4.48125 15.8912 4.91719 16.3318C5.35313 16.7725 5.35781 17.485 4.91719 17.9209L4.92188 17.9256ZM4.5 3.25371H15.8391C15.6656 3.59121 15.5625 3.9709 15.5625 4.37871C15.5625 5.72403 16.6547 6.81621 18 6.81621H23.5031C23.3156 7.61309 23.5312 8.48028 24.15 9.10371C25.1016 10.0553 26.6438 10.0553 27.5953 9.10371L28.5 8.19903V18.2537C28.5 19.9084 27.1547 21.2537 25.5 21.2537H14.1609C14.3344 20.9162 14.4375 20.5365 14.4375 20.1287C14.4375 18.7834 13.3453 17.6912 12 17.6912H6.49688C6.68438 16.8943 6.46875 16.0272 5.85 15.4037C4.89844 14.4522 3.35625 14.4522 2.40469 15.4037L1.5 16.3084V6.25371C1.5 4.59903 2.84531 3.25371 4.5 3.25371ZM7.5 6.25371H4.5V9.25371C6.15469 9.25371 7.5 7.9084 7.5 6.25371ZM25.5 15.2537C23.8453 15.2537 22.5 16.599 22.5 18.2537H25.5V15.2537ZM15 16.7537C16.1935 16.7537 17.3381 16.2796 18.182 15.4357C19.0259 14.5918 19.5 13.4472 19.5 12.2537C19.5 11.0602 19.0259 9.91565 18.182 9.07173C17.3381 8.22782 16.1935 7.75371 15 7.75371C13.8065 7.75371 12.6619 8.22782 11.818 9.07173C10.9741 9.91565 10.5 11.0602 10.5 12.2537C10.5 13.4472 10.9741 14.5918 11.818 15.4357C12.6619 16.2796 13.8065 16.7537 15 16.7537Z" fill="#E05252"/>
</svg>
