<svg width="14" height="16" viewBox="0 0 14 16" fill="none" xmlns="http://www.w3.org/2000/svg">
<path d="M12.0867 16C12.5641 16 13.0219 15.8104 13.3595 15.4728C13.6971 15.1352 13.8867 14.6774 13.8867 14.2L13.8867 1.8C13.8867 1.32261 13.6971 0.864773 13.3595 0.527207C13.0219 0.189642 12.5641 0 12.0867 0H6.08672C5.61223 -2.09808e-05 5.15692 0.187313 4.81983 0.521254C4.48274 0.855194 4.29115 1.30873 4.28672 1.7832V2.9992C4.28672 3.15833 4.34993 3.31094 4.46245 3.42346C4.57498 3.53598 4.72759 3.5992 4.88672 3.5992C5.24912 3.5992 5.47792 3.6976 5.63552 3.8248C5.80192 3.9584 5.93952 4.1648 6.04432 4.456C6.26272 5.06 6.28592 5.856 6.28592 6.6C6.28593 6.75208 6.34369 6.89848 6.44752 7.0096L6.57952 7.1512C6.62254 7.19955 6.66793 7.24574 6.71552 7.2896C6.77472 7.3456 6.95552 7.5176 7.66192 8.224C8.03712 8.5992 8.24432 8.916 8.31232 9.1584C8.33981 9.24235 8.34423 9.33215 8.32512 9.4184C8.29501 9.51786 8.2383 9.60721 8.16112 9.6768C8.09173 9.75366 8.00266 9.8101 7.90352 9.84C7.81754 9.85913 7.72799 9.8547 7.64432 9.8272C7.40272 9.7592 7.08592 9.5504 6.71072 9.1752C6.27872 8.7432 5.86832 8.3376 5.50112 7.9752C4.89312 7.3736 4.40272 6.8872 4.12512 6.5912C4.01636 6.47579 3.86632 6.40813 3.70782 6.40302C3.54932 6.3979 3.39524 6.45574 3.27926 6.5639C3.16328 6.67205 3.09484 6.82173 3.08889 6.9802C3.08294 7.13867 3.13997 7.29305 3.24752 7.4096C3.58805 7.76575 3.9345 8.1162 4.28672 8.4608L4.28672 11.152L2.01312 8.8784C1.67632 8.5408 1.48592 8.0832 1.48592 7.6064V0.599999C1.48592 0.44087 1.4227 0.288257 1.31018 0.175735C1.19766 0.0632133 1.04505 0 0.885919 0C0.726789 0 0.574176 0.0632133 0.461655 0.175735C0.349133 0.288257 0.285919 0.44087 0.285919 0.599999V7.6056C0.285951 7.99965 0.363611 8.38983 0.514466 8.75386C0.665322 9.11789 0.886415 9.44863 1.16512 9.7272L4.28672 12.8488V14.2008C4.28693 14.6781 4.47667 15.1357 4.81421 15.4731C5.15175 15.8105 5.60947 16 6.08672 16H12.0867ZM7.17312 4.048C7.09552 3.8336 6.99552 3.6208 6.86592 3.4224C7.17162 3.2756 7.42964 3.04542 7.61024 2.75838C7.79084 2.47134 7.88668 2.13913 7.88672 1.8V1.2H10.2867V1.8C10.2867 2.27739 10.4764 2.73523 10.8139 3.07279C11.1515 3.41036 11.6093 3.6 12.0867 3.6H12.6867L12.6867 12.4H12.0867C11.6093 12.4 11.1515 12.5896 10.8139 12.9272C10.4764 13.2648 10.2867 13.7226 10.2867 14.2V14.8H7.88672V14.2C7.88672 13.7226 7.69708 13.2648 7.35951 12.9272C7.02194 12.5896 6.56411 12.4 6.08672 12.4H5.48672V9.6496L5.86192 10.024C6.28672 10.4488 6.78032 10.8304 7.31872 10.9824C7.6061 11.0675 7.91098 11.0744 8.20192 11.0024C8.38214 10.9556 8.55311 10.8785 8.70752 10.7744C9.15982 10.8361 9.62035 10.7863 10.049 10.6293C10.4776 10.4723 10.8614 10.2128 11.1668 9.87358C11.4723 9.53433 11.6901 9.12554 11.8014 8.68283C11.9127 8.24012 11.9141 7.77691 11.8054 7.33354C11.6968 6.89018 11.4814 6.4801 11.1779 6.13904C10.8745 5.79797 10.4923 5.53627 10.0646 5.37671C9.63694 5.21715 9.17672 5.16457 8.72406 5.22357C8.2714 5.28257 7.84003 5.45135 7.46752 5.7152C7.43792 5.168 7.36352 4.5736 7.17312 4.048ZM10.6867 8C10.6868 8.34853 10.5731 8.68754 10.3628 8.96551C10.1526 9.24348 9.8573 9.4452 9.52192 9.54C9.55277 9.3033 9.53425 9.06278 9.46752 8.8336C9.31632 8.2952 8.93552 7.8008 8.50992 7.3752L7.97792 6.8456C8.20417 6.62811 8.48939 6.48197 8.79808 6.42535C9.10677 6.36873 9.42529 6.40415 9.714 6.52719C10.0027 6.65023 10.2489 6.85546 10.4218 7.11733C10.5948 7.37921 10.6869 7.68616 10.6867 8ZM12.6867 14.2C12.6867 14.3591 12.6235 14.5117 12.511 14.6243C12.3985 14.7368 12.2458 14.8 12.0867 14.8H11.4867V14.2C11.4867 14.0409 11.5499 13.8883 11.6625 13.7757C11.775 13.6632 11.9276 13.6 12.0867 13.6H12.6867V14.2ZM6.68672 14.8H6.08672C5.92759 14.8 5.77498 14.7368 5.66245 14.6243C5.54993 14.5117 5.48672 14.3591 5.48672 14.2V13.6H6.08672C6.24585 13.6 6.39846 13.6632 6.51098 13.7757C6.6235 13.8883 6.68672 14.0409 6.68672 14.2V14.8ZM5.48672 2.4V1.8C5.48672 1.64087 5.54993 1.48826 5.66245 1.37574C5.77498 1.26321 5.92759 1.2 6.08672 1.2L6.68672 1.2V1.8C6.68672 1.95913 6.6235 2.11174 6.51098 2.22426C6.39846 2.33679 6.24585 2.4 6.08672 2.4H5.48672ZM11.4867 1.2H12.0867C12.2458 1.2 12.3985 1.26321 12.511 1.37574C12.6235 1.48826 12.6867 1.64087 12.6867 1.8V2.4H12.0867C11.9276 2.4 11.775 2.33679 11.6625 2.22426C11.5499 2.11174 11.4867 1.95913 11.4867 1.8V1.2Z" fill="#0E9F6E"/>
</svg>
