<svg width="538" height="318" viewBox="0 0 538 318" fill="none" xmlns="http://www.w3.org/2000/svg">
<path d="M293.033 70.4282H202.257C194.748 70.4282 188.66 76.514 188.66 84.0211V297.347C188.66 304.854 194.748 310.94 202.257 310.94H293.033C300.542 310.94 306.63 304.854 306.63 297.347V84.0211C306.63 76.514 300.542 70.4282 293.033 70.4282Z" fill="#292A2E"/>
<path d="M292.99 74.6729H202.3C197.143 74.6729 192.963 78.8517 192.963 84.0066V297.044C192.963 302.199 197.143 306.378 202.3 306.378H292.99C298.146 306.378 302.326 302.199 302.326 297.044V84.0066C302.326 78.8517 298.146 74.6729 292.99 74.6729Z" fill="white"/>
<path d="M225.246 72.9175H270.043V77.5513C270.043 78.2095 269.914 78.8613 269.662 79.4694C269.41 80.0776 269.041 80.6302 268.576 81.0957C268.11 81.5612 267.557 81.9305 266.949 82.1824C266.341 82.4344 265.689 82.5641 265.031 82.5641H230.259C228.929 82.5641 227.654 82.0361 226.714 81.0964C225.774 80.1566 225.246 78.8821 225.246 77.5531V72.9175Z" fill="#292A2E"/>
<path opacity="0.8" d="M273.585 222.101H221.705C218.648 222.101 216.17 224.578 216.17 227.634V242.492C216.17 245.548 218.648 248.025 221.705 248.025H273.585C276.641 248.025 279.12 245.548 279.12 242.492V227.634C279.12 224.578 276.641 222.101 273.585 222.101Z" fill="#367CFF"/>
<path d="M279.117 242.492V245.038C279.117 245.764 278.974 246.484 278.696 247.155C278.418 247.827 278.01 248.437 277.497 248.95C276.983 249.464 276.372 249.872 275.701 250.15C275.029 250.428 274.31 250.571 273.583 250.571H221.705C220.978 250.571 220.258 250.428 219.586 250.15C218.915 249.872 218.305 249.464 217.791 248.95C217.277 248.437 216.869 247.827 216.591 247.155C216.313 246.484 216.17 245.764 216.17 245.038V242.492C216.17 243.959 216.753 245.366 217.791 246.404C218.829 247.441 220.236 248.024 221.704 248.024H273.583C274.31 248.024 275.029 247.881 275.701 247.603C276.372 247.325 276.982 246.918 277.496 246.404C278.01 245.89 278.418 245.28 278.696 244.609C278.974 243.938 279.117 243.218 279.117 242.492Z" fill="#367CFF"/>
<path d="M244.186 242.721C243.969 242.721 243.759 242.644 243.594 242.503L237.656 237.416C237.473 237.259 237.359 237.035 237.341 236.795C237.322 236.554 237.4 236.316 237.557 236.133C237.714 235.949 237.937 235.836 238.178 235.817C238.418 235.799 238.657 235.876 238.84 236.033L244.109 240.548L256.37 227.137C256.533 226.959 256.76 226.853 257.001 226.842C257.242 226.831 257.477 226.917 257.655 227.079C257.833 227.242 257.939 227.469 257.95 227.71C257.961 227.951 257.876 228.186 257.713 228.364L244.858 242.425C244.773 242.518 244.669 242.593 244.553 242.644C244.438 242.695 244.312 242.721 244.186 242.721Z" fill="white"/>
<g opacity="0.5">
<path d="M287.574 154.766C287.574 158.886 283.568 162.324 282.36 166.041C281.109 169.897 282.285 175.021 279.95 178.229C277.592 181.469 272.335 181.923 269.094 184.281C265.886 186.615 263.842 191.486 259.987 192.737C256.268 193.944 251.768 191.246 247.645 191.246C243.523 191.246 239.022 193.945 235.304 192.737C231.447 191.486 229.405 186.615 226.197 184.281C222.956 181.923 217.699 181.469 215.341 178.229C213.006 175.021 214.182 169.895 212.931 166.041C211.723 162.323 207.717 158.885 207.717 154.766C207.717 150.646 211.723 147.207 212.931 143.491C214.182 139.637 213.006 134.51 215.341 131.303C217.699 128.063 222.956 127.608 226.197 125.251C229.405 122.916 231.449 118.046 235.304 116.795C239.023 115.587 243.523 118.286 247.645 118.286C251.767 118.286 256.268 115.586 259.987 116.795C263.844 118.046 265.886 122.916 269.094 125.251C272.335 127.608 277.592 128.063 279.95 131.303C282.285 134.51 281.109 139.637 282.36 143.49C283.568 147.207 287.574 150.645 287.574 154.766Z" fill="#367CFF"/>
</g>
<path d="M259.675 178.804H269.926V133.561H259.675V178.804Z" fill="#367CFF"/>
<path d="M251.486 143.64C249.485 143.64 247.53 143.047 245.866 141.936C244.203 140.825 242.907 139.246 242.141 137.398C241.375 135.551 241.175 133.518 241.565 131.556C241.956 129.595 242.919 127.793 244.334 126.379C245.748 124.965 247.55 124.002 249.512 123.612C251.474 123.222 253.508 123.422 255.356 124.187C257.205 124.952 258.784 126.248 259.896 127.911C261.007 129.574 261.6 131.529 261.6 133.529C261.597 136.21 260.531 138.78 258.634 140.675C256.738 142.571 254.167 143.637 251.486 143.64ZM251.486 124.509C249.701 124.509 247.957 125.038 246.473 126.029C244.989 127.02 243.832 128.429 243.149 130.077C242.467 131.725 242.288 133.539 242.636 135.289C242.984 137.038 243.843 138.646 245.105 139.907C246.367 141.169 247.975 142.028 249.725 142.376C251.476 142.724 253.29 142.545 254.939 141.863C256.587 141.18 257.997 140.024 258.988 138.54C259.98 137.057 260.509 135.313 260.509 133.529C260.506 131.137 259.555 128.845 257.863 127.153C256.171 125.462 253.878 124.511 251.486 124.509Z" fill="#367CFF"/>
<path d="M252.633 133.561C252.633 133.55 252.633 133.539 252.633 133.529C252.633 130.847 251.567 128.275 249.67 126.379C247.774 124.483 245.201 123.417 242.518 123.417C239.836 123.417 237.263 124.483 235.366 126.379C233.469 128.275 232.404 130.847 232.404 133.529C232.404 133.539 232.404 133.55 232.404 133.561H225.363V178.804H259.673V133.561H252.633ZM233.495 133.529C233.495 131.137 234.446 128.842 236.138 127.151C237.83 125.459 240.125 124.509 242.518 124.509C244.911 124.509 247.206 125.459 248.899 127.151C250.591 128.842 251.541 131.137 251.541 133.529C251.541 133.539 251.541 133.55 251.541 133.561H233.495C233.496 133.55 233.495 133.539 233.495 133.529Z" fill="white"/>
<path d="M254.301 154.288C254.301 147.82 249.088 142.578 242.658 142.578C236.228 142.578 231.016 147.82 231.016 154.288C231.016 160.133 235.273 164.977 240.839 165.856V157.673H237.883V154.288H240.839V151.708C240.839 148.773 242.577 147.152 245.237 147.152C246.511 147.152 247.843 147.381 247.843 147.381V150.262H246.375C244.929 150.262 244.477 151.165 244.477 152.091V154.288H247.706L247.19 157.673H244.477V165.856C250.043 164.977 254.301 160.133 254.301 154.288Z" fill="#1877F2"/>
<path d="M65.2636 310.55L64.477 315.533C64.3919 316.073 64.1181 316.565 63.7043 316.922C63.2905 317.279 62.7635 317.478 62.2169 317.483L42.1803 317.677C41.8925 317.68 41.6124 317.585 41.386 317.407C41.1595 317.23 41.0002 316.98 40.9342 316.7C40.8682 316.42 40.8994 316.126 41.0227 315.866C41.146 315.606 41.354 315.396 41.6127 315.27L53.6417 309.411L65.2636 310.55Z" fill="#E98862"/>
<path d="M88.7012 285.151C88.7012 285.151 88.5658 314.546 109.845 317.267L129.878 298.938L142.298 274.172L95.809 279.3L88.7012 285.151Z" fill="#262626"/>
<path d="M88.1296 283.549L88.0659 283.566C88.0659 283.566 87.8589 282.319 88.1296 283.549Z" fill="#333333"/>
<path d="M170.164 198.207C170.162 198.194 170.15 198.185 170.144 198.174L170.398 197.8C170.575 197.551 170.661 197.249 170.64 196.944C170.62 196.639 170.495 196.351 170.286 196.127C170.152 195.99 169.99 195.884 169.81 195.817C169.63 195.75 169.438 195.724 169.247 195.741C169.056 195.757 168.871 195.816 168.705 195.912C168.539 196.009 168.397 196.141 168.289 196.299L167.698 197.16C167.694 197.157 167.694 197.15 167.69 197.147C167.685 197.144 167.676 197.147 167.67 197.142C167.778 196.87 167.79 196.568 167.705 196.288C167.619 196.007 167.441 195.764 167.199 195.598C166.602 195.129 165.778 195.569 165.396 196.126L161.879 201.072L162.206 199.355C162.276 199.021 162.217 198.674 162.041 198.383C161.865 198.091 161.585 197.877 161.257 197.784C161.086 197.742 160.909 197.735 160.735 197.764C160.562 197.793 160.396 197.857 160.248 197.952C160.1 198.047 159.973 198.171 159.874 198.317C159.776 198.463 159.708 198.627 159.676 198.8L157.896 208.178C157.687 209.278 157.916 210.416 158.533 211.35C159.15 212.285 160.107 212.942 161.201 213.182C162.47 213.46 163.793 213.353 165.001 212.875C166.209 212.397 167.246 211.569 167.98 210.497C167.98 210.497 170.636 197.773 170.164 198.207Z" fill="#E98862"/>
<path d="M167.102 184.015L168.171 184.119C168.282 184.124 168.39 184.151 168.489 184.199C168.589 184.246 168.677 184.314 168.75 184.397C168.823 184.48 168.878 184.576 168.912 184.681C168.947 184.786 168.959 184.897 168.95 185.007L166.226 207.026C166.185 207.255 166.06 207.459 165.874 207.599C165.689 207.739 165.458 207.803 165.227 207.779L164.002 207.688L167.102 184.015Z" fill="#292A2E"/>
<path d="M164.196 207.712L161.927 207.54C161.826 207.538 161.726 207.515 161.634 207.473C161.542 207.431 161.459 207.37 161.391 207.295C161.324 207.219 161.272 207.131 161.24 207.035C161.207 206.938 161.195 206.837 161.204 206.736L163.927 184.525C163.963 184.318 164.077 184.132 164.245 184.006C164.413 183.879 164.623 183.821 164.832 183.844L167.101 184.015C167.203 184.017 167.302 184.04 167.395 184.082C167.487 184.125 167.569 184.185 167.637 184.261C167.705 184.336 167.757 184.425 167.789 184.521C167.821 184.617 167.833 184.718 167.825 184.819L165.102 207.029C165.066 207.237 164.952 207.422 164.784 207.549C164.615 207.676 164.405 207.734 164.196 207.712Z" fill="#292A2E"/>
<path d="M163.965 207.254L161.956 207.089C161.886 207.087 161.818 207.071 161.754 207.042C161.691 207.013 161.634 206.972 161.588 206.92C161.541 206.868 161.506 206.807 161.483 206.741C161.461 206.675 161.453 206.606 161.459 206.536L164.159 184.725C164.184 184.583 164.262 184.456 164.378 184.369C164.493 184.282 164.637 184.242 164.781 184.258L166.764 184.425C166.834 184.426 166.902 184.442 166.965 184.471C167.029 184.5 167.085 184.542 167.132 184.593C167.178 184.645 167.214 184.706 167.236 184.772C167.258 184.838 167.267 184.908 167.261 184.977L164.587 206.786C164.562 206.928 164.484 207.056 164.369 207.143C164.253 207.229 164.109 207.269 163.965 207.254Z" fill="white"/>
<path d="M166.261 185.158L165.381 185.092C165.344 185.091 165.307 185.082 165.273 185.067C165.239 185.051 165.208 185.029 165.183 185.001C165.158 184.973 165.139 184.941 165.127 184.905C165.116 184.87 165.111 184.832 165.114 184.795L165.197 184.119L166.678 184.231L166.595 184.907C166.581 184.983 166.539 185.052 166.477 185.098C166.415 185.145 166.338 185.166 166.261 185.158Z" fill="#292A2E"/>
<path d="M162.512 200.568C162.652 200.341 162.86 200.162 163.106 200.057C163.352 199.952 163.624 199.926 163.886 199.983C163.886 199.959 163.893 199.936 163.906 199.917C163.92 199.902 163.937 199.891 163.956 199.885C163.975 199.879 163.996 199.878 164.015 199.883L163.178 199.168C162.927 198.963 162.758 198.674 162.704 198.354C162.649 198.034 162.712 197.705 162.881 197.428C163.057 197.16 163.326 196.967 163.636 196.886C163.946 196.805 164.275 196.842 164.56 196.99C164.56 196.977 164.568 196.965 164.571 196.953L164.227 196.66C163.991 196.465 163.829 196.195 163.77 195.895C163.71 195.596 163.756 195.285 163.899 195.015C163.992 194.847 164.122 194.702 164.278 194.591C164.434 194.479 164.613 194.404 164.801 194.37C164.99 194.336 165.184 194.344 165.369 194.394C165.554 194.444 165.726 194.534 165.872 194.659L166.667 195.336C166.67 195.331 166.667 195.325 166.672 195.321C166.676 195.317 166.685 195.316 166.69 195.311C166.514 195.076 166.424 194.789 166.433 194.495C166.442 194.202 166.551 193.921 166.741 193.698C167.194 193.089 168.105 193.298 168.619 193.736L170.13 195.242C170.363 195.475 170.535 195.761 170.631 196.076C170.727 196.391 170.743 196.725 170.678 197.047C170.122 199.841 168.495 207.104 166.855 205.704L162.816 202.262C162.582 202.055 162.425 201.775 162.37 201.468C162.314 201.161 162.364 200.844 162.512 200.568Z" fill="#E98862"/>
<path d="M154.552 207.405L148.618 239.507L133.449 216.136L121.859 229.746L146.03 262.751L146.235 262.943C147.479 264.074 148.991 264.87 150.629 265.256C152.266 265.642 153.975 265.604 155.593 265.147C157.212 264.69 158.688 263.829 159.882 262.644C161.076 261.459 161.948 259.99 162.417 258.375L172.372 210.263L154.552 207.405Z" fill="#367CFF"/>
<path d="M147.795 242.664C147.779 242.664 147.762 242.662 147.747 242.658C147.7 242.645 147.661 242.614 147.637 242.573C147.613 242.531 147.607 242.481 147.62 242.435L148.443 239.459C148.456 239.412 148.486 239.373 148.528 239.349C148.57 239.325 148.62 239.319 148.666 239.332C148.713 239.345 148.753 239.375 148.776 239.417C148.8 239.459 148.806 239.509 148.793 239.555L147.97 242.531C147.96 242.569 147.937 242.603 147.905 242.627C147.874 242.651 147.835 242.664 147.795 242.664Z" fill="#0C0C0C"/>
<path d="M83.8413 187.375C83.8413 187.375 82.8866 195.919 80.8189 198.941C74.8659 207.644 72.8066 217.642 78.1313 223.152C83.456 228.661 118.918 230.321 122.147 218.341C124.865 208.255 120.059 206.942 119.255 198.485C118.891 194.659 117.777 186.62 117.777 186.62" fill="#0A0A0A"/>
<path d="M115.869 212.307C115.808 212.311 117.407 223.498 104.368 225.165C95.3413 226.321 90.2389 217.541 90.0352 217.583C90.9517 217.183 92.4626 216.496 92.8843 216.241C94.4797 215.277 95.7019 214.065 95.596 211.255C95.5349 209.636 93.4494 201.712 93.262 200.1L107.532 200.349C108.028 203.735 108.284 211.768 113.244 212.184C114.068 212.251 114.949 212.288 115.869 212.307Z" fill="#E98862"/>
<path opacity="0.52" d="M109.633 209.619C109.278 208.974 108.995 208.292 108.788 207.585C108.302 205.976 107.993 204.319 107.868 202.643C105.018 202.836 102.17 202.227 99.6489 200.884C99.5871 201.872 99.0304 206.245 99.5998 207.055C100.673 208.586 104.665 210.636 109.633 209.619Z" fill="#0C0C0C"/>
<path d="M106.013 208.435C100.502 208.72 93.5016 206.209 92.358 198.839L91.3262 192.189C90.1823 184.82 93.1272 178.245 100.068 177.168C107.01 176.091 113.125 181.261 114.269 188.631L114.726 191.575C115.165 194.403 115.844 207.926 106.013 208.435Z" fill="#E98862"/>
<path opacity="0.52" d="M108.532 198.353H108.545C108.826 198.308 109.105 198.247 109.379 198.171C109.789 198.054 110.328 197.856 110.271 197.487C110.206 197.067 108.352 192.715 108.14 192.22C108.131 192.199 108.118 192.179 108.101 192.163C108.085 192.146 108.065 192.134 108.043 192.125C108.022 192.116 107.999 192.112 107.975 192.112C107.952 192.112 107.929 192.117 107.907 192.126C107.886 192.135 107.866 192.148 107.85 192.165C107.833 192.182 107.821 192.201 107.812 192.223C107.803 192.245 107.799 192.268 107.799 192.291C107.799 192.315 107.804 192.338 107.813 192.359C108.604 194.214 109.875 197.259 109.919 197.542C109.869 197.67 109.187 197.896 108.489 198.004C108.444 198.011 108.403 198.035 108.375 198.072C108.347 198.108 108.334 198.154 108.34 198.2C108.345 198.245 108.368 198.287 108.403 198.316C108.439 198.345 108.484 198.36 108.53 198.356L108.532 198.353Z" fill="#0C0C0C"/>
<path opacity="0.52" d="M107.404 201.481C108.535 201.372 109.623 200.999 110.583 200.393C110.605 200.382 110.624 200.366 110.639 200.348C110.655 200.329 110.666 200.307 110.673 200.284C110.68 200.26 110.682 200.236 110.678 200.212C110.675 200.188 110.667 200.164 110.655 200.144C110.642 200.123 110.625 200.105 110.606 200.091C110.586 200.076 110.563 200.067 110.54 200.061C110.516 200.056 110.491 200.056 110.467 200.061C110.443 200.066 110.421 200.076 110.401 200.09C108.327 201.345 106.302 201.492 104.545 200.515C104.51 200.494 104.474 200.475 104.436 200.459C104.393 200.441 104.344 200.442 104.301 200.46C104.257 200.479 104.223 200.514 104.206 200.557C104.189 200.601 104.189 200.65 104.208 200.693C104.226 200.736 104.261 200.77 104.305 200.788C104.319 200.794 104.341 200.807 104.373 200.824C105.296 201.339 106.351 201.568 107.404 201.481Z" fill="#0C0C0C"/>
<path d="M85.7303 194.31L91.9519 193.381C96.6977 191.642 98.3826 183.585 98.3826 183.585C98.3826 183.585 103.887 189.315 117.777 186.62C117.777 186.62 115.65 167.31 95.0994 172.223C88.4729 173.808 83.5408 180.267 83.8347 189.128C84.0403 195.337 85.7303 194.31 85.7303 194.31Z" fill="#0A0A0A"/>
<path d="M93.1369 201.018C91.0267 201.345 88.9674 199.354 88.6399 197.246C88.3125 195.137 89.8424 193.709 91.9508 193.381L93.257 194.626L94.9495 200.736L93.1369 201.018Z" fill="#E98862"/>
<path d="M109.518 188.756C110.143 188.382 110.856 188.182 111.585 188.178C111.943 188.174 112.3 188.224 112.644 188.326C112.984 188.425 113.311 188.567 113.616 188.749C113.657 188.773 113.686 188.812 113.699 188.857C113.712 188.903 113.707 188.952 113.685 188.993C113.663 189.035 113.626 189.067 113.581 189.082C113.536 189.098 113.487 189.096 113.444 189.076L113.432 189.07C113.149 188.919 112.849 188.805 112.538 188.729C112.23 188.652 111.913 188.623 111.597 188.641C110.97 188.673 110.362 188.87 109.835 189.212L109.818 189.223C109.757 189.265 109.682 189.28 109.61 189.266C109.537 189.252 109.474 189.21 109.432 189.149C109.391 189.087 109.376 189.012 109.39 188.94C109.404 188.868 109.446 188.804 109.507 188.763L109.518 188.756Z" fill="#0C0C0C"/>
<path d="M103.96 189.872C103.356 189.702 102.717 189.696 102.109 189.853C101.801 189.93 101.507 190.052 101.236 190.217C100.962 190.382 100.709 190.581 100.485 190.809L100.475 190.819C100.457 190.836 100.437 190.85 100.415 190.859C100.392 190.868 100.368 190.873 100.344 190.873C100.319 190.873 100.295 190.868 100.273 190.859C100.25 190.85 100.23 190.836 100.213 190.819C100.195 190.802 100.182 190.782 100.172 190.759C100.163 190.737 100.158 190.713 100.158 190.688C100.158 190.664 100.163 190.64 100.172 190.617C100.181 190.595 100.195 190.574 100.212 190.557C100.449 190.293 100.718 190.06 101.013 189.864C101.31 189.664 101.636 189.51 101.98 189.406C102.676 189.192 103.417 189.169 104.125 189.341C104.196 189.358 104.258 189.404 104.296 189.467C104.334 189.53 104.345 189.606 104.327 189.678C104.309 189.749 104.264 189.811 104.2 189.849C104.137 189.887 104.062 189.898 103.99 189.88L103.979 189.877L103.96 189.872Z" fill="#0C0C0C"/>
<path opacity="0.52" d="M107.589 203.151C107.794 203.135 107.997 203.101 108.196 203.05C108.24 203.038 108.278 203.008 108.301 202.968C108.324 202.929 108.33 202.881 108.319 202.837C108.308 202.792 108.279 202.753 108.24 202.729C108.201 202.705 108.154 202.697 108.109 202.707C106.912 203.008 106.254 202.535 106.225 202.514C106.207 202.5 106.185 202.49 106.163 202.484C106.14 202.478 106.117 202.477 106.094 202.48C106.071 202.483 106.049 202.491 106.029 202.503C106.009 202.515 105.991 202.53 105.977 202.549C105.949 202.587 105.937 202.634 105.943 202.68C105.95 202.727 105.974 202.769 106.012 202.797C106.481 203.094 107.038 203.219 107.589 203.151Z" fill="#0C0C0C"/>
<path d="M91.9678 193.303L91.9121 193.13C99.8437 190.577 98.1791 182.829 98.1613 182.751L98.3389 182.71C98.3567 182.79 100.057 190.7 91.9678 193.303Z" fill="#0C0C0C"/>
<path opacity="0.1" d="M102.953 198.708C103.861 198.641 104.557 198.047 104.508 197.381C104.458 196.715 103.682 196.23 102.775 196.298C101.867 196.365 101.171 196.959 101.22 197.625C101.27 198.29 102.046 198.776 102.953 198.708Z" fill="#0C0C0C"/>
<path opacity="0.1" d="M112.612 196.488C112.663 197.152 113.439 197.637 114.347 197.571C114.503 197.559 114.659 197.531 114.81 197.487C114.887 196.701 114.924 195.943 114.932 195.24C114.684 195.166 114.425 195.139 114.168 195.16C113.259 195.227 112.563 195.821 112.612 196.488Z" fill="#0C0C0C"/>
<path d="M112.609 192.109C113.087 192.109 113.475 191.722 113.475 191.244C113.475 190.767 113.087 190.379 112.609 190.379C112.132 190.379 111.744 190.767 111.744 191.244C111.744 191.722 112.132 192.109 112.609 192.109Z" fill="#0C0C0C"/>
<path d="M104.045 192.974C104.523 192.974 104.91 192.587 104.91 192.11C104.91 191.632 104.523 191.245 104.045 191.245C103.567 191.245 103.18 191.632 103.18 192.11C103.18 192.587 103.567 192.974 104.045 192.974Z" fill="#0C0C0C"/>
<path d="M136.811 233.366C137.381 238.199 141.488 268.24 142.299 274.171L88.7019 285.15C87.3176 279.935 81.2277 257.137 77.9641 247.052C74.8494 237.429 71.906 232.533 72.6605 227.862C73.541 222.411 80.7424 220.227 85.4082 218.595C88.2573 217.598 92.6062 216.412 92.6062 216.412C92.6062 216.412 94.5265 223.883 103.511 222.48C115.742 220.57 113.182 212.197 113.242 212.185C115.205 211.785 124.994 211.118 128.07 212.181C136.45 215.073 135.606 223.123 136.811 233.366Z" fill="#367CFF"/>
<path d="M137.368 236.615L137.008 236.667L139.723 255.331L140.084 255.279L137.368 236.615Z" fill="#0C0C0C"/>
<path d="M68.0821 313.701L50.5566 308.825C58.6647 279.7 71.8274 231.796 72.6311 227.247C72.5643 227.677 72.5354 228.113 72.5449 228.548L90.7347 228.291C90.7602 230.082 90.7755 231.165 79.266 273.193C73.7404 293.372 68.1381 313.5 68.0821 313.701Z" fill="#367CFF"/>
<path d="M85.9531 245.797L82.2793 262.34L82.6345 262.419L86.3083 245.876L85.9531 245.797Z" fill="#0C0C0C"/>
<path d="M125.002 279.073C125.002 279.073 172.792 254.391 186.03 249.826C189.459 248.644 195.724 247.555 201.095 250.694C217.117 260.06 259.426 298.191 259.426 298.191L249.148 313.544L193.256 273.53C193.256 273.53 166.476 292.63 142.299 301.03L117.896 298.148L125.002 279.073Z" fill="#262626"/>
<path d="M265.707 302.633C265.707 302.633 274.267 301.242 274.976 293.289C275.685 285.337 281.983 287.252 281.983 287.252L281.086 317.695L265.869 317.247L265.707 302.633Z" fill="#367CFF"/>
<path d="M109.846 317.265C109.846 317.265 107.29 317.094 113.093 317.285C134.741 317.999 270.669 317.642 270.669 317.642L270.738 297.258L109.892 285.847L109.846 317.265Z" fill="#262626"/>
<path d="M167.665 290.06C167.657 290.061 167.65 290.061 167.642 290.06L151.788 288.063C151.74 288.057 151.697 288.032 151.667 287.994C151.637 287.956 151.624 287.907 151.63 287.859C151.633 287.836 151.64 287.813 151.652 287.792C151.664 287.771 151.679 287.752 151.698 287.738C151.717 287.723 151.739 287.712 151.762 287.706C151.785 287.7 151.81 287.699 151.833 287.702L167.687 289.7C167.736 289.703 167.781 289.725 167.813 289.761C167.845 289.797 167.861 289.844 167.858 289.893C167.855 289.941 167.833 289.986 167.797 290.018C167.761 290.05 167.713 290.066 167.665 290.063V290.06Z" fill="white"/>
<path d="M258.035 296.399H258.022L219.929 293.701C219.881 293.697 219.836 293.675 219.804 293.639C219.773 293.602 219.757 293.555 219.76 293.507C219.764 293.459 219.786 293.414 219.822 293.382C219.859 293.35 219.906 293.335 219.954 293.338L258.047 296.036C258.071 296.037 258.095 296.042 258.117 296.052C258.138 296.062 258.158 296.076 258.174 296.094C258.191 296.111 258.203 296.132 258.212 296.154C258.22 296.176 258.224 296.2 258.223 296.224C258.222 296.248 258.217 296.271 258.207 296.293C258.197 296.315 258.183 296.335 258.165 296.351C258.148 296.367 258.127 296.38 258.105 296.388C258.082 296.397 258.059 296.4 258.035 296.4L258.035 296.399Z" fill="white"/>
<path d="M382.829 318H36.2683C36.2322 318.001 36.1963 317.995 36.1626 317.982C36.129 317.969 36.0982 317.95 36.0723 317.925C36.0463 317.9 36.0257 317.87 36.0116 317.837C35.9975 317.804 35.9902 317.768 35.9902 317.732C35.9902 317.696 35.9975 317.66 36.0116 317.627C36.0257 317.594 36.0463 317.564 36.0723 317.539C36.0982 317.514 36.129 317.494 36.1626 317.482C36.1963 317.469 36.2322 317.463 36.2683 317.464H382.829C382.865 317.463 382.901 317.469 382.934 317.482C382.968 317.494 382.999 317.514 383.025 317.539C383.051 317.564 383.071 317.594 383.085 317.627C383.099 317.66 383.107 317.696 383.107 317.732C383.107 317.768 383.099 317.804 383.085 317.837C383.071 317.87 383.051 317.9 383.025 317.925C382.999 317.95 382.968 317.969 382.934 317.982C382.901 317.995 382.865 318.001 382.829 318Z" fill="#292A2E"/>
<path d="M28.1426 270.266C28.0461 270.266 27.9536 270.227 27.8854 270.159C27.3727 269.647 26.537 260.245 24.2863 232.251C23.3655 220.797 22.4955 209.978 21.8606 203.403C21.8155 202.933 21.6333 202.878 21.5736 202.86C20.7055 202.602 18.0615 204.681 16.5865 206.506C16.5258 206.581 16.4378 206.629 16.3418 206.639C16.2458 206.649 16.1497 206.621 16.0746 206.56C15.9995 206.499 15.9516 206.411 15.9415 206.315C15.9313 206.219 15.9597 206.123 16.0204 206.048C16.9962 204.842 20.1746 201.684 21.7828 202.163C22.107 202.261 22.5105 202.543 22.5854 203.333C23.2207 209.914 24.0906 220.736 25.0118 232.193C26.3795 249.204 27.929 268.476 28.438 269.689C28.4771 269.744 28.5005 269.808 28.5055 269.875C28.5105 269.941 28.497 270.008 28.4664 270.068C28.4359 270.127 28.3895 270.177 28.3324 270.212C28.2752 270.247 28.2095 270.266 28.1426 270.266Z" fill="#494949"/>
<path d="M20.9263 215.467C26.9637 210.629 28.9647 203.099 25.3958 198.648C21.8268 194.197 14.0393 194.511 8.00193 199.349C1.96456 204.186 -0.0364598 211.717 3.53251 216.168C7.10149 220.619 14.889 220.305 20.9263 215.467Z" fill="#0CBC8B"/>
<path opacity="0.2" d="M20.9263 215.467C26.9637 210.629 28.9647 203.099 25.3958 198.648C21.8268 194.197 14.0393 194.511 8.00193 199.349C1.96456 204.186 -0.0364598 211.717 3.53251 216.168C7.10149 220.619 14.889 220.305 20.9263 215.467Z" fill="white"/>
<path d="M5.22517 217.3C5.19057 217.3 5.15668 217.29 5.12746 217.272C5.09824 217.253 5.0749 217.227 5.0602 217.195C5.04549 217.164 5.04005 217.129 5.04445 217.095C5.04886 217.061 5.06295 217.028 5.08509 217.002L22.2911 196.26C22.3064 196.241 22.3251 196.226 22.3463 196.215C22.3674 196.204 22.3905 196.197 22.4143 196.195C22.4382 196.192 22.4622 196.195 22.485 196.202C22.5078 196.209 22.5291 196.221 22.5475 196.236C22.5659 196.251 22.581 196.27 22.5922 196.291C22.6034 196.312 22.6102 196.335 22.6125 196.359C22.6147 196.383 22.6122 196.407 22.6051 196.43C22.598 196.452 22.5865 196.474 22.5713 196.492L5.36452 217.234C5.34753 217.255 5.32624 217.271 5.30216 217.283C5.27808 217.294 5.2518 217.3 5.22517 217.3Z" fill="white"/>
<path d="M31.8948 265.818C31.8541 265.819 31.8138 265.812 31.7755 265.798C31.6844 265.766 31.6097 265.7 31.5676 265.613C31.5256 265.526 31.5197 265.426 31.5513 265.335L38.0145 246.754C38.2047 246.208 38.529 245.719 38.9576 245.33C39.3862 244.942 39.9053 244.668 40.4675 244.532C41.0297 244.396 41.617 244.404 42.1755 244.554C42.734 244.704 43.246 244.992 43.6644 245.391L47.0812 248.654C47.117 248.687 47.1459 248.726 47.1661 248.77C47.1864 248.814 47.1977 248.862 47.1994 248.91C47.201 248.959 47.1929 249.007 47.1756 249.052C47.1583 249.098 47.1322 249.139 47.0987 249.174C47.0652 249.209 47.025 249.237 46.9805 249.256C46.9361 249.276 46.8882 249.286 46.8397 249.286C46.7912 249.287 46.7432 249.278 46.6983 249.259C46.6534 249.241 46.6126 249.214 46.5784 249.18L43.1616 245.916C42.8313 245.601 42.4271 245.374 41.9862 245.256C41.5453 245.137 41.0817 245.131 40.6379 245.239C40.1941 245.346 39.7843 245.562 39.4459 245.869C39.1076 246.175 38.8516 246.562 38.7014 246.993L32.2386 265.574C32.2138 265.645 32.1674 265.707 32.1058 265.751C32.0441 265.795 31.9704 265.818 31.8948 265.818Z" fill="#494949"/>
<path d="M56.6286 258.942C61.1029 255.401 60.837 247.615 56.0347 241.549C51.2324 235.484 43.7123 233.438 39.2381 236.978C34.7638 240.519 35.0297 248.305 39.832 254.371C44.6342 260.436 52.1543 262.482 56.6286 258.942Z" fill="#0CBC8B"/>
<path d="M25.2072 269.08C25.1255 269.08 25.0461 269.053 24.9819 269.002C24.9178 268.951 24.8726 268.881 24.8536 268.801L14.0074 223.466C13.9333 223.157 13.7754 222.874 13.551 222.649C13.3267 222.424 13.0446 222.265 12.7357 222.19C12.4269 222.115 12.1033 222.126 11.8005 222.223C11.4977 222.32 11.2275 222.498 11.0196 222.738L7.67632 226.598C7.64505 226.634 7.60696 226.664 7.56424 226.685C7.52152 226.706 7.47499 226.719 7.42731 226.723C7.37964 226.726 7.33175 226.72 7.28639 226.705C7.24103 226.69 7.19909 226.666 7.16294 226.635C7.1268 226.604 7.09717 226.566 7.07574 226.523C7.05431 226.48 7.0415 226.434 7.03805 226.386C7.03461 226.338 7.04061 226.291 7.05566 226.245C7.07072 226.2 7.09457 226.158 7.12584 226.122L10.4691 222.259C10.7648 221.918 11.149 221.665 11.5794 221.527C12.0098 221.39 12.4698 221.374 12.9087 221.481C13.3476 221.588 13.7484 221.814 14.0672 222.134C14.3859 222.454 14.6102 222.856 14.7154 223.295L25.5612 268.631C25.5837 268.725 25.5679 268.824 25.5174 268.906C25.4669 268.988 25.3859 269.047 25.292 269.069C25.2643 269.076 25.2358 269.08 25.2072 269.08Z" fill="#494949"/>
<path d="M21.2064 236.672C22.5249 229.05 19.0355 222.083 13.4127 221.111C7.78983 220.139 2.16281 225.53 0.844334 233.152C-0.474138 240.774 3.01522 247.741 8.63805 248.713C14.2609 249.685 19.8879 244.294 21.2064 236.672Z" fill="#0CBC8B"/>
<path d="M28.1436 270.266C28.1287 270.266 28.1137 270.265 28.0989 270.263C28.0031 270.251 27.9159 270.202 27.8565 270.126C27.7971 270.05 27.7703 269.953 27.782 269.858L34.7079 213.642C34.7833 213.029 35.0341 212.452 35.43 211.978C35.826 211.505 36.3503 211.156 36.9399 210.973C37.5295 210.791 38.1593 210.782 38.7536 210.949C39.3479 211.116 39.8814 211.451 40.2898 211.913L48.2061 220.877C48.27 220.949 48.3025 221.044 48.2965 221.14C48.2905 221.236 48.2465 221.326 48.1741 221.39C48.1383 221.422 48.0965 221.446 48.0513 221.461C48.0061 221.477 47.9583 221.483 47.9106 221.48C47.8143 221.474 47.7242 221.43 47.6604 221.358L39.7441 212.395C39.4284 212.037 39.0161 211.779 38.5569 211.65C38.0976 211.521 37.6109 211.528 37.1552 211.669C36.6996 211.81 36.2944 212.079 35.9884 212.445C35.6823 212.811 35.4885 213.257 35.4301 213.731L28.5046 269.946C28.4937 270.034 28.4511 270.115 28.3846 270.174C28.3181 270.233 28.2324 270.266 28.1436 270.266Z" fill="#494949"/>
<path d="M56.3249 225.857C59.0869 220.865 55.8372 213.784 49.0664 210.039C42.2956 206.295 34.5678 207.307 31.8058 212.299C29.0437 217.29 32.2935 224.372 39.0642 228.116C45.835 231.86 53.5629 230.849 56.3249 225.857Z" fill="#0CBC8B"/>
<path opacity="0.2" d="M56.6286 258.942C61.1029 255.401 60.837 247.615 56.0347 241.549C51.2324 235.484 43.7123 233.438 39.2381 236.978C34.7638 240.519 35.0297 248.305 39.832 254.371C44.6342 260.436 52.1543 262.482 56.6286 258.942Z" fill="white"/>
<path opacity="0.5" d="M21.2064 236.672C22.5249 229.05 19.0355 222.083 13.4127 221.111C7.78983 220.139 2.16281 225.53 0.844334 233.152C-0.474138 240.774 3.01522 247.741 8.63805 248.713C14.2609 249.685 19.8879 244.294 21.2064 236.672Z" fill="white"/>
<path opacity="0.5" d="M56.3249 225.857C59.0869 220.865 55.8372 213.784 49.0664 210.039C42.2956 206.295 34.5678 207.307 31.8058 212.299C29.0437 217.29 32.2935 224.372 39.0642 228.116C45.835 231.86 53.5629 230.849 56.3249 225.857Z" fill="white"/>
<path d="M37.001 317.964H19.2838L16.3477 261.295H39.9368L37.001 317.964Z" fill="#292A2E"/>
<path opacity="0.3" d="M37.001 317.964H19.2838L16.3477 261.295H39.9368L37.001 317.964Z" fill="white"/>
<path d="M56.6279 259.121C56.6004 259.121 56.5734 259.115 56.5487 259.103C56.524 259.091 56.5023 259.074 56.4852 259.053L39.094 237.089C39.0792 237.07 39.0682 237.049 39.0616 237.026C39.0551 237.003 39.0531 236.979 39.0559 236.955C39.0587 236.931 39.0661 236.908 39.0777 236.887C39.0893 236.866 39.1049 236.848 39.1237 236.833C39.1424 236.818 39.1638 236.807 39.1868 236.801C39.2098 236.794 39.2339 236.792 39.2576 236.795C39.2813 236.798 39.3043 236.805 39.3252 236.817C39.346 236.829 39.3644 236.844 39.3793 236.863L56.7705 258.827C56.7916 258.854 56.8049 258.886 56.8086 258.92C56.8123 258.954 56.8064 258.988 56.7915 259.019C56.7766 259.05 56.7534 259.075 56.7244 259.094C56.6955 259.112 56.662 259.121 56.6279 259.121Z" fill="white"/>
<path d="M55.1686 227.616C55.1299 227.616 55.0922 227.603 55.0613 227.58L32.8071 211.336C32.7878 211.322 32.7715 211.304 32.759 211.283C32.7466 211.263 32.7383 211.24 32.7346 211.217C32.7309 211.193 32.7319 211.169 32.7376 211.146C32.7432 211.123 32.7533 211.101 32.7674 211.081C32.7815 211.062 32.7993 211.046 32.8197 211.033C32.8401 211.021 32.8628 211.013 32.8864 211.009C32.91 211.005 32.9341 211.006 32.9573 211.012C32.9806 211.018 33.0024 211.028 33.0218 211.042L55.276 227.289C55.3064 227.312 55.3289 227.343 55.3403 227.38C55.3518 227.416 55.3515 227.455 55.3397 227.491C55.3279 227.527 55.305 227.559 55.2743 227.581C55.2436 227.604 55.2067 227.616 55.1686 227.616Z" fill="white"/>
<path d="M7.73463 248.476C7.71879 248.476 7.70301 248.474 7.68769 248.47C7.64108 248.457 7.60134 248.427 7.57719 248.385C7.55303 248.343 7.54645 248.294 7.55889 248.247L14.6431 221.713C14.656 221.667 14.6865 221.627 14.728 221.603C14.7695 221.579 14.8188 221.572 14.8654 221.584C14.912 221.596 14.9517 221.627 14.9759 221.668C15 221.71 15.0066 221.76 14.9942 221.806L7.91217 248.341C7.90182 248.38 7.87875 248.414 7.8466 248.439C7.81444 248.463 7.77506 248.476 7.73463 248.476Z" fill="white"/>
<path d="M318.515 252.508C318.353 252.508 318.197 252.443 318.082 252.328C317.968 252.214 317.903 252.058 317.903 251.896V247.116C317.903 244.476 316.854 241.944 314.987 240.078C313.12 238.211 310.587 237.163 307.947 237.163C305.306 237.163 302.774 238.211 300.907 240.078C299.039 241.944 297.99 244.476 297.99 247.116V251.896C297.99 252.058 297.926 252.214 297.811 252.329C297.696 252.443 297.541 252.508 297.378 252.508C297.216 252.508 297.06 252.443 296.945 252.329C296.83 252.214 296.766 252.058 296.766 251.896V247.116C296.757 245.643 297.04 244.182 297.599 242.819C298.157 241.455 298.979 240.216 300.018 239.171C301.057 238.126 302.292 237.297 303.653 236.731C305.014 236.166 306.473 235.875 307.947 235.875C309.42 235.875 310.879 236.166 312.24 236.731C313.601 237.297 314.836 238.126 315.875 239.171C316.914 240.216 317.737 241.455 318.295 242.819C318.853 244.182 319.136 245.643 319.127 247.116V251.896C319.127 252.058 319.063 252.214 318.948 252.329C318.833 252.443 318.677 252.508 318.515 252.508Z" fill="#494945"/>
<path d="M333.018 247.765H320.135V317.277H333.018V247.765Z" fill="#0CBC8B"/>
<path opacity="0.21" d="M333.018 247.765H320.135V317.277H333.018V247.765Z" fill="#0A0A0A"/>
<path d="M320.134 247.765H269.99V317.277H320.134V247.765Z" fill="#0CBC8B"/>
<path d="M305.632 252.508C305.47 252.508 305.314 252.443 305.199 252.328C305.085 252.214 305.02 252.058 305.02 251.896V247.116C305.028 245.804 304.776 244.503 304.28 243.288C303.783 242.074 303.051 240.969 302.125 240.039C301.2 239.108 300.1 238.369 298.888 237.865C297.676 237.361 296.376 237.102 295.064 237.102C293.751 237.102 292.452 237.361 291.24 237.865C290.028 238.369 288.927 239.108 288.002 240.039C287.077 240.969 286.345 242.074 285.848 243.288C285.351 244.503 285.099 245.804 285.107 247.116V251.896C285.109 251.977 285.095 252.059 285.065 252.135C285.035 252.211 284.99 252.28 284.933 252.338C284.876 252.397 284.808 252.443 284.733 252.475C284.658 252.506 284.577 252.523 284.495 252.523C284.413 252.523 284.333 252.506 284.257 252.475C284.182 252.443 284.114 252.397 284.057 252.338C284 252.28 283.955 252.211 283.925 252.135C283.895 252.059 283.881 251.977 283.883 251.896V247.116C283.875 245.643 284.158 244.182 284.716 242.819C285.274 241.455 286.096 240.216 287.135 239.171C288.174 238.126 289.41 237.297 290.77 236.731C292.131 236.166 293.59 235.875 295.064 235.875C296.537 235.875 297.997 236.166 299.357 236.731C300.718 237.297 301.953 238.126 302.992 239.171C304.031 240.216 304.854 241.455 305.412 242.819C305.97 244.182 306.253 245.643 306.245 247.116V251.896C306.245 252.058 306.18 252.214 306.065 252.329C305.95 252.443 305.795 252.508 305.632 252.508Z" fill="#494945"/>
<path opacity="0.11" d="M320.135 247.765L326.576 254.701L333.018 247.765H320.135Z" fill="#0A0A0A"/>
<path opacity="0.11" d="M320.135 317.277L326.576 310.341L333.018 317.277H320.135Z" fill="#0A0A0A"/>
<path d="M461.019 0H354.318C345.492 0 338.336 7.15336 338.336 15.9775V266.729C338.336 275.553 345.492 282.706 354.318 282.706H461.019C469.846 282.706 477.002 275.553 477.002 266.729V15.9775C477.002 7.15336 469.846 0 461.019 0Z" fill="#292A2E"/>
<path d="M460.97 4.98926H354.369C348.308 4.98926 343.395 9.90125 343.395 15.9605V266.373C343.395 272.432 348.308 277.344 354.369 277.344H460.97C467.031 277.344 471.944 272.432 471.944 266.373V15.9605C471.944 9.90125 467.031 4.98926 460.97 4.98926Z" fill="white"/>
<path d="M381.342 2.92627H433.996V8.37297C433.996 9.93486 433.376 11.4328 432.271 12.5374C431.166 13.6419 429.668 14.2627 428.106 14.263H387.234C385.671 14.263 384.172 13.6425 383.068 12.5379C381.963 11.4333 381.342 9.93511 381.342 8.37297V2.92627Z" fill="#292A2E"/>
<g opacity="0.15">
<path d="M460.402 89.0751H354.934C353.476 89.0735 352.079 88.4938 351.048 87.4634C350.017 86.4329 349.437 85.0358 349.436 83.5786V27.9589C349.437 26.5017 350.017 25.1046 351.048 24.0741C352.079 23.0437 353.476 22.464 354.934 22.4624H460.402C461.86 22.464 463.257 23.0437 464.288 24.0741C465.319 25.1046 465.899 26.5017 465.9 27.9589V83.5786C465.899 85.0358 465.319 86.4329 464.288 87.4634C463.257 88.4938 461.86 89.0735 460.402 89.0751ZM354.934 23.1898C353.669 23.1915 352.457 23.6945 351.563 24.5885C350.668 25.4826 350.165 26.6947 350.164 27.9589V83.5786C350.165 84.8429 350.668 86.055 351.562 86.9491C352.457 87.8431 353.669 88.3461 354.934 88.3476H460.402C461.667 88.3463 462.88 87.8434 463.774 86.9493C464.668 86.0552 465.171 84.843 465.173 83.5786V27.9589C465.171 26.6945 464.668 25.4823 463.774 24.5883C462.879 23.6942 461.667 23.1913 460.402 23.1898H354.934Z" fill="#292A2E"/>
</g>
<g opacity="0.43">
<path d="M410.151 38.0828C412.038 38.0828 413.568 36.5536 413.568 34.6672C413.568 32.7807 412.038 31.2515 410.151 31.2515C408.264 31.2515 406.734 32.7807 406.734 34.6672C406.734 36.5536 408.264 38.0828 410.151 38.0828Z" fill="#367CFF"/>
<path d="M421.065 38.0828C422.952 38.0828 424.482 36.5536 424.482 34.6672C424.482 32.7807 422.952 31.2515 421.065 31.2515C419.178 31.2515 417.648 32.7807 417.648 34.6672C417.648 36.5536 419.178 38.0828 421.065 38.0828Z" fill="#367CFF"/>
<path d="M431.981 38.0828C433.868 38.0828 435.398 36.5536 435.398 34.6672C435.398 32.7807 433.868 31.2515 431.981 31.2515C430.094 31.2515 428.564 32.7807 428.564 34.6672C428.564 36.5536 430.094 38.0828 431.981 38.0828Z" fill="#367CFF"/>
<path d="M442.895 38.0828C444.782 38.0828 446.312 36.5536 446.312 34.6672C446.312 32.7807 444.782 31.2515 442.895 31.2515C441.008 31.2515 439.479 32.7807 439.479 34.6672C439.479 36.5536 441.008 38.0828 442.895 38.0828Z" fill="#367CFF"/>
<path d="M453.811 38.0828C455.698 38.0828 457.228 36.5536 457.228 34.6672C457.228 32.7807 455.698 31.2515 453.811 31.2515C451.924 31.2515 450.395 32.7807 450.395 34.6672C450.395 36.5536 451.924 38.0828 453.811 38.0828Z" fill="#367CFF"/>
</g>
<g opacity="0.15">
<path d="M457.228 45.2344H407.668V45.9618H457.228V45.2344Z" fill="#292A2E"/>
</g>
<g opacity="0.15">
<path d="M457.228 52.5088H407.668V53.2362H457.228V52.5088Z" fill="#292A2E"/>
</g>
<g opacity="0.15">
<path d="M433.996 59.7832H407.668V60.5106H433.996V59.7832Z" fill="#292A2E"/>
</g>
<g opacity="0.15">
<path d="M457.592 79.6262H440.666V74.2373H457.592V79.6262ZM441.394 78.8987H456.865V74.9647H441.394V78.8987Z" fill="#292A2E"/>
</g>
<path d="M433.886 74.6006H417.688V79.262H433.886V74.6006Z" fill="#0CBC8B"/>
<path d="M394.71 40.882C393.924 38.8714 391.311 37.6362 386.505 36.126C386.353 36.0784 385.881 35.9627 385.403 35.8489C385.257 35.8142 385.106 35.8122 384.96 35.843C384.813 35.8739 384.676 35.9368 384.556 36.0272C384.437 36.1177 384.34 36.2334 384.271 36.3661C384.202 36.4988 384.163 36.6451 384.158 36.7945C384.158 36.7945 383.575 39.3282 379.299 39.3282C374.242 39.3282 373.55 36.7945 373.55 36.7945C373.545 36.6451 373.506 36.4988 373.437 36.3661C373.368 36.2334 373.27 36.1177 373.151 36.0272C373.032 35.9368 372.895 35.8739 372.748 35.843C372.602 35.8122 372.45 35.8142 372.305 35.8489C371.827 35.9627 371.354 36.0784 371.202 36.126C366.396 37.6362 363.784 38.8714 362.998 40.882C360.238 47.9382 356.033 70.1309 356.033 70.1309L362.294 71.7727L367.559 53.1503C368.31 55.9433 368.549 64.4743 368.549 64.4743H374.548H383.16H388.997C388.997 64.4743 389.397 55.9433 390.148 53.1503L395.413 71.7727L401.674 70.1309C401.674 70.1309 397.47 47.9382 394.71 40.882Z" fill="#367CFF"/>
<path opacity="0.48" d="M394.71 40.882C393.924 38.8714 391.311 37.6362 386.505 36.126C386.353 36.0784 385.881 35.9627 385.403 35.8489C385.257 35.8142 385.106 35.8122 384.96 35.843C384.813 35.8739 384.676 35.9368 384.556 36.0272C384.437 36.1177 384.34 36.2334 384.271 36.3661C384.202 36.4988 384.163 36.6451 384.158 36.7945C384.158 36.7945 383.575 39.3282 379.299 39.3282C374.242 39.3282 373.55 36.7945 373.55 36.7945C373.545 36.6451 373.506 36.4988 373.437 36.3661C373.368 36.2334 373.27 36.1177 373.151 36.0272C373.032 35.9368 372.895 35.8739 372.748 35.843C372.602 35.8122 372.45 35.8142 372.305 35.8489C371.827 35.9627 371.354 36.0784 371.202 36.126C366.396 37.6362 363.784 38.8714 362.998 40.882C360.238 47.9382 356.033 70.1309 356.033 70.1309L362.294 71.7727L367.559 53.1503C368.31 55.9433 368.549 64.4743 368.549 64.4743H374.548H383.16H388.997C388.997 64.4743 389.397 55.9433 390.148 53.1503L395.413 71.7727L401.674 70.1309C401.674 70.1309 397.47 47.9382 394.71 40.882Z" fill="white"/>
<g opacity="0.15">
<path d="M460.402 167.396H354.934C353.476 167.394 352.079 166.814 351.048 165.784C350.017 164.754 349.437 163.357 349.436 161.899V106.279C349.437 104.822 350.017 103.425 351.048 102.395C352.079 101.364 353.476 100.785 354.934 100.783H460.402C461.86 100.785 463.257 101.364 464.288 102.395C465.319 103.425 465.898 104.822 465.9 106.279V161.899C465.899 163.357 465.319 164.754 464.288 165.784C463.257 166.814 461.86 167.394 460.402 167.396ZM354.934 101.511C353.669 101.512 352.457 102.015 351.563 102.909C350.669 103.803 350.166 105.015 350.164 106.279V161.899C350.165 163.164 350.668 164.376 351.563 165.27C352.457 166.164 353.669 166.667 354.934 166.668H460.402C461.667 166.667 462.879 166.164 463.774 165.27C464.668 164.376 465.171 163.164 465.173 161.899V106.279C465.171 105.015 464.668 103.802 463.774 102.908C462.879 102.014 461.667 101.511 460.402 101.51L354.934 101.511Z" fill="#292A2E"/>
</g>
<g opacity="0.43">
<path d="M410.151 116.404C412.038 116.404 413.568 114.874 413.568 112.988C413.568 111.102 412.038 109.572 410.151 109.572C408.264 109.572 406.734 111.102 406.734 112.988C406.734 114.874 408.264 116.404 410.151 116.404Z" fill="#367CFF"/>
<path d="M421.065 116.404C422.952 116.404 424.482 114.874 424.482 112.988C424.482 111.102 422.952 109.572 421.065 109.572C419.178 109.572 417.648 111.102 417.648 112.988C417.648 114.874 419.178 116.404 421.065 116.404Z" fill="#367CFF"/>
<path d="M431.981 116.404C433.868 116.404 435.398 114.874 435.398 112.988C435.398 111.102 433.868 109.572 431.981 109.572C430.094 109.572 428.564 111.102 428.564 112.988C428.564 114.874 430.094 116.404 431.981 116.404Z" fill="#367CFF"/>
<path d="M442.895 116.404C444.782 116.404 446.312 114.874 446.312 112.988C446.312 111.102 444.782 109.572 442.895 109.572C441.008 109.572 439.479 111.102 439.479 112.988C439.479 114.874 441.008 116.404 442.895 116.404Z" fill="#367CFF"/>
<path d="M453.811 116.404C455.698 116.404 457.228 114.874 457.228 112.988C457.228 111.102 455.698 109.572 453.811 109.572C451.924 109.572 450.395 111.102 450.395 112.988C450.395 114.874 451.924 116.404 453.811 116.404Z" fill="#367CFF"/>
</g>
<g opacity="0.15">
<path d="M457.228 123.555H407.668V124.283H457.228V123.555Z" fill="#292A2E"/>
</g>
<g opacity="0.15">
<path d="M457.228 130.83H407.668V131.557H457.228V130.83Z" fill="#292A2E"/>
</g>
<g opacity="0.15">
<path d="M433.996 138.104H407.668V138.831H433.996V138.104Z" fill="#292A2E"/>
</g>
<g opacity="0.15">
<path d="M457.592 157.946H440.666V152.558H457.592V157.946ZM441.394 157.219H456.865V153.285H441.394V157.219Z" fill="#292A2E"/>
</g>
<path d="M433.886 152.921H417.688V157.583H433.886V152.921Z" fill="#0CBC8B"/>
<path opacity="0.48" d="M394.423 122.293C393.242 120.833 390.642 119.901 387.603 119.163C386.368 118.864 385.531 118.751 385.531 118.751C384.554 121.228 381.531 123.021 378.867 123.022H378.682C376.018 123.022 373.152 121.228 372.174 118.751C372.174 118.751 371.337 118.863 370.1 119.163C367.062 119.901 364.461 120.833 363.281 122.293C361.467 124.536 358.928 132.979 358.928 132.979L366.288 136.045C366.345 136.198 366.401 136.352 366.456 136.506C366.495 136.615 366.534 136.725 366.572 136.835C366.569 136.824 366.565 136.813 366.561 136.802C366.57 136.828 366.579 136.854 366.588 136.88C367.848 140.599 368.722 144.439 369.195 148.337C369.227 148.327 388.474 148.327 388.505 148.337C388.979 144.439 389.853 140.599 391.113 136.88C391.122 136.854 391.131 136.828 391.14 136.802C391.174 136.703 391.209 136.605 391.245 136.506C391.3 136.352 391.355 136.199 391.412 136.045L398.773 132.979C398.773 132.979 396.237 124.538 394.423 122.293Z" fill="white"/>
<path d="M394.423 122.293C393.242 120.833 390.642 119.901 387.603 119.163C386.368 118.864 385.531 118.751 385.531 118.751C384.554 121.228 381.531 123.021 378.867 123.022H378.682C376.018 123.022 373.152 121.228 372.174 118.751C372.174 118.751 371.337 118.863 370.1 119.163C367.062 119.901 364.461 120.833 363.281 122.293C361.467 124.536 358.928 132.979 358.928 132.979L366.288 136.045C366.345 136.198 366.401 136.352 366.456 136.506C366.495 136.615 366.534 136.725 366.572 136.835C366.569 136.824 366.565 136.813 366.561 136.802C366.57 136.828 366.579 136.854 366.588 136.88C367.848 140.599 368.722 144.439 369.195 148.337C369.227 148.327 388.474 148.327 388.505 148.337C388.979 144.439 389.853 140.599 391.113 136.88C391.122 136.854 391.131 136.828 391.14 136.802C391.174 136.703 391.209 136.605 391.245 136.506C391.3 136.352 391.355 136.199 391.412 136.045L398.773 132.979C398.773 132.979 396.237 124.538 394.423 122.293Z" fill="#367CFF"/>
<path opacity="0.48" d="M394.423 122.293C393.242 120.833 390.642 119.901 387.603 119.163C386.368 118.864 385.531 118.751 385.531 118.751C384.554 121.228 381.531 123.021 378.867 123.022H378.682C376.018 123.022 373.152 121.228 372.174 118.751C372.174 118.751 371.337 118.863 370.1 119.163C367.062 119.901 364.461 120.833 363.281 122.293C361.467 124.536 358.928 132.979 358.928 132.979L366.288 136.045C366.345 136.198 366.401 136.352 366.456 136.506C366.495 136.615 366.534 136.725 366.572 136.835C366.569 136.824 366.565 136.813 366.561 136.802C366.57 136.828 366.579 136.854 366.588 136.88C367.848 140.599 368.722 144.439 369.195 148.337C369.227 148.327 388.474 148.327 388.505 148.337C388.979 144.439 389.853 140.599 391.113 136.88C391.122 136.854 391.131 136.828 391.14 136.802C391.174 136.703 391.209 136.605 391.245 136.506C391.3 136.352 391.355 136.199 391.412 136.045L398.773 132.979C398.773 132.979 396.237 124.538 394.423 122.293Z" fill="white"/>
<g opacity="0.15">
<path d="M460.402 244.625H354.934C353.476 244.623 352.078 244.043 351.048 243.013C350.017 241.982 349.437 240.585 349.436 239.128V183.508C349.437 182.051 350.017 180.654 351.048 179.624C352.079 178.593 353.476 178.014 354.934 178.012H460.402C461.86 178.014 463.257 178.593 464.288 179.624C465.319 180.654 465.899 182.051 465.9 183.508V239.128C465.899 240.585 465.319 241.982 464.288 243.013C463.257 244.043 461.86 244.623 460.402 244.625ZM354.934 178.74C353.669 178.741 352.457 179.244 351.562 180.138C350.668 181.032 350.165 182.244 350.163 183.508V239.128C350.165 240.392 350.668 241.605 351.562 242.499C352.456 243.393 353.669 243.896 354.934 243.897H460.402C461.667 243.896 462.88 243.393 463.774 242.499C464.668 241.605 465.171 240.392 465.173 239.128V183.508C465.171 182.244 464.668 181.032 463.774 180.138C462.879 179.244 461.667 178.741 460.402 178.74H354.934Z" fill="#292A2E"/>
</g>
<g opacity="0.43">
<path d="M410.151 193.633C412.038 193.633 413.568 192.103 413.568 190.217C413.568 188.331 412.038 186.801 410.151 186.801C408.264 186.801 406.734 188.331 406.734 190.217C406.734 192.103 408.264 193.633 410.151 193.633Z" fill="#367CFF"/>
<path d="M421.065 193.633C422.952 193.633 424.482 192.103 424.482 190.217C424.482 188.331 422.952 186.801 421.065 186.801C419.178 186.801 417.648 188.331 417.648 190.217C417.648 192.103 419.178 193.633 421.065 193.633Z" fill="#367CFF"/>
<path d="M431.981 193.633C433.868 193.633 435.398 192.103 435.398 190.217C435.398 188.331 433.868 186.801 431.981 186.801C430.094 186.801 428.564 188.331 428.564 190.217C428.564 192.103 430.094 193.633 431.981 193.633Z" fill="#367CFF"/>
<path d="M442.895 193.633C444.782 193.633 446.312 192.103 446.312 190.217C446.312 188.331 444.782 186.801 442.895 186.801C441.008 186.801 439.479 188.331 439.479 190.217C439.479 192.103 441.008 193.633 442.895 193.633Z" fill="#367CFF"/>
<path d="M453.811 193.633C455.698 193.633 457.228 192.103 457.228 190.217C457.228 188.331 455.698 186.801 453.811 186.801C451.924 186.801 450.395 188.331 450.395 190.217C450.395 192.103 451.924 193.633 453.811 193.633Z" fill="#367CFF"/>
</g>
<g opacity="0.15">
<path d="M457.228 200.784H407.668V201.512H457.228V200.784Z" fill="#292A2E"/>
</g>
<g opacity="0.15">
<path d="M457.228 208.058H407.668V208.786H457.228V208.058Z" fill="#292A2E"/>
</g>
<g opacity="0.15">
<path d="M433.996 215.333H407.668V216.06H433.996V215.333Z" fill="#292A2E"/>
</g>
<g opacity="0.15">
<path d="M457.592 235.175H440.666V229.787H457.592V235.175ZM441.394 234.448H456.865V230.514H441.394V234.448Z" fill="#292A2E"/>
</g>
<path d="M433.886 230.15H417.688V234.811H433.886V230.15Z" fill="#0CBC8B"/>
<path opacity="0.48" d="M388.997 230.51C389.192 230.51 389.384 230.465 389.559 230.379C389.734 230.293 389.888 230.169 390.007 230.015C390.127 229.862 390.211 229.683 390.251 229.492C390.292 229.301 390.289 229.104 390.242 228.915C388.935 223.483 388.835 213.258 389.963 208.863L391.211 204L391.209 203.977C391.23 203.81 391.214 203.641 391.161 203.482C391.108 203.323 391.02 203.177 390.903 203.057C386.184 198.216 386.806 193.245 386.806 193.245H384.772C384.904 194.416 384.827 195.602 384.545 196.747C384.036 198.756 382.681 200.986 379.245 201.522C378.153 201.685 377.043 201.685 375.951 201.522C372.516 200.986 371.16 198.756 370.651 196.747C370.369 195.602 370.292 194.416 370.424 193.245H368.392C368.392 193.245 369.012 198.216 364.294 203.057C364.177 203.177 364.088 203.322 364.035 203.482C363.982 203.641 363.966 203.81 363.988 203.977L363.971 203.999L365.219 208.863C366.347 213.258 366.247 223.484 364.94 228.915C364.893 229.104 364.89 229.301 364.93 229.492C364.971 229.682 365.054 229.861 365.174 230.015C365.294 230.169 365.447 230.293 365.622 230.379C365.797 230.465 365.99 230.509 366.185 230.51L388.997 230.51Z" fill="white"/>
<path d="M388.997 230.51C389.192 230.51 389.384 230.465 389.559 230.379C389.734 230.293 389.888 230.169 390.007 230.015C390.127 229.862 390.211 229.683 390.251 229.492C390.292 229.301 390.289 229.104 390.242 228.915C388.935 223.483 388.835 213.258 389.963 208.863L391.211 204L391.209 203.977C391.23 203.81 391.214 203.641 391.161 203.482C391.108 203.323 391.02 203.177 390.903 203.057C386.184 198.216 386.806 193.245 386.806 193.245H384.772C384.904 194.416 384.827 195.602 384.545 196.747C384.036 198.756 382.681 200.986 379.245 201.522C378.153 201.685 377.043 201.685 375.951 201.522C372.516 200.986 371.16 198.756 370.651 196.747C370.369 195.602 370.292 194.416 370.424 193.245H368.392C368.392 193.245 369.012 198.216 364.294 203.057C364.177 203.177 364.088 203.322 364.035 203.482C363.982 203.641 363.966 203.81 363.988 203.977L363.971 203.999L365.219 208.863C366.347 213.258 366.247 223.484 364.94 228.915C364.893 229.104 364.89 229.301 364.93 229.492C364.971 229.682 365.054 229.861 365.174 230.015C365.294 230.169 365.447 230.293 365.622 230.379C365.797 230.465 365.99 230.509 366.185 230.51L388.997 230.51Z" fill="#367CFF"/>
<path opacity="0.48" d="M388.997 230.51C389.192 230.51 389.384 230.465 389.559 230.379C389.734 230.293 389.888 230.169 390.007 230.015C390.127 229.862 390.211 229.683 390.251 229.492C390.292 229.301 390.289 229.104 390.242 228.915C388.935 223.483 388.835 213.258 389.963 208.863L391.211 204L391.209 203.977C391.23 203.81 391.214 203.641 391.161 203.482C391.108 203.323 391.02 203.177 390.903 203.057C386.184 198.216 386.806 193.245 386.806 193.245H384.772C384.904 194.416 384.827 195.602 384.545 196.747C384.036 198.756 382.681 200.986 379.245 201.522C378.153 201.685 377.043 201.685 375.951 201.522C372.516 200.986 371.16 198.756 370.651 196.747C370.369 195.602 370.292 194.416 370.424 193.245H368.392C368.392 193.245 369.012 198.216 364.294 203.057C364.177 203.177 364.088 203.322 364.035 203.482C363.982 203.641 363.966 203.81 363.988 203.977L363.971 203.999L365.219 208.863C366.347 213.258 366.247 223.484 364.94 228.915C364.893 229.104 364.89 229.301 364.93 229.492C364.971 229.682 365.054 229.861 365.174 230.015C365.294 230.169 365.447 230.293 365.622 230.379C365.797 230.465 365.99 230.509 366.185 230.51L388.997 230.51Z" fill="white"/>
<path d="M506.808 301.9C506.808 301.9 505.166 310.411 497.193 310.887C489.22 311.362 490.949 317.711 490.949 317.711H521.416V302.493L506.808 301.9Z" fill="#367CFF"/>
<path d="M516.207 146.617C516.207 146.617 516.112 144.058 516.132 149.863C516.207 171.515 516.583 196.246 517.501 210.718C518.978 233.983 522.762 307.332 522.762 307.332L502.742 307.164L483.338 145.737L516.207 146.617Z" fill="#262626"/>
<path d="M493.598 172.148C493.598 172.148 492.768 187.861 492.616 191.55C492.26 200.081 492.136 208.914 492.136 218.928L488.98 192.675C488.98 192.675 491.288 184.448 493.598 172.148Z" fill="#0A0A0A"/>
<path d="M471.168 301.9C471.168 301.9 469.525 310.411 461.552 310.887C453.58 311.362 455.309 317.711 455.309 317.711H485.776V302.493L471.168 301.9Z" fill="#367CFF"/>
<path d="M461.475 148.298C461.475 148.298 459.702 222.299 459.962 225.916L467.407 306.771L487.096 307.135L485.178 222.991C485.178 222.991 486.531 199.78 492.141 178.227C495.011 167.165 496.738 155.838 497.296 144.423L461.475 148.298Z" fill="#262626"/>
<path d="M516.424 146.615L516.489 146.619C516.489 146.619 516.442 145.356 516.424 146.615Z" fill="#333333"/>
<path d="M458.656 107.225C459.069 112.074 461.077 142.327 461.474 148.3H516.186C516.495 142.913 517.883 119.357 519.055 108.822C520.173 98.7698 522.368 93.7367 520.76 90.7651C518.131 85.908 510.946 83.1012 506.048 82.4381C503.056 82.0333 498.557 81.743 498.557 81.743C498.557 81.743 498.176 89.4455 489.092 89.8751C476.727 90.457 477.552 81.7427 477.491 81.7427C475.488 81.7427 463.823 82.6843 461.245 84.6692C456.736 88.1398 457.779 96.9469 458.656 107.225Z" fill="#367CFF"/>
<path d="M457.899 101.147C457.852 101.147 457.808 101.129 457.774 101.097C457.74 101.066 457.72 101.022 457.717 100.976L457.276 93.2753C457.273 93.2271 457.289 93.1799 457.321 93.1439C457.353 93.1078 457.399 93.086 457.447 93.0832C457.495 93.0809 457.542 93.0975 457.578 93.1295C457.614 93.1614 457.636 93.2062 457.639 93.2542L458.08 100.954C458.083 101.003 458.066 101.05 458.034 101.086C458.002 101.122 457.957 101.144 457.909 101.147L457.899 101.147Z" fill="#0C0C0C"/>
<path d="M528.014 147.982C529.623 147.981 531.209 147.593 532.635 146.848C534.062 146.104 535.287 145.026 536.207 143.706C537.127 142.386 537.715 140.864 537.92 139.268C538.125 137.673 537.941 136.051 537.385 134.542C536.82 133.01 523.568 97.9313 521.046 91.4316L502.367 98.997C503.786 102.652 508.925 116.504 513.053 127.662L506.194 126.917L504.035 146.771L526.933 147.923C527.292 147.962 527.653 147.982 528.014 147.982Z" fill="#367CFF"/>
<path d="M470.975 81.0772C471.036 81.0692 472.714 87.3827 485.811 86.4003C494.878 85.7212 497.09 79.5514 497.296 79.5514C496.319 79.3437 494.731 79.1281 494.297 78.8967C492.869 78.13 491.83 77.1963 491.306 75.193C490.897 73.6261 490.687 67.5945 490.687 64.5684L476.736 67.7025C476.93 71.116 478.291 79.0299 473.521 80.4305C472.727 80.6619 471.873 80.875 470.975 81.0772Z" fill="#E98862"/>
<path d="M477.218 74.4138C482.718 74.8473 489.783 72.5261 491.126 65.1902L492.337 58.5705C493.679 51.2346 490.912 44.5829 484.003 43.3197C477.094 42.0565 470.841 47.0591 469.499 54.395L468.963 57.3255C468.448 60.1407 467.404 73.6398 477.218 74.4138Z" fill="#E98862"/>
<path d="M472.118 67.6784C473.105 62.7191 473.558 59.4107 473.505 55.92C472.115 53.4831 472.48 50.6825 472.797 49.4735C471.839 50.0817 470.713 50.3704 469.581 50.298C469.581 50.298 471.881 41.0712 479.697 38.5884C481.135 38.029 484.805 37.3227 489.677 37.9909C493.822 38.559 504.038 41.6571 505.498 53.1551V53.1616C505.546 53.5428 506.527 64.1368 508.481 69.2198C511.11 76.053 514.801 78.176 514.708 86.06C514.587 96.2009 495.938 97.5507 484.691 96.7919C473.445 96.0332 467.164 92.336 467.082 85.0278C466.992 76.8394 470.143 77.5999 472.118 67.6784Z" fill="#0A0A0A"/>
<path d="M517.352 109.025L516.008 148.293L516.371 148.306L517.716 109.037L517.352 109.025Z" fill="#0C0C0C"/>
<path d="M398.668 64.138L404.548 71.0799L404.184 69.888C404.074 69.5009 404.115 69.0867 404.299 68.7288C404.483 68.371 404.796 68.0963 405.175 67.9603C405.373 67.8969 405.582 67.8744 405.789 67.8944C405.995 67.9143 406.196 67.9762 406.378 68.0762C406.561 68.1762 406.72 68.3123 406.848 68.4762C406.976 68.64 407.069 68.8282 407.122 69.0293L409.81 79.1472C410.149 80.4245 409.976 81.7837 409.327 82.935C408.678 84.0863 407.604 84.9385 406.335 85.3097C404.862 85.7409 403.294 85.7224 401.832 85.2567C400.369 84.7911 399.08 83.8994 398.127 82.696L393.824 77.2369C393.595 76.9576 393.469 76.6078 393.469 76.2466C393.468 75.8855 393.592 75.5352 393.82 75.255C394.031 75.0062 394.316 74.8313 394.634 74.7561C394.951 74.6809 395.285 74.7093 395.585 74.8371C395.589 74.8198 395.597 74.8035 395.608 74.7893C395.62 74.7752 395.633 74.7634 395.649 74.7547C395.665 74.746 395.682 74.7406 395.7 74.7389C395.718 74.7371 395.736 74.739 395.753 74.7444L394.956 73.7369C394.712 73.4415 394.583 73.0678 394.592 72.6847C394.602 72.3017 394.751 71.9351 395.01 71.6528C395.275 71.3814 395.631 71.2183 396.01 71.1954C396.389 71.1724 396.763 71.2911 397.059 71.5284C397.061 71.5122 397.066 71.4965 397.074 71.4822L396.746 71.069C396.533 70.786 396.416 70.4418 396.413 70.0873C396.41 69.7328 396.522 69.3868 396.731 69.1005C396.987 68.7923 397.353 68.5964 397.751 68.5548C398.149 68.5132 398.548 68.6292 398.862 68.8779L398.883 68.8572L396.413 65.9405C396.286 65.791 396.191 65.6172 396.134 65.4297C396.076 65.2423 396.058 65.0451 396.079 64.8503C396.101 64.6555 396.162 64.467 396.258 64.2965C396.355 64.126 396.486 63.977 396.642 63.8586C396.952 63.6399 397.334 63.5472 397.71 63.599C398.086 63.6509 398.428 63.8435 398.668 64.138Z" fill="#E98862"/>
<path opacity="0.2" d="M398.801 69.04C398.807 69.0557 398.816 69.0701 398.827 69.0826L401.259 71.8879C401.286 71.9112 401.32 71.9241 401.355 71.9243C401.39 71.9245 401.424 71.912 401.451 71.889C401.477 71.866 401.495 71.8341 401.5 71.7993C401.505 71.7645 401.497 71.729 401.478 71.6995L399.045 68.8945C399.023 68.8691 398.992 68.8523 398.959 68.847C398.926 68.8417 398.892 68.8483 398.863 68.8657C398.834 68.883 398.812 68.91 398.801 68.9419C398.79 68.9737 398.79 69.0085 398.802 69.04H398.801Z" fill="#0C0C0C"/>
<path opacity="0.2" d="M397.063 71.5938C397.069 71.609 397.077 71.6232 397.088 71.6356L398.982 73.8543C399.009 73.8765 399.042 73.8887 399.077 73.8886C399.111 73.8884 399.144 73.8761 399.171 73.8536C399.197 73.8312 399.214 73.8002 399.22 73.7662C399.225 73.7321 399.218 73.6972 399.2 73.6677L397.306 71.449C397.283 71.4251 397.253 71.4096 397.22 71.4052C397.187 71.4007 397.154 71.4075 397.126 71.4244C397.097 71.4413 397.076 71.4674 397.064 71.4983C397.052 71.5292 397.052 71.5631 397.062 71.5945L397.063 71.5938Z" fill="#0C0C0C"/>
<path opacity="0.2" d="M395.583 74.9322C395.589 74.9487 395.598 74.9637 395.61 74.9766L396.529 76.0041C396.541 76.0217 396.556 76.0367 396.574 76.0479C396.591 76.0592 396.611 76.0664 396.632 76.0692C396.653 76.072 396.674 76.0703 396.694 76.0641C396.714 76.0579 396.733 76.0475 396.749 76.0335C396.764 76.0195 396.777 76.0022 396.785 75.9829C396.793 75.9637 396.797 75.9428 396.797 75.9218C396.797 75.9008 396.792 75.8801 396.782 75.8613C396.773 75.8424 396.76 75.8257 396.744 75.8124L395.824 74.7849C395.801 74.762 395.771 74.7475 395.739 74.7437C395.706 74.7399 395.674 74.747 395.646 74.764C395.618 74.781 395.597 74.8068 395.585 74.8373C395.574 74.8678 395.573 74.9012 395.583 74.9322Z" fill="#0C0C0C"/>
<path d="M427.689 129.502C425.838 129.502 424.019 129.024 422.408 128.113C420.796 127.203 419.448 125.891 418.493 124.306L394.703 84.7958L413.095 73.7285L431.18 103.765L461.244 84.6696L473.981 101.741L433.498 127.795C431.766 128.909 429.749 129.502 427.689 129.502Z" fill="#367CFF"/>
<path d="M458.961 111.582C458.92 111.582 458.881 111.568 458.849 111.543C458.817 111.518 458.794 111.482 458.784 111.443C458.775 111.403 458.779 111.362 458.796 111.324C458.813 111.287 458.841 111.257 458.878 111.238L464.072 108.559C464.115 108.537 464.165 108.533 464.211 108.547C464.257 108.562 464.295 108.594 464.318 108.637C464.34 108.68 464.344 108.73 464.329 108.776C464.315 108.822 464.282 108.86 464.239 108.882L459.045 111.562C459.019 111.575 458.99 111.582 458.961 111.582Z" fill="#0C0C0C"/>
<path d="M376.25 317.277H363.367L358.152 264.496H371.036L376.25 317.277Z" fill="#367CFF"/>
<path opacity="0.21" d="M376.25 317.277H363.367L358.152 264.496H371.036L376.25 317.277Z" fill="#0A0A0A"/>
<path d="M363.366 317.277H313.223L318.437 264.496H358.152L363.366 317.277Z" fill="#367CFF"/>
<path d="M338.296 286.093C336.828 286.093 335.374 285.803 334.017 285.242C332.661 284.68 331.428 283.857 330.39 282.819C329.352 281.781 328.528 280.549 327.966 279.193C327.405 277.836 327.115 276.383 327.115 274.915V270.134C327.113 270.053 327.128 269.972 327.158 269.896C327.188 269.82 327.232 269.75 327.289 269.692C327.346 269.634 327.415 269.587 327.49 269.555C327.565 269.524 327.646 269.507 327.728 269.507C327.809 269.507 327.89 269.524 327.965 269.555C328.041 269.587 328.109 269.634 328.166 269.692C328.223 269.75 328.268 269.82 328.297 269.896C328.327 269.972 328.342 270.053 328.34 270.134V274.914C328.34 277.554 329.389 280.086 331.256 281.952C333.123 283.819 335.655 284.868 338.296 284.868C340.937 284.868 343.469 283.819 345.336 281.952C347.203 280.086 348.252 277.554 348.252 274.914V270.134C348.252 269.972 348.317 269.816 348.432 269.702C348.546 269.587 348.702 269.522 348.865 269.522C349.027 269.522 349.183 269.587 349.298 269.702C349.412 269.816 349.477 269.972 349.477 270.134V274.914C349.474 277.878 348.295 280.719 346.199 282.815C344.103 284.91 341.26 286.089 338.296 286.093Z" fill="white"/>
<path opacity="0.08" d="M358.152 264.496L365.265 271.431L371.036 264.496H358.152Z" fill="#0A0A0A"/>
<path opacity="0.08" d="M363.367 317.277L369.121 310.341L376.251 317.277H363.367Z" fill="#0A0A0A"/>
<path d="M533.81 317.992H260.401C260.363 317.993 260.325 317.987 260.29 317.973C260.255 317.96 260.223 317.939 260.195 317.913C260.168 317.887 260.147 317.856 260.132 317.821C260.117 317.786 260.109 317.749 260.109 317.711C260.109 317.673 260.117 317.636 260.132 317.601C260.147 317.566 260.168 317.535 260.195 317.509C260.223 317.482 260.255 317.462 260.29 317.448C260.325 317.435 260.363 317.429 260.401 317.43H533.81C533.848 317.429 533.885 317.435 533.921 317.448C533.956 317.462 533.988 317.482 534.015 317.509C534.042 317.535 534.064 317.566 534.079 317.601C534.094 317.636 534.101 317.673 534.101 317.711C534.101 317.749 534.094 317.786 534.079 317.821C534.064 317.856 534.042 317.887 534.015 317.913C533.988 317.939 533.956 317.96 533.921 317.973C533.885 317.987 533.848 317.993 533.81 317.992Z" fill="#3F3F3F"/>
<path d="M362.722 30.7644C362.722 28.036 360.523 25.8242 357.81 25.8242C355.098 25.8242 352.898 28.036 352.898 30.7644C352.898 33.2302 354.695 35.2741 357.043 35.6446V32.1925H355.796V30.7644H357.043V29.676C357.043 28.4379 357.776 27.754 358.898 27.754C359.435 27.754 359.997 27.8505 359.997 27.8505V29.0662H359.378C358.768 29.0662 358.578 29.4471 358.578 29.8378V30.7644H359.94L359.722 32.1925H358.578V35.6446C360.926 35.2741 362.722 33.2303 362.722 30.7644Z" fill="#1877F2"/>
<path d="M361.993 110.055C361.993 107.327 359.794 105.115 357.082 105.115C354.369 105.115 352.17 107.327 352.17 110.055C352.17 112.521 353.966 114.565 356.314 114.936V111.483H355.067V110.055H356.314V108.967C356.314 107.729 357.048 107.045 358.169 107.045C358.707 107.045 359.269 107.141 359.269 107.141V108.357H358.65C358.039 108.357 357.849 108.738 357.849 109.129V110.055H359.211L358.994 111.483H357.849V114.936C360.197 114.565 361.993 112.521 361.993 110.055Z" fill="#1877F2"/>
<path d="M362.722 189.346C362.722 186.618 360.523 184.406 357.81 184.406C355.098 184.406 352.898 186.618 352.898 189.346C352.898 191.812 354.695 193.856 357.043 194.226V190.774H355.796V189.346H357.043V188.258C357.043 187.019 357.776 186.336 358.898 186.336C359.435 186.336 359.997 186.432 359.997 186.432V187.648H359.378C358.768 187.648 358.578 188.029 358.578 188.419V189.346H359.94L359.722 190.774H358.578V194.226C360.926 193.856 362.722 191.812 362.722 189.346Z" fill="#1877F2"/>
</svg>
