<svg width="205" height="150" viewBox="0 0 205 150" fill="none" xmlns="http://www.w3.org/2000/svg">
<path d="M143.006 86.339H99.1489V29.7191H133.673L143.006 39.583V86.339Z" fill="#C7D1DE"/>
<path d="M133.673 29.7191V39.583H143.006L133.673 29.7191Z" fill="#F3F5FD"/>
<path d="M116.647 45.6856L115.489 44.5275L107.975 52.0414L109.133 53.1995L116.647 45.6856Z" fill="white"/>
<path d="M115.489 53.1995L116.647 52.0414L109.133 44.5275L107.975 45.6856L115.489 53.1995Z" fill="white"/>
<path d="M134.18 45.6855L133.022 44.5273L125.508 52.0413L126.666 53.1994L134.18 45.6855Z" fill="white"/>
<path d="M133.022 53.1995L134.18 52.0414L126.666 44.5275L125.508 45.6856L133.022 53.1995Z" fill="white"/>
<path d="M113.477 66.0404L112.266 64.9277C112.399 64.783 115.582 61.3834 121.557 61.3834C127.567 61.3834 130.371 64.8251 130.488 64.9716L129.201 65.9944C129.105 65.8762 126.736 63.0274 121.557 63.0274C116.336 63.0275 113.505 66.01 113.477 66.0404Z" fill="white"/>
<path d="M204.437 149.991H0C2.2402 144.278 6.37704 139.433 12.2086 137.995C20.7401 135.894 29.7672 141.669 38.2792 139.498C43.1149 138.266 46.922 134.674 50.9226 131.692C66.015 120.44 86.6974 117.114 104.556 123.07C113.891 126.181 122.398 131.623 131.961 133.937C144.326 136.93 157.258 134.448 169.974 134.04C182.359 133.641 200.104 138.687 204.437 149.991Z" fill="#F3F5FD"/>
<path d="M48.7989 94.5837H42.3829V103.194H48.7989V94.5837Z" fill="#C1D8ED"/>
<path d="M71.3178 113.961C64.3622 113.961 58.5806 111.134 58.246 110.968L61.3229 104.772C61.4095 104.815 70.0701 108.994 77.1668 105.922C81.101 104.219 83.9817 100.465 85.7264 94.7623L92.3404 96.7863C89.9678 104.537 85.7702 109.754 79.8635 112.29C77.1583 113.423 74.2504 113.991 71.3178 113.961Z" fill="#DEE8F5"/>
<path d="M12.9475 129.137L6.0527 128.579C7.15026 115.019 14.0343 108.883 19.6159 106.124C23.3438 104.303 27.4525 103.398 31.6006 103.483L31.3933 106.937L31.203 110.389C28.1653 110.375 25.1673 111.078 22.4522 112.441C16.8077 115.338 13.6098 120.955 12.9475 129.137Z" fill="#DEE8F5"/>
<path d="M91.6054 97.199C90.2912 97.1975 88.9968 96.8788 87.8321 96.27C86.6674 95.6611 85.6669 94.7802 84.9156 93.7019C84.1643 92.6236 83.6844 91.3799 83.5166 90.0765C83.3488 88.773 83.4982 87.4483 83.952 86.215L88.5179 87.9018C88.3652 88.3073 88.2942 88.739 88.309 89.1721C88.3238 89.6052 88.4241 90.0311 88.6041 90.4252C88.7841 90.8194 89.0403 91.1741 89.3579 91.4688C89.6756 91.7636 90.0483 91.9927 90.4548 92.1428C90.8613 92.293 91.2935 92.3613 91.7264 92.3437C92.1594 92.3262 92.5846 92.2233 92.9777 92.0408C93.3707 91.8583 93.7238 91.5999 94.0165 91.2804C94.3093 90.961 94.536 90.5868 94.6836 90.1794L99.2496 91.8662C98.6712 93.4285 97.629 94.7766 96.2627 95.7297C94.8964 96.6829 93.2713 97.1956 91.6054 97.199Z" fill="#367CFF"/>
<path d="M16.2389 135.95L11.3916 135.501C11.4314 135.071 11.3861 134.638 11.2584 134.226C11.1306 133.814 10.923 133.431 10.6472 133.099C10.3715 132.767 10.033 132.492 9.65123 132.291C9.26943 132.09 8.85174 131.966 8.42202 131.926C7.9923 131.886 7.55895 131.932 7.14672 132.059C6.7345 132.187 6.35147 132.395 6.0195 132.671C5.68753 132.946 5.41312 133.285 5.21195 133.667C5.01078 134.048 4.88677 134.466 4.84702 134.896L0 134.447C0.199326 132.294 1.24593 130.307 2.90956 128.926C4.5732 127.544 6.7176 126.88 8.87101 127.079C11.0244 127.278 13.0105 128.325 14.3922 129.989C15.7739 131.652 16.4382 133.797 16.2389 135.95Z" fill="#367CFF"/>
<path d="M58.8063 75.3224H32.3756C30.4294 75.3224 28.8518 76.9 28.8518 78.8462V92.251C28.8518 94.1971 30.4294 95.7747 32.3756 95.7747H58.8063C60.7524 95.7747 62.3301 94.1971 62.3301 92.251V78.8462C62.3301 76.9 60.7524 75.3224 58.8063 75.3224Z" fill="#367CFF"/>
<path d="M48.7989 128.297H42.3829V136.907H48.7989V128.297Z" fill="#C1D8ED"/>
<path d="M60.1775 100.587H31.0041C28.485 100.587 26.4428 102.629 26.4428 105.148V126.636C26.4428 129.155 28.485 131.197 31.0041 131.197H60.1775C62.6967 131.197 64.7389 129.155 64.7389 126.636V105.148C64.7389 102.629 62.6967 100.587 60.1775 100.587Z" fill="#367CFF"/>
<path d="M53.5609 112.049H37.621C36.1537 112.049 34.9642 113.239 34.9642 114.706V123.127C34.9642 124.594 36.1537 125.784 37.621 125.784H53.5609C55.0282 125.784 56.2177 124.594 56.2177 123.127V114.706C56.2177 113.239 55.0282 112.049 53.5609 112.049Z" fill="#F3F5FD"/>
<path d="M45.7307 137.713C46.9463 137.722 48.1091 138.212 48.9655 139.075C49.8219 139.937 50.3025 141.104 50.3025 142.319C50.3025 143.535 49.8219 144.702 48.9655 145.564C48.1091 146.427 46.9463 146.916 45.7307 146.926H45.4512C44.2355 146.916 43.0727 146.427 42.2163 145.564C41.3599 144.702 40.8793 143.535 40.8793 142.319C40.8793 141.104 41.3599 139.937 42.2163 139.075C43.0727 138.212 44.2355 137.722 45.4512 137.713H45.7307ZM45.7307 134.639H45.4512C43.4142 134.639 41.4607 135.448 40.0203 136.889C38.58 138.329 37.7708 140.283 37.7708 142.32C37.7709 144.357 38.5801 146.31 40.0204 147.75C41.4608 149.191 43.4142 150 45.4512 150H45.7307C47.7676 150 49.7211 149.191 51.1614 147.75C52.6017 146.31 53.4109 144.357 53.411 142.32C53.411 140.283 52.6018 138.329 51.1615 136.889C49.7212 135.448 47.7677 134.639 45.7307 134.639Z" fill="#367CFF"/>
<path d="M57.8848 77.8801H33.2969C32.2454 77.8801 31.3931 78.7325 31.3931 79.7839V91.3137C31.3931 92.3651 32.2454 93.2175 33.2969 93.2175H57.8848C58.9362 93.2175 59.7886 92.3651 59.7886 91.3137V79.7839C59.7886 78.7325 58.9362 77.8801 57.8848 77.8801Z" fill="#F3F5FD"/>
<path d="M43.4377 82.5214H41.3881C41.3881 82.9578 41.2148 83.3763 40.9062 83.6849C40.5976 83.9935 40.179 84.1669 39.7426 84.1669C39.3061 84.1669 38.8876 83.9935 38.579 83.6849C38.2704 83.3763 38.097 82.9578 38.097 82.5214H36.0474C36.0474 83.5016 36.4368 84.4418 37.13 85.1349C37.8232 85.8281 38.7633 86.2175 39.7436 86.2175C40.7239 86.2175 41.664 85.8281 42.3572 85.1349C43.0504 84.4418 43.4398 83.5016 43.4398 82.5214H43.4377Z" fill="#C1D8ED"/>
<path d="M49.1858 91.744H47.1362C47.1362 91.3076 46.9628 90.889 46.6542 90.5804C46.3456 90.2718 45.9271 90.0985 45.4907 90.0985C45.0542 90.0985 44.6357 90.2718 44.3271 90.5804C44.0185 90.889 43.8451 91.3076 43.8451 91.744H41.7955C41.7955 90.7637 42.1849 89.8236 42.8781 89.1304C43.5713 88.4373 44.5114 88.0479 45.4917 88.0479C46.472 88.0479 47.4121 88.4373 48.1053 89.1304C48.7984 89.8236 49.1879 90.7637 49.1879 91.744H49.1858Z" fill="#C1D8ED"/>
<path d="M55.1365 82.5214H53.0869C53.0815 82.9543 52.9058 83.3676 52.5977 83.6718C52.2897 83.976 51.8742 84.1466 51.4413 84.1466C51.0083 84.1466 50.5928 83.976 50.2848 83.6718C49.9767 83.3676 49.801 82.9543 49.7956 82.5214H47.746C47.746 83.5016 48.1354 84.4418 48.8286 85.1349C49.5217 85.8281 50.4619 86.2175 51.4422 86.2175C52.4224 86.2175 53.3626 85.8281 54.0557 85.1349C54.7489 84.4418 55.1383 83.5016 55.1383 82.5214H55.1365Z" fill="#C1D8ED"/>
<path d="M83.8555 12.3843C85.3858 11.182 87.599 11.77 88.9424 12.9782C89.6571 13.6007 90.1625 14.4349 90.3877 15.364C90.6147 16.337 90.4586 17.3617 89.9528 18.2193C89.4672 19.0114 88.5407 19.6681 87.5848 19.5202C86.721 19.3858 85.9673 18.5866 86.1547 17.663C86.3215 16.8411 86.9996 16.1267 87.6995 15.7227C88.3264 15.3721 89.0251 15.1752 89.74 15.1477C90.4851 15.1033 91.2299 15.2385 91.9139 15.5422C92.6577 15.8899 93.2772 16.4637 93.687 17.1845C94.2211 18.0657 94.5016 19.0815 94.4966 20.1166C94.4642 21.1302 94.1824 22.1193 93.6772 22.9935C93.4549 23.4125 93.1525 23.7821 92.7878 24.0805C92.4429 24.3394 92.0473 24.5199 91.6278 24.6098C91.0395 24.7383 90.1463 24.7313 89.9152 24.0372C89.6732 23.3103 90.041 22.4835 90.4347 21.8885C90.8905 21.175 91.5538 20.6239 92.3321 20.3119C93.1398 19.9922 94.0491 19.8818 94.8831 20.1678C95.6504 20.4312 96.2725 21.0502 96.6902 21.7409C97.0965 22.4197 97.3414 23.1855 97.4054 23.9775C97.4695 24.7695 97.3509 25.5657 97.0592 26.3029C96.9137 26.6516 96.7202 26.9774 96.4845 27.2707C96.3028 27.4952 96.6178 27.819 96.8009 27.5925C97.9308 26.1961 98.1349 24.1999 97.5475 22.5214C97.2659 21.6771 96.7626 20.9272 96.0922 20.3527C95.7005 20.0325 95.2472 19.7994 94.7616 19.6682C94.2759 19.5371 93.7685 19.5109 93.2723 19.5913C92.385 19.7092 91.5504 20.0869 90.8702 20.6783C90.1361 21.3432 89.5178 22.3126 89.4101 23.3226C89.3354 24.0217 89.593 24.7581 90.2915 24.9986C91.2092 25.3148 92.3006 25.0223 93.0557 24.4412C93.903 23.7892 94.4188 22.6968 94.7018 21.6791C95.0192 20.5841 95.012 19.4183 94.6811 18.3275C94.3782 17.3497 93.8457 16.3673 93.0487 15.7193C92.3698 15.1794 91.5586 14.8387 90.7029 14.7341C89.0174 14.5076 87.2284 15.0726 86.2036 16.5016C85.8621 16.9419 85.6774 17.4869 85.6798 18.0477C85.7102 18.5477 85.9292 19.0164 86.2911 19.3562C87.0642 20.0988 88.1864 20.1521 89.0998 19.6524C90.0536 19.1306 90.6749 18.1186 90.8622 17.0507C91.0486 15.9604 90.8404 14.8383 90.2759 13.8922C89.218 12.107 87.021 10.9211 84.9689 11.367C84.482 11.4711 84.0242 11.6847 83.629 11.9923C83.5793 12.0242 83.5433 12.0741 83.5284 12.1319C83.5135 12.1897 83.5207 12.2511 83.5486 12.3038C83.5788 12.3556 83.6279 12.3933 83.6852 12.4086C83.7425 12.4238 83.8035 12.4155 83.8548 12.3854L83.8555 12.3843Z" fill="#C7D1DE"/>
<path d="M145.455 43.1251C145.932 41.9371 146.714 40.9081 147.716 40.151C147.767 40.1181 147.804 40.0662 147.819 40.0061C147.834 39.9459 147.827 39.882 147.798 39.8274C147.767 39.7736 147.717 39.7345 147.659 39.7186C147.601 39.7027 147.539 39.7113 147.486 39.7426C146.388 40.5693 145.533 41.6969 145.016 42.9994C145.001 43.0598 145.009 43.1243 145.038 43.1787C145.068 43.2331 145.117 43.2732 145.175 43.2903C145.234 43.3055 145.295 43.2968 145.347 43.266C145.399 43.2352 145.438 43.1848 145.455 43.1251Z" fill="#C7D1DE"/>
<path d="M93.952 37.5277C92.6217 36.3238 91.1206 35.3392 89.5015 34.6084C89.239 34.4902 89.01 34.8914 89.2748 35.0107C90.86 35.7222 92.3303 36.6822 93.634 37.8571C93.8511 38.0533 94.1702 37.7252 93.9517 37.5277H93.952Z" fill="#C7D1DE"/>
<path d="M107.491 12.6751C107.084 12.2416 106.578 11.9141 106.016 11.7211C105.454 11.5282 104.853 11.4757 104.266 11.5681C104.046 11.6035 104.14 11.9371 104.359 11.9027C104.886 11.8254 105.425 11.8776 105.928 12.055C106.43 12.2323 106.883 12.5294 107.245 12.9206C107.397 13.0851 107.642 12.8393 107.491 12.6751Z" fill="#262626"/>
<path d="M107.42 12.4807C106.975 12.2009 106.59 11.8357 106.287 11.4061C105.984 10.9765 105.769 10.4911 105.655 9.97799C105.606 9.76009 105.272 9.85234 105.32 10.0702C105.447 10.6266 105.682 11.1524 106.012 11.6176C106.343 12.0827 106.762 12.4779 107.245 12.7805C107.436 12.8989 107.61 12.5988 107.421 12.48L107.42 12.4807Z" fill="#262626"/>
<path d="M108.506 15.9206C109.06 15.3097 108.739 14.1148 107.788 13.2517C106.838 12.3885 105.617 12.1839 105.063 12.7948C104.508 13.4056 104.829 14.6006 105.78 15.4637C106.731 16.3269 107.951 16.5314 108.506 15.9206Z" fill="#262626"/>
<path d="M110.514 13.7086C111.069 13.0978 110.747 11.9028 109.797 11.0397C108.846 10.1765 107.626 9.97197 107.071 10.5828C106.516 11.1937 106.838 12.3886 107.788 13.2517C108.739 14.1149 109.96 14.3195 110.514 13.7086Z" fill="#262626"/>
<path d="M134.572 3.63678C135.108 3.40056 135.579 3.0375 135.944 2.57885C136.31 2.12019 136.558 1.57966 136.668 1.00379C136.708 0.785534 136.374 0.691871 136.333 0.911538C136.234 1.44362 136.005 1.94312 135.668 2.36608C135.33 2.78904 134.893 3.12249 134.396 3.33706C134.357 3.36052 134.328 3.39857 134.317 3.44298C134.305 3.48739 134.311 3.5346 134.334 3.5744C134.358 3.61351 134.396 3.64187 134.44 3.6535C134.485 3.66514 134.532 3.65914 134.572 3.63678Z" fill="#0CBC8B"/>
<path d="M134.776 3.63186C135.189 3.30724 135.662 3.06738 136.168 2.92602C136.674 2.78467 137.203 2.74462 137.725 2.80816C137.946 2.83449 137.944 2.48723 137.725 2.46107C137.158 2.39724 136.584 2.44614 136.036 2.60497C135.488 2.76381 134.976 3.02943 134.531 3.38657C134.357 3.52583 134.604 3.76988 134.777 3.63186H134.776Z" fill="#0CBC8B"/>
<path d="M133.916 3.73368C135.046 3.12345 135.644 2.04028 135.252 1.31437C134.86 0.58845 133.626 0.494671 132.496 1.10491C131.367 1.71514 130.768 2.79831 131.161 3.52423C131.553 4.25014 132.786 4.34392 133.916 3.73368Z" fill="#0CBC8B"/>
<path d="M135.336 6.36234C136.466 5.75211 137.064 4.66894 136.672 3.94303C136.28 3.21711 135.046 3.12333 133.916 3.73357C132.786 4.3438 132.188 5.42697 132.58 6.15289C132.972 6.87881 134.206 6.97258 135.336 6.36234Z" fill="#0CBC8B"/>
<path d="M110.482 15.9174C113.079 18.7988 114.724 22.3757 115.202 26.1812C115.334 27.2487 115.372 28.3252 115.316 29.399C115.301 29.6893 115.765 29.6886 115.78 29.399C115.968 25.4701 114.936 21.5771 112.817 18.229C112.226 17.298 111.555 16.4179 110.81 15.5984C110.612 15.3803 110.285 15.7006 110.483 15.9177L110.482 15.9174Z" fill="#C7D1DE"/>
<path d="M122.381 17.4189C123.402 13.902 125.319 10.7168 127.94 8.18088C128.679 7.46552 129.47 6.80779 130.308 6.21336C130.538 6.0504 130.318 5.66541 130.086 5.83011C127.041 7.99633 124.614 10.9343 123.051 14.3484C122.614 15.3036 122.248 16.2903 121.957 17.3004C121.943 17.3565 121.952 17.4158 121.981 17.4656C122.01 17.5154 122.057 17.5518 122.112 17.5671C122.167 17.5825 122.226 17.5755 122.276 17.5478C122.326 17.52 122.364 17.4736 122.381 17.4184V17.4189Z" fill="#C7D1DE"/>
<path d="M139.921 13.0669C137.972 13.0493 135.899 13.6193 134.313 14.7467C133.383 15.39 132.646 16.2655 132.176 17.2829C131.606 18.5591 131.399 20.1445 131.808 21.4927C132.048 22.2199 132.481 22.8712 133.061 23.3803C133.641 23.8893 134.349 24.2376 135.111 24.3897C135.845 24.5227 136.602 24.4504 137.296 24.1812C137.968 23.9203 138.634 23.5083 138.847 22.7866C139.082 21.994 138.622 21.0936 138.003 20.6009C136.777 19.6244 135.004 19.6733 133.636 20.3196C132.568 20.8427 131.661 21.6348 131.007 22.6152C130.353 23.5955 129.975 24.729 129.912 25.8998C129.848 26.6397 129.946 27.3846 130.201 28.0837C130.312 28.3703 130.469 28.6374 130.667 28.8749C130.854 29.0976 131.176 28.7785 130.99 28.5574C130.604 28.1002 130.445 27.4711 130.386 26.8916C130.316 26.1785 130.369 25.4588 130.544 24.7631C130.908 23.3358 131.778 22.0828 132.997 21.2292C133.583 20.7988 134.258 20.5024 134.975 20.3617C135.69 20.2201 136.431 20.2965 137.101 20.5806C137.56 20.768 137.946 21.0953 138.203 21.5143C138.284 21.6539 138.347 21.8033 138.389 21.9588C138.405 22.0196 138.419 22.0819 138.431 22.1432C138.433 22.1568 138.446 22.2538 138.438 22.1863C138.441 22.2101 138.444 22.2336 138.445 22.2567C138.481 22.8224 138.118 23.2652 137.635 23.5303C137.036 23.8656 136.353 24.0296 135.664 24.004C134.958 23.9514 134.28 23.7122 133.701 23.3117C133.122 22.9113 132.665 22.3644 132.376 21.729C131.862 20.5097 132.003 18.9941 132.461 17.7759C132.833 16.8177 133.459 15.975 134.275 15.3357C135.687 14.2074 137.575 13.626 139.376 13.5277C139.557 13.5178 139.739 13.5137 139.921 13.5152C139.98 13.5129 140.036 13.4883 140.077 13.4464C140.118 13.4045 140.141 13.3487 140.141 13.2907C140.141 13.2326 140.118 13.1768 140.077 13.135C140.036 13.0931 139.98 13.0685 139.921 13.0662V13.0669Z" fill="#C7D1DE"/>
<path d="M172.514 149.814H154.167C150.978 145.619 145.387 137.158 149.001 133.544C150.644 131.904 152.451 133.464 154.133 136.262C153.556 130.779 154.133 125.541 157.948 124.012C161.422 122.622 162.974 126.821 163.574 132.454C165.282 129.25 167.533 126.995 170.468 127.174C174.666 127.424 173.653 133.023 171.197 139.223C173.06 137.807 175.008 137.108 176.906 137.731C180.88 139.033 177.168 144.609 172.514 149.814Z" fill="#2F6A1B"/>
</svg>
