<svg width="22" height="22" viewBox="0 0 22 22" fill="none" xmlns="http://www.w3.org/2000/svg">
<g id="ph:star-bold">
<path id="Vector" d="M20.8828 8.25421C20.7783 7.93395 20.582 7.65145 20.3183 7.44182C20.0546 7.2322 19.7351 7.10469 19.3995 7.07515L14.5011 6.65148L12.5847 2.08476C12.4529 1.7742 12.2325 1.50931 11.9512 1.3231C11.6699 1.13689 11.34 1.0376 11.0026 1.0376C10.6652 1.0376 10.3353 1.13689 10.0539 1.3231C9.77261 1.50931 9.5523 1.7742 9.42047 2.08476L7.50148 6.65148L2.60304 7.07515C2.26564 7.10309 1.94401 7.23005 1.67849 7.4401C1.41298 7.65015 1.21542 7.93394 1.11059 8.25586C1.00576 8.57778 0.998341 8.92348 1.08926 9.2496C1.18018 9.57572 1.36538 9.86773 1.62164 10.089L5.34445 13.3374L4.22726 18.1705C4.15065 18.4996 4.17274 18.844 4.29078 19.1607C4.40882 19.4773 4.61757 19.7521 4.89094 19.9507C5.1643 20.1493 5.49016 20.263 5.82775 20.2774C6.16535 20.2919 6.49972 20.2065 6.78906 20.0319L11 17.4744L15.2109 20.0319C15.5003 20.2062 15.8345 20.2914 16.172 20.2768C16.5094 20.2622 16.8351 20.1485 17.1083 19.9499C17.3815 19.7514 17.5901 19.4767 17.7082 19.1602C17.8262 18.8438 17.8483 18.4995 17.7719 18.1705L16.6547 13.3374L20.3775 10.089C20.6331 9.86692 20.8174 9.57433 20.9073 9.24791C20.9972 8.9215 20.9887 8.57581 20.8828 8.25421ZM15.1465 11.9169C14.9108 12.1219 14.7355 12.3873 14.6393 12.6845C14.5432 12.9818 14.5298 13.2996 14.6008 13.6038L15.5796 17.8423L11.8895 15.601C11.6215 15.4378 11.3138 15.3515 11 15.3515C10.6862 15.3515 10.3785 15.4378 10.1105 15.601L6.42039 17.8423L7.39922 13.6038C7.47015 13.2996 7.45683 12.9818 7.36068 12.6845C7.26453 12.3873 7.08919 12.1219 6.85351 11.9169L3.58015 9.06116L7.88906 8.6882C8.20109 8.66148 8.4998 8.54968 8.7527 8.36497C9.00559 8.18026 9.20297 7.92972 9.32336 7.64062L11 3.64538L12.6766 7.64062C12.797 7.92972 12.9944 8.18026 13.2473 8.36497C13.5002 8.54968 13.7989 8.66148 14.1109 8.6882L18.4198 9.06116L15.1465 11.9169Z" fill="#C3B2B5"/>
</g>
</svg>
