<svg width="18" height="18" viewBox="0 0 18 18" fill="none" xmlns="http://www.w3.org/2000/svg">
<g id="subway:refresh-time" clip-path="url(#clip0_221_52)">
<path id="Vector" d="M9 0C6.32461 0 3.92695 1.17422 2.28164 3.03047L0 0.748828V6.75H6.00117L3.88477 4.63359C5.11875 3.18164 6.94336 2.25 9 2.25C12.7266 2.25 15.75 5.26992 15.75 9C15.75 12.7301 12.7266 15.75 9 15.75C7.13672 15.75 5.44922 14.9941 4.22578 13.7742L2.63672 15.3633C4.26797 16.991 6.51797 18 9 18C13.9711 18 18 13.9711 18 9C18 4.02891 13.9711 0 9 0ZM8.25117 3.75117V9.75234H12.7512V8.25117H9.75234V3.75117H8.25117Z" fill="#C3B2B5"/>
</g>
<defs>
<clipPath id="clip0_221_52">
<rect width="18" height="18" fill="white"/>
</clipPath>
</defs>
</svg>
