<svg width="26" height="24" viewBox="0 0 26 24" fill="none" xmlns="http://www.w3.org/2000/svg">
<path d="M17.5331 2.83297C17.5331 1.26423 18.8065 0 20.366 0C21.9256 0 23.1898 1.26423 23.199 2.83297V8.57736C23.9292 8.77316 24.5744 9.20438 25.0345 9.80418C25.4947 10.404 25.7441 11.1388 25.7441 11.8948C25.7441 12.6508 25.4947 13.3856 25.0345 13.9854C24.5744 14.5852 23.9292 15.0164 23.199 15.2122V20.9659C23.199 21.7172 22.9005 22.4378 22.3693 22.9691C21.838 23.5004 21.1174 23.7988 20.366 23.7988C19.6147 23.7988 18.8941 23.5004 18.3628 22.9691C17.8315 22.4378 17.5331 21.7172 17.5331 20.9659V20.7518L12.0609 18.0591C11.4959 17.782 10.8968 17.5809 10.279 17.4611C9.83476 17.3802 9.38416 17.3395 8.93264 17.3393L8.92894 17.3301H7.38234V22.8834C7.38234 23.5017 6.88404 24 6.26576 24H3.8905C3.27222 24 2.77392 23.5017 2.77392 22.8834V17.3301H1.59274C0.712396 17.3301 0 16.638 0 15.789V8.00984C0 7.15165 0.710551 6.45955 1.59366 6.45955H9.01753C10.0729 6.44452 11.1123 6.19886 12.0627 5.73977L17.5331 3.04799V2.83297ZM4.6195 17.3301V22.1544H5.53676V17.3301H4.6195ZM16.195 5.81636L13.0723 7.35282L13.0658 7.35651C12.1504 7.7976 11.1649 8.09289 10.1507 8.22578V15.3488L10.2412 15.586C11.2249 15.7244 12.1846 16.0197 13.0778 16.458L16.195 17.9917V5.81636Z" fill="currentColor"/>
</svg>
