<svg width="17" height="16" viewBox="0 0 17 16" fill="none" xmlns="http://www.w3.org/2000/svg">
<path d="M8.28516 10.4C6.81316 10.4 6.68516 9.712 6.68516 9.6H5.08516C5.08516 10.336 5.61316 11.64 7.48516 11.936V12.8H9.08516V11.936C10.6852 11.664 11.4852 10.632 11.4852 9.6C11.4852 8.704 11.0692 7.2 8.28516 7.2C6.68516 7.2 6.68516 6.696 6.68516 6.4C6.68516 6.104 7.24516 5.6 8.28516 5.6C9.32516 5.6 9.39716 6.112 9.40516 6.4H11.0052C10.9943 5.855 10.7983 5.32992 10.4494 4.91116C10.1004 4.4924 9.61927 4.20491 9.08516 4.096V3.2H7.48516V4.072C5.88516 4.336 5.08516 5.368 5.08516 6.4C5.08516 7.296 5.50116 8.8 8.28516 8.8C9.88516 8.8 9.88516 9.344 9.88516 9.6C9.88516 9.856 9.38916 10.4 8.28516 10.4Z" fill="#E02424"/>
<path d="M0.285156 0V1.6H1.88516V15.2C1.88516 15.4122 1.96944 15.6157 2.11947 15.7657C2.2695 15.9157 2.47298 16 2.68516 16H13.8852C14.0973 16 14.3008 15.9157 14.4508 15.7657C14.6009 15.6157 14.6852 15.4122 14.6852 15.2V1.6H16.2852V0H0.285156ZM13.0852 14.4H3.48516V1.6H13.0852V14.4Z" fill="#E02424"/>
</svg>
