<svg width="90" height="89" viewBox="0 0 90 89" fill="none" xmlns="http://www.w3.org/2000/svg">
<path d="M45 61.1875L45 36.1562M45 36.1562L56.125 47.2812M45 36.1562L33.875 47.2812M25.5312 72.3125C16.315 72.3125 8.84375 64.8413 8.84375 55.625C8.84375 48.2345 13.6481 41.9661 20.304 39.7726C20.0839 38.6008 19.9688 37.392 19.9688 36.1562C19.9688 25.404 28.6852 16.6875 39.4375 16.6875C48.4533 16.6875 56.0378 22.8159 58.2524 31.1342C59.3342 30.7834 60.4887 30.5938 61.6875 30.5938C67.8317 30.5938 72.8125 35.5746 72.8125 41.7188C72.8125 43.0098 72.5926 44.2494 72.1882 45.4023C77.4306 47.3942 81.1562 52.4651 81.1562 58.4062C81.1562 66.0865 74.9302 72.3125 67.25 72.3125H25.5312Z" stroke="#1A56DB" stroke-width="1.5" stroke-linecap="round" stroke-linejoin="round"/>
</svg>
