<svg width="19" height="19" viewBox="0 0 19 19" fill="none" xmlns="http://www.w3.org/2000/svg">
    <path d="M0.5 9.5L2.5 7.5M2.5 7.5L9.5 0.5L16.5 7.5M2.5 7.5V17.5C2.5 18.0523 2.94772 18.5 3.5 18.5H6.5M16.5 7.5L18.5 9.5M16.5 7.5V17.5C16.5 18.0523 16.0523 18.5 15.5 18.5H12.5M6.5 18.5C7.05228 18.5 7.5 18.0523 7.5 17.5V13.5C7.5 12.9477 7.94772 12.5 8.5 12.5H10.5C11.0523 12.5 11.5 12.9477 11.5 13.5V17.5C11.5 18.0523 11.9477 18.5 12.5 18.5M6.5 18.5H12.5"
    stroke-linecap="round"
    stroke-linejoin="round"
    />
</svg>
