<svg width="34" height="24" viewBox="0 0 34 24" fill="none" xmlns="http://www.w3.org/2000/svg">
<path d="M0 0V1.27571H10.2057V2.55143H2.55143V3.82714H0V5.10285H8.92999V6.37857H2.55143V7.65428H0V8.92999H7.65428V10.2057H2.55143V11.4814H0V12.7571H6.37857V14.0328H2.55143V19.1357C2.55143 19.9011 3.06171 20.4114 3.82714 20.4114H5.10285C5.358 18.2427 7.27157 16.4644 9.56785 16.4644C11.8641 16.4644 13.7777 18.1151 14.0328 20.4114H17.86C18.6254 20.4114 19.1357 19.9011 19.1357 19.1357V1.27571C19.1357 0.510285 18.6254 0 17.86 0H0ZM21.6871 5.10285C20.9217 5.10285 20.4114 5.61314 20.4114 6.37857V19.1357C20.4114 19.7736 20.9217 20.4114 21.6871 20.4114C21.9423 18.2427 23.8558 16.4644 26.1521 16.4644C28.4484 16.4644 30.362 18.1151 30.6171 20.4114H31.8928C32.6583 20.4114 33.1686 19.9011 33.1686 19.1357V12.7571C33.1686 11.609 32.1314 10.2057 32.1314 10.2057L29.3414 6.37857C28.7036 5.61314 28.3208 5.10285 27.4278 5.10285H21.6871ZM24.2386 7.65428H27.3079C27.5631 7.65428 27.8271 7.89411 27.8271 7.89411L30.4972 11.6013C30.7524 11.9841 31.0164 12.3821 31.0164 12.6372H24.2386V7.65428ZM9.56785 18.0998C8.78632 18.1025 8.03754 18.4141 7.48479 18.9666C6.93204 19.5191 6.62015 20.2677 6.61713 21.0493C6.61982 21.831 6.93156 22.58 7.48434 23.1328C8.03713 23.6856 8.7861 23.9973 9.56785 24C10.3496 23.9973 11.0986 23.6856 11.6514 23.1328C12.2041 22.58 12.5159 21.831 12.5186 21.0493C12.5159 20.2675 12.2041 19.5186 11.6514 18.9658C11.0986 18.413 10.3496 18.1025 9.56785 18.0998ZM26.1521 18.0998C25.3706 18.1025 24.6218 18.4141 24.0691 18.9666C23.5163 19.5191 23.2044 20.2677 23.2014 21.0493C23.2041 21.831 23.5158 22.58 24.0686 23.1328C24.6214 23.6856 25.3704 23.9973 26.1521 24C26.9339 23.9973 27.6828 23.6856 28.2356 23.1328C28.7884 22.58 29.1002 21.831 29.1029 21.0493C29.1002 20.2675 28.7884 19.5186 28.2356 18.9658C27.6828 18.413 26.9339 18.1025 26.1521 18.0998Z" fill="currentColor"/>
</svg>
