<svg width="32" height="26" viewBox="0 0 32 26" fill="none" xmlns="http://www.w3.org/2000/svg">
<path d="M8.5 5.5C8.5 4.30653 8.97411 3.16193 9.81802 2.31802C10.6619 1.47411 11.8065 1 13 1H19.75C20.9435 1 22.0881 1.47411 22.932 2.31802C23.7759 3.16193 24.25 4.30653 24.25 5.5V7H8.5V5.5Z" stroke="currentColor" stroke-width="2" stroke-linecap="round" stroke-linejoin="round"/>
<path d="M1 13.75L15.6362 17.4092C15.8747 17.4692 16.1253 17.4692 16.3638 17.4092L31 13.75V23.5C31 23.8978 30.842 24.2794 30.5607 24.5607C30.2794 24.842 29.8978 25 29.5 25H2.5C2.10218 25 1.72064 24.842 1.43934 24.5607C1.15804 24.2794 1 23.8978 1 23.5V13.75Z" fill="currentColor" stroke="currentColor" stroke-width="2" stroke-linecap="round" stroke-linejoin="round"/>
<path d="M31 15.25V8.5C31 8.10218 30.842 7.72064 30.5607 7.43934C30.2794 7.15804 29.8978 7 29.5 7H2.5C2.10218 7 1.72064 7.15804 1.43934 7.43934C1.15804 7.72064 1 8.10218 1 8.5V15.25" stroke="currentColor" stroke-width="2" stroke-linecap="round" stroke-linejoin="round"/>
<path d="M17.875 12.25C17.875 12.7473 17.6775 13.2242 17.3258 13.5758C16.9742 13.9275 16.4973 14.125 16 14.125C15.5027 14.125 15.0258 13.9275 14.6742 13.5758C14.3225 13.2242 14.125 12.7473 14.125 12.25C14.125 11.7527 14.3225 11.2758 14.6742 10.9242C15.0258 10.5725 15.5027 10.375 16 10.375C16.4973 10.375 16.9742 10.5725 17.3258 10.9242C17.6775 11.2758 17.875 11.7527 17.875 12.25Z" fill="currentColor"/>
</svg>
