<svg width="32" height="32" viewBox="0 0 32 32" fill="none" xmlns="http://www.w3.org/2000/svg">
<path d="M11 17.25L14.75 21L21 12.25M31 16C31 18.1138 29.9506 19.9825 28.3444 21.1136C28.6801 23.049 28.1007 25.112 26.6062 26.6066C25.1117 28.101 23.0487 28.6804 21.1134 28.3448C19.9822 29.9508 18.1136 31 16 31C13.8864 31 12.0179 29.9509 10.8867 28.3449C8.95109 28.681 6.88759 28.1016 5.39284 26.6069C3.8981 25.1121 3.31875 23.0487 3.65477 21.113C2.04901 19.9819 1 18.1135 1 16C1 13.8865 2.0491 12.018 3.65496 10.8868C3.31912 8.95132 3.8985 6.88806 5.39312 5.39345C6.88775 3.89881 8.95105 3.31943 10.8866 3.65531C12.0177 2.04925 13.8863 1 16 1C18.1136 1 19.9822 2.04916 21.1133 3.65511C23.0489 3.31908 25.1124 3.89843 26.6072 5.39317C28.1019 6.88789 28.6812 8.95135 28.3452 10.887C29.951 12.0181 31 13.8865 31 16Z" stroke="#E74694" stroke-width="1.5" stroke-linecap="round" stroke-linejoin="round"/>
</svg>
