<svg width="32" height="32" viewBox="0 0 32 32" fill="none" xmlns="http://www.w3.org/2000/svg">
<path d="M16 6V26M11 21.303L12.4648 22.4017C14.4173 23.8661 17.583 23.8661 19.5356 22.4017C21.4881 20.9372 21.4881 18.5628 19.5356 17.0983C18.5592 16.366 17.2795 15.9999 15.9998 16C14.7916 16.0001 13.5837 15.634 12.6618 14.9017C10.8183 13.4372 10.8183 11.0629 12.6618 9.59839C14.5053 8.13393 17.4942 8.13393 19.3377 9.59839L20.0292 10.1477M31 16C31 24.2843 24.2843 31 16 31C7.71573 31 1 24.2843 1 16C1 7.71573 7.71573 1 16 1C24.2843 1 31 7.71573 31 16Z" stroke="#0E9F6E" stroke-width="1.5" stroke-linecap="round" stroke-linejoin="round"/>
</svg>
