<svg width="26" height="30" viewBox="0 0 26 30" fill="none" xmlns="http://www.w3.org/2000/svg">
<path d="M22.625 30C23.5201 30 24.3785 29.6444 25.0115 29.0115C25.6444 28.3786 26 27.5201 26 26.625L26 3.375C26 2.47989 25.6444 1.62145 25.0115 0.988514C24.3785 0.355579 23.5201 0 22.625 0L11.375 0C10.4853 -3.8147e-05 9.63162 0.351213 8.99958 0.977352C8.36755 1.60349 8.0083 2.45387 8 3.3435V5.6235C8 5.92187 8.11853 6.20802 8.32951 6.41899C8.54048 6.62997 8.82663 6.7485 9.125 6.7485C9.8045 6.7485 10.2335 6.933 10.529 7.1715C10.841 7.422 11.099 7.809 11.2955 8.355C11.705 9.4875 11.7485 10.98 11.7485 12.375C11.7485 12.6601 11.8568 12.9347 12.0515 13.143L12.299 13.4085C12.3797 13.4992 12.4648 13.5858 12.554 13.668C12.665 13.773 13.004 14.0955 14.3285 15.42C15.032 16.1235 15.4205 16.7175 15.548 17.172C15.5996 17.3294 15.6078 17.4978 15.572 17.6595C15.5155 17.846 15.4092 18.0135 15.2645 18.144C15.1344 18.2881 14.9674 18.3939 14.7815 18.45C14.6203 18.4859 14.4524 18.4776 14.2955 18.426C13.8425 18.2985 13.2485 17.907 12.545 17.2035C11.735 16.3935 10.9655 15.633 10.277 14.9535C9.137 13.8255 8.2175 12.9135 7.697 12.3585C7.49307 12.1421 7.21176 12.0152 6.91457 12.0057C6.61738 11.9961 6.32848 12.1045 6.11102 12.3073C5.89356 12.5101 5.76522 12.7907 5.75407 13.0879C5.74292 13.385 5.84985 13.6745 6.0515 13.893C6.69 14.5608 7.33959 15.2179 8 15.864V20.91L3.737 16.647C3.1055 16.014 2.7485 15.156 2.7485 14.262V1.125C2.7485 0.826632 2.62997 0.540482 2.41899 0.329504C2.20802 0.118526 1.92187 0 1.6235 0C1.32513 0 1.03898 0.118526 0.828005 0.329504C0.617027 0.540482 0.498501 0.826632 0.498501 1.125V14.2605C0.49856 14.9993 0.644175 15.7309 0.927029 16.4135C1.20988 17.096 1.62443 17.7162 2.147 18.2385L8 24.0915V26.6265C8.0004 27.5213 8.35615 28.3794 8.98904 29.012C9.62194 29.6446 10.4802 30 11.375 30H22.625ZM13.412 7.59C13.2665 7.188 13.079 6.789 12.836 6.417C13.4092 6.14174 13.893 5.71016 14.2316 5.17196C14.5702 4.63377 14.7499 4.01086 14.75 3.375V2.25H19.25V3.375C19.25 4.27011 19.6056 5.12855 20.2385 5.76149C20.8714 6.39442 21.7299 6.75 22.625 6.75H23.75L23.75 23.25H22.625C21.7299 23.25 20.8714 23.6056 20.2385 24.2385C19.6056 24.8714 19.25 25.7299 19.25 26.625V27.75H14.75V26.625C14.75 25.7299 14.3944 24.8714 13.7615 24.2385C13.1285 23.6056 12.2701 23.25 11.375 23.25H10.25L10.25 18.093L10.9535 18.795C11.75 19.5915 12.6755 20.307 13.685 20.592C14.2238 20.7516 14.7955 20.7645 15.341 20.6295C15.6789 20.5417 15.9995 20.3971 16.289 20.202C17.1371 20.3177 18.0006 20.2243 18.8042 19.9299C19.6079 19.6355 20.3275 19.149 20.9002 18.513C21.4729 17.8769 21.8814 17.1104 22.0901 16.2803C22.2988 15.4502 22.3014 14.5817 22.0976 13.7504C21.8939 12.9191 21.4899 12.1502 20.921 11.5107C20.3522 10.8712 19.6355 10.3805 18.8336 10.0813C18.0317 9.78215 17.1688 9.68358 16.32 9.7942C15.4713 9.90482 14.6625 10.2213 13.964 10.716C13.9085 9.69 13.769 8.5755 13.412 7.59ZM20 15C20.0001 15.6535 19.7869 16.2891 19.3927 16.8103C18.9985 17.3315 18.4448 17.7098 17.816 17.8875C17.8738 17.4437 17.8391 16.9927 17.714 16.563C17.4305 15.5535 16.7165 14.6265 15.9185 13.8285L14.921 12.8355C15.3452 12.4277 15.88 12.1537 16.4588 12.0475C17.0376 11.9414 17.6348 12.0078 18.1761 12.2385C18.7175 12.4692 19.179 12.854 19.5033 13.345C19.8276 13.836 20.0003 14.4116 20 15ZM23.75 26.625C23.75 26.9234 23.6315 27.2095 23.4205 27.4205C23.2095 27.6315 22.9234 27.75 22.625 27.75H21.5V26.625C21.5 26.3266 21.6185 26.0405 21.8295 25.8295C22.0405 25.6185 22.3266 25.5 22.625 25.5H23.75V26.625ZM12.5 27.75H11.375C11.0766 27.75 10.7905 27.6315 10.5795 27.4205C10.3685 27.2095 10.25 26.9234 10.25 26.625V25.5H11.375C11.6734 25.5 11.9595 25.6185 12.1705 25.8295C12.3815 26.0405 12.5 26.3266 12.5 26.625V27.75ZM10.25 4.5V3.375C10.25 3.07663 10.3685 2.79048 10.5795 2.5795C10.7905 2.36853 11.0766 2.25 11.375 2.25L12.5 2.25V3.375C12.5 3.67337 12.3815 3.95952 12.1705 4.1705C11.9595 4.38147 11.6734 4.5 11.375 4.5H10.25ZM21.5 2.25H22.625C22.9234 2.25 23.2095 2.36853 23.4205 2.5795C23.6315 2.79048 23.75 3.07663 23.75 3.375V4.5H22.625C22.3266 4.5 22.0405 4.38147 21.8295 4.1705C21.6185 3.95952 21.5 3.67337 21.5 3.375V2.25Z" fill="#3F83F8"/>
</svg>
