<svg width="32" height="32" viewBox="0 0 32 32" fill="none" xmlns="http://www.w3.org/2000/svg">
<path d="M7.81818 1H5.09091C2.83156 1 1 2.83156 1 5.09091V7.81818M24.1818 1H26.9091C29.1684 1 31 2.83156 31 5.09091V7.81818M31 24.1818V26.9091C31 29.1684 29.1684 31 26.9091 31H24.1818M7.81818 31H5.09091C2.83156 31 1 29.1684 1 26.9091V24.1818M21.4545 16C21.4545 19.0125 19.0125 21.4545 16 21.4545C12.9875 21.4545 10.5455 19.0125 10.5455 16C10.5455 12.9875 12.9875 10.5455 16 10.5455C19.0125 10.5455 21.4545 12.9875 21.4545 16Z" stroke="#3F83F8" stroke-width="1.5" stroke-linecap="round" stroke-linejoin="round"/>
</svg>
