<svg width="35" height="32" viewBox="0 0 35 32" fill="none" xmlns="http://www.w3.org/2000/svg">
<path d="M33.7273 16C33.7273 13.7407 31.8957 11.9091 29.6364 11.9091H22.8182C22.8182 14.9216 20.3761 17.3636 17.3636 17.3636C14.3512 17.3636 11.9091 14.9216 11.9091 11.9091H5.09091C2.83156 11.9091 1 13.7407 1 16M33.7273 16V26.9091C33.7273 29.1684 31.8957 31 29.6364 31H5.09091C2.83156 31 1 29.1684 1 26.9091V16M33.7273 16V10.5455M1 16V10.5455M33.7273 10.5455C33.7273 8.28611 31.8957 6.45455 29.6364 6.45455H5.09091C2.83156 6.45455 1 8.28611 1 10.5455M33.7273 10.5455V5.09091C33.7273 2.83156 31.8957 1 29.6364 1H5.09091C2.83156 1 1 2.83156 1 5.09091V10.5455" stroke="#6875F5" stroke-width="1.5" stroke-linecap="round" stroke-linejoin="round"/>
</svg>
