<svg width="32" height="32" viewBox="0 0 32 32" fill="none" xmlns="http://www.w3.org/2000/svg">
<path d="M20.0387 10.5194C19.1491 9.62969 17.5834 9.01188 16.1444 8.9725M16.1444 8.9725C14.4325 8.92656 12.8997 9.70188 12.8997 11.8169C12.8997 15.7112 20.0387 13.7641 20.0387 17.6584C20.0387 19.8803 18.1384 20.8347 16.1444 20.7625M16.1444 8.9725V6.625M12.25 18.9569C13.0872 20.0725 14.6425 20.7081 16.1444 20.7625M16.1444 20.7625V23.5" stroke="#E05252" stroke-width="2" stroke-linecap="round" stroke-linejoin="round"/>
<path d="M5.6875 1V28.0625C5.6875 29.1671 6.58293 30.0625 7.6875 30.0625H25.25C26.3546 30.0625 27.25 29.1671 27.25 28.0625V1" stroke="#E05252" stroke-width="2" stroke-linecap="round"/>
<path d="M1 1L31 1" stroke="#E05252" stroke-width="2" stroke-linecap="round"/>
</svg>
