<svg width="21" height="16" viewBox="0 0 21 16" fill="none" xmlns="http://www.w3.org/2000/svg">
<path d="M1 2.375C1 1.75368 1.50368 1.25 2.125 1.25H8.125C8.74632 1.25 9.25 1.75368 9.25 2.375V6.125C9.25 6.74632 8.74632 7.25 8.125 7.25H2.125C1.50368 7.25 1 6.74632 1 6.125V2.375Z" stroke="#6B7280" stroke-linecap="round" stroke-linejoin="round"/>
<path d="M13 3.875C13 3.25368 13.5037 2.75 14.125 2.75H19.375C19.9963 2.75 20.5 3.25368 20.5 3.875V12.125C20.5 12.7463 19.9963 13.25 19.375 13.25H14.125C13.5037 13.25 13 12.7463 13 12.125V3.875Z" stroke="#6B7280" stroke-linecap="round" stroke-linejoin="round"/>
<path d="M2.5 11.375C2.5 10.7537 3.00368 10.25 3.625 10.25H8.875C9.49632 10.25 10 10.7537 10 11.375V13.625C10 14.2463 9.49632 14.75 8.875 14.75H3.625C3.00368 14.75 2.5 14.2463 2.5 13.625V11.375Z" stroke="#6B7280" stroke-linecap="round" stroke-linejoin="round"/>
</svg>
