<svg width="50" height="50" viewBox="0 0 50 50" fill="none" xmlns="http://www.w3.org/2000/svg">
<path d="M17.0325 24.03C18.175 23.08 19.3275 23.08 20.4975 24.0575L20.7675 24.3025L33.2325 36.7675L33.4675 36.975C33.9485 37.3479 34.5491 37.5324 35.1565 37.4941C35.7639 37.4558 36.3365 37.1972 36.7668 36.7668C37.1972 36.3365 37.4558 35.7639 37.4941 35.1565C37.5324 34.5491 37.3479 33.9485 36.975 33.4675L36.7675 33.2325L33.5375 30L34.2675 29.2675L34.5325 29.03C35.675 28.08 36.8275 28.08 37.9975 29.0575L38.2675 29.3025L49.9525 40.99C49.7158 43.3707 48.6335 45.5876 46.9019 47.2385C45.1703 48.8893 42.9043 49.8647 40.515 49.9875L40 50H10C7.51977 49.9998 5.1281 49.078 3.2894 47.4135C1.45069 45.7489 0.296163 43.4605 0.05 40.9925L16.7675 24.2675L17.0325 24.03ZM40 0C42.5656 -2.00689e-06 45.0331 0.986088 46.892 2.75431C48.751 4.52253 49.8592 6.9376 49.9875 9.5L50 10V33.9625L41.7675 25.7325L41.3925 25.39C38.2525 22.6525 34.2675 22.6475 31.1525 25.3475L30.7675 25.6975L30 26.4625L24.2675 20.7325L23.8925 20.39C20.7525 17.6525 16.7675 17.6475 13.6525 20.3475L13.2675 20.6975L0 33.9625V10C-2.00689e-06 7.43439 0.986088 4.96693 2.75431 3.10797C4.52253 1.24901 6.9376 0.140781 9.5 0.0125003L10 0H40ZM32.525 12.5L32.2075 12.5175C31.5999 12.5898 31.0399 12.8824 30.6335 13.3399C30.2272 13.7974 30.0028 14.3881 30.0028 15C30.0028 15.6119 30.2272 16.2026 30.6335 16.6601C31.0399 17.1176 31.5999 17.4102 32.2075 17.4825L32.5 17.5L32.8175 17.4825C33.4251 17.4102 33.9851 17.1176 34.3915 16.6601C34.7978 16.2026 35.0222 15.6119 35.0222 15C35.0222 14.3881 34.7978 13.7974 34.3915 13.3399C33.9851 12.8824 33.4251 12.5898 32.8175 12.5175L32.525 12.5Z" fill="#6B7280"/>
</svg>
