<svg width="17" height="22" viewBox="0 0 17 22" fill="none" xmlns="http://www.w3.org/2000/svg">
<path d="M11.5958 4.84654C11.7074 4.73509 11.7959 4.60275 11.8563 4.45707C11.9167 4.31139 11.9478 4.15524 11.9478 3.99754C11.9478 3.83984 11.9167 3.68369 11.8563 3.53801C11.7959 3.39234 11.7074 3.25999 11.5958 3.14854L9.09584 0.648542C8.87067 0.423373 8.56528 0.296875 8.24684 0.296875C7.92841 0.296875 7.62301 0.423373 7.39784 0.648542C7.17267 0.873711 7.04618 1.17911 7.04618 1.49754C7.04618 1.81598 7.17267 2.12137 7.39784 2.34654L7.89384 2.84054C6.42307 2.99438 5.02127 3.54309 3.83688 4.42856C2.65249 5.31404 1.7296 6.50332 1.16593 7.87047C0.60226 9.23763 0.418793 10.7318 0.634956 12.1947C0.851119 13.6576 1.45887 15.0348 2.39384 16.1805C2.59514 16.4272 2.88618 16.5838 3.20293 16.6158C3.51968 16.6479 3.83619 16.5528 4.08284 16.3515C4.32949 16.1502 4.48608 15.8592 4.51815 15.5425C4.55022 15.2257 4.45514 14.9092 4.25384 14.6625C3.6128 13.877 3.18889 12.9371 3.02438 11.9366C2.85986 10.9361 2.9605 9.91001 3.31624 8.96055C3.67199 8.01109 4.27041 7.17148 5.05185 6.52542C5.83329 5.87937 6.77043 5.44945 7.76984 5.27854L7.39784 5.64854C7.17267 5.87371 7.04618 6.17911 7.04618 6.49754C7.04618 6.81598 7.17267 7.12137 7.39784 7.34654C7.62301 7.57171 7.92841 7.69821 8.24684 7.69821C8.56528 7.69821 8.87067 7.57171 9.09584 7.34654L11.5958 4.84654ZM12.9978 5.30654C12.883 5.4151 12.7908 5.54527 12.7264 5.68956C12.6621 5.83386 12.6268 5.98945 12.6227 6.1474C12.6186 6.30536 12.6458 6.46256 12.7026 6.60999C12.7594 6.75743 12.8448 6.89219 12.9538 7.00654C13.6772 7.76858 14.18 8.71282 14.4085 9.73838C14.637 10.7639 14.5826 11.8323 14.2512 12.8294C13.9197 13.8264 13.3236 14.7147 12.5266 15.3994C11.7295 16.084 10.7615 16.5393 9.72584 16.7165L10.0958 16.3465C10.321 16.1214 10.4475 15.816 10.4475 15.4975C10.4475 15.1791 10.321 14.8737 10.0958 14.6485C9.87067 14.4234 9.56528 14.2969 9.24684 14.2969C8.92841 14.2969 8.62301 14.4234 8.39784 14.6485L5.89784 17.1485C5.78627 17.26 5.69776 17.3923 5.63737 17.538C5.57698 17.6837 5.5459 17.8398 5.5459 17.9975C5.5459 18.1552 5.57698 18.3114 5.63737 18.4571C5.69776 18.6027 5.78627 18.7351 5.89784 18.8465L8.39784 21.3465C8.62301 21.5717 8.92841 21.6982 9.24684 21.6982C9.56528 21.6982 9.87067 21.5717 10.0958 21.3465C10.321 21.1214 10.4475 20.816 10.4475 20.4975C10.4475 20.1791 10.321 19.8737 10.0958 19.6485L9.59984 19.1525C11.1223 18.9931 12.5697 18.4107 13.7783 17.4713C14.9869 16.5318 15.9084 15.2728 16.4385 13.8367C16.9686 12.4007 17.0861 10.8449 16.7778 9.34548C16.4695 7.84608 15.7476 6.46291 14.6938 5.35254C14.4747 5.12189 14.173 4.98768 13.855 4.97943C13.5369 4.97118 13.2286 5.08756 12.9978 5.30654Z" fill="#046C4E"/>
</svg>
