<svg width="21" height="21" viewBox="0 0 21 21" fill="none" xmlns="http://www.w3.org/2000/svg">
<path d="M9.96 15.99C8.42063 15.9172 6.96846 15.2542 5.90514 14.1388C4.84181 13.0233 4.24905 11.5411 4.25 10C4.25 6.69 6.94 4 10.25 4C13.47 4 16.09 6.53 16.24 9.71L14.14 9.08C13.9766 8.38678 13.6309 7.74979 13.1389 7.23488C12.6468 6.71996 12.0261 6.34581 11.341 6.15108C10.6559 5.95636 9.93128 5.94814 9.24195 6.12728C8.55262 6.30641 7.92363 6.66639 7.42001 7.17001C6.91639 7.67363 6.55641 8.30262 6.37728 8.99195C6.19814 9.68128 6.20636 10.4059 6.40108 11.091C6.59581 11.7761 6.96996 12.3968 7.48488 12.8889C7.99979 13.3809 8.63678 13.7266 9.33 13.89L9.96 15.99ZM20.25 10C20.25 10.3 20.24 10.6 20.21 10.9L18.24 10.31C18.25 10.21 18.25 10.1 18.25 10C18.25 5.58 14.67 2 10.25 2C5.83 2 2.25 5.58 2.25 10C2.25 14.42 5.83 18 10.25 18C10.35 18 10.46 18 10.56 17.99L11.15 19.96C10.85 19.99 10.55 20 10.25 20C4.73 20 0.25 15.52 0.25 10C0.25 4.48 4.73 0 10.25 0C15.77 0 20.25 4.48 20.25 10ZM16.48 14.26L20.25 13L10.25 10L13.25 20L14.51 16.23L18.78 20.5L20.76 18.52L16.48 14.26Z" fill="#BF125D"/>
</svg>
