<svg width="19" height="20" viewBox="0 0 19 20" fill="none" xmlns="http://www.w3.org/2000/svg">
<path d="M18.5024 13.5767C18.2804 13.0185 17.988 12.4909 17.6324 12.0067C17.1787 11.4672 16.8721 10.8196 16.7424 10.1267C16.7424 7.2367 16.7424 6.2567 15.1624 4.3667C14.6388 3.74926 13.9915 3.24849 13.2624 2.8967L12.5324 2.5467C12.492 2.52125 12.4579 2.48708 12.4324 2.4467C12.4078 2.41799 12.3906 2.38364 12.3824 2.3467C12.2763 1.66037 11.9162 1.03895 11.3735 0.605557C10.8309 0.172166 10.1452 -0.0415682 9.45239 0.00670365C8.78195 -0.0203082 8.12449 0.196956 7.60216 0.618135C7.07982 1.03931 6.72812 1.63577 6.61239 2.2967C6.60142 2.34859 6.57732 2.39679 6.54239 2.4367C6.51739 2.46851 6.48691 2.4956 6.45239 2.5167L5.67239 2.8967C4.93612 3.24599 4.28444 3.75095 3.76239 4.3767C2.19239 6.2567 2.19239 7.2367 2.19239 10.1267C2.07598 10.7775 1.79353 11.3871 1.37239 11.8967C1.00436 12.3926 0.708105 12.938 0.492394 13.5167C0.357943 13.9064 0.311527 14.3211 0.356483 14.7309C0.401439 15.1407 0.536651 15.5354 0.752394 15.8867C0.980551 16.1774 1.27709 16.4072 1.61558 16.5555C1.95408 16.7038 2.324 16.766 2.69239 16.7367H5.51239C5.55539 17.0047 5.62939 17.2667 5.73239 17.5167C5.93039 18.0137 6.23039 18.4637 6.61239 18.8367C6.98239 19.2167 7.42839 19.5137 7.92239 19.7067C8.38239 19.8947 8.87539 19.9937 9.37239 19.9967H9.53239C10.5783 19.9897 11.5798 19.5733 12.3224 18.8367C12.6962 18.4619 12.9919 18.0166 13.1924 17.5267C13.2934 17.2717 13.3704 17.0067 13.4224 16.7367H16.3624C16.7085 16.7339 17.0498 16.6554 17.3624 16.5067C17.7136 16.3293 18.0158 16.0683 18.2424 15.7467C18.4684 15.4247 18.6064 15.0487 18.6424 14.6567C18.687 14.2907 18.6388 13.9193 18.5024 13.5767ZM12.5024 8.2967L9.69239 11.1267C9.57939 11.2507 9.43939 11.3467 9.28239 11.4067C9.12797 11.4743 8.96096 11.5084 8.79239 11.5067C8.62295 11.5078 8.45503 11.4747 8.29867 11.4094C8.14231 11.3441 8.00073 11.248 7.88239 11.1267L6.47239 9.7267C6.33194 9.58608 6.25305 9.39545 6.25305 9.1967C6.25305 8.99795 6.33194 8.80733 6.47239 8.6667C6.54134 8.59595 6.62376 8.53971 6.71478 8.50131C6.80581 8.46292 6.9036 8.44313 7.00239 8.44313C7.10119 8.44313 7.19898 8.46292 7.29001 8.50131C7.38103 8.53971 7.46345 8.59595 7.53239 8.6667L8.79239 9.9167L11.4724 7.2367C11.5411 7.16302 11.6239 7.10391 11.7159 7.06292C11.8079 7.02193 11.9072 6.99989 12.0079 6.99811C12.1086 6.99634 12.2086 7.01486 12.302 7.05258C12.3954 7.0903 12.4802 7.14645 12.5514 7.21767C12.6227 7.28888 12.6788 7.37372 12.7165 7.46711C12.7542 7.56049 12.7728 7.66052 12.771 7.76123C12.7692 7.86193 12.7472 7.96124 12.7062 8.05324C12.6652 8.14524 12.6061 8.22804 12.5324 8.2967H12.5024Z" fill="#8E4B10"/>
</svg>
