<svg width="27" height="24" viewBox="0 0 27 24" fill="none" xmlns="http://www.w3.org/2000/svg">
<path d="M22.096 15.6479C22.5585 14.5246 22.8096 13.322 22.8096 12.0005C22.8096 11.049 22.6643 10.1371 22.4132 9.29136C21.5542 9.48959 20.6555 9.59531 19.7172 9.59531C17.7957 9.59738 15.9018 9.13743 14.1953 8.25425C12.4887 7.37108 11.0195 6.09056 9.91148 4.52064C8.72733 7.38934 6.49099 9.6966 3.66064 10.9697C3.60778 11.3001 3.60778 11.6569 3.60778 12.0005C3.60778 13.2622 3.85629 14.5115 4.33911 15.6771C4.82193 16.8428 5.52962 17.9019 6.42176 18.7941C8.22352 20.5958 10.6672 21.608 13.2153 21.608C14.6029 21.608 15.9377 21.3041 17.1403 20.7622C17.8935 22.2027 18.2371 22.9163 18.2107 22.9163C16.0434 23.6432 14.365 24 13.2153 24C10.0172 24 6.96447 22.7445 4.71787 20.4847C3.35015 19.1235 2.33418 17.4498 1.75764 15.6083H0V9.59531H1.44047C1.87689 7.47097 2.88027 5.5044 4.34412 3.90426C5.80798 2.30413 7.67771 1.13013 9.75492 0.506828C11.8321 -0.116471 14.0393 -0.165814 16.1423 0.364034C18.2453 0.893882 20.1656 1.98316 21.6995 3.51627C23.3644 5.17556 24.5002 7.29094 24.9637 9.59531H26.4306V15.6083H26.3513L21.6467 19.9297L14.6426 19.1368V16.9298H21.0256L22.096 15.6479ZM9.60753 11.6965C10.004 11.6965 10.3872 11.8551 10.6648 12.1459C10.9437 12.427 11.1002 12.807 11.1002 13.2031C11.1002 13.5991 10.9437 13.9791 10.6648 14.2603C10.3872 14.5378 10.004 14.6964 9.60753 14.6964C8.77497 14.6964 8.10098 14.0357 8.10098 13.2031C8.10098 12.3705 8.77497 11.6965 9.60753 11.6965ZM16.8099 11.6965C17.6424 11.6965 18.3032 12.3705 18.3032 13.2031C18.3032 14.0357 17.6424 14.6964 16.8099 14.6964C15.9773 14.6964 15.3033 14.0357 15.3033 13.2031C15.3033 12.8035 15.4621 12.4203 15.7446 12.1378C16.0271 11.8553 16.4103 11.6965 16.8099 11.6965Z" fill="currentColor"/>
</svg>
