<svg width="15" height="19" viewBox="0 0 15 19" fill="none" xmlns="http://www.w3.org/2000/svg">
<path d="M4.5 14.5V12.5M7.5 14.5V10.5M10.5 14.5V8.5M12.5 18.5H2.5C1.96957 18.5 1.46086 18.2893 1.08579 17.9142C0.710714 17.5391 0.5 17.0304 0.5 16.5V2.5C0.5 1.96957 0.710714 1.46086 1.08579 1.08579C1.46086 0.710714 1.96957 0.5 2.5 0.5H8.086C8.3512 0.500057 8.60551 0.605451 8.793 0.793L14.207 6.207C14.3946 6.39449 14.4999 6.6488 14.5 6.914V16.5C14.5 17.0304 14.2893 17.5391 13.9142 17.9142C13.5391 18.2893 13.0304 18.5 12.5 18.5Z" stroke-linecap="round" stroke-linejoin="round"/>
</svg>
