<svg width="23" height="23" viewBox="0 0 23 23" fill="none" xmlns="http://www.w3.org/2000/svg">
<path d="M0.5 0.5H8.75V8.75H0.5V0.5ZM14.25 0.5H22.5V8.75H14.25V0.5ZM0.5 14.25H8.75V22.5H0.5V14.25ZM14.25 18.375C14.25 19.469 14.6846 20.5182 15.4582 21.2918C16.2318 22.0654 17.281 22.5 18.375 22.5C19.469 22.5 20.5182 22.0654 21.2918 21.2918C22.0654 20.5182 22.5 19.469 22.5 18.375C22.5 17.281 22.0654 16.2318 21.2918 15.4582C20.5182 14.6846 19.469 14.25 18.375 14.25C17.281 14.25 16.2318 14.6846 15.4582 15.4582C14.6846 16.2318 14.25 17.281 14.25 18.375Z" stroke="currentColor" stroke-linecap="round" stroke-linejoin="round"/>
</svg>
