<svg width="24" height="24" viewBox="0 0 24 24" fill="none" xmlns="http://www.w3.org/2000/svg">
<path fill-rule="evenodd" clip-rule="evenodd" d="M21.73 7.52567C21.547 7.52279 21.3368 7.51975 21.0989 7.51649C20.2528 5.40282 19.2513 3.54865 18.6258 2.46473C18.1116 1.57376 17.1631 1.06668 16.1674 1.06668H15.3795C15.1609 0.401465 14.5133 0.0419044 13.9034 0.0240376C13.4818 0.0116855 12.8565 0 12.0001 0C11.1437 0 10.5184 0.0116908 10.0968 0.0240376C9.48691 0.0419044 8.83933 0.401465 8.62066 1.06668H7.83282C6.83707 1.06668 5.88859 1.57376 5.37439 2.46473C4.7489 3.54865 3.74745 5.40282 2.90138 7.51649C2.6634 7.51975 2.45326 7.52279 2.27025 7.52567C1.55346 7.53687 0.412809 7.82636 0.112428 8.96456C0.0433391 9.22632 0 9.5268 0 9.86675C0 10.2067 0.0433391 10.5072 0.112428 10.7689C0.412804 11.9071 1.55346 12.1966 2.27025 12.2078C3.71234 12.2304 6.83846 12.2668 12.0001 12.2668C17.1618 12.2668 20.2879 12.2304 21.73 12.2078C22.4468 12.1966 23.5874 11.9071 23.8878 10.7689C23.9569 10.5072 24.0002 10.2067 24.0002 9.86675C24.0002 9.5268 23.9569 9.22632 23.8878 8.96456C23.5874 7.82636 22.4468 7.53687 21.73 7.52567ZM13.9034 3.70933C13.4818 3.72168 12.8565 3.73337 12.0001 3.73337C11.1437 3.73337 10.5184 3.72168 10.0968 3.70933C9.48691 3.69146 8.83933 3.3319 8.62066 2.66669H7.83282C7.37548 2.66669 6.97233 2.89691 6.76022 3.26448C6.21744 4.20497 5.38783 5.73605 4.64015 7.49692C6.36064 7.48087 8.78568 7.46673 12.0001 7.46673C15.2145 7.46673 17.6396 7.48087 19.3601 7.49692C18.6124 5.73605 17.7828 4.20497 17.24 3.26448C17.0279 2.89691 16.6247 2.66669 16.1674 2.66669H15.3795C15.1609 3.3319 14.5133 3.69146 13.9034 3.70933ZM1.93648 13.5231C1.94641 13.6002 1.95658 13.6784 1.96701 13.7577C2.22461 15.7161 2.63546 18.3221 3.24807 20.8912C3.61015 22.4096 4.87407 23.5339 6.432 23.7014C7.79484 23.8478 9.75102 24 12.0001 24C14.2491 24 16.2052 23.8478 17.5681 23.7014C19.126 23.5339 20.3899 22.4096 20.752 20.8912C21.3646 18.3221 21.7754 15.7161 22.033 13.7577C22.0435 13.6784 22.0536 13.6002 22.0636 13.5231C21.9492 13.5339 21.8439 13.5394 21.751 13.5408C20.3012 13.5635 17.1682 13.5999 12.0003 13.5999C6.83238 13.5999 3.6993 13.5635 2.24956 13.5408C2.15646 13.5394 2.05111 13.5339 1.93648 13.5231ZM7.62039 15.475C8.05778 15.4125 8.46301 15.7164 8.52546 16.1538L9.0588 19.8872C9.12131 20.3246 8.81736 20.7298 8.37997 20.7922C7.94258 20.8547 7.53735 20.5508 7.47489 20.1134L6.94156 16.38C6.87905 15.9426 7.183 15.5374 7.62039 15.475ZM15.4748 16.1538C15.5372 15.7164 15.9424 15.4125 16.3798 15.475C16.8172 15.5374 17.1212 15.9426 17.0587 16.38L16.5253 20.1134C16.4629 20.5508 16.0576 20.8547 15.6202 20.7922C15.1829 20.7298 14.8789 20.3246 14.9414 19.8872L15.4748 16.1538ZM12.0001 15.4668C12.4419 15.4668 12.8001 15.825 12.8001 16.2668V20.0002C12.8001 20.442 12.4419 20.8002 12.0001 20.8002C11.5583 20.8002 11.2001 20.442 11.2001 20.0002V16.2668C11.2001 15.825 11.5583 15.4668 12.0001 15.4668Z" fill="currentColor"/>
</svg>
