<svg width="22" height="24" viewBox="0 0 22 24" fill="none" xmlns="http://www.w3.org/2000/svg">
<path d="M10.1329 24V12.4175L0 6.55798V16.907C0 17.2979 0.0968252 17.6613 0.290475 17.9973C0.483225 18.3333 0.750282 18.599 1.09165 18.7944L10.1329 24ZM11.4839 24L20.5251 18.7958C20.8674 18.6003 21.1349 18.3346 21.3276 17.9986C21.5204 17.6618 21.6168 17.2979 21.6168 16.907V6.55798L11.4839 12.4175V24ZM16.4382 7.9955L20.8656 5.45553L11.9 0.294528C11.5578 0.098176 11.1939 0 10.8084 0C10.4229 0 10.059 0.098176 9.71673 0.294528L6.45125 2.17789L16.4382 7.9955ZM10.8084 11.2556L15.0871 8.7764L5.05562 2.97771L0.770097 5.43796L10.8084 11.2556Z" fill="currentColor"/>
</svg>
