<svg width="26" height="24" viewBox="0 0 26 24" fill="none" xmlns="http://www.w3.org/2000/svg">
<path d="M13.8886 0.14028C14.8626 0.667123 15.6709 1.35327 16.5107 2.07356C17.0012 2.47919 17.492 2.88441 17.9832 3.28926C18.2344 3.4989 18.4856 3.70854 18.7445 3.92454C19.529 4.56314 20.33 5.16936 21.1434 5.76997C21.4031 5.964 21.6629 6.15803 21.9305 6.35794C22.4313 6.73081 22.935 7.09973 23.4418 7.46421C25.1198 8.73568 25.1198 8.73568 25.3333 10.0335C25.1597 10.872 25.1597 10.872 24.8466 11.1876C24.1162 11.2005 23.3854 11.201 22.655 11.1876C22.632 11.6356 22.632 11.6356 22.6085 12.0926C22.4773 14.4979 22.3047 16.8984 22.0679 19.2955C22.0368 19.6522 22.0368 19.6522 22.0051 20.016C21.8606 21.3945 21.6144 22.3874 20.7765 23.4975C20.0312 23.8731 19.5565 23.861 18.7245 23.874C18.4287 23.879 18.133 23.8841 17.8282 23.8893C16.4749 23.9034 15.1217 23.9163 13.7684 23.9236C13.0544 23.9288 12.3405 23.9374 11.6266 23.9495C10.5978 23.9668 9.56937 23.9737 8.54045 23.9783C8.22177 23.9855 7.90309 23.9926 7.57476 24C6.13545 23.9957 5.36002 23.9764 4.14823 23.1443C3.46056 22.087 3.30612 21.4005 3.19843 20.145C3.16109 19.7457 3.12376 19.3463 3.0853 18.9349C3.05362 18.5201 3.02194 18.1053 2.98929 17.6779C2.95156 17.2643 2.91382 16.8507 2.87495 16.4246C2.72023 14.6732 2.59718 12.9467 2.61751 11.1876C2.08477 11.1974 2.08477 11.1974 1.54127 11.2073C0.425906 11.1876 0.425906 11.1876 0.112821 10.872C-0.037607 10.0188 -0.037607 10.0188 0.112821 8.97813C0.712938 8.24494 1.44682 7.71978 2.20658 7.16322C2.41849 7.00062 2.6304 6.83802 2.84873 6.6705C3.28613 6.33551 3.72538 6.00297 4.16642 5.67288C4.94202 5.09071 5.70534 4.4937 6.46824 3.8948C6.96998 3.50265 7.47528 3.11566 7.98154 2.72949C8.53061 2.30416 9.07253 1.86895 9.60078 1.41763C9.80823 1.24348 10.0157 1.06934 10.2294 0.889919C10.3961 0.74263 10.5628 0.595341 10.7345 0.443588C11.7962 -0.052277 12.7639 -0.0997821 13.8886 0.14028ZM10.1316 10.872C9.17198 11.8071 8.93113 12.6938 8.87922 14.0283C9.33216 15.4463 9.72434 16.4866 11.0708 17.1847C12.2941 17.5684 12.8717 17.5256 14.1038 17.1255C15.4616 16.3765 15.899 15.8779 16.3541 14.4032C16.405 13.0959 16.0734 12.3289 15.454 11.1876C13.8252 9.48888 12.0489 9.81432 10.1316 10.872Z" fill="currentColor"/>
</svg>
